<svg id="Grupo_1072914" data-name="Grupo 1072914" xmlns="http://www.w3.org/2000/svg" xmlns:xlink="http://www.w3.org/1999/xlink" width="126.729" height="118.057" viewBox="0 0 126.729 118.057">
  <defs>
    <clipPath id="clip-path">
      <path id="Trazado_819313" data-name="Trazado 819313" d="M17.313,69.967c0,32.6,28.37,59.029,63.365,59.029s63.364-26.428,63.364-59.029S115.674,10.939,80.678,10.939,17.313,37.367,17.313,69.967" transform="translate(-17.313 -10.939)" fill="none"/>
    </clipPath>
  </defs>
  <g id="Grupo_1072913" data-name="Grupo 1072913" transform="translate(0 0)" clip-path="url(#clip-path)">
    <path id="Trazado_819307" data-name="Trazado 819307" d="M140.16,28.8,116.352,6.619,93.937,27.5,71.4,6.5,47.841,28.445,24.539,6.738,3.49,26.347,0,23.1,24.539.236l23.3,21.705L71.4,0,93.937,21,116.352.117,140.16,22.3,162.476,1.508l3.491,3.25Z" transform="translate(-24.802 -14.599)" fill="#fff"/>
    <path id="Trazado_819308" data-name="Trazado 819308" d="M140.16,45.594,116.352,23.416,93.937,44.3,71.4,23.3,47.841,45.24l-23.3-21.707L3.49,43.144,0,39.891l24.539-22.86,23.3,21.707L71.4,16.8l22.542,21,22.414-20.881L140.16,39.092,162.476,18.3l3.491,3.25Z" transform="translate(-24.802 -8.98)" fill="#fff"/>
    <path id="Trazado_819309" data-name="Trazado 819309" d="M140.16,62.389,116.352,40.211,93.937,61.092l-22.542-21L47.841,62.035l-23.3-21.707L3.49,59.939,0,56.686l24.539-22.86,23.3,21.707L71.4,33.59l22.542,21,22.414-20.881L140.16,55.887,162.476,35.1l3.491,3.251Z" transform="translate(-24.802 -3.361)" fill="#fff"/>
    <path id="Trazado_819310" data-name="Trazado 819310" d="M140.16,79.185,116.352,57.006,93.937,77.887l-22.542-21L47.841,78.831l-23.3-21.708L3.49,76.733,0,73.482l24.539-22.86,23.3,21.707L71.4,50.387l22.542,21L116.352,50.5,140.16,72.683l22.316-20.79,3.491,3.251Z" transform="translate(-24.802 2.259)" fill="#fff"/>
    <path id="Trazado_819311" data-name="Trazado 819311" d="M140.16,95.98,116.352,73.8,93.937,94.682l-22.542-21L47.841,95.627,24.539,73.92,3.49,93.53,0,90.279,24.539,67.418l23.3,21.707L71.4,67.182l22.542,21L116.352,67.3,140.16,89.48l22.316-20.79,3.491,3.251Z" transform="translate(-24.802 7.878)" fill="#fff"/>
    <path id="Trazado_819312" data-name="Trazado 819312" d="M140.16,112.776,116.352,90.6,93.937,111.478,71.4,90.48,47.841,112.422l-23.3-21.707L3.49,110.325,0,107.073l24.539-22.86,23.3,21.707L71.4,83.977l22.542,21L116.352,84.1l23.808,22.178,22.316-20.789,3.491,3.251Z" transform="translate(-24.802 13.497)" fill="#fff"/>
  </g>
</svg>
