<svg xmlns="http://www.w3.org/2000/svg" width="470.092" height="191.926" viewBox="0 0 470.092 191.926">
  <g id="Grupo_1084967" data-name="Grupo 1084967" transform="translate(-836.022 -18975)">
    <path id="Trazado_830670" data-name="Trazado 830670" d="M13.341,17,15.309,5.625l3.617.008a5.273,5.273,0,0,1,3.2.813A2.459,2.459,0,0,1,23.083,8.7a2.823,2.823,0,0,1-1.969,2.547,1.929,1.929,0,0,1,1.035.848,2.477,2.477,0,0,1,.316,1.473,3.271,3.271,0,0,1-1.3,2.539A5.336,5.336,0,0,1,17.9,17Zm3.516-4.836-.477,2.719,1.6.008a2.044,2.044,0,0,0,1.25-.37,1.454,1.454,0,0,0,.594-.985q.219-1.3-1-1.363Zm.3-1.8,1.258.008q1.742-.039,1.953-1.34.188-1.285-1.328-1.293l-1.422-.008Zm11.375,5.711a2.8,2.8,0,0,1-2.281,1.086,2.215,2.215,0,0,1-1.871-.867,3.2,3.2,0,0,1-.488-2.281l.914-5.469h2.57l-.93,5.507a1.835,1.835,0,0,0,0,.415.68.68,0,0,0,.758.665,1.661,1.661,0,0,0,1.383-.641l1.047-5.945h2.586L30.755,17H28.364Zm8.367-1.5q.1-.516-.8-.773l-.555-.141a4.272,4.272,0,0,1-1.992-1.008,2,2,0,0,1-.594-1.539,2.452,2.452,0,0,1,1.082-1.98,4.118,4.118,0,0,1,2.543-.746,3.815,3.815,0,0,1,2.418.758,2.472,2.472,0,0,1,.941,2l-2.562-.008q.031-1-.883-1a1.259,1.259,0,0,0-.727.23.9.9,0,0,0-.4.613q-.133.633,1.117.867a6.493,6.493,0,0,1,1.68.6,2.508,2.508,0,0,1,.906.84,2.089,2.089,0,0,1,.289,1.2,2.259,2.259,0,0,1-.5,1.367,3.238,3.238,0,0,1-1.379.961,4.939,4.939,0,0,1-1.957.336,3.972,3.972,0,0,1-1.7-.383,3.03,3.03,0,0,1-1.227-1.02,2.648,2.648,0,0,1-.457-1.48l2.391.016A.987.987,0,0,0,35.669,15.4a1.477,1.477,0,0,0,.813-.215A.929.929,0,0,0,36.9,14.578ZM42.88,17H40.3L41.77,8.547h2.578ZM42,6.414a1.192,1.192,0,0,1,.4-.953,1.444,1.444,0,0,1,1.012-.383,1.491,1.491,0,0,1,1,.344,1.172,1.172,0,0,1,.418.9,1.194,1.194,0,0,1-.4.957,1.449,1.449,0,0,1-1.016.379,1.51,1.51,0,0,1-1-.34A1.158,1.158,0,0,1,42,6.414Zm6.328,2.125-.18,1.016a3,3,0,0,1,2.445-1.172,2.018,2.018,0,0,1,1.746.871,3.646,3.646,0,0,1,.418,2.426L51.864,17H49.286l.9-5.342a2.763,2.763,0,0,0,.016-.5q-.055-.743-.875-.743a1.606,1.606,0,0,0-1.242.6L47.028,17h-2.57l1.469-8.453Zm9.219,8.617a3.929,3.929,0,0,1-2.02-.535,3.372,3.372,0,0,1-1.34-1.469,3.946,3.946,0,0,1-.359-2.074l.023-.219a5.182,5.182,0,0,1,1.449-3.3,4.009,4.009,0,0,1,3.035-1.168,3.269,3.269,0,0,1,1.859.552,3.082,3.082,0,0,1,1.133,1.479,4.529,4.529,0,0,1,.234,2.117l-.148,1.072H56.38a1.648,1.648,0,0,0,.375,1.078,1.377,1.377,0,0,0,1.047.438,2.66,2.66,0,0,0,2.008-.859l1.078,1.426a3.181,3.181,0,0,1-1.332,1.064,4.678,4.678,0,0,1-1.871.4Zm.625-6.734a1.322,1.322,0,0,0-.949.342,2.87,2.87,0,0,0-.7,1.2h2.57l.047-.225a1.715,1.715,0,0,0,.016-.513A.9.9,0,0,0,58.169,10.422Zm8.469,4.156q.1-.516-.8-.773l-.555-.141a4.272,4.272,0,0,1-1.992-1.008,2,2,0,0,1-.594-1.539,2.452,2.452,0,0,1,1.082-1.98,4.118,4.118,0,0,1,2.543-.746,3.815,3.815,0,0,1,2.418.758,2.472,2.472,0,0,1,.941,2l-2.562-.008q.031-1-.883-1a1.259,1.259,0,0,0-.727.23.9.9,0,0,0-.4.613q-.133.633,1.117.867a6.493,6.493,0,0,1,1.68.6,2.508,2.508,0,0,1,.906.84,2.089,2.089,0,0,1,.289,1.2,2.259,2.259,0,0,1-.5,1.367,3.238,3.238,0,0,1-1.379.961,4.939,4.939,0,0,1-1.957.336,3.972,3.972,0,0,1-1.7-.383,3.03,3.03,0,0,1-1.227-1.02,2.648,2.648,0,0,1-.457-1.48l2.391.016A.987.987,0,0,0,65.4,15.4a1.477,1.477,0,0,0,.813-.215A.929.929,0,0,0,66.637,14.578Zm8.031,0q.1-.516-.8-.773l-.555-.141a4.272,4.272,0,0,1-1.992-1.008,2,2,0,0,1-.594-1.539,2.452,2.452,0,0,1,1.082-1.98,4.118,4.118,0,0,1,2.543-.746,3.815,3.815,0,0,1,2.418.758,2.472,2.472,0,0,1,.941,2l-2.562-.008q.031-1-.883-1a1.259,1.259,0,0,0-.727.23.9.9,0,0,0-.4.613q-.133.633,1.117.867a6.493,6.493,0,0,1,1.68.6,2.508,2.508,0,0,1,.906.84,2.089,2.089,0,0,1,.289,1.2,2.259,2.259,0,0,1-.5,1.367,3.238,3.238,0,0,1-1.379.961,4.939,4.939,0,0,1-1.957.336,3.972,3.972,0,0,1-1.7-.383,3.03,3.03,0,0,1-1.227-1.02,2.648,2.648,0,0,1-.457-1.48l2.391.016A.987.987,0,0,0,73.434,15.4a1.477,1.477,0,0,0,.813-.215A.929.929,0,0,0,74.669,14.578Zm15.078-2.109H85.458L84.669,17H82L83.966,5.625h7.4L91,7.742H86.278l-.453,2.617h4.289ZM94.942,17a2.292,2.292,0,0,1-.109-.766,2.608,2.608,0,0,1-2.07.922,2.548,2.548,0,0,1-1.828-.734,2.207,2.207,0,0,1-.68-1.742A2.48,2.48,0,0,1,91.4,12.566a5.415,5.415,0,0,1,3.031-.738l.859.016.094-.477.031-.414a.671.671,0,0,0-.711-.734.988.988,0,0,0-1.039.93l-2.578.008a2.448,2.448,0,0,1,.555-1.48,3.288,3.288,0,0,1,1.4-.969,4.9,4.9,0,0,1,1.887-.316,3.778,3.778,0,0,1,1.684.4A2.506,2.506,0,0,1,97.7,9.848a2.694,2.694,0,0,1,.273,1.559l-.633,3.977-.039.484a2.135,2.135,0,0,0,.148.984L97.442,17Zm-1.469-1.7a1.658,1.658,0,0,0,1.383-.7l.258-1.359-.664-.008a1.75,1.75,0,0,0-1.062.363,1.378,1.378,0,0,0-.523.949.692.692,0,0,0,.121.527A.619.619,0,0,0,93.473,15.3Zm8.93-.172a1.106,1.106,0,0,0,.867-.306,1.526,1.526,0,0,0,.4-.834l2.406-.008a3.163,3.163,0,0,1-.551,1.664,3.328,3.328,0,0,1-1.359,1.137,4.019,4.019,0,0,1-1.832.379,3.173,3.173,0,0,1-2.6-1.215,4.2,4.2,0,0,1-.742-3.059l.023-.187a5.663,5.663,0,0,1,.719-2.27,4.112,4.112,0,0,1,1.52-1.527,3.941,3.941,0,0,1,2.105-.508,3.143,3.143,0,0,1,2.332.941,3.338,3.338,0,0,1,.824,2.457l-2.406-.008q.039-1.336-.961-1.359-1.359-.047-1.562,2.281l-.07.794-.008.3Q101.5,15.1,102.4,15.125ZM109.341,17h-2.578l1.469-8.453h2.578Zm-.883-10.586a1.192,1.192,0,0,1,.4-.953,1.444,1.444,0,0,1,1.012-.383,1.491,1.491,0,0,1,1,.344,1.172,1.172,0,0,1,.418.9,1.194,1.194,0,0,1-.4.957,1.449,1.449,0,0,1-1.016.379,1.51,1.51,0,0,1-1-.34A1.158,1.158,0,0,1,108.458,6.414Zm6.328,2.125-.18,1.016a3,3,0,0,1,2.445-1.172,2.018,2.018,0,0,1,1.746.871,3.646,3.646,0,0,1,.418,2.426L118.325,17h-2.578l.9-5.342a2.763,2.763,0,0,0,.016-.5q-.055-.743-.875-.743a1.606,1.606,0,0,0-1.242.6L113.489,17h-2.57l1.469-8.453Zm5.453,4.219a6.423,6.423,0,0,1,.7-2.3,4.057,4.057,0,0,1,1.379-1.559,3.32,3.32,0,0,1,1.875-.512,2.308,2.308,0,0,1,1.922.914l.273-.758,2.375.008-1.383,8.125a3.971,3.971,0,0,1-1.508,2.711,4.8,4.8,0,0,1-3.172.945,4.529,4.529,0,0,1-1.633-.336,3.518,3.518,0,0,1-1.352-.969l1.219-1.516a2.213,2.213,0,0,0,1.766.883,2.066,2.066,0,0,0,2.172-1.82l.063-.258a2.643,2.643,0,0,1-1.93.844,2.606,2.606,0,0,1-1.43-.41,2.7,2.7,0,0,1-.969-1.16,4.512,4.512,0,0,1-.4-1.687A7.336,7.336,0,0,1,120.239,12.758Zm2.539.836a2.05,2.05,0,0,0,.258,1.117.874.874,0,0,0,.75.414,1.718,1.718,0,0,0,1.32-.562l.664-3.586a1.139,1.139,0,0,0-1.047-.562,1.5,1.5,0,0,0-1.258.637,3.432,3.432,0,0,0-.641,1.715Q122.778,13.258,122.778,13.594Z" transform="translate(995.469 19008.402)" fill="#273a89"/>
    <path id="Trazado_830674" data-name="Trazado 830674" d="M0,0H219.661V129.851H0Z" transform="translate(841.469 19036.924)" fill="#273a89"/>
    <path id="Trazado_830667" data-name="Trazado 830667" d="M0,0H231.971V129.851H0Z" transform="translate(1056.029 19036.924)" fill="#4d6828"/>
    <path id="Trazado_830673" data-name="Trazado 830673" d="M68.031,10.6H63.984L63.219,15H61.934l1.729-9.953h5.988L69.46,6.12h-4.7l-.588,3.411h4.054Zm5.831,3.664a2.856,2.856,0,0,1-2.208.868,1.843,1.843,0,0,1-1.569-.759,2.9,2.9,0,0,1-.379-2L70.5,7.6h1.237l-.8,4.8a3.187,3.187,0,0,0-.014.588,1.223,1.223,0,0,0,.294.772,1,1,0,0,0,.725.3,2.219,2.219,0,0,0,2.051-1.073l.93-5.387h1.237L74.874,15H73.705ZM79.174,7.6,79,8.533a2.916,2.916,0,0,1,2.27-1.066,1.835,1.835,0,0,1,1.545.725,2.815,2.815,0,0,1,.369,1.962L82.373,15H81.136l.813-4.862a2.592,2.592,0,0,0,.007-.621,1.022,1.022,0,0,0-1.128-.976,2.329,2.329,0,0,0-1.955,1.188L77.957,15H76.72L78,7.6Zm8.23,6.515a1.877,1.877,0,0,0,1.2-.386,1.837,1.837,0,0,0,.7-1.049l1.169-.007a2.637,2.637,0,0,1-.557,1.271,3.22,3.22,0,0,1-2.56,1.2,2.64,2.64,0,0,1-1.562-.482,2.7,2.7,0,0,1-.94-1.306,4.35,4.35,0,0,1-.205-1.883l.034-.342A4.9,4.9,0,0,1,85.3,9.217a3.6,3.6,0,0,1,1.285-1.309,3.192,3.192,0,0,1,1.75-.441,2.5,2.5,0,0,1,1.859.779,2.7,2.7,0,0,1,.7,1.907l-1.155-.007a1.775,1.775,0,0,0-.4-1.172A1.406,1.406,0,0,0,88.279,8.5a1.972,1.972,0,0,0-1.6.718,3.76,3.76,0,0,0-.8,2.064l-.021.178a5.929,5.929,0,0,0-.014.9,2.061,2.061,0,0,0,.451,1.265A1.449,1.449,0,0,0,87.4,14.111Zm7.321-8.3L94.411,7.6h1.347l-.171.978h-1.34l-.772,4.6a1.6,1.6,0,0,0-.007.328.521.521,0,0,0,.581.533,3.544,3.544,0,0,0,.6-.068l-.1,1.032a3.366,3.366,0,0,1-.9.123,1.292,1.292,0,0,1-1.107-.543,2.1,2.1,0,0,1-.287-1.425l.752-4.58H91.7l.171-.978h1.306L93.5,5.813ZM97.3,15h-1.23l1.285-7.4h1.23ZM98.321,4.9a.677.677,0,0,1,.523.188.7.7,0,0,1,.208.53.73.73,0,0,1-.731.745.682.682,0,0,1-.526-.185.669.669,0,0,1-.2-.52.775.775,0,0,1,.205-.533A.723.723,0,0,1,98.321,4.9Zm5.113,2.563a2.666,2.666,0,0,1,1.593.506,2.875,2.875,0,0,1,.981,1.357,4.2,4.2,0,0,1,.215,1.89l-.014.15a4.975,4.975,0,0,1-.643,1.952,3.77,3.77,0,0,1-1.326,1.357,3.234,3.234,0,0,1-1.784.458,2.671,2.671,0,0,1-1.589-.506,2.809,2.809,0,0,1-.974-1.34,4.315,4.315,0,0,1-.219-1.866A5.04,5.04,0,0,1,100.3,9.36a3.858,3.858,0,0,1,1.336-1.418A3.2,3.2,0,0,1,103.435,7.467Zm-2.516,3.965a4.2,4.2,0,0,0,0,.9,2.194,2.194,0,0,0,.482,1.285,1.447,1.447,0,0,0,1.1.5,1.971,1.971,0,0,0,1.135-.3,2.554,2.554,0,0,0,.875-.981,4.131,4.131,0,0,0,.458-1.456,6.557,6.557,0,0,0,.021-1.06,2.277,2.277,0,0,0-.5-1.306,1.479,1.479,0,0,0-1.107-.506,2.016,2.016,0,0,0-1.627.752,3.715,3.715,0,0,0-.827,2.023ZM109.594,7.6l-.178.937a2.916,2.916,0,0,1,2.27-1.066,1.835,1.835,0,0,1,1.545.725,2.815,2.815,0,0,1,.369,1.962L112.793,15h-1.237l.813-4.862a2.592,2.592,0,0,0,.007-.621,1.022,1.022,0,0,0-1.128-.976,2.329,2.329,0,0,0-1.955,1.188L108.377,15H107.14l1.285-7.4Zm9.632,7.4a1.657,1.657,0,0,1-.048-.39l.021-.39a3.032,3.032,0,0,1-2.16.916,2.21,2.21,0,0,1-1.589-.619A1.872,1.872,0,0,1,114.892,13a2.277,2.277,0,0,1,1.029-1.835,4.38,4.38,0,0,1,2.526-.66l1.292.007.082-.588a1.352,1.352,0,0,0-.256-1.049,1.237,1.237,0,0,0-.974-.4,1.908,1.908,0,0,0-1.125.311,1.324,1.324,0,0,0-.6.858l-1.244.007a1.983,1.983,0,0,1,.506-1.152,2.943,2.943,0,0,1,1.142-.779,3.688,3.688,0,0,1,1.442-.263,2.452,2.452,0,0,1,1.8.7,2.173,2.173,0,0,1,.54,1.788l-.6,3.664-.034.526a2.58,2.58,0,0,0,.082.745l-.014.116Zm-1.941-.957a2.158,2.158,0,0,0,1.125-.284,2.847,2.847,0,0,0,.913-.824l.267-1.524-.937-.007a3.547,3.547,0,0,0-1.791.369,1.36,1.36,0,0,0-.7,1.046,1.059,1.059,0,0,0,.243.865A1.156,1.156,0,0,0,117.284,14.043ZM123.5,15h-1.23l1.818-10.5h1.237Zm13.59-8.88h-3.1L132.453,15h-1.278l1.538-8.88h-3.1l.191-1.073h7.472Zm2.96,9.017a2.667,2.667,0,0,1-2.16-1.019,3.505,3.505,0,0,1-.656-2.536l.034-.294a4.921,4.921,0,0,1,.653-2.01,3.8,3.8,0,0,1,1.309-1.371,3.054,3.054,0,0,1,1.668-.441,2.352,2.352,0,0,1,1.791.759,3.121,3.121,0,0,1,.711,1.982,5.792,5.792,0,0,1-.027.889l-.075.567h-4.833a2.5,2.5,0,0,0,.332,1.709,1.57,1.57,0,0,0,1.357.731,2.631,2.631,0,0,0,2.023-.984l.711.6a3.253,3.253,0,0,1-1.2,1.049A3.4,3.4,0,0,1,140.048,15.137Zm.786-6.638a1.807,1.807,0,0,0-1.336.52,3.693,3.693,0,0,0-.906,1.606l3.6.007.027-.109a2.024,2.024,0,0,0-.277-1.432A1.3,1.3,0,0,0,140.834,8.5Zm7.854,4.5q.1-.766-.841-1.08l-1.285-.376q-1.627-.561-1.572-1.859a2.048,2.048,0,0,1,.892-1.6,3.177,3.177,0,0,1,1.986-.612,2.649,2.649,0,0,1,1.822.653,2.068,2.068,0,0,1,.673,1.665l-1.23-.007a1.154,1.154,0,0,0-.349-.9,1.379,1.379,0,0,0-.964-.362,1.8,1.8,0,0,0-1.107.314,1.151,1.151,0,0,0-.5.807q-.089.643.786.937l.622.171a4.005,4.005,0,0,1,1.8.854,1.632,1.632,0,0,1,.492,1.306,2.074,2.074,0,0,1-.451,1.2,2.58,2.58,0,0,1-1.094.783,3.658,3.658,0,0,1-1.456.25,2.885,2.885,0,0,1-1.941-.687,2.124,2.124,0,0,1-.738-1.733l1.237.007a1.311,1.311,0,0,0,.4,1,1.515,1.515,0,0,0,1.087.376,2.132,2.132,0,0,0,1.169-.284A1.091,1.091,0,0,0,148.688,13Zm5.756-7.185L154.13,7.6h1.347l-.171.978h-1.34l-.772,4.6a1.6,1.6,0,0,0-.007.328.521.521,0,0,0,.581.533,3.544,3.544,0,0,0,.6-.068l-.1,1.032a3.366,3.366,0,0,1-.9.123,1.292,1.292,0,0,1-1.107-.543,2.1,2.1,0,0,1-.287-1.425l.752-4.58h-1.306l.171-.978H152.9l.314-1.791ZM85.473,34.4H81.29l-.615,3.527h4.867L85.35,39H79.2l1.729-9.953h6.077L86.82,30.12H82.028l-.554,3.206h4.184Zm4.5-.1,2.01-2.693h1.518l-2.967,3.719L92.343,39H91l-1.224-2.762L87.688,39H86.177l3.056-3.8-1.75-3.6h1.354ZM98.126,39a1.657,1.657,0,0,1-.048-.39l.021-.39a3.032,3.032,0,0,1-2.16.916,2.21,2.21,0,0,1-1.589-.619A1.872,1.872,0,0,1,93.792,37a2.277,2.277,0,0,1,1.029-1.835,4.38,4.38,0,0,1,2.526-.66l1.292.007.082-.588a1.352,1.352,0,0,0-.256-1.049,1.237,1.237,0,0,0-.974-.4,1.908,1.908,0,0,0-1.125.311,1.324,1.324,0,0,0-.6.858l-1.244.007A1.983,1.983,0,0,1,95.03,32.5a2.943,2.943,0,0,1,1.142-.779,3.688,3.688,0,0,1,1.442-.263,2.452,2.452,0,0,1,1.8.7,2.173,2.173,0,0,1,.54,1.788l-.6,3.664-.034.526a2.58,2.58,0,0,0,.082.745L99.384,39Zm-1.941-.957a2.158,2.158,0,0,0,1.125-.284,2.847,2.847,0,0,0,.913-.824l.267-1.524-.937-.007a3.547,3.547,0,0,0-1.791.369,1.36,1.36,0,0,0-.7,1.046,1.059,1.059,0,0,0,.243.865A1.156,1.156,0,0,0,96.185,38.043ZM103.5,31.6l-.157.827a2.892,2.892,0,0,1,2.249-.957,2.282,2.282,0,0,1,1.193.321,1.576,1.576,0,0,1,.673.868,3.054,3.054,0,0,1,2.454-1.189,1.956,1.956,0,0,1,1.634.745,2.662,2.662,0,0,1,.39,1.928L111.122,39h-1.23l.807-4.874a2.575,2.575,0,0,0,0-.649q-.13-.93-1.217-.95a1.869,1.869,0,0,0-1.227.42,1.945,1.945,0,0,0-.708,1.138L106.706,39h-1.244l.82-4.867a1.563,1.563,0,0,0-.229-1.169,1.2,1.2,0,0,0-.988-.424,2.026,2.026,0,0,0-1.839,1.053L102.29,39h-1.237l1.285-7.4Zm16.229,3.739a5.868,5.868,0,0,1-.608,2.03,3.455,3.455,0,0,1-1.169,1.35,2.676,2.676,0,0,1-1.545.427,2.463,2.463,0,0,1-1.969-.868l-.663,3.568h-1.237l1.777-10.24,1.121-.007-.137.827a2.806,2.806,0,0,1,2.194-.957,2.063,2.063,0,0,1,1.661.786,3.46,3.46,0,0,1,.629,2.092,7.362,7.362,0,0,1-.034.848Zm-1.217-.14.034-.573a2.6,2.6,0,0,0-.379-1.526,1.334,1.334,0,0,0-1.1-.556,2.194,2.194,0,0,0-1.853,1.017l-.622,3.544a1.548,1.548,0,0,0,1.5,1.01,1.946,1.946,0,0,0,1.569-.72A4.18,4.18,0,0,0,118.511,35.2Zm3.548,3.8h-1.23l1.818-10.5h1.237Zm5.223.137a2.667,2.667,0,0,1-2.16-1.019,3.505,3.505,0,0,1-.656-2.536l.034-.294a4.921,4.921,0,0,1,.653-2.01,3.8,3.8,0,0,1,1.309-1.371,3.054,3.054,0,0,1,1.668-.441,2.352,2.352,0,0,1,1.791.759,3.121,3.121,0,0,1,.711,1.982,5.792,5.792,0,0,1-.027.889l-.075.567H125.7a2.5,2.5,0,0,0,.332,1.709,1.57,1.57,0,0,0,1.357.731,2.631,2.631,0,0,0,2.023-.984l.711.6a3.253,3.253,0,0,1-1.2,1.049A3.4,3.4,0,0,1,127.282,39.137Zm.786-6.638a1.807,1.807,0,0,0-1.336.52,3.693,3.693,0,0,0-.906,1.606l3.6.007.027-.109a2.024,2.024,0,0,0-.277-1.432A1.3,1.3,0,0,0,128.068,32.5Zm7.854,4.5q.1-.766-.841-1.08l-1.285-.376q-1.627-.561-1.572-1.859a2.048,2.048,0,0,1,.892-1.6,3.177,3.177,0,0,1,1.986-.612,2.649,2.649,0,0,1,1.822.653,2.068,2.068,0,0,1,.673,1.665l-1.23-.007a1.154,1.154,0,0,0-.349-.9,1.379,1.379,0,0,0-.964-.362,1.8,1.8,0,0,0-1.107.314,1.151,1.151,0,0,0-.5.807q-.089.643.786.937l.622.171a4.005,4.005,0,0,1,1.8.854,1.632,1.632,0,0,1,.492,1.306,2.074,2.074,0,0,1-.451,1.2,2.58,2.58,0,0,1-1.094.783,3.658,3.658,0,0,1-1.456.25,2.885,2.885,0,0,1-1.941-.687,2.124,2.124,0,0,1-.738-1.733l1.237.007a1.311,1.311,0,0,0,.4,1,1.515,1.515,0,0,0,1.087.376,2.132,2.132,0,0,0,1.169-.284A1.091,1.091,0,0,0,135.922,37ZM80.148,60.437q.15-1.094-1.135-1.6l-1.183-.431-.4-.171q-2-.909-1.866-2.557a2.674,2.674,0,0,1,.567-1.463,3.228,3.228,0,0,1,1.323-.981,4.243,4.243,0,0,1,1.753-.325,3.5,3.5,0,0,1,1.61.4,2.592,2.592,0,0,1,1.077,1.07,2.916,2.916,0,0,1,.328,1.548l-1.292-.007a1.783,1.783,0,0,0-.41-1.423,1.836,1.836,0,0,0-1.367-.518,2.547,2.547,0,0,0-1.565.438,1.711,1.711,0,0,0-.725,1.233q-.137,1.02,1.251,1.548l1.019.363.513.219a2.574,2.574,0,0,1,1.784,2.639,2.636,2.636,0,0,1-.567,1.453,3.172,3.172,0,0,1-1.336.947,4.607,4.607,0,0,1-1.815.314,3.8,3.8,0,0,1-1.712-.4,2.794,2.794,0,0,1-1.179-1.077,2.693,2.693,0,0,1-.355-1.552l1.285.007a1.693,1.693,0,0,0,.482,1.412,2.169,2.169,0,0,0,1.535.537,2.74,2.74,0,0,0,1.634-.431A1.677,1.677,0,0,0,80.148,60.437Zm5.612-6.624L85.446,55.6h1.347l-.171.978h-1.34l-.772,4.6a1.6,1.6,0,0,0-.007.328.521.521,0,0,0,.581.533,3.544,3.544,0,0,0,.6-.068l-.1,1.032a3.366,3.366,0,0,1-.9.123,1.292,1.292,0,0,1-1.107-.543,2.1,2.1,0,0,1-.287-1.425l.752-4.58H82.739l.171-.978h1.306l.314-1.791Zm5.209,1.654a2.666,2.666,0,0,1,1.593.506,2.875,2.875,0,0,1,.981,1.357,4.2,4.2,0,0,1,.215,1.89l-.014.15a4.975,4.975,0,0,1-.643,1.952,3.77,3.77,0,0,1-1.326,1.357,3.234,3.234,0,0,1-1.784.458,2.671,2.671,0,0,1-1.589-.506,2.809,2.809,0,0,1-.974-1.34,4.315,4.315,0,0,1-.219-1.866,5.04,5.04,0,0,1,.622-2.064,3.858,3.858,0,0,1,1.336-1.418A3.2,3.2,0,0,1,90.969,55.467Zm-2.516,3.965a4.2,4.2,0,0,0,0,.9,2.194,2.194,0,0,0,.482,1.285,1.447,1.447,0,0,0,1.1.5,1.971,1.971,0,0,0,1.135-.3,2.554,2.554,0,0,0,.875-.981,4.131,4.131,0,0,0,.458-1.456,6.557,6.557,0,0,0,.021-1.06,2.277,2.277,0,0,0-.5-1.306,1.479,1.479,0,0,0-1.107-.506,2.016,2.016,0,0,0-1.627.752,3.715,3.715,0,0,0-.827,2.023Zm10.821-2.7-.581-.062a2.117,2.117,0,0,0-1.873,1.073L95.912,63H94.674l1.285-7.4,1.2-.007-.185.861a2.211,2.211,0,0,1,1.853-1,2.27,2.27,0,0,1,.588.1Zm2.714,4.4,2.632-5.53h1.367L101.6,64.23a2.656,2.656,0,0,1-2.352,1.777,4.029,4.029,0,0,1-.745-.123l.109-1.025.321.034a1.622,1.622,0,0,0,1.015-.263,2.426,2.426,0,0,0,.755-.94l.444-.848L99.87,55.6h1.292ZM117.4,54.12h-3.1L112.762,63h-1.278l1.538-8.88h-3.1l.191-1.073h7.472Zm2.96,9.017a2.667,2.667,0,0,1-2.16-1.019,3.505,3.505,0,0,1-.656-2.536l.034-.294a4.921,4.921,0,0,1,.653-2.01,3.8,3.8,0,0,1,1.309-1.371,3.054,3.054,0,0,1,1.668-.441,2.352,2.352,0,0,1,1.791.759,3.121,3.121,0,0,1,.711,1.982,5.793,5.793,0,0,1-.027.889l-.075.567h-4.833a2.5,2.5,0,0,0,.332,1.709,1.57,1.57,0,0,0,1.357.731,2.631,2.631,0,0,0,2.023-.984l.711.6a3.253,3.253,0,0,1-1.2,1.049A3.4,3.4,0,0,1,120.357,63.137Zm.786-6.638a1.807,1.807,0,0,0-1.336.52,3.693,3.693,0,0,0-.906,1.606l3.6.007.027-.109a2.024,2.024,0,0,0-.277-1.432A1.3,1.3,0,0,0,121.143,56.5ZM129,61q.1-.766-.841-1.08l-1.285-.376q-1.627-.561-1.572-1.859a2.048,2.048,0,0,1,.892-1.6,3.177,3.177,0,0,1,1.986-.612A2.649,2.649,0,0,1,130,56.12a2.068,2.068,0,0,1,.673,1.665l-1.23-.007a1.154,1.154,0,0,0-.349-.9,1.379,1.379,0,0,0-.964-.362,1.8,1.8,0,0,0-1.107.314,1.151,1.151,0,0,0-.5.807q-.089.643.786.937l.622.171a4.005,4.005,0,0,1,1.8.854,1.632,1.632,0,0,1,.492,1.306,2.074,2.074,0,0,1-.451,1.2,2.58,2.58,0,0,1-1.094.783,3.658,3.658,0,0,1-1.456.25,2.885,2.885,0,0,1-1.941-.687,2.124,2.124,0,0,1-.738-1.733l1.237.007a1.311,1.311,0,0,0,.4,1,1.515,1.515,0,0,0,1.087.376,2.132,2.132,0,0,0,1.169-.284A1.091,1.091,0,0,0,129,61Zm5.756-7.185-.314,1.791h1.347l-.171.978h-1.34l-.772,4.6a1.6,1.6,0,0,0-.007.328.521.521,0,0,0,.581.533,3.544,3.544,0,0,0,.6-.068l-.1,1.032a3.366,3.366,0,0,1-.9.123,1.292,1.292,0,0,1-1.107-.543,2.1,2.1,0,0,1-.287-1.425l.752-4.58h-1.306l.171-.978h1.306l.314-1.791ZM140.571,61q.1-.766-.841-1.08l-1.285-.376q-1.627-.561-1.572-1.859a2.048,2.048,0,0,1,.892-1.6,3.177,3.177,0,0,1,1.986-.612,2.649,2.649,0,0,1,1.822.653,2.068,2.068,0,0,1,.673,1.665l-1.23-.007a1.154,1.154,0,0,0-.349-.9,1.379,1.379,0,0,0-.964-.362,1.8,1.8,0,0,0-1.107.314,1.151,1.151,0,0,0-.5.807q-.089.643.786.937l.622.171a4.005,4.005,0,0,1,1.8.854A1.632,1.632,0,0,1,141.8,60.9a2.074,2.074,0,0,1-.451,1.2,2.58,2.58,0,0,1-1.094.783,3.658,3.658,0,0,1-1.456.25,2.885,2.885,0,0,1-1.941-.687,2.124,2.124,0,0,1-.738-1.733l1.237.007a1.311,1.311,0,0,0,.4,1,1.515,1.515,0,0,0,1.087.376,2.132,2.132,0,0,0,1.169-.284A1.091,1.091,0,0,0,140.571,61ZM77.779,83.1,77.1,87H75.817l1.729-9.953,3.322.007a3.249,3.249,0,0,1,2.372.817,2.57,2.57,0,0,1,.718,2.17,3.1,3.1,0,0,1-1.138,2.249,4.128,4.128,0,0,1-2.676.82Zm.185-1.073,2.215.007a2.694,2.694,0,0,0,1.716-.526,2.106,2.106,0,0,0,.786-1.463,1.65,1.65,0,0,0-.349-1.364A1.755,1.755,0,0,0,81,78.134l-2.358-.007Zm10.9-1.3-.581-.062a2.117,2.117,0,0,0-1.873,1.073L85.5,87H84.26l1.285-7.4,1.2-.007-.185.861a2.212,2.212,0,0,1,1.853-1,2.27,2.27,0,0,1,.588.1Zm4.033-1.265a2.666,2.666,0,0,1,1.593.506,2.874,2.874,0,0,1,.981,1.357,4.2,4.2,0,0,1,.215,1.89l-.014.15a4.975,4.975,0,0,1-.643,1.952A3.77,3.77,0,0,1,93.7,86.679a3.234,3.234,0,0,1-1.784.458,2.671,2.671,0,0,1-1.589-.506,2.809,2.809,0,0,1-.974-1.34,4.314,4.314,0,0,1-.219-1.866,5.04,5.04,0,0,1,.622-2.064,3.858,3.858,0,0,1,1.336-1.418A3.2,3.2,0,0,1,92.894,79.467Zm-2.516,3.965a4.2,4.2,0,0,0,0,.9,2.194,2.194,0,0,0,.482,1.285,1.447,1.447,0,0,0,1.1.5,1.971,1.971,0,0,0,1.135-.3,2.554,2.554,0,0,0,.875-.981,4.131,4.131,0,0,0,.458-1.456,6.557,6.557,0,0,0,.021-1.06,2.277,2.277,0,0,0-.5-1.306,1.479,1.479,0,0,0-1.107-.506,2.016,2.016,0,0,0-1.627.752,3.715,3.715,0,0,0-.827,2.023Zm9.488-5.619L99.552,79.6H100.9l-.171.978h-1.34l-.772,4.6a1.6,1.6,0,0,0-.007.328.521.521,0,0,0,.581.533,3.544,3.544,0,0,0,.6-.068l-.1,1.032a3.366,3.366,0,0,1-.9.123,1.292,1.292,0,0,1-1.107-.543,2.1,2.1,0,0,1-.287-1.425l.752-4.58H96.845l.171-.978h1.306l.314-1.791Zm5.209,1.654a2.666,2.666,0,0,1,1.593.506,2.874,2.874,0,0,1,.981,1.357,4.2,4.2,0,0,1,.215,1.89l-.014.15a4.975,4.975,0,0,1-.643,1.952,3.77,3.77,0,0,1-1.326,1.357,3.234,3.234,0,0,1-1.784.458,2.671,2.671,0,0,1-1.589-.506,2.809,2.809,0,0,1-.974-1.34,4.314,4.314,0,0,1-.219-1.866,5.04,5.04,0,0,1,.622-2.064,3.858,3.858,0,0,1,1.336-1.418A3.2,3.2,0,0,1,105.075,79.467Zm-2.516,3.965a4.2,4.2,0,0,0,0,.9,2.194,2.194,0,0,0,.482,1.285,1.447,1.447,0,0,0,1.1.5,1.971,1.971,0,0,0,1.135-.3,2.554,2.554,0,0,0,.875-.981,4.131,4.131,0,0,0,.458-1.456,6.557,6.557,0,0,0,.021-1.06,2.277,2.277,0,0,0-.5-1.306,1.479,1.479,0,0,0-1.107-.506,2.016,2.016,0,0,0-1.627.752,3.715,3.715,0,0,0-.827,2.023Zm9.488-5.619-.314,1.791h1.347l-.171.978h-1.34l-.772,4.6a1.6,1.6,0,0,0-.007.328.521.521,0,0,0,.581.533,3.544,3.544,0,0,0,.6-.068l-.1,1.032a3.366,3.366,0,0,1-.9.123,1.292,1.292,0,0,1-1.107-.543,2.1,2.1,0,0,1-.287-1.425l.752-4.58h-1.306l.171-.978H110.5l.314-1.791Zm3.89,7.321,2.632-5.53h1.367l-4.389,8.627a2.656,2.656,0,0,1-2.352,1.777,4.029,4.029,0,0,1-.745-.123l.109-1.025.321.034a1.622,1.622,0,0,0,1.015-.263,2.426,2.426,0,0,0,.755-.94l.444-.848L113.818,79.6h1.292Zm10.541-1.8a5.868,5.868,0,0,1-.608,2.03,3.455,3.455,0,0,1-1.169,1.35,2.676,2.676,0,0,1-1.545.427,2.463,2.463,0,0,1-1.969-.868l-.663,3.568h-1.237l1.777-10.24,1.121-.007-.137.827a2.806,2.806,0,0,1,2.194-.957,2.063,2.063,0,0,1,1.661.786,3.46,3.46,0,0,1,.629,2.092,7.362,7.362,0,0,1-.034.848Zm-1.217-.14.034-.573a2.6,2.6,0,0,0-.379-1.526,1.334,1.334,0,0,0-1.1-.556,2.194,2.194,0,0,0-1.853,1.017l-.622,3.544a1.548,1.548,0,0,0,1.5,1.01,1.946,1.946,0,0,0,1.569-.72A4.18,4.18,0,0,0,125.262,83.2Zm5.407,3.941a2.667,2.667,0,0,1-2.16-1.019,3.505,3.505,0,0,1-.656-2.536l.034-.294a4.921,4.921,0,0,1,.653-2.01,3.8,3.8,0,0,1,1.309-1.371,3.054,3.054,0,0,1,1.668-.441,2.352,2.352,0,0,1,1.791.759,3.121,3.121,0,0,1,.711,1.982,5.792,5.792,0,0,1-.027.889l-.075.567h-4.833a2.5,2.5,0,0,0,.332,1.709,1.57,1.57,0,0,0,1.357.731,2.631,2.631,0,0,0,2.023-.984l.711.6a3.253,3.253,0,0,1-1.2,1.049A3.4,3.4,0,0,1,130.669,87.137Zm.786-6.638a1.807,1.807,0,0,0-1.336.52,3.693,3.693,0,0,0-.906,1.606l3.6.007.027-.109a2.024,2.024,0,0,0-.277-1.432A1.3,1.3,0,0,0,131.455,80.5ZM139.31,85q.1-.766-.841-1.08l-1.285-.376q-1.627-.561-1.572-1.859a2.048,2.048,0,0,1,.892-1.6,3.177,3.177,0,0,1,1.986-.612,2.649,2.649,0,0,1,1.822.653,2.068,2.068,0,0,1,.673,1.665l-1.23-.007a1.154,1.154,0,0,0-.349-.9,1.379,1.379,0,0,0-.964-.362,1.8,1.8,0,0,0-1.107.314,1.151,1.151,0,0,0-.5.807q-.089.643.786.937l.622.171a4.005,4.005,0,0,1,1.8.854,1.632,1.632,0,0,1,.492,1.306,2.074,2.074,0,0,1-.451,1.2,2.58,2.58,0,0,1-1.094.783,3.658,3.658,0,0,1-1.456.25,2.886,2.886,0,0,1-1.941-.687,2.124,2.124,0,0,1-.738-1.733l1.237.007a1.311,1.311,0,0,0,.4,1,1.515,1.515,0,0,0,1.087.376,2.131,2.131,0,0,0,1.169-.284A1.091,1.091,0,0,0,139.31,85ZM78.422,108.437q.15-1.094-1.135-1.6l-1.183-.431-.4-.171q-2-.909-1.866-2.557a2.674,2.674,0,0,1,.567-1.463,3.228,3.228,0,0,1,1.323-.981,4.243,4.243,0,0,1,1.753-.325,3.5,3.5,0,0,1,1.61.4,2.592,2.592,0,0,1,1.077,1.07,2.916,2.916,0,0,1,.328,1.548l-1.292-.007a1.783,1.783,0,0,0-.41-1.423,1.836,1.836,0,0,0-1.367-.518,2.546,2.546,0,0,0-1.565.438,1.711,1.711,0,0,0-.725,1.233q-.137,1.02,1.251,1.548l1.019.363.513.219a2.574,2.574,0,0,1,1.784,2.639,2.636,2.636,0,0,1-.567,1.453,3.172,3.172,0,0,1-1.336.947,4.607,4.607,0,0,1-1.815.314,3.8,3.8,0,0,1-1.712-.4A2.794,2.794,0,0,1,73.1,109.66a2.693,2.693,0,0,1-.355-1.552l1.285.007a1.693,1.693,0,0,0,.482,1.412,2.169,2.169,0,0,0,1.535.537,2.74,2.74,0,0,0,1.634-.431A1.677,1.677,0,0,0,78.422,108.437ZM82.106,111h-1.23l1.285-7.4h1.23Zm1.019-10.1a.677.677,0,0,1,.523.188.7.7,0,0,1,.208.53.73.73,0,0,1-.731.745.681.681,0,0,1-.526-.185.669.669,0,0,1-.2-.52.775.775,0,0,1,.205-.533A.723.723,0,0,1,83.125,100.9ZM86.57,103.6l-.157.827a2.892,2.892,0,0,1,2.249-.957,2.282,2.282,0,0,1,1.193.321,1.576,1.576,0,0,1,.673.868,3.054,3.054,0,0,1,2.454-1.189,1.956,1.956,0,0,1,1.634.745,2.662,2.662,0,0,1,.39,1.928L94.192,111h-1.23l.807-4.874a2.575,2.575,0,0,0,0-.649q-.13-.93-1.217-.95a1.869,1.869,0,0,0-1.227.42,1.945,1.945,0,0,0-.708,1.138L89.776,111H88.532l.82-4.867a1.563,1.563,0,0,0-.229-1.169,1.2,1.2,0,0,0-.988-.424,2.026,2.026,0,0,0-1.839,1.053L85.36,111H84.123l1.285-7.4Zm14.226,6.672a2.856,2.856,0,0,1-2.208.868,1.843,1.843,0,0,1-1.569-.759,2.9,2.9,0,0,1-.379-2l.793-4.778H98.67l-.8,4.8a3.187,3.187,0,0,0-.014.588,1.223,1.223,0,0,0,.294.772,1,1,0,0,0,.725.3,2.219,2.219,0,0,0,2.051-1.073l.93-5.387h1.237l-1.285,7.4h-1.169Zm4.2.731h-1.23l1.818-10.5h1.237Zm6.549,0a1.657,1.657,0,0,1-.048-.39l.021-.39a3.032,3.032,0,0,1-2.16.916,2.21,2.21,0,0,1-1.589-.619,1.872,1.872,0,0,1-.557-1.514,2.277,2.277,0,0,1,1.029-1.835,4.38,4.38,0,0,1,2.526-.66l1.292.007.082-.588a1.352,1.352,0,0,0-.256-1.049,1.237,1.237,0,0,0-.974-.4,1.908,1.908,0,0,0-1.125.311,1.324,1.324,0,0,0-.6.858l-1.244.007a1.983,1.983,0,0,1,.506-1.152,2.943,2.943,0,0,1,1.142-.779,3.688,3.688,0,0,1,1.442-.263,2.452,2.452,0,0,1,1.8.7,2.173,2.173,0,0,1,.54,1.788l-.6,3.664-.034.526a2.58,2.58,0,0,0,.082.745L112.8,111Zm-1.941-.957a2.158,2.158,0,0,0,1.125-.284,2.847,2.847,0,0,0,.913-.824l.267-1.524-.937-.007a3.547,3.547,0,0,0-1.791.369,1.36,1.36,0,0,0-.7,1.046,1.059,1.059,0,0,0,.243.865A1.156,1.156,0,0,0,109.6,110.043Zm8.142-8.23-.314,1.791h1.347l-.171.978h-1.34l-.772,4.6a1.6,1.6,0,0,0-.007.328.521.521,0,0,0,.581.533,3.544,3.544,0,0,0,.6-.068l-.1,1.032a3.366,3.366,0,0,1-.9.123,1.292,1.292,0,0,1-1.107-.543,2.1,2.1,0,0,1-.287-1.425l.752-4.58h-1.306l.171-.978H116.2l.314-1.791ZM120.319,111h-1.23l1.285-7.4h1.23Zm1.019-10.1a.677.677,0,0,1,.523.188.7.7,0,0,1,.208.53.73.73,0,0,1-.731.745.681.681,0,0,1-.526-.185.669.669,0,0,1-.2-.52.775.775,0,0,1,.205-.533A.723.723,0,0,1,121.338,100.9Zm5.113,2.563a2.666,2.666,0,0,1,1.593.506,2.874,2.874,0,0,1,.981,1.357,4.2,4.2,0,0,1,.215,1.89l-.014.15a4.975,4.975,0,0,1-.643,1.952,3.77,3.77,0,0,1-1.326,1.357,3.234,3.234,0,0,1-1.784.458,2.671,2.671,0,0,1-1.589-.506,2.809,2.809,0,0,1-.974-1.34,4.314,4.314,0,0,1-.219-1.866,5.04,5.04,0,0,1,.622-2.064,3.858,3.858,0,0,1,1.336-1.418A3.2,3.2,0,0,1,126.451,103.467Zm-2.516,3.965a4.2,4.2,0,0,0,0,.9,2.194,2.194,0,0,0,.482,1.285,1.447,1.447,0,0,0,1.1.5,1.971,1.971,0,0,0,1.135-.3,2.554,2.554,0,0,0,.875-.981,4.131,4.131,0,0,0,.458-1.456,6.559,6.559,0,0,0,.021-1.06,2.277,2.277,0,0,0-.5-1.306,1.479,1.479,0,0,0-1.107-.506,2.016,2.016,0,0,0-1.627.752,3.715,3.715,0,0,0-.827,2.023Zm8.675-3.835-.178.937a2.916,2.916,0,0,1,2.27-1.066,1.835,1.835,0,0,1,1.545.725,2.815,2.815,0,0,1,.369,1.962L135.81,111h-1.237l.813-4.862a2.592,2.592,0,0,0,.007-.621,1.022,1.022,0,0,0-1.128-.976,2.329,2.329,0,0,0-1.955,1.188L131.394,111h-1.237l1.285-7.4ZM142.3,109q.1-.766-.841-1.08l-1.285-.376q-1.627-.561-1.572-1.859a2.048,2.048,0,0,1,.892-1.6,3.177,3.177,0,0,1,1.986-.612,2.649,2.649,0,0,1,1.822.653,2.068,2.068,0,0,1,.673,1.665l-1.23-.007a1.154,1.154,0,0,0-.349-.9,1.379,1.379,0,0,0-.964-.362,1.8,1.8,0,0,0-1.107.314,1.151,1.151,0,0,0-.5.807q-.089.643.786.937l.622.171a4.005,4.005,0,0,1,1.8.854,1.632,1.632,0,0,1,.492,1.306,2.074,2.074,0,0,1-.451,1.2,2.58,2.58,0,0,1-1.094.783,3.658,3.658,0,0,1-1.456.25,2.886,2.886,0,0,1-1.941-.687,2.124,2.124,0,0,1-.738-1.733l1.237.007a1.311,1.311,0,0,0,.4,1,1.515,1.515,0,0,0,1.087.376,2.131,2.131,0,0,0,1.169-.284A1.091,1.091,0,0,0,142.3,109Z" transform="translate(849.469 19046.102)" fill="#fff"/>
    <path id="Trazado_830668" data-name="Trazado 830668" d="M40.027,10.4H35.844l-.615,3.527H40.1L39.9,15H33.759l1.729-9.953h6.077L41.374,6.12H36.582l-.554,3.206h4.184Zm4.5-.1L46.542,7.6H48.06l-2.967,3.719L46.9,15H45.551l-1.224-2.762L42.242,15H40.731l3.056-3.8-1.75-3.6h1.354Zm10.322,1.039a5.868,5.868,0,0,1-.608,2.03,3.455,3.455,0,0,1-1.169,1.35,2.676,2.676,0,0,1-1.545.427,2.463,2.463,0,0,1-1.969-.868L48.9,17.844H47.663L49.44,7.6,50.562,7.6l-.137.827a2.806,2.806,0,0,1,2.194-.957,2.063,2.063,0,0,1,1.661.786,3.46,3.46,0,0,1,.629,2.092,7.361,7.361,0,0,1-.034.848Zm-1.217-.14.034-.573A2.6,2.6,0,0,0,53.292,9.1a1.334,1.334,0,0,0-1.1-.556,2.194,2.194,0,0,0-1.853,1.017L49.721,13.1a1.548,1.548,0,0,0,1.5,1.01,1.946,1.946,0,0,0,1.569-.72A4.18,4.18,0,0,0,53.638,11.2ZM57.186,15h-1.23L57.773,4.5h1.237Zm6.132-7.533a2.666,2.666,0,0,1,1.593.506,2.875,2.875,0,0,1,.981,1.357,4.2,4.2,0,0,1,.215,1.89l-.014.15a4.975,4.975,0,0,1-.643,1.952,3.77,3.77,0,0,1-1.326,1.357,3.234,3.234,0,0,1-1.784.458,2.671,2.671,0,0,1-1.589-.506,2.809,2.809,0,0,1-.974-1.34,4.314,4.314,0,0,1-.219-1.866A5.04,5.04,0,0,1,60.18,9.36a3.858,3.858,0,0,1,1.336-1.418A3.2,3.2,0,0,1,63.317,7.467ZM60.8,11.432a4.2,4.2,0,0,0,0,.9,2.194,2.194,0,0,0,.482,1.285,1.447,1.447,0,0,0,1.1.5,1.971,1.971,0,0,0,1.135-.3,2.554,2.554,0,0,0,.875-.981,4.131,4.131,0,0,0,.458-1.456,6.557,6.557,0,0,0,.021-1.06A2.277,2.277,0,0,0,64.377,9,1.479,1.479,0,0,0,63.27,8.5a2.016,2.016,0,0,0-1.627.752,3.715,3.715,0,0,0-.827,2.023Zm10.821-2.7-.581-.062a2.117,2.117,0,0,0-1.873,1.073L68.26,15H67.022l1.285-7.4L69.5,7.6l-.185.861a2.211,2.211,0,0,1,1.853-1,2.27,2.27,0,0,1,.588.1ZM75.937,15a1.657,1.657,0,0,1-.048-.39l.021-.39a3.032,3.032,0,0,1-2.16.916,2.21,2.21,0,0,1-1.589-.619A1.872,1.872,0,0,1,71.6,13a2.277,2.277,0,0,1,1.029-1.835,4.38,4.38,0,0,1,2.526-.66l1.292.007.082-.588a1.352,1.352,0,0,0-.256-1.049,1.237,1.237,0,0,0-.974-.4,1.908,1.908,0,0,0-1.125.311,1.324,1.324,0,0,0-.6.858l-1.244.007A1.983,1.983,0,0,1,72.84,8.5a2.943,2.943,0,0,1,1.142-.779,3.688,3.688,0,0,1,1.442-.263,2.452,2.452,0,0,1,1.8.7,2.173,2.173,0,0,1,.54,1.788l-.6,3.664-.034.526a2.58,2.58,0,0,0,.082.745L77.194,15ZM74,14.043a2.158,2.158,0,0,0,1.125-.284,2.847,2.847,0,0,0,.913-.824l.267-1.524-.937-.007a3.547,3.547,0,0,0-1.791.369,1.36,1.36,0,0,0-.7,1.046,1.059,1.059,0,0,0,.243.865A1.156,1.156,0,0,0,74,14.043Zm8.142-8.23L81.822,7.6h1.347L83,8.581h-1.34l-.772,4.6a1.6,1.6,0,0,0-.007.328.521.521,0,0,0,.581.533,3.544,3.544,0,0,0,.6-.068l-.1,1.032a3.366,3.366,0,0,1-.9.123,1.292,1.292,0,0,1-1.107-.543,2.1,2.1,0,0,1-.287-1.425l.752-4.58H79.115l.171-.978h1.306l.314-1.791Zm5.209,1.654a2.666,2.666,0,0,1,1.593.506,2.875,2.875,0,0,1,.981,1.357,4.2,4.2,0,0,1,.215,1.89l-.014.15a4.975,4.975,0,0,1-.643,1.952,3.77,3.77,0,0,1-1.326,1.357,3.234,3.234,0,0,1-1.784.458,2.671,2.671,0,0,1-1.589-.506,2.809,2.809,0,0,1-.974-1.34,4.315,4.315,0,0,1-.219-1.866,5.04,5.04,0,0,1,.622-2.064,3.858,3.858,0,0,1,1.336-1.418A3.2,3.2,0,0,1,87.346,7.467ZM84.83,11.432a4.2,4.2,0,0,0,0,.9,2.194,2.194,0,0,0,.482,1.285,1.447,1.447,0,0,0,1.1.5,1.971,1.971,0,0,0,1.135-.3,2.554,2.554,0,0,0,.875-.981,4.131,4.131,0,0,0,.458-1.456,6.557,6.557,0,0,0,.021-1.06A2.277,2.277,0,0,0,88.405,9,1.479,1.479,0,0,0,87.3,8.5a2.016,2.016,0,0,0-1.627.752,3.715,3.715,0,0,0-.827,2.023Zm10.821-2.7L95.07,8.67A2.117,2.117,0,0,0,93.2,9.743L92.288,15H91.051l1.285-7.4,1.2-.007-.185.861a2.211,2.211,0,0,1,1.853-1,2.27,2.27,0,0,1,.588.1Zm2.714,4.4L101,7.6h1.367L97.976,16.23a2.656,2.656,0,0,1-2.352,1.777,4.029,4.029,0,0,1-.745-.123l.109-1.025.321.034a1.622,1.622,0,0,0,1.015-.263,2.426,2.426,0,0,0,.755-.94l.444-.848L96.246,7.6h1.292ZM113.773,6.12h-3.1L109.139,15H107.86L109.4,6.12h-3.1l.191-1.073h7.472Zm2.96,9.017a2.667,2.667,0,0,1-2.16-1.019,3.505,3.505,0,0,1-.656-2.536l.034-.294a4.921,4.921,0,0,1,.653-2.01,3.8,3.8,0,0,1,1.309-1.371,3.054,3.054,0,0,1,1.668-.441,2.352,2.352,0,0,1,1.791.759,3.121,3.121,0,0,1,.711,1.982,5.793,5.793,0,0,1-.027.889l-.075.567h-4.833a2.5,2.5,0,0,0,.332,1.709,1.57,1.57,0,0,0,1.357.731,2.631,2.631,0,0,0,2.023-.984l.711.6a3.253,3.253,0,0,1-1.2,1.049A3.4,3.4,0,0,1,116.733,15.137ZM117.52,8.5a1.807,1.807,0,0,0-1.336.52,3.693,3.693,0,0,0-.906,1.606l3.6.007.027-.109a2.024,2.024,0,0,0-.277-1.432A1.3,1.3,0,0,0,117.52,8.5Zm7.854,4.5q.1-.766-.841-1.08l-1.285-.376q-1.627-.561-1.572-1.859a2.048,2.048,0,0,1,.892-1.6,3.177,3.177,0,0,1,1.986-.612,2.649,2.649,0,0,1,1.822.653,2.068,2.068,0,0,1,.673,1.665l-1.23-.007a1.154,1.154,0,0,0-.349-.9,1.379,1.379,0,0,0-.964-.362,1.8,1.8,0,0,0-1.107.314,1.151,1.151,0,0,0-.5.807q-.089.643.786.937l.622.171a4.005,4.005,0,0,1,1.8.854A1.632,1.632,0,0,1,126.6,12.9a2.074,2.074,0,0,1-.451,1.2,2.58,2.58,0,0,1-1.094.783,3.658,3.658,0,0,1-1.456.25,2.885,2.885,0,0,1-1.941-.687,2.124,2.124,0,0,1-.738-1.733l1.237.007a1.311,1.311,0,0,0,.4,1,1.515,1.515,0,0,0,1.087.376,2.132,2.132,0,0,0,1.169-.284A1.091,1.091,0,0,0,125.374,13Zm5.756-7.185L130.815,7.6h1.347l-.171.978h-1.34l-.772,4.6a1.6,1.6,0,0,0-.007.328.521.521,0,0,0,.581.533,3.544,3.544,0,0,0,.6-.068l-.1,1.032a3.366,3.366,0,0,1-.9.123,1.292,1.292,0,0,1-1.107-.543,2.1,2.1,0,0,1-.287-1.425l.752-4.58h-1.306l.171-.978h1.306l.314-1.791ZM133.707,15h-1.23l1.285-7.4h1.23Zm1.019-10.1a.677.677,0,0,1,.523.188.7.7,0,0,1,.208.53.73.73,0,0,1-.731.745.682.682,0,0,1-.526-.185.669.669,0,0,1-.2-.52.776.776,0,0,1,.205-.533A.723.723,0,0,1,134.726,4.9ZM138.185,7.6l-.178.937a2.916,2.916,0,0,1,2.27-1.066,1.835,1.835,0,0,1,1.545.725,2.815,2.815,0,0,1,.369,1.962L141.384,15h-1.237l.813-4.862a2.592,2.592,0,0,0,.007-.621,1.022,1.022,0,0,0-1.128-.976,2.329,2.329,0,0,0-1.955,1.188L136.968,15H135.73l1.285-7.4Zm5.469,3.691a6.028,6.028,0,0,1,.653-2.1A3.415,3.415,0,0,1,145.5,7.867a2.757,2.757,0,0,1,1.535-.407,2.276,2.276,0,0,1,1.941.971l.246-.827h1.135l-1.23,7.239a3.6,3.6,0,0,1-1.148,2.266,3.235,3.235,0,0,1-2.345.81,3.329,3.329,0,0,1-1.439-.355,2.736,2.736,0,0,1-1.083-.937l.7-.759a2.219,2.219,0,0,0,3.264.526,2.54,2.54,0,0,0,.81-1.477l.137-.656a2.8,2.8,0,0,1-2.112.875,2.175,2.175,0,0,1-1.2-.373,2.265,2.265,0,0,1-.79-1.019,4.164,4.164,0,0,1-.308-1.487A7.643,7.643,0,0,1,143.653,11.288Zm1.2.7a2.6,2.6,0,0,0,.338,1.512,1.279,1.279,0,0,0,1.083.563,2.241,2.241,0,0,0,1.907-1.086l.581-3.393a1.554,1.554,0,0,0-1.483-1.051,1.919,1.919,0,0,0-1.651.819,4.268,4.268,0,0,0-.762,2.287ZM67.812,36.437q.15-1.094-1.135-1.6l-1.183-.431-.4-.171q-2-.909-1.866-2.557a2.674,2.674,0,0,1,.567-1.463,3.228,3.228,0,0,1,1.323-.981,4.243,4.243,0,0,1,1.753-.325,3.5,3.5,0,0,1,1.61.4,2.592,2.592,0,0,1,1.077,1.07,2.916,2.916,0,0,1,.328,1.548L68.6,31.925a1.783,1.783,0,0,0-.41-1.423,1.836,1.836,0,0,0-1.367-.518,2.547,2.547,0,0,0-1.565.438,1.711,1.711,0,0,0-.725,1.233q-.137,1.02,1.251,1.548l1.019.363.513.219A2.574,2.574,0,0,1,69.1,36.423a2.636,2.636,0,0,1-.567,1.453,3.172,3.172,0,0,1-1.336.947,4.607,4.607,0,0,1-1.815.314,3.8,3.8,0,0,1-1.712-.4,2.794,2.794,0,0,1-1.179-1.077,2.693,2.693,0,0,1-.355-1.552l1.285.007a1.693,1.693,0,0,0,.482,1.412,2.169,2.169,0,0,0,1.535.537,2.74,2.74,0,0,0,1.634-.431A1.677,1.677,0,0,0,67.812,36.437Zm5.469,1.675a1.877,1.877,0,0,0,1.2-.386,1.837,1.837,0,0,0,.7-1.049l1.169-.007a2.637,2.637,0,0,1-.557,1.271,3.22,3.22,0,0,1-2.56,1.2,2.64,2.64,0,0,1-1.562-.482,2.7,2.7,0,0,1-.94-1.306,4.35,4.35,0,0,1-.205-1.883l.034-.342a4.9,4.9,0,0,1,.622-1.907,3.6,3.6,0,0,1,1.285-1.309,3.192,3.192,0,0,1,1.75-.441,2.5,2.5,0,0,1,1.859.779,2.7,2.7,0,0,1,.7,1.907l-1.155-.007a1.775,1.775,0,0,0-.4-1.172,1.406,1.406,0,0,0-1.053-.475,1.972,1.972,0,0,0-1.6.718,3.76,3.76,0,0,0-.8,2.064l-.021.178a5.929,5.929,0,0,0-.014.9,2.061,2.061,0,0,0,.451,1.265A1.449,1.449,0,0,0,73.281,38.111Zm7.253,1.025a2.667,2.667,0,0,1-2.16-1.019,3.505,3.505,0,0,1-.656-2.536l.034-.294a4.921,4.921,0,0,1,.653-2.01,3.8,3.8,0,0,1,1.309-1.371,3.054,3.054,0,0,1,1.668-.441,2.352,2.352,0,0,1,1.791.759,3.121,3.121,0,0,1,.711,1.982,5.793,5.793,0,0,1-.027.889l-.075.567H78.948a2.5,2.5,0,0,0,.332,1.709,1.57,1.57,0,0,0,1.357.731,2.631,2.631,0,0,0,2.023-.984l.711.6a3.253,3.253,0,0,1-1.2,1.049A3.4,3.4,0,0,1,80.534,39.137ZM81.32,32.5a1.807,1.807,0,0,0-1.336.52,3.693,3.693,0,0,0-.906,1.606l3.6.007.027-.109a2.024,2.024,0,0,0-.277-1.432A1.3,1.3,0,0,0,81.32,32.5Zm5.729-.9-.178.937a2.916,2.916,0,0,1,2.27-1.066,1.835,1.835,0,0,1,1.545.725,2.815,2.815,0,0,1,.369,1.962L90.248,39H89.01l.813-4.862a2.592,2.592,0,0,0,.007-.621A1.022,1.022,0,0,0,88.7,32.54a2.329,2.329,0,0,0-1.955,1.188L85.832,39H84.594l1.285-7.4ZM96.68,39a1.657,1.657,0,0,1-.048-.39l.021-.39a3.032,3.032,0,0,1-2.16.916,2.21,2.21,0,0,1-1.589-.619A1.872,1.872,0,0,1,92.346,37a2.277,2.277,0,0,1,1.029-1.835,4.38,4.38,0,0,1,2.526-.66l1.292.007.082-.588a1.352,1.352,0,0,0-.256-1.049,1.237,1.237,0,0,0-.974-.4,1.908,1.908,0,0,0-1.125.311,1.324,1.324,0,0,0-.6.858l-1.244.007a1.983,1.983,0,0,1,.506-1.152,2.943,2.943,0,0,1,1.142-.779,3.688,3.688,0,0,1,1.442-.263,2.452,2.452,0,0,1,1.8.7,2.173,2.173,0,0,1,.54,1.788l-.6,3.664-.034.526a2.58,2.58,0,0,0,.082.745L97.938,39Zm-1.941-.957a2.158,2.158,0,0,0,1.125-.284,2.847,2.847,0,0,0,.913-.824l.267-1.524-.937-.007a3.547,3.547,0,0,0-1.791.369,1.36,1.36,0,0,0-.7,1.046,1.059,1.059,0,0,0,.243.865A1.156,1.156,0,0,0,94.739,38.043Zm9.475-5.312-.581-.062a2.117,2.117,0,0,0-1.873,1.073L100.85,39H99.613l1.285-7.4,1.2-.007-.185.861a2.211,2.211,0,0,1,1.853-1,2.27,2.27,0,0,1,.588.1Zm1.4,6.269h-1.23l1.285-7.4h1.23Zm1.019-10.1a.677.677,0,0,1,.523.188.7.7,0,0,1,.208.53.73.73,0,0,1-.731.745.682.682,0,0,1-.526-.185.669.669,0,0,1-.2-.52.775.775,0,0,1,.205-.533A.723.723,0,0,1,106.633,28.9Zm5.113,2.563a2.666,2.666,0,0,1,1.593.506,2.875,2.875,0,0,1,.981,1.357,4.2,4.2,0,0,1,.215,1.89l-.014.15a4.975,4.975,0,0,1-.643,1.952,3.77,3.77,0,0,1-1.326,1.357,3.234,3.234,0,0,1-1.784.458,2.671,2.671,0,0,1-1.589-.506,2.809,2.809,0,0,1-.974-1.34,4.315,4.315,0,0,1-.219-1.866,5.04,5.04,0,0,1,.622-2.064,3.858,3.858,0,0,1,1.336-1.418A3.2,3.2,0,0,1,111.747,31.467Zm-2.516,3.965a4.2,4.2,0,0,0,0,.9,2.194,2.194,0,0,0,.482,1.285,1.447,1.447,0,0,0,1.1.5,1.971,1.971,0,0,0,1.135-.3,2.554,2.554,0,0,0,.875-.981,4.131,4.131,0,0,0,.458-1.456,6.557,6.557,0,0,0,.021-1.06,2.277,2.277,0,0,0-.5-1.306A1.479,1.479,0,0,0,111.7,32.5a2.016,2.016,0,0,0-1.627.752,3.715,3.715,0,0,0-.827,2.023ZM120.032,37q.1-.766-.841-1.08l-1.285-.376q-1.627-.561-1.572-1.859a2.048,2.048,0,0,1,.892-1.6,3.177,3.177,0,0,1,1.986-.612,2.649,2.649,0,0,1,1.822.653,2.068,2.068,0,0,1,.673,1.665l-1.23-.007a1.154,1.154,0,0,0-.349-.9,1.379,1.379,0,0,0-.964-.362,1.8,1.8,0,0,0-1.107.314,1.151,1.151,0,0,0-.5.807q-.089.643.786.937l.622.171a4.005,4.005,0,0,1,1.8.854,1.632,1.632,0,0,1,.492,1.306,2.074,2.074,0,0,1-.451,1.2,2.58,2.58,0,0,1-1.094.783,3.658,3.658,0,0,1-1.456.25,2.885,2.885,0,0,1-1.941-.687,2.124,2.124,0,0,1-.738-1.733l1.237.007a1.311,1.311,0,0,0,.4,1,1.515,1.515,0,0,0,1.087.376,2.132,2.132,0,0,0,1.169-.284A1.091,1.091,0,0,0,120.032,37ZM20.083,53.047,18.935,59.78a3.822,3.822,0,0,1-1.34,2.471,3.934,3.934,0,0,1-2.673.892,3.462,3.462,0,0,1-1.7-.441,2.54,2.54,0,0,1-1.063-1.183,3.229,3.229,0,0,1-.226-1.733l1.148-6.74h1.265L13.207,59.8a2.183,2.183,0,0,0,.355,1.645,1.777,1.777,0,0,0,1.429.626,2.461,2.461,0,0,0,1.753-.564,2.734,2.734,0,0,0,.9-1.7l1.148-6.759ZM24.78,61q.1-.766-.841-1.08l-1.285-.376q-1.627-.561-1.572-1.859a2.048,2.048,0,0,1,.892-1.6,3.177,3.177,0,0,1,1.986-.612,2.649,2.649,0,0,1,1.822.653,2.068,2.068,0,0,1,.673,1.665l-1.23-.007a1.154,1.154,0,0,0-.349-.9,1.379,1.379,0,0,0-.964-.362,1.8,1.8,0,0,0-1.107.314,1.151,1.151,0,0,0-.5.807q-.089.643.786.937l.622.171a4.005,4.005,0,0,1,1.8.854A1.632,1.632,0,0,1,26.01,60.9a2.074,2.074,0,0,1-.451,1.2,2.58,2.58,0,0,1-1.094.783,3.658,3.658,0,0,1-1.456.25,2.885,2.885,0,0,1-1.941-.687,2.124,2.124,0,0,1-.738-1.733l1.237.007a1.311,1.311,0,0,0,.4,1,1.515,1.515,0,0,0,1.087.376,2.132,2.132,0,0,0,1.169-.284A1.091,1.091,0,0,0,24.78,61Zm7.014,2a1.657,1.657,0,0,1-.048-.39l.021-.39a3.032,3.032,0,0,1-2.16.916,2.21,2.21,0,0,1-1.589-.619A1.872,1.872,0,0,1,27.459,61a2.277,2.277,0,0,1,1.029-1.835,4.38,4.38,0,0,1,2.526-.66l1.292.007.082-.588a1.352,1.352,0,0,0-.256-1.049,1.237,1.237,0,0,0-.974-.4,1.908,1.908,0,0,0-1.125.311,1.324,1.324,0,0,0-.6.858l-1.244.007A1.983,1.983,0,0,1,28.7,56.5a2.943,2.943,0,0,1,1.142-.779,3.688,3.688,0,0,1,1.442-.263,2.452,2.452,0,0,1,1.8.7,2.173,2.173,0,0,1,.54,1.788l-.6,3.664-.034.526a2.58,2.58,0,0,0,.082.745L33.051,63Zm-1.941-.957a2.158,2.158,0,0,0,1.125-.284,2.847,2.847,0,0,0,.913-.824l.267-1.524-.937-.007a3.547,3.547,0,0,0-1.791.369,1.36,1.36,0,0,0-.7,1.046,1.059,1.059,0,0,0,.243.865A1.156,1.156,0,0,0,29.852,62.043Zm11.587-2.707a5.763,5.763,0,0,1-.622,2.044,3.484,3.484,0,0,1-1.176,1.347,2.676,2.676,0,0,1-1.531.417,2.284,2.284,0,0,1-1.989-1L35.868,63H34.726l1.825-10.5h1.237l-.745,3.924a2.719,2.719,0,0,1,2.16-.957,2.063,2.063,0,0,1,1.661.786,3.46,3.46,0,0,1,.629,2.092,6.442,6.442,0,0,1-.041.848Zm-1.176-.714a2.633,2.633,0,0,0-.335-1.526,1.282,1.282,0,0,0-1.087-.556A2.252,2.252,0,0,0,36.886,57.7l-.554,3.216a1.574,1.574,0,0,0,1.538,1.154,1.8,1.8,0,0,0,1.268-.43,2.81,2.81,0,0,0,.824-1.28A5.756,5.756,0,0,0,40.263,58.622ZM43.756,63h-1.23l1.285-7.4h1.23Zm1.019-10.1a.677.677,0,0,1,.523.188.7.7,0,0,1,.208.53.73.73,0,0,1-.731.745.682.682,0,0,1-.526-.185.669.669,0,0,1-.2-.52.776.776,0,0,1,.205-.533A.723.723,0,0,1,44.775,52.9ZM47.12,63h-1.23l1.818-10.5h1.237Zm3.363,0h-1.23l1.285-7.4h1.23ZM51.5,52.9a.677.677,0,0,1,.523.188.7.7,0,0,1,.208.53.73.73,0,0,1-.731.745.682.682,0,0,1-.526-.185.669.669,0,0,1-.2-.52.776.776,0,0,1,.205-.533A.723.723,0,0,1,51.5,52.9Zm4.272.909L55.459,55.6h1.347l-.171.978H55.3l-.772,4.6a1.6,1.6,0,0,0-.007.328.521.521,0,0,0,.581.533,3.544,3.544,0,0,0,.6-.068l-.1,1.032a3.366,3.366,0,0,1-.9.123,1.292,1.292,0,0,1-1.107-.543,2.1,2.1,0,0,1-.287-1.425l.752-4.58H52.752l.171-.978h1.306l.314-1.791Zm3.89,7.321L62.3,55.6h1.367L59.274,64.23a2.656,2.656,0,0,1-2.352,1.777,4.029,4.029,0,0,1-.745-.123l.109-1.025.321.034a1.622,1.622,0,0,0,1.015-.263,2.426,2.426,0,0,0,.755-.94l.444-.848L57.544,55.6h1.292ZM75.072,54.12h-3.1L70.437,63H69.159L70.7,54.12H67.6l.191-1.073h7.472Zm2.96,9.017a2.667,2.667,0,0,1-2.16-1.019,3.505,3.505,0,0,1-.656-2.536l.034-.294a4.921,4.921,0,0,1,.653-2.01,3.8,3.8,0,0,1,1.309-1.371,3.054,3.054,0,0,1,1.668-.441,2.352,2.352,0,0,1,1.791.759,3.121,3.121,0,0,1,.711,1.982,5.793,5.793,0,0,1-.027.889l-.075.567H76.446a2.5,2.5,0,0,0,.332,1.709,1.57,1.57,0,0,0,1.357.731,2.631,2.631,0,0,0,2.023-.984l.711.6a3.253,3.253,0,0,1-1.2,1.049A3.4,3.4,0,0,1,78.032,63.137Zm.786-6.638a1.807,1.807,0,0,0-1.336.52,3.693,3.693,0,0,0-.906,1.606l3.6.007.027-.109a2.024,2.024,0,0,0-.277-1.432A1.3,1.3,0,0,0,78.818,56.5ZM86.672,61q.1-.766-.841-1.08l-1.285-.376q-1.627-.561-1.572-1.859a2.048,2.048,0,0,1,.892-1.6,3.177,3.177,0,0,1,1.986-.612,2.649,2.649,0,0,1,1.822.653,2.068,2.068,0,0,1,.673,1.665l-1.23-.007a1.154,1.154,0,0,0-.349-.9,1.379,1.379,0,0,0-.964-.362,1.8,1.8,0,0,0-1.107.314,1.151,1.151,0,0,0-.5.807q-.089.643.786.937l.622.171a4.005,4.005,0,0,1,1.8.854A1.632,1.632,0,0,1,87.9,60.9a2.074,2.074,0,0,1-.451,1.2,2.58,2.58,0,0,1-1.094.783,3.658,3.658,0,0,1-1.456.25,2.885,2.885,0,0,1-1.941-.687,2.124,2.124,0,0,1-.738-1.733l1.237.007a1.311,1.311,0,0,0,.4,1,1.515,1.515,0,0,0,1.087.376,2.132,2.132,0,0,0,1.169-.284A1.091,1.091,0,0,0,86.672,61Zm5.756-7.185L92.114,55.6H93.46l-.171.978H91.95l-.772,4.6a1.6,1.6,0,0,0-.007.328.521.521,0,0,0,.581.533,3.544,3.544,0,0,0,.6-.068l-.1,1.032a3.366,3.366,0,0,1-.9.123,1.292,1.292,0,0,1-1.107-.543,2.1,2.1,0,0,1-.287-1.425l.752-4.58H89.407l.171-.978h1.306l.314-1.791ZM95.005,63h-1.23l1.285-7.4h1.23Zm1.019-10.1a.677.677,0,0,1,.523.188.7.7,0,0,1,.208.53.73.73,0,0,1-.731.745.682.682,0,0,1-.526-.185.669.669,0,0,1-.2-.52.775.775,0,0,1,.205-.533A.723.723,0,0,1,96.024,52.9ZM99.483,55.6l-.178.937a2.916,2.916,0,0,1,2.27-1.066,1.835,1.835,0,0,1,1.545.725,2.815,2.815,0,0,1,.369,1.962L102.682,63h-1.237l.813-4.862a2.592,2.592,0,0,0,.007-.621,1.022,1.022,0,0,0-1.128-.976,2.329,2.329,0,0,0-1.955,1.188L98.266,63H97.029l1.285-7.4Zm5.469,3.691a6.028,6.028,0,0,1,.653-2.1,3.414,3.414,0,0,1,1.189-1.319,2.757,2.757,0,0,1,1.535-.407,2.276,2.276,0,0,1,1.941.971l.246-.827h1.135l-1.23,7.239a3.6,3.6,0,0,1-1.148,2.266,3.235,3.235,0,0,1-2.345.81,3.329,3.329,0,0,1-1.439-.355,2.736,2.736,0,0,1-1.083-.937l.7-.759a2.219,2.219,0,0,0,3.264.526,2.54,2.54,0,0,0,.81-1.477l.137-.656a2.8,2.8,0,0,1-2.112.875,2.175,2.175,0,0,1-1.2-.373,2.265,2.265,0,0,1-.79-1.019,4.164,4.164,0,0,1-.308-1.487A7.64,7.64,0,0,1,104.952,59.288Zm1.2.7a2.6,2.6,0,0,0,.338,1.512,1.279,1.279,0,0,0,1.083.563,2.241,2.241,0,0,0,1.907-1.086l.581-3.393a1.554,1.554,0,0,0-1.483-1.051,1.919,1.919,0,0,0-1.651.819,4.269,4.269,0,0,0-.762,2.287Zm18.32-6.941L123.32,59.78a3.822,3.822,0,0,1-1.34,2.471,3.934,3.934,0,0,1-2.673.892,3.462,3.462,0,0,1-1.7-.441,2.54,2.54,0,0,1-1.063-1.183,3.229,3.229,0,0,1-.226-1.733l1.148-6.74h1.265L117.591,59.8a2.183,2.183,0,0,0,.355,1.645,1.777,1.777,0,0,0,1.429.626,2.461,2.461,0,0,0,1.753-.564,2.734,2.734,0,0,0,.9-1.7l1.148-6.759Zm5.968,7.349H126.4l-1.36,2.6h-1.374l5.407-9.953H130.2L132.172,63h-1.265Zm-3.466-1.073h3.274l-.827-4.642Zm13.918-5.2h-3.1L136.253,63h-1.278l1.538-8.88h-3.1l.191-1.073h7.472Zm.458,4.867a12.94,12.94,0,0,1,.837-3.076,9.532,9.532,0,0,1,1.5-2.553,6.164,6.164,0,0,1,1.982-1.6l.185.848a7.094,7.094,0,0,0-1.842,2.088,10.746,10.746,0,0,0-1.186,3.063,14.73,14.73,0,0,0-.4,3.5,7.743,7.743,0,0,0,.366,2.492,3.932,3.932,0,0,0,1.056,1.7l-.308.766a4.936,4.936,0,0,1-1.747-2.345,9.044,9.044,0,0,1-.55-3.555,10.806,10.806,0,0,1,.1-1.251Zm12.77-5.94-1.148,6.733a3.822,3.822,0,0,1-1.34,2.471,3.934,3.934,0,0,1-2.673.892,3.462,3.462,0,0,1-1.7-.441,2.54,2.54,0,0,1-1.063-1.183,3.229,3.229,0,0,1-.226-1.733l1.148-6.74h1.265L147.239,59.8a2.183,2.183,0,0,0,.355,1.645,1.777,1.777,0,0,0,1.429.626,2.461,2.461,0,0,0,1.753-.564,2.734,2.734,0,0,0,.9-1.7l1.148-6.759Zm4.7,7.95q.1-.766-.841-1.08l-1.285-.376q-1.627-.561-1.572-1.859a2.048,2.048,0,0,1,.892-1.6,3.177,3.177,0,0,1,1.986-.612,2.649,2.649,0,0,1,1.822.653,2.068,2.068,0,0,1,.673,1.665l-1.23-.007a1.154,1.154,0,0,0-.349-.9,1.379,1.379,0,0,0-.964-.362,1.8,1.8,0,0,0-1.107.314,1.151,1.151,0,0,0-.5.807q-.089.643.786.937l.622.171a4.005,4.005,0,0,1,1.8.854,1.632,1.632,0,0,1,.492,1.306,2.074,2.074,0,0,1-.451,1.2,2.58,2.58,0,0,1-1.094.783,3.658,3.658,0,0,1-1.456.25,2.885,2.885,0,0,1-1.941-.687,2.124,2.124,0,0,1-.738-1.733l1.237.007a1.311,1.311,0,0,0,.4,1,1.515,1.515,0,0,0,1.087.376,2.132,2.132,0,0,0,1.169-.284A1.091,1.091,0,0,0,158.812,61Zm5.688,2.14a2.667,2.667,0,0,1-2.16-1.019,3.505,3.505,0,0,1-.656-2.536l.034-.294a4.921,4.921,0,0,1,.653-2.01,3.8,3.8,0,0,1,1.309-1.371,3.054,3.054,0,0,1,1.668-.441,2.352,2.352,0,0,1,1.791.759,3.121,3.121,0,0,1,.711,1.982,5.792,5.792,0,0,1-.027.889l-.075.567h-4.833a2.5,2.5,0,0,0,.332,1.709,1.57,1.57,0,0,0,1.357.731,2.631,2.631,0,0,0,2.023-.984l.711.6a3.253,3.253,0,0,1-1.2,1.049A3.4,3.4,0,0,1,164.5,63.137Zm.786-6.638a1.807,1.807,0,0,0-1.336.52,3.693,3.693,0,0,0-.906,1.606l3.6.007.027-.109a2.024,2.024,0,0,0-.277-1.432A1.3,1.3,0,0,0,165.286,56.5Zm7.875.232-.581-.062a2.117,2.117,0,0,0-1.873,1.073L169.8,63H168.56l1.285-7.4,1.2-.007-.185.861a2.211,2.211,0,0,1,1.853-1,2.27,2.27,0,0,1,.588.1ZM62.179,84.4H58.146L56.786,87H55.412l5.407-9.953h1.128L63.916,87H62.651Zm-3.466-1.073h3.274l-.827-4.642Zm9.516,2.789a1.877,1.877,0,0,0,1.2-.386,1.837,1.837,0,0,0,.7-1.049l1.169-.007a2.637,2.637,0,0,1-.557,1.271,3.22,3.22,0,0,1-2.56,1.2,2.64,2.64,0,0,1-1.562-.482,2.7,2.7,0,0,1-.94-1.306,4.35,4.35,0,0,1-.205-1.883l.034-.342a4.9,4.9,0,0,1,.622-1.907,3.6,3.6,0,0,1,1.285-1.309,3.192,3.192,0,0,1,1.75-.441,2.5,2.5,0,0,1,1.859.779,2.7,2.7,0,0,1,.7,1.907l-1.155-.007a1.775,1.775,0,0,0-.4-1.172A1.406,1.406,0,0,0,69.1,80.5a1.972,1.972,0,0,0-1.6.718,3.76,3.76,0,0,0-.8,2.064l-.021.178a5.929,5.929,0,0,0-.014.9,2.061,2.061,0,0,0,.451,1.265A1.449,1.449,0,0,0,68.229,86.111Zm7.178,0a1.877,1.877,0,0,0,1.2-.386,1.837,1.837,0,0,0,.7-1.049l1.169-.007a2.637,2.637,0,0,1-.557,1.271,3.22,3.22,0,0,1-2.56,1.2,2.64,2.64,0,0,1-1.562-.482,2.7,2.7,0,0,1-.94-1.306,4.35,4.35,0,0,1-.205-1.883l.034-.342a4.9,4.9,0,0,1,.622-1.907,3.6,3.6,0,0,1,1.285-1.309,3.192,3.192,0,0,1,1.75-.441,2.5,2.5,0,0,1,1.859.779,2.7,2.7,0,0,1,.7,1.907l-1.155-.007a1.775,1.775,0,0,0-.4-1.172,1.406,1.406,0,0,0-1.053-.475,1.972,1.972,0,0,0-1.6.718,3.76,3.76,0,0,0-.8,2.064l-.021.178a5.929,5.929,0,0,0-.014.9,2.061,2.061,0,0,0,.451,1.265A1.449,1.449,0,0,0,75.407,86.111Zm7.253,1.025a2.667,2.667,0,0,1-2.16-1.019,3.505,3.505,0,0,1-.656-2.536l.034-.294a4.921,4.921,0,0,1,.653-2.01,3.8,3.8,0,0,1,1.309-1.371,3.054,3.054,0,0,1,1.668-.441,2.352,2.352,0,0,1,1.791.759,3.121,3.121,0,0,1,.711,1.982,5.793,5.793,0,0,1-.027.889l-.075.567H81.074a2.5,2.5,0,0,0,.332,1.709,1.57,1.57,0,0,0,1.357.731,2.631,2.631,0,0,0,2.023-.984l.711.6a3.253,3.253,0,0,1-1.2,1.049A3.4,3.4,0,0,1,82.66,87.137Zm.786-6.638a1.807,1.807,0,0,0-1.336.52,3.693,3.693,0,0,0-.906,1.606l3.6.007.027-.109a2.024,2.024,0,0,0-.277-1.432A1.3,1.3,0,0,0,83.446,80.5Zm9.974,2.837a5.868,5.868,0,0,1-.608,2.03,3.455,3.455,0,0,1-1.169,1.35,2.676,2.676,0,0,1-1.545.427,2.463,2.463,0,0,1-1.969-.868l-.663,3.568H86.228L88.005,79.6l1.121-.007-.137.827a2.806,2.806,0,0,1,2.194-.957,2.063,2.063,0,0,1,1.661.786,3.46,3.46,0,0,1,.629,2.092,7.362,7.362,0,0,1-.034.848ZM92.2,83.2l.034-.573a2.6,2.6,0,0,0-.379-1.526,1.334,1.334,0,0,0-1.1-.556,2.194,2.194,0,0,0-1.853,1.017L88.286,85.1a1.548,1.548,0,0,0,1.5,1.01,1.946,1.946,0,0,0,1.569-.72A4.18,4.18,0,0,0,92.2,83.2Zm5.476-5.383L97.364,79.6H98.71l-.171.978H97.2l-.772,4.6a1.6,1.6,0,0,0-.007.328.521.521,0,0,0,.581.533,3.544,3.544,0,0,0,.6-.068l-.1,1.032a3.366,3.366,0,0,1-.9.123,1.292,1.292,0,0,1-1.107-.543,2.1,2.1,0,0,1-.287-1.425l.752-4.58H94.657l.171-.978h1.306l.314-1.791ZM103.441,87a1.657,1.657,0,0,1-.048-.39l.021-.39a3.032,3.032,0,0,1-2.16.916,2.21,2.21,0,0,1-1.589-.619A1.872,1.872,0,0,1,99.107,85a2.277,2.277,0,0,1,1.029-1.835,4.38,4.38,0,0,1,2.526-.66l1.292.007.082-.588a1.352,1.352,0,0,0-.256-1.049,1.237,1.237,0,0,0-.974-.4,1.908,1.908,0,0,0-1.125.311,1.324,1.324,0,0,0-.6.858l-1.244.007a1.983,1.983,0,0,1,.506-1.152,2.943,2.943,0,0,1,1.142-.779,3.688,3.688,0,0,1,1.442-.263,2.452,2.452,0,0,1,1.8.7,2.173,2.173,0,0,1,.54,1.788l-.6,3.664-.034.526a2.58,2.58,0,0,0,.082.745L104.7,87Zm-1.941-.957a2.158,2.158,0,0,0,1.125-.284,2.847,2.847,0,0,0,.913-.824l.267-1.524-.937-.007a3.547,3.547,0,0,0-1.791.369,1.36,1.36,0,0,0-.7,1.046,1.059,1.059,0,0,0,.243.865A1.156,1.156,0,0,0,101.5,86.043Zm7.328-6.446-.178.937a2.916,2.916,0,0,1,2.27-1.066,1.835,1.835,0,0,1,1.545.725,2.815,2.815,0,0,1,.369,1.962L112.027,87H110.79l.813-4.862a2.592,2.592,0,0,0,.007-.621,1.022,1.022,0,0,0-1.128-.976,2.329,2.329,0,0,0-1.955,1.188L107.611,87h-1.237l1.285-7.4Zm8.23,6.515a1.877,1.877,0,0,0,1.2-.386,1.837,1.837,0,0,0,.7-1.049l1.169-.007a2.637,2.637,0,0,1-.557,1.271,3.22,3.22,0,0,1-2.56,1.2,2.64,2.64,0,0,1-1.562-.482,2.7,2.7,0,0,1-.94-1.306,4.35,4.35,0,0,1-.205-1.883l.034-.342a4.9,4.9,0,0,1,.622-1.907,3.6,3.6,0,0,1,1.285-1.309,3.192,3.192,0,0,1,1.75-.441,2.5,2.5,0,0,1,1.859.779,2.7,2.7,0,0,1,.7,1.907l-1.155-.007a1.775,1.775,0,0,0-.4-1.172,1.406,1.406,0,0,0-1.053-.475,1.972,1.972,0,0,0-1.6.718,3.76,3.76,0,0,0-.8,2.064l-.021.178a5.929,5.929,0,0,0-.014.9,2.061,2.061,0,0,0,.451,1.265A1.449,1.449,0,0,0,117.058,86.111Zm7.253,1.025a2.667,2.667,0,0,1-2.16-1.019,3.505,3.505,0,0,1-.656-2.536l.034-.294a4.921,4.921,0,0,1,.653-2.01,3.8,3.8,0,0,1,1.309-1.371,3.054,3.054,0,0,1,1.668-.441,2.352,2.352,0,0,1,1.791.759,3.121,3.121,0,0,1,.711,1.982,5.793,5.793,0,0,1-.027.889l-.075.567h-4.833a2.5,2.5,0,0,0,.332,1.709,1.57,1.57,0,0,0,1.357.731,2.631,2.631,0,0,0,2.023-.984l.711.6a3.253,3.253,0,0,1-1.2,1.049A3.4,3.4,0,0,1,124.311,87.137ZM125.1,80.5a1.807,1.807,0,0,0-1.336.52,3.693,3.693,0,0,0-.906,1.606l3.6.007.027-.109a2.024,2.024,0,0,0-.277-1.432A1.3,1.3,0,0,0,125.1,80.5ZM75.479,102.12h-3.1L70.844,111H69.565l1.538-8.88h-3.1l.191-1.073H75.67Zm2.96,9.017a2.667,2.667,0,0,1-2.16-1.019,3.505,3.505,0,0,1-.656-2.536l.034-.294a4.921,4.921,0,0,1,.653-2.01,3.8,3.8,0,0,1,1.309-1.371,3.054,3.054,0,0,1,1.668-.441,2.352,2.352,0,0,1,1.791.759,3.121,3.121,0,0,1,.711,1.982,5.793,5.793,0,0,1-.027.889l-.075.567H76.853a2.5,2.5,0,0,0,.332,1.709,1.57,1.57,0,0,0,1.357.731,2.631,2.631,0,0,0,2.023-.984l.711.6a3.253,3.253,0,0,1-1.2,1.049A3.4,3.4,0,0,1,78.438,111.137Zm.786-6.638a1.807,1.807,0,0,0-1.336.52,3.693,3.693,0,0,0-.906,1.606l3.6.007.027-.109a2.024,2.024,0,0,0-.277-1.432A1.3,1.3,0,0,0,79.225,104.5Zm7.854,4.5q.1-.766-.841-1.08l-1.285-.376q-1.627-.561-1.572-1.859a2.048,2.048,0,0,1,.892-1.6,3.177,3.177,0,0,1,1.986-.612,2.649,2.649,0,0,1,1.822.653,2.068,2.068,0,0,1,.673,1.665l-1.23-.007a1.154,1.154,0,0,0-.349-.9,1.379,1.379,0,0,0-.964-.362,1.8,1.8,0,0,0-1.107.314,1.151,1.151,0,0,0-.5.807q-.089.643.786.937l.622.171a4.005,4.005,0,0,1,1.8.854,1.632,1.632,0,0,1,.492,1.306,2.074,2.074,0,0,1-.451,1.2,2.58,2.58,0,0,1-1.094.783,3.658,3.658,0,0,1-1.456.25,2.886,2.886,0,0,1-1.941-.687,2.124,2.124,0,0,1-.738-1.733l1.237.007a1.311,1.311,0,0,0,.4,1,1.515,1.515,0,0,0,1.087.376,2.131,2.131,0,0,0,1.169-.284A1.091,1.091,0,0,0,87.079,109Zm5.756-7.185-.314,1.791h1.347l-.171.978h-1.34l-.772,4.6a1.6,1.6,0,0,0-.007.328.521.521,0,0,0,.581.533,3.544,3.544,0,0,0,.6-.068l-.1,1.032a3.366,3.366,0,0,1-.9.123,1.292,1.292,0,0,1-1.107-.543,2.1,2.1,0,0,1-.287-1.425l.752-4.58H89.813l.171-.978H91.29l.314-1.791ZM95.412,111h-1.23l1.285-7.4H96.7Zm1.019-10.1a.677.677,0,0,1,.523.188.7.7,0,0,1,.208.53.73.73,0,0,1-.731.745.681.681,0,0,1-.526-.185.669.669,0,0,1-.2-.52.775.775,0,0,1,.205-.533A.723.723,0,0,1,96.431,100.9ZM99.89,103.6l-.178.937a2.916,2.916,0,0,1,2.27-1.066,1.835,1.835,0,0,1,1.545.725,2.815,2.815,0,0,1,.369,1.962L103.089,111h-1.237l.813-4.862a2.592,2.592,0,0,0,.007-.621,1.022,1.022,0,0,0-1.128-.976,2.329,2.329,0,0,0-1.955,1.188L98.673,111H97.436l1.285-7.4Zm5.469,3.691a6.028,6.028,0,0,1,.653-2.1,3.414,3.414,0,0,1,1.189-1.319,2.757,2.757,0,0,1,1.535-.407,2.276,2.276,0,0,1,1.941.971l.246-.827h1.135l-1.23,7.239a3.6,3.6,0,0,1-1.148,2.266,3.235,3.235,0,0,1-2.345.81,3.329,3.329,0,0,1-1.439-.355,2.736,2.736,0,0,1-1.083-.937l.7-.759a2.219,2.219,0,0,0,3.264.526,2.54,2.54,0,0,0,.81-1.477l.137-.656a2.8,2.8,0,0,1-2.112.875,2.175,2.175,0,0,1-1.2-.373,2.265,2.265,0,0,1-.79-1.019,4.164,4.164,0,0,1-.308-1.487A7.64,7.64,0,0,1,105.358,107.288Zm1.2.7a2.6,2.6,0,0,0,.338,1.512,1.279,1.279,0,0,0,1.083.563,2.241,2.241,0,0,0,1.907-1.086l.581-3.393a1.554,1.554,0,0,0-1.483-1.051,1.919,1.919,0,0,0-1.651.819,4.269,4.269,0,0,0-.762,2.287Zm9.659-.987a12.684,12.684,0,0,1-.868,3.155,9.486,9.486,0,0,1-1.507,2.509,6.268,6.268,0,0,1-1.945,1.555l-.191-.786a8.976,8.976,0,0,0,3.131-5.667,14.73,14.73,0,0,0,.3-3.028,5.572,5.572,0,0,0-1.422-4.2l.321-.766a4.532,4.532,0,0,1,1.3,1.418,6.689,6.689,0,0,1,.779,2.058,10.537,10.537,0,0,1,.222,2.43,11.676,11.676,0,0,1-.1,1.251Z" transform="translate(1071.693 19048.145)" fill="#fff"/>
    <path id="Trazado_827917" data-name="Trazado 827917" d="M126.673,63.575c-.343,0-.716.031-1.059.031v-.311a20.728,20.728,0,0,0-17.936-20.521v-.187a4.306,4.306,0,0,0-4.3-4.3,4.385,4.385,0,0,0-1.682.343,28.761,28.761,0,0,0-53.28,5.356,11.6,11.6,0,0,0-3.3-.5,11.189,11.189,0,0,0-9.9,16.38,15.276,15.276,0,0,0,.374,30.548h91.084a13.421,13.421,0,0,0,0-26.842Z" transform="translate(815.722 18952)" fill="#3a4d9d"/>
    <path id="Trazado_827917-2" data-name="Trazado 827917" d="M126.673,63.575c-.343,0-.716.031-1.059.031v-.311a20.728,20.728,0,0,0-17.936-20.521v-.187a4.306,4.306,0,0,0-4.3-4.3,4.385,4.385,0,0,0-1.682.343,28.761,28.761,0,0,0-53.28,5.356,11.6,11.6,0,0,0-3.3-.5,11.189,11.189,0,0,0-9.9,16.38,15.276,15.276,0,0,0,.374,30.548h91.084a13.421,13.421,0,0,0,0-26.842Z" transform="translate(1166.02 18952)" fill="#3c531c"/>
    <path id="Trazado_830677" data-name="Trazado 830677" d="M-20.9-1.86h-2.881L-24.749,0h-.981l3.862-7.109h.806L-19.656,0h-.9Zm-2.476-.767h2.339l-.591-3.315Zm7.866,2.1A2.04,2.04,0,0,1-17.083.1,1.317,1.317,0,0,1-18.2-.444a2.073,2.073,0,0,1-.271-1.426l.566-3.413h.884L-17.6-1.855a2.277,2.277,0,0,0-.01.42.874.874,0,0,0,.21.552.716.716,0,0,0,.518.215,1.585,1.585,0,0,0,1.465-.767l.664-3.848h.884L-14.783,0h-.835Zm4.375-6.04-.225,1.279h.962l-.122.7h-.957L-12.024-1.3a1.146,1.146,0,0,0,0,.234.372.372,0,0,0,.415.381,2.531,2.531,0,0,0,.43-.049L-11.252,0A2.4,2.4,0,0,1-11.9.093.923.923,0,0,1-12.688-.3a1.5,1.5,0,0,1-.205-1.018l.537-3.271h-.933l.122-.7h.933l.225-1.279ZM-7.41-5.381a1.9,1.9,0,0,1,1.138.361,2.053,2.053,0,0,1,.7.969A3,3,0,0,1-5.417-2.7l-.01.107A3.553,3.553,0,0,1-5.886-1.2a2.693,2.693,0,0,1-.947.969A2.31,2.31,0,0,1-8.108.1,1.908,1.908,0,0,1-9.243-.264a2.006,2.006,0,0,1-.7-.957A3.082,3.082,0,0,1-10.1-2.554a3.6,3.6,0,0,1,.444-1.475A2.756,2.756,0,0,1-8.7-5.042,2.283,2.283,0,0,1-7.41-5.381Zm-1.8,2.832a3,3,0,0,0,0,.64,1.567,1.567,0,0,0,.344.918,1.033,1.033,0,0,0,.789.356,1.408,1.408,0,0,0,.811-.217,1.824,1.824,0,0,0,.625-.7,2.951,2.951,0,0,0,.327-1.04A4.684,4.684,0,0,0-6.3-3.35a1.626,1.626,0,0,0-.356-.933,1.056,1.056,0,0,0-.791-.361,1.44,1.44,0,0,0-1.162.537A2.653,2.653,0,0,0-9.2-2.661ZM-3.02-5.288l-.112.591a2.066,2.066,0,0,1,1.606-.684,1.63,1.63,0,0,1,.852.229,1.126,1.126,0,0,1,.481.62,2.181,2.181,0,0,1,1.753-.85,1.4,1.4,0,0,1,1.167.532,1.9,1.9,0,0,1,.278,1.377L2.424,0H1.545l.576-3.481a1.839,1.839,0,0,0,0-.464q-.093-.664-.869-.679a1.335,1.335,0,0,0-.876.3,1.389,1.389,0,0,0-.505.813L-.73,0h-.889l.586-3.477A1.116,1.116,0,0,0-1.2-4.312a.861.861,0,0,0-.706-.3,1.447,1.447,0,0,0-1.313.752L-3.884,0h-.884l.918-5.283ZM7.019,0a1.183,1.183,0,0,1-.034-.278L7-.557A2.166,2.166,0,0,1,5.457.1,1.579,1.579,0,0,1,4.321-.344a1.337,1.337,0,0,1-.4-1.082,1.626,1.626,0,0,1,.735-1.311,3.128,3.128,0,0,1,1.8-.471l.923,0,.059-.42a.965.965,0,0,0-.183-.75.884.884,0,0,0-.7-.286,1.363,1.363,0,0,0-.8.222.946.946,0,0,0-.427.613l-.889,0a1.416,1.416,0,0,1,.361-.823A2.1,2.1,0,0,1,5.623-5.2a2.634,2.634,0,0,1,1.03-.188,1.752,1.752,0,0,1,1.284.5,1.552,1.552,0,0,1,.386,1.277L7.893-.991l-.024.376a1.843,1.843,0,0,0,.059.532L7.917,0ZM5.632-.684a1.541,1.541,0,0,0,.8-.2,2.034,2.034,0,0,0,.652-.588l.19-1.089-.669,0A2.534,2.534,0,0,0,5.33-2.3a.971.971,0,0,0-.5.747A.756.756,0,0,0,5-.94.826.826,0,0,0,5.632-.684Zm5.815-5.879-.225,1.279h.962l-.122.7h-.957L10.554-1.3a1.146,1.146,0,0,0,0,.234.372.372,0,0,0,.415.381,2.531,2.531,0,0,0,.43-.049L11.326,0a2.4,2.4,0,0,1-.645.088A.923.923,0,0,1,9.89-.3a1.5,1.5,0,0,1-.205-1.018l.537-3.271H9.29l.122-.7h.933l.225-1.279ZM14.617.1A1.9,1.9,0,0,1,13.074-.63,2.5,2.5,0,0,1,12.6-2.441l.024-.21A3.515,3.515,0,0,1,13.1-4.087a2.712,2.712,0,0,1,.935-.979,2.182,2.182,0,0,1,1.191-.315,1.68,1.68,0,0,1,1.279.542,2.229,2.229,0,0,1,.508,1.416,4.138,4.138,0,0,1-.02.635l-.054.405H13.484a1.785,1.785,0,0,0,.237,1.221,1.122,1.122,0,0,0,.969.522,1.88,1.88,0,0,0,1.445-.7l.508.43a2.324,2.324,0,0,1-.857.75A2.429,2.429,0,0,1,14.617.1Zm.562-4.741a1.291,1.291,0,0,0-.955.371,2.638,2.638,0,0,0-.647,1.147l2.568,0,.02-.078a1.445,1.445,0,0,0-.2-1.023A.93.93,0,0,0,15.178-4.644Zm2.593,1.992a4.111,4.111,0,0,1,.444-1.455,2.519,2.519,0,0,1,.854-.972,1.954,1.954,0,0,1,1.118-.308,1.65,1.65,0,0,1,1.357.645L22.053-7.5h.884L21.638,0h-.806l.093-.566A1.948,1.948,0,0,1,19.382.1a1.46,1.46,0,0,1-1.167-.574,2.5,2.5,0,0,1-.469-1.487A4.748,4.748,0,0,1,17.771-2.651Zm.85.5a1.831,1.831,0,0,0,.249,1.083.9.9,0,0,0,.771.4A1.6,1.6,0,0,0,21-1.44l.42-2.438a1.1,1.1,0,0,0-1.064-.741,1.339,1.339,0,0,0-.92.315,2.035,2.035,0,0,0-.605.922A3.8,3.8,0,0,0,18.621-2.147ZM-20.1,13.125A2.236,2.236,0,0,1-19.019,11.5l.557-.371-.21-.376a2.189,2.189,0,0,1-.312-1.2,1.885,1.885,0,0,1,.586-1.3,1.805,1.805,0,0,1,1.328-.471,1.533,1.533,0,0,1,1.089.427,1.269,1.269,0,0,1,.391,1.038,2.072,2.072,0,0,1-1.04,1.538l-.718.479,1.216,1.86a3.4,3.4,0,0,0,.557-1.416h.786a3.605,3.605,0,0,1-.884,2.085l.767,1.2h-.986l-.356-.552a2.874,2.874,0,0,1-1.87.645,2.065,2.065,0,0,1-1.484-.559A1.7,1.7,0,0,1-20.1,13.125Zm2.012,1.235a2.224,2.224,0,0,0,1.387-.552l-1.323-2.07-.21.146A1.99,1.99,0,0,0-19.2,13.13,1.038,1.038,0,0,0-18.97,14,1.141,1.141,0,0,0-18.091,14.36Zm-.024-4.834a1.554,1.554,0,0,0,.239.9l.132.229.747-.5a1.3,1.3,0,0,0,.576-.9.621.621,0,0,0-.171-.518.71.71,0,0,0-.532-.205.887.887,0,0,0-.679.3A1.17,1.17,0,0,0-18.115,9.526Zm8.877-1.636,1.245,5.791,3.262-5.791h1.206L-4.761,15h-.913l.488-2.812L-4.6,9.326-7.827,15h-.7L-9.8,9.214l-.439,3.066L-10.713,15h-.918L-10.4,7.891ZM-.02,15a1.183,1.183,0,0,1-.034-.278l.015-.278a2.166,2.166,0,0,1-1.543.654,1.579,1.579,0,0,1-1.135-.442,1.337,1.337,0,0,1-.4-1.082,1.626,1.626,0,0,1,.735-1.311,3.128,3.128,0,0,1,1.8-.471l.923,0,.059-.42a.965.965,0,0,0-.183-.75.884.884,0,0,0-.7-.286,1.363,1.363,0,0,0-.8.222.946.946,0,0,0-.427.613l-.889,0a1.416,1.416,0,0,1,.361-.823A2.1,2.1,0,0,1-1.416,9.8a2.634,2.634,0,0,1,1.03-.188,1.752,1.752,0,0,1,1.284.5,1.552,1.552,0,0,1,.386,1.277l-.43,2.617-.024.376a1.843,1.843,0,0,0,.059.532L.879,15Zm-1.387-.684a1.541,1.541,0,0,0,.8-.2,2.034,2.034,0,0,0,.652-.588l.19-1.089-.669,0a2.534,2.534,0,0,0-1.279.264.971.971,0,0,0-.5.747.756.756,0,0,0,.173.618A.826.826,0,0,0-1.406,14.316Zm5.234-4.6-.127.669a2.083,2.083,0,0,1,1.621-.762,1.311,1.311,0,0,1,1.1.518,2.011,2.011,0,0,1,.264,1.4L6.113,15H5.229l.581-3.473a1.851,1.851,0,0,0,0-.444.73.73,0,0,0-.806-.7,1.663,1.663,0,0,0-1.4.849L2.959,15H2.075l.918-5.283Zm7,4.766a2.04,2.04,0,0,1-1.577.62,1.317,1.317,0,0,1-1.121-.542,2.073,2.073,0,0,1-.271-1.426l.566-3.413h.884L8.74,13.145a2.277,2.277,0,0,0-.01.42.874.874,0,0,0,.21.552.716.716,0,0,0,.518.215,1.585,1.585,0,0,0,1.465-.767l.664-3.848h.884L11.553,15h-.835ZM16.1,15a1.183,1.183,0,0,1-.034-.278l.015-.278a2.166,2.166,0,0,1-1.543.654,1.579,1.579,0,0,1-1.135-.442,1.337,1.337,0,0,1-.4-1.082,1.626,1.626,0,0,1,.735-1.311,3.128,3.128,0,0,1,1.8-.471l.923,0,.059-.42a.965.965,0,0,0-.183-.75.884.884,0,0,0-.7-.286,1.363,1.363,0,0,0-.8.222.946.946,0,0,0-.427.613l-.889,0a1.416,1.416,0,0,1,.361-.823,2.1,2.1,0,0,1,.815-.557,2.634,2.634,0,0,1,1.03-.188,1.752,1.752,0,0,1,1.284.5,1.552,1.552,0,0,1,.386,1.277l-.43,2.617-.024.376a1.843,1.843,0,0,0,.059.532L17,15Zm-1.387-.684a1.541,1.541,0,0,0,.8-.2,2.034,2.034,0,0,0,.652-.588l.19-1.089-.669,0a2.534,2.534,0,0,0-1.279.264.971.971,0,0,0-.5.747.756.756,0,0,0,.173.618A.826.826,0,0,0,14.717,14.316ZM19.155,15h-.879l1.3-7.5h.884Z" transform="translate(890.77 19009.119)" fill="#fff"/>
    <path id="Trazado_830669" data-name="Trazado 830669" d="M-12.153-6.4l1.121,5.212L-8.1-6.4h1.085L-8.123,0h-.822l.439-2.531.523-2.575L-10.883,0h-.633l-1.143-5.208-.4,2.76L-13.48,0h-.826l1.112-6.4Zm8.3,6.4a1.065,1.065,0,0,1-.031-.25l.013-.25A1.949,1.949,0,0,1-5.262.088a1.421,1.421,0,0,1-1.022-.4,1.2,1.2,0,0,1-.358-.973,1.464,1.464,0,0,1,.661-1.18,2.816,2.816,0,0,1,1.624-.424l.831,0,.053-.378a.869.869,0,0,0-.165-.675.8.8,0,0,0-.626-.257,1.227,1.227,0,0,0-.723.2.851.851,0,0,0-.385.552l-.8,0a1.275,1.275,0,0,1,.325-.74,1.892,1.892,0,0,1,.734-.5,2.371,2.371,0,0,1,.927-.169A1.576,1.576,0,0,1-3.03-4.4a1.4,1.4,0,0,1,.347,1.149L-3.07-.892l-.022.338a1.659,1.659,0,0,0,.053.479L-3.048,0ZM-5.1-.615A1.387,1.387,0,0,0-4.381-.8a1.83,1.83,0,0,0,.587-.53l.171-.98-.6,0a2.28,2.28,0,0,0-1.151.237.874.874,0,0,0-.453.672.681.681,0,0,0,.156.556A.743.743,0,0,0-5.1-.615ZM-.393-4.759l-.114.6A1.875,1.875,0,0,1,.951-4.843a1.18,1.18,0,0,1,.993.466,1.81,1.81,0,0,1,.237,1.261L1.663,0h-.8l.523-3.126a1.666,1.666,0,0,0,0-.4A.657.657,0,0,0,.67-4.153a1.5,1.5,0,0,0-1.257.764L-1.176,0h-.8l.826-4.755ZM5.908-.47A1.836,1.836,0,0,1,4.489.088,1.185,1.185,0,0,1,3.48-.4a1.866,1.866,0,0,1-.244-1.283l.51-3.072h.8L4.028-1.67a2.049,2.049,0,0,0-.009.378.786.786,0,0,0,.189.5A.645.645,0,0,0,4.674-.6a1.427,1.427,0,0,0,1.318-.69l.6-3.463h.8L6.559,0H5.807ZM10.655,0a1.065,1.065,0,0,1-.031-.25l.013-.25A1.949,1.949,0,0,1,9.248.088a1.421,1.421,0,0,1-1.022-.4,1.2,1.2,0,0,1-.358-.973,1.464,1.464,0,0,1,.661-1.18,2.816,2.816,0,0,1,1.624-.424l.831,0,.053-.378a.869.869,0,0,0-.165-.675.8.8,0,0,0-.626-.257,1.227,1.227,0,0,0-.723.2.851.851,0,0,0-.385.552l-.8,0a1.275,1.275,0,0,1,.325-.74,1.892,1.892,0,0,1,.734-.5,2.371,2.371,0,0,1,.927-.169,1.576,1.576,0,0,1,1.156.45,1.4,1.4,0,0,1,.347,1.149L11.441-.892l-.022.338a1.659,1.659,0,0,0,.053.479L11.463,0ZM9.406-.615A1.387,1.387,0,0,0,10.129-.8a1.83,1.83,0,0,0,.587-.53l.171-.98-.6,0a2.28,2.28,0,0,0-1.151.237.874.874,0,0,0-.453.672.681.681,0,0,0,.156.556A.743.743,0,0,0,9.406-.615ZM13.4,0H12.61l1.169-6.75h.8Z" transform="translate(1239.698 19021.393)" fill="#fff"/>
    <path id="Trazado_830671" data-name="Trazado 830671" d="M13,0H45.914a13,13,0,0,1,13,13V25.969H0V13A13,13,0,0,1,13,0Z" transform="translate(1027.701 19140.957)" fill="#e9ba20"/>
    <path id="Trazado_830676" data-name="Trazado 830676" d="M-1.061-3.754A5.052,5.052,0,0,1-1.7-1.829a3.944,3.944,0,0,1-1.238,1.3L-1.893.5l-1.219.924L-4.5.081A3.963,3.963,0,0,1-4.949.1a2.771,2.771,0,0,1-1.4-.36,2.517,2.517,0,0,1-.964-1.021A3.758,3.758,0,0,1-7.726-2.8a6.2,6.2,0,0,1,.091-1.431,5.392,5.392,0,0,1,.478-1.5,4.044,4.044,0,0,1,1.4-1.63,3.388,3.388,0,0,1,1.982-.561,2.832,2.832,0,0,1,1.4.368,2.557,2.557,0,0,1,.964,1.026A3.712,3.712,0,0,1-1-5.017a4.991,4.991,0,0,1-.027.951ZM-2.839-5.06a1.87,1.87,0,0,0-.3-1.037.961.961,0,0,0-.744-.36,1.456,1.456,0,0,0-1.268.612,3.982,3.982,0,0,0-.655,1.9,6.443,6.443,0,0,0-.075,1.192q.054,1.359,1.053,1.4a1.408,1.408,0,0,0,1.217-.567,3.72,3.72,0,0,0,.674-1.791A7.445,7.445,0,0,0-2.839-5.06ZM4.5,0H-.8L-.61-1.246,2.173-3.83l.381-.381a2.218,2.218,0,0,0,.822-1.7.614.614,0,0,0-.645-.639.848.848,0,0,0-.7.336,1.718,1.718,0,0,0-.357.905L-.083-5.3A2.682,2.682,0,0,1,.363-6.647,2.777,2.777,0,0,1,1.439-7.6a3.07,3.07,0,0,1,1.437-.338,2.54,2.54,0,0,1,1.772.62A1.908,1.908,0,0,1,5.2-5.7,2.642,2.642,0,0,1,4.8-4.528a6.035,6.035,0,0,1-1.007,1.2l-.816.752L1.764-1.407,4.719-1.4Z" transform="translate(1041.648 19158.145)" fill="#fff"/>
    <path id="Trazado_830672" data-name="Trazado 830672" d="M-1.061-3.754A5.052,5.052,0,0,1-1.7-1.829a3.944,3.944,0,0,1-1.238,1.3L-1.893.5l-1.219.924L-4.5.081A3.963,3.963,0,0,1-4.949.1a2.771,2.771,0,0,1-1.4-.36,2.517,2.517,0,0,1-.964-1.021A3.758,3.758,0,0,1-7.726-2.8a6.2,6.2,0,0,1,.091-1.431,5.392,5.392,0,0,1,.478-1.5,4.044,4.044,0,0,1,1.4-1.63,3.388,3.388,0,0,1,1.982-.561,2.832,2.832,0,0,1,1.4.368,2.557,2.557,0,0,1,.964,1.026A3.712,3.712,0,0,1-1-5.017a4.991,4.991,0,0,1-.027.951ZM-2.839-5.06a1.87,1.87,0,0,0-.3-1.037.961.961,0,0,0-.744-.36,1.456,1.456,0,0,0-1.268.612,3.982,3.982,0,0,0-.655,1.9,6.443,6.443,0,0,0-.075,1.192q.054,1.359,1.053,1.4a1.408,1.408,0,0,0,1.217-.567,3.72,3.72,0,0,0,.674-1.791A7.445,7.445,0,0,0-2.839-5.06Zm4.367.392.79.005a1.212,1.212,0,0,0,.795-.281A1.143,1.143,0,0,0,3.483-5.7a.777.777,0,0,0-.145-.6.691.691,0,0,0-.564-.241.945.945,0,0,0-.618.193.9.9,0,0,0-.344.541L.04-5.8A1.966,1.966,0,0,1,.448-6.922a2.435,2.435,0,0,1,1-.756A3.335,3.335,0,0,1,2.8-7.938a2.824,2.824,0,0,1,1.858.62,1.841,1.841,0,0,1,.618,1.582A2.125,2.125,0,0,1,3.827-3.985a1.761,1.761,0,0,1,.779.714A1.876,1.876,0,0,1,4.837-2.24,2.164,2.164,0,0,1,4.38-.986a2.677,2.677,0,0,1-1.123.822A3.751,3.751,0,0,1,1.748.107,2.81,2.81,0,0,1,.473-.19,2.112,2.112,0,0,1-.406-1a2.228,2.228,0,0,1-.3-1.18H1.055a.934.934,0,0,0,.226.63.815.815,0,0,0,.618.258,1.181,1.181,0,0,0,.79-.264A1.089,1.089,0,0,0,3.1-2.275a.987.987,0,0,0-.142-.751.851.851,0,0,0-.69-.288l-.945-.005Z" transform="translate(1071.693 19158.145)" fill="#fff"/>
    <path id="Trazado_830675" data-name="Trazado 830675" d="M0,0V129.606" transform="translate(1057.158 19037.32)" fill="none" stroke="#fff" stroke-width="1"/>
  </g>
</svg>
