<svg xmlns="http://www.w3.org/2000/svg" width="299.801" height="270.711" viewBox="0 0 299.801 270.711">
  <g id="Grupo_1084969" data-name="Grupo 1084969" transform="translate(-859.699 -19900.975)">
    <path id="Trazado_830699" data-name="Trazado 830699" d="M10.346,13.922q.172-.883-.953-1.367l-1.281-.531q-2.7-1.211-2.562-3.3a2.91,2.91,0,0,1,.656-1.7,3.9,3.9,0,0,1,1.664-1.16,6.123,6.123,0,0,1,2.32-.4,3.946,3.946,0,0,1,2.715.984,3.27,3.27,0,0,1,1.012,2.555H11.26a1.591,1.591,0,0,0-.277-1.051,1.2,1.2,0,0,0-.988-.41,2.071,2.071,0,0,0-1.187.313,1.268,1.268,0,0,0-.609.883q-.148.781,1.16,1.281a12.757,12.757,0,0,1,1.9.859A3.141,3.141,0,0,1,13.01,13.9a3.088,3.088,0,0,1-.633,1.727,3.658,3.658,0,0,1-1.582,1.148,5.845,5.845,0,0,1-2.27.391,5.479,5.479,0,0,1-1.711-.289,3.765,3.765,0,0,1-1.352-.8A3.462,3.462,0,0,1,4.369,13.3l2.68.008a1.835,1.835,0,0,0,.336,1.324,1.614,1.614,0,0,0,1.289.449,1.934,1.934,0,0,0,1.121-.309A1.281,1.281,0,0,0,10.346,13.922ZM19,16.078a2.8,2.8,0,0,1-2.281,1.086,2.215,2.215,0,0,1-1.871-.867,3.2,3.2,0,0,1-.488-2.281l.914-5.469h2.57l-.93,5.507a1.835,1.835,0,0,0,0,.415.68.68,0,0,0,.758.665,1.661,1.661,0,0,0,1.383-.641L20.1,8.547h2.586L21.221,17H18.83Zm11.953-3.3a7.022,7.022,0,0,1-.7,2.363,3.865,3.865,0,0,1-1.316,1.539,3.037,3.037,0,0,1-1.754.48,2.3,2.3,0,0,1-1.8-.875l-.766,3.961h-2.57l2.031-11.7,2.375-.008-.133.8a2.485,2.485,0,0,1,2.008-.953,2.366,2.366,0,0,1,1.926.883A3.9,3.9,0,0,1,31,11.641,9.133,9.133,0,0,1,30.955,12.781Zm-2.5-1.047q-.039-1.289-.875-1.312a1.515,1.515,0,0,0-1.352.664l-.6,3.352a1.043,1.043,0,0,0,1.078.7q1.367.023,1.68-2.352Q28.455,12.031,28.455,11.734Zm11.312,1.047a7.022,7.022,0,0,1-.7,2.363,3.865,3.865,0,0,1-1.316,1.539,3.037,3.037,0,0,1-1.754.48,2.3,2.3,0,0,1-1.8-.875l-.766,3.961h-2.57L32.9,8.547l2.375-.008-.133.8a2.485,2.485,0,0,1,2.008-.953,2.366,2.366,0,0,1,1.926.883,3.9,3.9,0,0,1,.738,2.367A9.132,9.132,0,0,1,39.767,12.781Zm-2.5-1.047q-.039-1.289-.875-1.312a1.515,1.515,0,0,0-1.352.664l-.6,3.352a1.043,1.043,0,0,0,1.078.7q1.367.023,1.68-2.352Q37.267,12.031,37.267,11.734Zm7.891-3.344a3.55,3.55,0,0,1,1.961.566,3.191,3.191,0,0,1,1.215,1.535,4.737,4.737,0,0,1,.277,2.188l-.016.172a5.01,5.01,0,0,1-1.445,3.141,4.067,4.067,0,0,1-3.031,1.164,3.535,3.535,0,0,1-1.945-.559,3.211,3.211,0,0,1-1.215-1.52,4.6,4.6,0,0,1-.285-2.172A5.211,5.211,0,0,1,42.1,9.594,4.041,4.041,0,0,1,45.158,8.391ZM43.244,12.91l-.023.46q-.109,1.739,1.063,1.771,1.516.047,1.758-2.457l.031-.71a1.916,1.916,0,0,0-.262-1.119.954.954,0,0,0-.816-.433A1.344,1.344,0,0,0,43.826,11,3.8,3.8,0,0,0,43.244,12.91Zm11.883-1.98a7.354,7.354,0,0,0-.8-.078,1.985,1.985,0,0,0-1.766.8L51.611,17h-2.57L50.51,8.547l2.4-.008-.2,1.109a2.347,2.347,0,0,1,1.953-1.281,3.683,3.683,0,0,1,.8.109ZM60.2,6.445l-.367,2.1h1.352l-.32,1.828H59.51l-.656,3.883a1.035,1.035,0,0,0,.051.6q.105.2.527.219a6.109,6.109,0,0,0,.672-.039l-.187,1.906a4.154,4.154,0,0,1-1.383.2,2.278,2.278,0,0,1-1.789-.7,2.4,2.4,0,0,1-.484-1.867l.688-4.2H55.9l.313-1.828H57.26l.367-2.1ZM63.494,17H60.916l1.469-8.453h2.578ZM62.611,6.414a1.192,1.192,0,0,1,.4-.953,1.444,1.444,0,0,1,1.012-.383,1.491,1.491,0,0,1,1,.344,1.172,1.172,0,0,1,.418.9,1.194,1.194,0,0,1-.4.957,1.449,1.449,0,0,1-1.016.379,1.51,1.51,0,0,1-1-.34A1.158,1.158,0,0,1,62.611,6.414Zm6.328,2.125-.18,1.016A3,3,0,0,1,71.2,8.383a2.018,2.018,0,0,1,1.746.871,3.646,3.646,0,0,1,.418,2.426L72.478,17H69.9l.9-5.342a2.763,2.763,0,0,0,.016-.5q-.055-.743-.875-.743a1.606,1.606,0,0,0-1.242.6L67.642,17h-2.57l1.469-8.453Zm5.453,4.219a6.423,6.423,0,0,1,.7-2.3,4.057,4.057,0,0,1,1.379-1.559,3.32,3.32,0,0,1,1.875-.512,2.308,2.308,0,0,1,1.922.914l.273-.758,2.375.008-1.383,8.125a3.971,3.971,0,0,1-1.508,2.711,4.8,4.8,0,0,1-3.172.945,4.529,4.529,0,0,1-1.633-.336,3.518,3.518,0,0,1-1.352-.969l1.219-1.516a2.213,2.213,0,0,0,1.766.883,2.066,2.066,0,0,0,2.172-1.82l.063-.258a2.643,2.643,0,0,1-1.93.844,2.606,2.606,0,0,1-1.43-.41,2.7,2.7,0,0,1-.969-1.16,4.512,4.512,0,0,1-.4-1.687A7.336,7.336,0,0,1,74.392,12.758Zm2.539.836a2.05,2.05,0,0,0,.258,1.117.874.874,0,0,0,.75.414,1.718,1.718,0,0,0,1.32-.562l.664-3.586a1.139,1.139,0,0,0-1.047-.562,1.5,1.5,0,0,0-1.258.637,3.432,3.432,0,0,0-.641,1.715Q76.931,13.258,76.931,13.594ZM15.092,30.445l-.367,2.1h1.352l-.32,1.828H14.4l-.656,3.883a1.035,1.035,0,0,0,.051.6q.105.2.527.219A6.11,6.11,0,0,0,15,39.039l-.187,1.906a4.154,4.154,0,0,1-1.383.2,2.278,2.278,0,0,1-1.789-.7,2.4,2.4,0,0,1-.484-1.867l.688-4.2H10.795l.313-1.828h1.047l.367-2.1Zm4.3,3.023a2.762,2.762,0,0,1,2.18-1.086,2.2,2.2,0,0,1,1.887.93A3.539,3.539,0,0,1,23.9,35.75L23.029,41h-2.57l.883-5.287a2.737,2.737,0,0,0,.016-.5.781.781,0,0,0-.859-.8,1.665,1.665,0,0,0-1.234.508L18.185,41h-2.57L17.7,29h2.57Zm9.32,7.688a3.929,3.929,0,0,1-2.02-.535,3.372,3.372,0,0,1-1.34-1.469A3.946,3.946,0,0,1,25,37.078l.023-.219a5.182,5.182,0,0,1,1.449-3.3,4.009,4.009,0,0,1,3.035-1.168,3.269,3.269,0,0,1,1.859.552A3.082,3.082,0,0,1,32.5,34.421a4.529,4.529,0,0,1,.234,2.117l-.148,1.072H27.553a1.648,1.648,0,0,0,.375,1.078,1.377,1.377,0,0,0,1.047.438,2.66,2.66,0,0,0,2.008-.859l1.078,1.426a3.181,3.181,0,0,1-1.332,1.064,4.678,4.678,0,0,1-1.871.4Zm.625-6.734a1.322,1.322,0,0,0-.949.342,2.87,2.87,0,0,0-.7,1.2h2.57l.047-.225a1.715,1.715,0,0,0,.016-.513A.9.9,0,0,0,29.342,34.422Zm17.578-2.68H43.607L42.006,41h-2.68l1.609-9.258H37.678l.375-2.117h9.234Zm3.664,9.414a3.929,3.929,0,0,1-2.02-.535,3.372,3.372,0,0,1-1.34-1.469,3.946,3.946,0,0,1-.359-2.074l.023-.219a5.182,5.182,0,0,1,1.449-3.3,4.009,4.009,0,0,1,3.035-1.168,3.269,3.269,0,0,1,1.859.552,3.082,3.082,0,0,1,1.133,1.479,4.529,4.529,0,0,1,.234,2.117l-.148,1.072H49.42a1.648,1.648,0,0,0,.375,1.078,1.377,1.377,0,0,0,1.047.438,2.66,2.66,0,0,0,2.008-.859l1.078,1.426A3.181,3.181,0,0,1,52.6,40.755a4.678,4.678,0,0,1-1.871.4Zm.625-6.734a1.322,1.322,0,0,0-.949.342,2.87,2.87,0,0,0-.7,1.2h2.57l.047-.225a1.715,1.715,0,0,0,.016-.513A.9.9,0,0,0,51.209,34.422ZM59.678,41a2.292,2.292,0,0,1-.109-.766,2.608,2.608,0,0,1-2.07.922,2.548,2.548,0,0,1-1.828-.734,2.207,2.207,0,0,1-.68-1.742,2.48,2.48,0,0,1,1.148-2.113,5.415,5.415,0,0,1,3.031-.738l.859.016.094-.477.031-.414a.671.671,0,0,0-.711-.734.988.988,0,0,0-1.039.93l-2.578.008a2.448,2.448,0,0,1,.555-1.48,3.288,3.288,0,0,1,1.4-.969,4.9,4.9,0,0,1,1.887-.316,3.778,3.778,0,0,1,1.684.4,2.506,2.506,0,0,1,1.082,1.055,2.694,2.694,0,0,1,.273,1.559l-.633,3.977-.039.484a2.135,2.135,0,0,0,.148.984L62.178,41Zm-1.469-1.7a1.658,1.658,0,0,0,1.383-.7l.258-1.359-.664-.008a1.75,1.75,0,0,0-1.062.363,1.378,1.378,0,0,0-.523.949.692.692,0,0,0,.121.527A.619.619,0,0,0,58.209,39.3ZM67.1,32.539l-.172,1.016A3.035,3.035,0,0,1,69.4,32.391a2.23,2.23,0,0,1,1.258.359,1.638,1.638,0,0,1,.656.914,3.217,3.217,0,0,1,2.57-1.273,1.992,1.992,0,0,1,1.738.879,3.66,3.66,0,0,1,.41,2.41L75.146,41H72.568l.9-5.322.031-.46q0-.772-.727-.8a1.664,1.664,0,0,0-1.266.694L70.482,41H67.9l.891-5.306.031-.468q0-.8-.727-.8a1.653,1.653,0,0,0-1.25.694L65.81,41H63.24l1.469-8.453Z" transform="translate(881.236 20021.305)" fill="#273a89"/>
    <path id="Trazado_830689" data-name="Trazado 830689" d="M0,0H176.225V146.511H0Z" transform="translate(982.9 19917.795)" fill="#273a89"/>
    <path id="Trazado_830693" data-name="Trazado 830693" d="M0,0H176.225V104.159H0Z" transform="translate(982.9 20057.527)" fill="#2b70be"/>
    <path id="Trazado_830690" data-name="Trazado 830690" d="M45.735,11.977H41.11L40.235,17H38.767L40.743,5.625h6.844l-.219,1.227H41.993l-.672,3.9h4.633ZM52.4,16.164a3.265,3.265,0,0,1-2.523.992,2.107,2.107,0,0,1-1.793-.867,3.317,3.317,0,0,1-.434-2.281l.906-5.461H49.97l-.914,5.484a3.642,3.642,0,0,0-.016.672,1.4,1.4,0,0,0,.336.883,1.146,1.146,0,0,0,.828.344A2.537,2.537,0,0,0,52.548,14.7L53.61,8.547h1.414L53.556,17H52.22Zm6.07-7.625-.2,1.07A3.333,3.333,0,0,1,60.86,8.391a2.1,2.1,0,0,1,1.766.828,3.217,3.217,0,0,1,.422,2.242L62.126,17H60.712l.93-5.557a2.962,2.962,0,0,0,.008-.71A1.168,1.168,0,0,0,60.36,9.617a2.661,2.661,0,0,0-2.234,1.358L57.079,17H55.665l1.469-8.453Zm9.406,7.445a2.145,2.145,0,0,0,1.367-.441,2.1,2.1,0,0,0,.8-1.2l1.336-.008a3.014,3.014,0,0,1-.637,1.453,3.68,3.68,0,0,1-2.926,1.367,3.017,3.017,0,0,1-1.785-.551,3.084,3.084,0,0,1-1.074-1.492,4.972,4.972,0,0,1-.234-2.152l.039-.391a5.605,5.605,0,0,1,.711-2.18,4.11,4.11,0,0,1,1.469-1.5,3.648,3.648,0,0,1,2-.5,2.857,2.857,0,0,1,2.125.891,3.08,3.08,0,0,1,.8,2.18l-1.32-.008a2.029,2.029,0,0,0-.461-1.34,1.607,1.607,0,0,0-1.2-.543,2.254,2.254,0,0,0-1.832.82,4.3,4.3,0,0,0-.91,2.359l-.023.2a6.776,6.776,0,0,0-.016,1.031,2.355,2.355,0,0,0,.516,1.445A1.656,1.656,0,0,0,67.876,15.984ZM76.243,6.5l-.359,2.047h1.539l-.2,1.117H75.7l-.883,5.258a1.833,1.833,0,0,0-.008.375.6.6,0,0,0,.664.609,4.05,4.05,0,0,0,.688-.078l-.109,1.18a3.847,3.847,0,0,1-1.031.141,1.476,1.476,0,0,1-1.266-.621,2.4,2.4,0,0,1-.328-1.629l.859-5.234H72.79l.2-1.117h1.492L74.837,6.5ZM79.189,17H77.782l1.469-8.453h1.406ZM80.353,5.461a.774.774,0,0,1,.6.215.8.8,0,0,1,.238.605.834.834,0,0,1-.836.852.779.779,0,0,1-.6-.211.764.764,0,0,1-.227-.594.886.886,0,0,1,.234-.609A.826.826,0,0,1,80.353,5.461ZM86.2,8.391a3.047,3.047,0,0,1,1.82.578,3.285,3.285,0,0,1,1.121,1.551,4.8,4.8,0,0,1,.246,2.16l-.016.172a5.685,5.685,0,0,1-.734,2.23,4.309,4.309,0,0,1-1.516,1.551,3.7,3.7,0,0,1-2.039.523,3.052,3.052,0,0,1-1.816-.578,3.21,3.21,0,0,1-1.113-1.531,4.931,4.931,0,0,1-.25-2.133,5.76,5.76,0,0,1,.711-2.359,4.409,4.409,0,0,1,1.527-1.621A3.652,3.652,0,0,1,86.2,8.391Zm-2.875,4.531a4.8,4.8,0,0,0,0,1.023,2.507,2.507,0,0,0,.551,1.469,1.653,1.653,0,0,0,1.262.57,2.253,2.253,0,0,0,1.3-.348,2.919,2.919,0,0,0,1-1.121,4.721,4.721,0,0,0,.523-1.664,7.5,7.5,0,0,0,.023-1.211,2.6,2.6,0,0,0-.57-1.492,1.69,1.69,0,0,0-1.266-.578,2.3,2.3,0,0,0-1.859.859,4.245,4.245,0,0,0-.945,2.313Zm9.914-4.383-.2,1.07a3.333,3.333,0,0,1,2.594-1.219,2.1,2.1,0,0,1,1.766.828,3.217,3.217,0,0,1,.422,2.242L96.892,17H95.478l.93-5.557a2.962,2.962,0,0,0,.008-.71,1.168,1.168,0,0,0-1.289-1.116,2.661,2.661,0,0,0-2.234,1.358L91.845,17H90.431L91.9,8.547ZM104.243,17a1.893,1.893,0,0,1-.055-.445l.023-.445a3.465,3.465,0,0,1-2.469,1.047,2.526,2.526,0,0,1-1.816-.707,2.14,2.14,0,0,1-.637-1.73,2.6,2.6,0,0,1,1.176-2.1,5.005,5.005,0,0,1,2.887-.754l1.477.008.094-.672a1.545,1.545,0,0,0-.293-1.2,1.414,1.414,0,0,0-1.113-.457,2.181,2.181,0,0,0-1.285.355,1.513,1.513,0,0,0-.684.98l-1.422.008a2.266,2.266,0,0,1,.578-1.316,3.363,3.363,0,0,1,1.3-.891,4.215,4.215,0,0,1,1.648-.3,2.8,2.8,0,0,1,2.055.8,2.484,2.484,0,0,1,.617,2.043l-.687,4.188-.039.6a2.949,2.949,0,0,0,.094.852l-.016.133Zm-2.219-1.094a2.466,2.466,0,0,0,1.285-.324,3.254,3.254,0,0,0,1.043-.941l.3-1.742-1.07-.008a4.054,4.054,0,0,0-2.047.422,1.554,1.554,0,0,0-.8,1.2,1.21,1.21,0,0,0,.277.988A1.321,1.321,0,0,0,102.025,15.906Zm7.1,1.094H107.72L109.8,5h1.414ZM124.657,6.852h-3.539L119.36,17H117.9l1.758-10.148h-3.539l.219-1.227h8.539Zm3.383,10.3a3.048,3.048,0,0,1-2.469-1.164,4.006,4.006,0,0,1-.75-2.9l.039-.336a5.624,5.624,0,0,1,.746-2.3,4.339,4.339,0,0,1,1.5-1.566,3.491,3.491,0,0,1,1.906-.5,2.688,2.688,0,0,1,2.047.867,3.566,3.566,0,0,1,.813,2.266,6.621,6.621,0,0,1-.031,1.016l-.086.648h-5.523a2.856,2.856,0,0,0,.379,1.953,1.8,1.8,0,0,0,1.551.836,3.007,3.007,0,0,0,2.313-1.125l.813.688a3.718,3.718,0,0,1-1.371,1.2A3.886,3.886,0,0,1,128.04,17.156Zm.9-7.586a2.066,2.066,0,0,0-1.527.594A4.22,4.22,0,0,0,126.376,12l4.109.008.031-.125a2.313,2.313,0,0,0-.316-1.637A1.488,1.488,0,0,0,128.939,9.57Zm8.977,5.141q.117-.875-.961-1.234l-1.469-.43q-1.859-.641-1.8-2.125a2.341,2.341,0,0,1,1.02-1.832,3.631,3.631,0,0,1,2.27-.7,3.027,3.027,0,0,1,2.082.746,2.363,2.363,0,0,1,.77,1.9l-1.406-.008a1.319,1.319,0,0,0-.4-1.031,1.576,1.576,0,0,0-1.1-.414,2.059,2.059,0,0,0-1.266.359,1.316,1.316,0,0,0-.57.922q-.1.734.9,1.07l.711.2a4.577,4.577,0,0,1,2.063.977,1.865,1.865,0,0,1,.563,1.492,2.37,2.37,0,0,1-.516,1.375,2.948,2.948,0,0,1-1.25.895,4.18,4.18,0,0,1-1.664.285,3.3,3.3,0,0,1-2.219-.785,2.427,2.427,0,0,1-.844-1.98l1.414.008a1.5,1.5,0,0,0,.453,1.141,1.732,1.732,0,0,0,1.242.43,2.436,2.436,0,0,0,1.336-.324A1.247,1.247,0,0,0,137.915,14.711ZM144.493,6.5l-.359,2.047h1.539l-.2,1.117h-1.531l-.883,5.258a1.833,1.833,0,0,0-.008.375.6.6,0,0,0,.664.609,4.05,4.05,0,0,0,.688-.078l-.109,1.18a3.847,3.847,0,0,1-1.031.141A1.476,1.476,0,0,1,142,16.527a2.4,2.4,0,0,1-.328-1.629l.859-5.234H141.04l.2-1.117h1.492l.359-2.047ZM65.669,35.742H60.888l-.7,4.031h5.563L65.528,41H58.505l1.977-11.375h6.945l-.219,1.227H61.732L61.1,34.516H65.88Zm5.148-.117,2.3-3.078h1.734L71.458,36.8,73.521,41H71.982l-1.4-3.156L68.2,41H66.474l3.492-4.344-2-4.109h1.547ZM80.13,41a1.893,1.893,0,0,1-.055-.445l.023-.445a3.465,3.465,0,0,1-2.469,1.047,2.526,2.526,0,0,1-1.816-.707,2.14,2.14,0,0,1-.637-1.73,2.6,2.6,0,0,1,1.176-2.1,5.005,5.005,0,0,1,2.887-.754l1.477.008.094-.672a1.545,1.545,0,0,0-.293-1.2,1.414,1.414,0,0,0-1.113-.457,2.181,2.181,0,0,0-1.285.355,1.513,1.513,0,0,0-.684.98l-1.422.008a2.266,2.266,0,0,1,.578-1.316,3.363,3.363,0,0,1,1.3-.891,4.215,4.215,0,0,1,1.648-.3,2.8,2.8,0,0,1,2.055.8,2.484,2.484,0,0,1,.617,2.043l-.687,4.188-.039.6a2.949,2.949,0,0,0,.094.852L81.568,41Zm-2.219-1.094a2.466,2.466,0,0,0,1.285-.324,3.254,3.254,0,0,0,1.043-.941l.3-1.742-1.07-.008a4.054,4.054,0,0,0-2.047.422,1.554,1.554,0,0,0-.8,1.2,1.21,1.21,0,0,0,.277.988A1.321,1.321,0,0,0,77.911,39.906Zm8.359-7.367-.18.945a3.305,3.305,0,0,1,2.57-1.094,2.608,2.608,0,0,1,1.363.367,1.8,1.8,0,0,1,.77.992,3.49,3.49,0,0,1,2.8-1.359,2.235,2.235,0,0,1,1.867.852,3.042,3.042,0,0,1,.445,2.2L94.982,41H93.575l.922-5.57a2.943,2.943,0,0,0,0-.742q-.148-1.062-1.391-1.086a2.136,2.136,0,0,0-1.4.48,2.222,2.222,0,0,0-.809,1.3L89.935,41H88.513l.938-5.562a1.786,1.786,0,0,0-.262-1.336,1.377,1.377,0,0,0-1.129-.484,2.315,2.315,0,0,0-2.1,1.2L84.888,41H83.474l1.469-8.453Zm18.547,4.273a6.706,6.706,0,0,1-.7,2.32,3.949,3.949,0,0,1-1.336,1.543,3.058,3.058,0,0,1-1.766.488,2.815,2.815,0,0,1-2.25-.992l-.758,4.078H96.6l2.031-11.7,1.281-.008-.156.945a3.207,3.207,0,0,1,2.508-1.094,2.358,2.358,0,0,1,1.9.9,3.954,3.954,0,0,1,.719,2.391,8.412,8.412,0,0,1-.039.969Zm-1.391-.16.039-.655a2.969,2.969,0,0,0-.434-1.744,1.525,1.525,0,0,0-1.254-.636,2.508,2.508,0,0,0-2.117,1.163l-.711,4.05a1.769,1.769,0,0,0,1.711,1.155,2.224,2.224,0,0,0,1.793-.823A4.777,4.777,0,0,0,103.427,36.652ZM107.482,41h-1.406l2.078-12h1.414Zm5.969.156a3.048,3.048,0,0,1-2.469-1.164,4.006,4.006,0,0,1-.75-2.9l.039-.336a5.624,5.624,0,0,1,.746-2.3,4.339,4.339,0,0,1,1.5-1.566,3.491,3.491,0,0,1,1.906-.5,2.688,2.688,0,0,1,2.047.867,3.566,3.566,0,0,1,.813,2.266,6.62,6.62,0,0,1-.031,1.016l-.086.648h-5.523a2.856,2.856,0,0,0,.379,1.953,1.8,1.8,0,0,0,1.551.836,3.007,3.007,0,0,0,2.313-1.125l.813.688a3.718,3.718,0,0,1-1.371,1.2A3.886,3.886,0,0,1,113.45,41.156Zm.9-7.586a2.066,2.066,0,0,0-1.527.594A4.22,4.22,0,0,0,111.786,36l4.109.008.031-.125a2.313,2.313,0,0,0-.316-1.637A1.488,1.488,0,0,0,114.349,33.57Zm8.977,5.141q.117-.875-.961-1.234l-1.469-.43q-1.859-.641-1.8-2.125a2.341,2.341,0,0,1,1.02-1.832,3.631,3.631,0,0,1,2.27-.7,3.027,3.027,0,0,1,2.082.746,2.363,2.363,0,0,1,.77,1.9l-1.406-.008a1.319,1.319,0,0,0-.4-1.031,1.576,1.576,0,0,0-1.1-.414,2.059,2.059,0,0,0-1.266.359,1.316,1.316,0,0,0-.57.922q-.1.734.9,1.07l.711.2a4.577,4.577,0,0,1,2.063.977,1.865,1.865,0,0,1,.563,1.492,2.37,2.37,0,0,1-.516,1.375,2.948,2.948,0,0,1-1.25.895,4.18,4.18,0,0,1-1.664.285,3.3,3.3,0,0,1-2.219-.785,2.427,2.427,0,0,1-.844-1.98l1.414.008a1.5,1.5,0,0,0,.453,1.141,1.732,1.732,0,0,0,1.242.43,2.436,2.436,0,0,0,1.336-.324A1.247,1.247,0,0,0,123.325,38.711ZM59.583,62.07q.172-1.25-1.3-1.828l-1.352-.492-.453-.2q-2.281-1.039-2.133-2.922A3.056,3.056,0,0,1,55,54.961a3.69,3.69,0,0,1,1.512-1.121,4.849,4.849,0,0,1,2-.371,4,4,0,0,1,1.84.461,2.962,2.962,0,0,1,1.23,1.223,3.333,3.333,0,0,1,.375,1.77l-1.477-.008a2.037,2.037,0,0,0-.469-1.627A2.1,2.1,0,0,0,58.45,54.7a2.91,2.91,0,0,0-1.789.5,1.955,1.955,0,0,0-.828,1.409q-.156,1.166,1.43,1.769l1.164.415.586.25a2.941,2.941,0,0,1,2.039,3.016,3.012,3.012,0,0,1-.648,1.66A3.626,3.626,0,0,1,58.876,64.8a5.266,5.266,0,0,1-2.074.359,4.34,4.34,0,0,1-1.957-.457,3.193,3.193,0,0,1-1.348-1.23,3.078,3.078,0,0,1-.406-1.773l1.469.008a1.935,1.935,0,0,0,.551,1.613,2.479,2.479,0,0,0,1.754.613,3.131,3.131,0,0,0,1.867-.492A1.916,1.916,0,0,0,59.583,62.07ZM66,54.5l-.359,2.047h1.539l-.2,1.117H65.45l-.883,5.258a1.833,1.833,0,0,0-.008.375.6.6,0,0,0,.664.609,4.05,4.05,0,0,0,.688-.078l-.109,1.18a3.847,3.847,0,0,1-1.031.141,1.476,1.476,0,0,1-1.266-.621,2.4,2.4,0,0,1-.328-1.629l.859-5.234H62.544l.2-1.117h1.492l.359-2.047Zm5.953,1.891a3.047,3.047,0,0,1,1.82.578,3.285,3.285,0,0,1,1.121,1.551,4.8,4.8,0,0,1,.246,2.16l-.016.172a5.685,5.685,0,0,1-.734,2.23,4.309,4.309,0,0,1-1.516,1.551,3.7,3.7,0,0,1-2.039.523,3.052,3.052,0,0,1-1.816-.578A3.21,3.21,0,0,1,67.9,63.047a4.931,4.931,0,0,1-.25-2.133,5.76,5.76,0,0,1,.711-2.359,4.409,4.409,0,0,1,1.527-1.621A3.652,3.652,0,0,1,71.95,56.391Zm-2.875,4.531a4.8,4.8,0,0,0,0,1.023,2.507,2.507,0,0,0,.551,1.469,1.653,1.653,0,0,0,1.262.57,2.253,2.253,0,0,0,1.3-.348,2.919,2.919,0,0,0,1-1.121,4.721,4.721,0,0,0,.523-1.664,7.5,7.5,0,0,0,.023-1.211,2.6,2.6,0,0,0-.57-1.492A1.69,1.69,0,0,0,71.9,57.57a2.3,2.3,0,0,0-1.859.859,4.245,4.245,0,0,0-.945,2.313Zm12.367-3.086-.664-.07a2.42,2.42,0,0,0-2.141,1.227L77.6,65H76.185l1.469-8.453,1.367-.008-.211.984a2.527,2.527,0,0,1,2.117-1.148,2.594,2.594,0,0,1,.672.117Zm3.1,5.031,3.008-6.32h1.563L84.1,66.406q-1.047,2.055-2.687,2.031a4.605,4.605,0,0,1-.852-.141l.125-1.172.367.039a1.853,1.853,0,0,0,1.16-.3,2.772,2.772,0,0,0,.863-1.074l.508-.969-1.461-8.273H83.6Zm17.609-8.016H98.614L96.857,65H95.4l1.758-10.148H93.614l.219-1.227h8.539Zm3.383,10.3a3.048,3.048,0,0,1-2.469-1.164,4.006,4.006,0,0,1-.75-2.9l.039-.336a5.624,5.624,0,0,1,.746-2.3,4.339,4.339,0,0,1,1.5-1.566,3.491,3.491,0,0,1,1.906-.5,2.688,2.688,0,0,1,2.047.867,3.566,3.566,0,0,1,.813,2.266,6.62,6.62,0,0,1-.031,1.016l-.086.648h-5.523a2.856,2.856,0,0,0,.379,1.953,1.8,1.8,0,0,0,1.551.836,3.007,3.007,0,0,0,2.313-1.125l.813.688a3.718,3.718,0,0,1-1.371,1.2A3.886,3.886,0,0,1,105.536,65.156Zm.9-7.586a2.066,2.066,0,0,0-1.527.594A4.22,4.22,0,0,0,103.872,60l4.109.008.031-.125a2.313,2.313,0,0,0-.316-1.637A1.488,1.488,0,0,0,106.435,57.57Zm8.977,5.141q.117-.875-.961-1.234l-1.469-.43q-1.859-.641-1.8-2.125a2.341,2.341,0,0,1,1.02-1.832,3.631,3.631,0,0,1,2.27-.7,3.027,3.027,0,0,1,2.082.746,2.363,2.363,0,0,1,.77,1.9l-1.406-.008a1.319,1.319,0,0,0-.4-1.031,1.576,1.576,0,0,0-1.1-.414,2.059,2.059,0,0,0-1.266.359,1.316,1.316,0,0,0-.57.922q-.1.734.9,1.07l.711.2a4.577,4.577,0,0,1,2.063.977,1.865,1.865,0,0,1,.563,1.492,2.37,2.37,0,0,1-.516,1.375,2.948,2.948,0,0,1-1.25.895,4.18,4.18,0,0,1-1.664.285,3.3,3.3,0,0,1-2.219-.785,2.427,2.427,0,0,1-.844-1.98l1.414.008a1.5,1.5,0,0,0,.453,1.141,1.732,1.732,0,0,0,1.242.43,2.436,2.436,0,0,0,1.336-.324A1.247,1.247,0,0,0,115.411,62.711Zm6.578-8.211-.359,2.047h1.539l-.2,1.117h-1.531l-.883,5.258a1.833,1.833,0,0,0-.008.375.6.6,0,0,0,.664.609,4.05,4.05,0,0,0,.688-.078l-.109,1.18a3.847,3.847,0,0,1-1.031.141,1.476,1.476,0,0,1-1.266-.621,2.4,2.4,0,0,1-.328-1.629l.859-5.234h-1.492l.2-1.117h1.492l.359-2.047Zm6.648,8.211q.117-.875-.961-1.234l-1.469-.43q-1.859-.641-1.8-2.125a2.341,2.341,0,0,1,1.02-1.832,3.631,3.631,0,0,1,2.27-.7,3.027,3.027,0,0,1,2.082.746,2.363,2.363,0,0,1,.77,1.9l-1.406-.008a1.319,1.319,0,0,0-.4-1.031,1.576,1.576,0,0,0-1.1-.414,2.059,2.059,0,0,0-1.266.359,1.316,1.316,0,0,0-.57.922q-.1.734.9,1.07l.711.2a4.577,4.577,0,0,1,2.063.977,1.865,1.865,0,0,1,.563,1.492,2.37,2.37,0,0,1-.516,1.375,2.948,2.948,0,0,1-1.25.895,4.18,4.18,0,0,1-1.664.285,3.3,3.3,0,0,1-2.219-.785,2.427,2.427,0,0,1-.844-1.98l1.414.008a1.5,1.5,0,0,0,.453,1.141,1.732,1.732,0,0,0,1.242.43A2.436,2.436,0,0,0,128,63.645,1.247,1.247,0,0,0,128.638,62.711ZM56.876,84.547,56.1,89H54.634L56.61,77.625l3.8.008a3.713,3.713,0,0,1,2.711.934,2.937,2.937,0,0,1,.82,2.48,3.541,3.541,0,0,1-1.3,2.57,4.718,4.718,0,0,1-3.059.938Zm.211-1.227,2.531.008a3.079,3.079,0,0,0,1.961-.6,2.407,2.407,0,0,0,.9-1.672,1.886,1.886,0,0,0-.4-1.559,2.005,2.005,0,0,0-1.523-.629l-2.7-.008ZM69.54,81.836l-.664-.07a2.42,2.42,0,0,0-2.141,1.227L65.7,89H64.282l1.469-8.453,1.367-.008-.211.984a2.527,2.527,0,0,1,2.117-1.148,2.594,2.594,0,0,1,.672.117Zm4.609-1.445a3.047,3.047,0,0,1,1.82.578,3.285,3.285,0,0,1,1.121,1.551,4.8,4.8,0,0,1,.246,2.16l-.016.172a5.685,5.685,0,0,1-.734,2.23,4.309,4.309,0,0,1-1.516,1.551,3.7,3.7,0,0,1-2.039.523,3.052,3.052,0,0,1-1.816-.578A3.21,3.21,0,0,1,70.1,87.047a4.931,4.931,0,0,1-.25-2.133,5.76,5.76,0,0,1,.711-2.359,4.409,4.409,0,0,1,1.527-1.621A3.652,3.652,0,0,1,74.15,80.391Zm-2.875,4.531a4.8,4.8,0,0,0,0,1.023,2.507,2.507,0,0,0,.551,1.469,1.653,1.653,0,0,0,1.262.57,2.253,2.253,0,0,0,1.3-.348,2.919,2.919,0,0,0,1-1.121,4.721,4.721,0,0,0,.523-1.664,7.5,7.5,0,0,0,.023-1.211,2.6,2.6,0,0,0-.57-1.492,1.69,1.69,0,0,0-1.266-.578,2.3,2.3,0,0,0-1.859.859,4.245,4.245,0,0,0-.945,2.313ZM82.118,78.5l-.359,2.047H83.3l-.2,1.117H81.571l-.883,5.258a1.833,1.833,0,0,0-.008.375.6.6,0,0,0,.664.609,4.05,4.05,0,0,0,.688-.078l-.109,1.18a3.847,3.847,0,0,1-1.031.141,1.476,1.476,0,0,1-1.266-.621A2.4,2.4,0,0,1,79.3,86.9l.859-5.234H78.665l.2-1.117h1.492l.359-2.047Zm5.953,1.891a3.047,3.047,0,0,1,1.82.578,3.285,3.285,0,0,1,1.121,1.551,4.8,4.8,0,0,1,.246,2.16l-.016.172a5.685,5.685,0,0,1-.734,2.23,4.309,4.309,0,0,1-1.516,1.551,3.7,3.7,0,0,1-2.039.523,3.052,3.052,0,0,1-1.816-.578,3.21,3.21,0,0,1-1.113-1.531,4.931,4.931,0,0,1-.25-2.133,5.76,5.76,0,0,1,.711-2.359,4.409,4.409,0,0,1,1.527-1.621A3.652,3.652,0,0,1,88.071,80.391ZM85.2,84.922a4.8,4.8,0,0,0,0,1.023,2.507,2.507,0,0,0,.551,1.469,1.653,1.653,0,0,0,1.262.57,2.253,2.253,0,0,0,1.3-.348,2.919,2.919,0,0,0,1-1.121,4.721,4.721,0,0,0,.523-1.664,7.5,7.5,0,0,0,.023-1.211,2.6,2.6,0,0,0-.57-1.492,1.69,1.69,0,0,0-1.266-.578,2.3,2.3,0,0,0-1.859.859,4.245,4.245,0,0,0-.945,2.313ZM96.04,78.5l-.359,2.047H97.22l-.2,1.117H95.493l-.883,5.258a1.833,1.833,0,0,0-.008.375.6.6,0,0,0,.664.609,4.05,4.05,0,0,0,.688-.078l-.109,1.18a3.847,3.847,0,0,1-1.031.141,1.476,1.476,0,0,1-1.266-.621A2.4,2.4,0,0,1,93.22,86.9l.859-5.234H92.587l.2-1.117h1.492l.359-2.047Zm4.445,8.367,3.008-6.32h1.563l-5.016,9.859q-1.047,2.055-2.687,2.031A4.605,4.605,0,0,1,96.5,92.3l.125-1.172.367.039a1.853,1.853,0,0,0,1.16-.3,2.772,2.772,0,0,0,.863-1.074l.508-.969-1.461-8.273H99.54Zm12.047-2.055a6.706,6.706,0,0,1-.7,2.32,3.949,3.949,0,0,1-1.336,1.543,3.058,3.058,0,0,1-1.766.488,2.815,2.815,0,0,1-2.25-.992l-.758,4.078h-1.414l2.031-11.7,1.281-.008-.156.945a3.207,3.207,0,0,1,2.508-1.094,2.358,2.358,0,0,1,1.9.9,3.954,3.954,0,0,1,.719,2.391,8.412,8.412,0,0,1-.039.969Zm-1.391-.16.039-.655a2.969,2.969,0,0,0-.434-1.744,1.525,1.525,0,0,0-1.254-.636,2.508,2.508,0,0,0-2.117,1.163l-.711,4.05a1.769,1.769,0,0,0,1.711,1.155,2.224,2.224,0,0,0,1.793-.823A4.777,4.777,0,0,0,111.142,84.652Zm6.18,4.5a3.048,3.048,0,0,1-2.469-1.164,4.006,4.006,0,0,1-.75-2.9l.039-.336a5.624,5.624,0,0,1,.746-2.3,4.339,4.339,0,0,1,1.5-1.566,3.491,3.491,0,0,1,1.906-.5,2.688,2.688,0,0,1,2.047.867,3.566,3.566,0,0,1,.813,2.266,6.62,6.62,0,0,1-.031,1.016l-.086.648h-5.523a2.856,2.856,0,0,0,.379,1.953,1.8,1.8,0,0,0,1.551.836,3.007,3.007,0,0,0,2.313-1.125l.813.688a3.718,3.718,0,0,1-1.371,1.2A3.886,3.886,0,0,1,117.321,89.156Zm.9-7.586a2.066,2.066,0,0,0-1.527.594A4.22,4.22,0,0,0,115.657,84l4.109.008.031-.125a2.313,2.313,0,0,0-.316-1.637A1.488,1.488,0,0,0,118.22,81.57Zm8.977,5.141q.117-.875-.961-1.234l-1.469-.43q-1.859-.641-1.8-2.125a2.341,2.341,0,0,1,1.02-1.832,3.631,3.631,0,0,1,2.27-.7,3.027,3.027,0,0,1,2.082.746,2.363,2.363,0,0,1,.77,1.9l-1.406-.008a1.319,1.319,0,0,0-.4-1.031,1.576,1.576,0,0,0-1.1-.414,2.059,2.059,0,0,0-1.266.359,1.316,1.316,0,0,0-.57.922q-.1.734.9,1.07l.711.2a4.578,4.578,0,0,1,2.063.977A1.865,1.865,0,0,1,128.6,86.6a2.37,2.37,0,0,1-.516,1.375,2.948,2.948,0,0,1-1.25.895,4.18,4.18,0,0,1-1.664.285,3.3,3.3,0,0,1-2.219-.785,2.427,2.427,0,0,1-.844-1.98l1.414.008a1.5,1.5,0,0,0,.453,1.141,1.732,1.732,0,0,0,1.242.43,2.436,2.436,0,0,0,1.336-.324A1.247,1.247,0,0,0,127.2,86.711ZM57.61,110.07q.172-1.25-1.3-1.828l-1.352-.492-.453-.2q-2.281-1.039-2.133-2.922a3.056,3.056,0,0,1,.648-1.672,3.69,3.69,0,0,1,1.512-1.121,4.849,4.849,0,0,1,2-.371,4,4,0,0,1,1.84.461,2.962,2.962,0,0,1,1.23,1.223,3.333,3.333,0,0,1,.375,1.77l-1.477-.008a2.037,2.037,0,0,0-.469-1.627,2.1,2.1,0,0,0-1.562-.592,2.91,2.91,0,0,0-1.789.5,1.955,1.955,0,0,0-.828,1.409q-.156,1.166,1.43,1.769l1.164.415.586.25a2.941,2.941,0,0,1,2.039,3.016,3.012,3.012,0,0,1-.648,1.66A3.626,3.626,0,0,1,56.9,112.8a5.266,5.266,0,0,1-2.074.359,4.34,4.34,0,0,1-1.957-.457,3.193,3.193,0,0,1-1.348-1.23,3.078,3.078,0,0,1-.406-1.773l1.469.008a1.935,1.935,0,0,0,.551,1.613,2.479,2.479,0,0,0,1.754.613,3.131,3.131,0,0,0,1.867-.492A1.916,1.916,0,0,0,57.61,110.07ZM61.821,113H60.415l1.469-8.453H63.29Zm1.164-11.539a.774.774,0,0,1,.6.215.8.8,0,0,1,.238.605.834.834,0,0,1-.836.852.779.779,0,0,1-.6-.211.764.764,0,0,1-.227-.594.886.886,0,0,1,.234-.609A.826.826,0,0,1,62.985,101.461Zm3.938,3.078-.18.945a3.305,3.305,0,0,1,2.57-1.094,2.608,2.608,0,0,1,1.363.367,1.8,1.8,0,0,1,.77.992,3.49,3.49,0,0,1,2.8-1.359,2.235,2.235,0,0,1,1.867.852,3.042,3.042,0,0,1,.445,2.2L75.634,113H74.228l.922-5.57a2.943,2.943,0,0,0,0-.742Q75,105.625,73.759,105.6a2.136,2.136,0,0,0-1.4.48,2.222,2.222,0,0,0-.809,1.3L70.587,113H69.165l.938-5.562a1.786,1.786,0,0,0-.262-1.336,1.377,1.377,0,0,0-1.129-.484,2.315,2.315,0,0,0-2.1,1.2L65.54,113H64.126l1.469-8.453Zm16.258,7.625a3.265,3.265,0,0,1-2.523.992,2.107,2.107,0,0,1-1.793-.867,3.317,3.317,0,0,1-.434-2.281l.906-5.461h1.414l-.914,5.484a3.643,3.643,0,0,0-.016.672,1.4,1.4,0,0,0,.336.883,1.146,1.146,0,0,0,.828.344,2.537,2.537,0,0,0,2.344-1.227l1.063-6.156h1.414L84.337,113H83Zm4.8.836H86.571l2.078-12h1.414Zm7.484,0a1.893,1.893,0,0,1-.055-.445l.023-.445a3.465,3.465,0,0,1-2.469,1.047,2.526,2.526,0,0,1-1.816-.707,2.14,2.14,0,0,1-.637-1.73,2.6,2.6,0,0,1,1.176-2.1,5.005,5.005,0,0,1,2.887-.754l1.477.008.094-.672a1.545,1.545,0,0,0-.293-1.2,1.414,1.414,0,0,0-1.113-.457,2.181,2.181,0,0,0-1.285.355,1.513,1.513,0,0,0-.684.98l-1.422.008a2.266,2.266,0,0,1,.578-1.316,3.363,3.363,0,0,1,1.3-.891,4.215,4.215,0,0,1,1.648-.3,2.8,2.8,0,0,1,2.055.8,2.484,2.484,0,0,1,.617,2.043l-.687,4.188-.039.6a2.949,2.949,0,0,0,.094.852L96.9,113Zm-2.219-1.094a2.466,2.466,0,0,0,1.285-.324,3.254,3.254,0,0,0,1.043-.941l.3-1.742-1.07-.008a4.054,4.054,0,0,0-2.047.422,1.554,1.554,0,0,0-.8,1.2,1.21,1.21,0,0,0,.277.988A1.321,1.321,0,0,0,93.243,111.906Zm9.3-9.406-.359,2.047h1.539l-.2,1.117H102l-.883,5.258a1.833,1.833,0,0,0-.008.375.6.6,0,0,0,.664.609,4.05,4.05,0,0,0,.688-.078l-.109,1.18a3.847,3.847,0,0,1-1.031.141,1.476,1.476,0,0,1-1.266-.621,2.4,2.4,0,0,1-.328-1.629l.859-5.234H99.095l.2-1.117h1.492l.359-2.047Zm2.945,10.5h-1.406l1.469-8.453h1.406Zm1.164-11.539a.774.774,0,0,1,.6.215.8.8,0,0,1,.238.605.834.834,0,0,1-.836.852.779.779,0,0,1-.6-.211.764.764,0,0,1-.227-.594.886.886,0,0,1,.234-.609A.826.826,0,0,1,106.657,101.461Zm5.844,2.93a3.047,3.047,0,0,1,1.82.578,3.285,3.285,0,0,1,1.121,1.551,4.8,4.8,0,0,1,.246,2.16l-.016.172a5.685,5.685,0,0,1-.734,2.23,4.309,4.309,0,0,1-1.516,1.551,3.7,3.7,0,0,1-2.039.523,3.052,3.052,0,0,1-1.816-.578,3.21,3.21,0,0,1-1.113-1.531,4.931,4.931,0,0,1-.25-2.133,5.76,5.76,0,0,1,.711-2.359,4.409,4.409,0,0,1,1.527-1.621A3.652,3.652,0,0,1,112.5,104.391Zm-2.875,4.531a4.8,4.8,0,0,0,0,1.023,2.507,2.507,0,0,0,.551,1.469,1.653,1.653,0,0,0,1.262.57,2.253,2.253,0,0,0,1.3-.348,2.919,2.919,0,0,0,1-1.121,4.721,4.721,0,0,0,.523-1.664,7.5,7.5,0,0,0,.023-1.211,2.6,2.6,0,0,0-.57-1.492,1.69,1.69,0,0,0-1.266-.578,2.3,2.3,0,0,0-1.859.859,4.245,4.245,0,0,0-.945,2.313Zm9.914-4.383-.2,1.07a3.333,3.333,0,0,1,2.594-1.219,2.1,2.1,0,0,1,1.766.828,3.217,3.217,0,0,1,.422,2.242L123.2,113h-1.414l.93-5.557a2.962,2.962,0,0,0,.008-.71,1.168,1.168,0,0,0-1.289-1.116,2.661,2.661,0,0,0-2.234,1.358L118.15,113h-1.414l1.469-8.453Zm11.07,6.172q.117-.875-.961-1.234l-1.469-.43q-1.859-.641-1.8-2.125a2.341,2.341,0,0,1,1.02-1.832,3.631,3.631,0,0,1,2.27-.7,3.027,3.027,0,0,1,2.082.746,2.363,2.363,0,0,1,.77,1.9l-1.406-.008a1.319,1.319,0,0,0-.4-1.031,1.576,1.576,0,0,0-1.1-.414,2.059,2.059,0,0,0-1.266.359,1.316,1.316,0,0,0-.57.922q-.1.734.9,1.07l.711.2a4.578,4.578,0,0,1,2.063.977,1.865,1.865,0,0,1,.563,1.492,2.37,2.37,0,0,1-.516,1.375,2.948,2.948,0,0,1-1.25.895,4.18,4.18,0,0,1-1.664.285,3.3,3.3,0,0,1-2.219-.785,2.427,2.427,0,0,1-.844-1.98l1.414.008a1.5,1.5,0,0,0,.453,1.141,1.732,1.732,0,0,0,1.242.43,2.436,2.436,0,0,0,1.336-.324A1.247,1.247,0,0,0,130.61,110.711Z" transform="translate(982.829 19925.244)" fill="#fff"/>
    <path id="Trazado_830696" data-name="Trazado 830696" d="M25.924,5.625l-1.312,7.7a4.368,4.368,0,0,1-1.531,2.824,4.5,4.5,0,0,1-3.055,1.02,3.956,3.956,0,0,1-1.941-.5,2.9,2.9,0,0,1-1.215-1.352,3.69,3.69,0,0,1-.258-1.98l1.313-7.7h1.445l-1.3,7.717a2.5,2.5,0,0,0,.406,1.88,2.031,2.031,0,0,0,1.633.715,2.812,2.812,0,0,0,2-.645,3.125,3.125,0,0,0,1.027-1.943l1.313-7.725Zm2.938,2.914-.2,1.07a3.333,3.333,0,0,1,2.594-1.219,2.1,2.1,0,0,1,1.766.828,3.217,3.217,0,0,1,.422,2.242L32.518,17H31.1l.93-5.557a2.962,2.962,0,0,0,.008-.71,1.168,1.168,0,0,0-1.289-1.116,2.661,2.661,0,0,0-2.234,1.358L27.471,17H26.057l1.469-8.453ZM36.229,17H34.822l1.469-8.453H37.7ZM37.393,5.461a.774.774,0,0,1,.6.215.8.8,0,0,1,.238.605.834.834,0,0,1-.836.852.779.779,0,0,1-.6-.211.764.764,0,0,1-.227-.594.886.886,0,0,1,.234-.609A.826.826,0,0,1,37.393,5.461ZM42.275,6.5l-.359,2.047h1.539l-.2,1.117H41.729l-.883,5.258a1.833,1.833,0,0,0-.008.375.6.6,0,0,0,.664.609,4.05,4.05,0,0,0,.688-.078l-.109,1.18a3.847,3.847,0,0,1-1.031.141,1.476,1.476,0,0,1-1.266-.621,2.4,2.4,0,0,1-.328-1.629l.859-5.234H38.822l.2-1.117H40.51L40.869,6.5Zm14.633.352H53.369L51.611,17H50.15L51.908,6.852H48.369l.219-1.227h8.539Zm3.383,10.3a3.048,3.048,0,0,1-2.469-1.164,4.006,4.006,0,0,1-.75-2.9l.039-.336a5.624,5.624,0,0,1,.746-2.3,4.339,4.339,0,0,1,1.5-1.566,3.491,3.491,0,0,1,1.906-.5,2.688,2.688,0,0,1,2.047.867,3.566,3.566,0,0,1,.812,2.266,6.62,6.62,0,0,1-.031,1.016L64,13.188H58.479a2.856,2.856,0,0,0,.379,1.953,1.8,1.8,0,0,0,1.551.836,3.007,3.007,0,0,0,2.313-1.125l.813.688a3.718,3.718,0,0,1-1.371,1.2A3.886,3.886,0,0,1,60.291,17.156Zm.9-7.586a2.066,2.066,0,0,0-1.527.594A4.22,4.22,0,0,0,58.627,12l4.109.008.031-.125a2.313,2.313,0,0,0-.316-1.637A1.488,1.488,0,0,0,61.19,9.57Zm8.977,5.141q.117-.875-.961-1.234l-1.469-.43q-1.859-.641-1.8-2.125a2.341,2.341,0,0,1,1.02-1.832,3.631,3.631,0,0,1,2.27-.7,3.027,3.027,0,0,1,2.082.746,2.363,2.363,0,0,1,.77,1.9l-1.406-.008a1.319,1.319,0,0,0-.4-1.031,1.576,1.576,0,0,0-1.1-.414,2.059,2.059,0,0,0-1.266.359,1.316,1.316,0,0,0-.57.922q-.1.734.9,1.07l.711.2a4.577,4.577,0,0,1,2.063.977,1.865,1.865,0,0,1,.563,1.492,2.37,2.37,0,0,1-.516,1.375,2.948,2.948,0,0,1-1.25.895,4.18,4.18,0,0,1-1.664.285,3.3,3.3,0,0,1-2.219-.785,2.427,2.427,0,0,1-.844-1.98l1.414.008a1.5,1.5,0,0,0,.453,1.141,1.732,1.732,0,0,0,1.242.43,2.436,2.436,0,0,0,1.336-.324A1.247,1.247,0,0,0,70.166,14.711ZM76.744,6.5l-.359,2.047h1.539l-.2,1.117H76.2l-.883,5.258a1.833,1.833,0,0,0-.008.375.6.6,0,0,0,.664.609,4.05,4.05,0,0,0,.688-.078l-.109,1.18a3.847,3.847,0,0,1-1.031.141,1.476,1.476,0,0,1-1.266-.621,2.4,2.4,0,0,1-.328-1.629l.859-5.234H73.291l.2-1.117h1.492L75.338,6.5Zm6.648,8.211q.117-.875-.961-1.234l-1.469-.43q-1.859-.641-1.8-2.125a2.341,2.341,0,0,1,1.02-1.832,3.631,3.631,0,0,1,2.27-.7,3.027,3.027,0,0,1,2.082.746,2.363,2.363,0,0,1,.77,1.9L83.9,11.031A1.319,1.319,0,0,0,83.5,10a1.576,1.576,0,0,0-1.1-.414,2.059,2.059,0,0,0-1.266.359,1.316,1.316,0,0,0-.57.922q-.1.734.9,1.07l.711.2a4.577,4.577,0,0,1,2.063.977A1.865,1.865,0,0,1,84.8,14.6a2.37,2.37,0,0,1-.516,1.375,2.948,2.948,0,0,1-1.25.895,4.18,4.18,0,0,1-1.664.285,3.3,3.3,0,0,1-2.219-.785,2.427,2.427,0,0,1-.844-1.98l1.414.008a1.5,1.5,0,0,0,.453,1.141,1.732,1.732,0,0,0,1.242.43,2.436,2.436,0,0,0,1.336-.324A1.247,1.247,0,0,0,83.393,14.711Zm-66,22.664a4.535,4.535,0,0,1-1.6,2.8,4.476,4.476,0,0,1-3.043.984,3.544,3.544,0,0,1-1.844-.52,3.283,3.283,0,0,1-1.227-1.43,5.34,5.34,0,0,1-.484-2.066,6.623,6.623,0,0,1,.055-1.25l.133-.937a7.076,7.076,0,0,1,1.8-4.043,4.544,4.544,0,0,1,3.488-1.441A3.4,3.4,0,0,1,17.209,30.5a4.117,4.117,0,0,1,.992,2.785H16.74q-.1-2.391-1.875-2.578l-.258-.016a3.019,3.019,0,0,0-2.465,1.1A5.942,5.942,0,0,0,10.865,34.9l-.172,1.18-.047.688a3.867,3.867,0,0,0,.512,2.285,1.929,1.929,0,0,0,1.66.879,2.924,2.924,0,0,0,1.965-.57A3.8,3.8,0,0,0,15.967,37.4Zm5.984-4.984a3.047,3.047,0,0,1,1.82.578,3.285,3.285,0,0,1,1.121,1.551,4.8,4.8,0,0,1,.246,2.16l-.016.172a5.685,5.685,0,0,1-.734,2.23A4.309,4.309,0,0,1,24.3,40.633a3.7,3.7,0,0,1-2.039.523,3.052,3.052,0,0,1-1.816-.578,3.21,3.21,0,0,1-1.113-1.531,4.931,4.931,0,0,1-.25-2.133,5.76,5.76,0,0,1,.711-2.359,4.409,4.409,0,0,1,1.527-1.621A3.652,3.652,0,0,1,23.373,32.391ZM20.5,36.922a4.8,4.8,0,0,0,0,1.023,2.507,2.507,0,0,0,.551,1.469,1.653,1.653,0,0,0,1.262.57,2.253,2.253,0,0,0,1.3-.348,2.919,2.919,0,0,0,1-1.121,4.721,4.721,0,0,0,.523-1.664,7.494,7.494,0,0,0,.023-1.211,2.6,2.6,0,0,0-.57-1.492,1.69,1.69,0,0,0-1.266-.578,2.3,2.3,0,0,0-1.859.859,4.245,4.245,0,0,0-.945,2.313Zm9.9-4.383-.18.945a3.305,3.305,0,0,1,2.57-1.094,2.608,2.608,0,0,1,1.363.367,1.8,1.8,0,0,1,.77.992,3.49,3.49,0,0,1,2.8-1.359,2.235,2.235,0,0,1,1.867.852,3.042,3.042,0,0,1,.445,2.2L39.108,41H37.7l.922-5.57a2.943,2.943,0,0,0,0-.742q-.148-1.062-1.391-1.086a2.136,2.136,0,0,0-1.4.48,2.222,2.222,0,0,0-.809,1.3L34.061,41H32.639l.938-5.562a1.786,1.786,0,0,0-.262-1.336,1.377,1.377,0,0,0-1.129-.484,2.315,2.315,0,0,0-2.1,1.2L29.014,41H27.6l1.469-8.453Zm18.547,4.273a6.707,6.707,0,0,1-.7,2.32,3.949,3.949,0,0,1-1.336,1.543,3.058,3.058,0,0,1-1.766.488,2.815,2.815,0,0,1-2.25-.992l-.758,4.078H40.725l2.031-11.7,1.281-.008-.156.945a3.207,3.207,0,0,1,2.508-1.094,2.358,2.358,0,0,1,1.9.9,3.954,3.954,0,0,1,.719,2.391,8.413,8.413,0,0,1-.039.969Zm-1.391-.16L47.592,36a2.969,2.969,0,0,0-.434-1.744,1.525,1.525,0,0,0-1.254-.636,2.508,2.508,0,0,0-2.117,1.163l-.711,4.05a1.769,1.769,0,0,0,1.711,1.155,2.224,2.224,0,0,0,1.793-.823A4.777,4.777,0,0,0,47.553,36.652Zm7.219-4.262a3.047,3.047,0,0,1,1.82.578,3.285,3.285,0,0,1,1.121,1.551,4.8,4.8,0,0,1,.246,2.16l-.016.172a5.685,5.685,0,0,1-.734,2.23,4.309,4.309,0,0,1-1.516,1.551,3.7,3.7,0,0,1-2.039.523,3.052,3.052,0,0,1-1.816-.578,3.21,3.21,0,0,1-1.113-1.531,4.931,4.931,0,0,1-.25-2.133,5.76,5.76,0,0,1,.711-2.359,4.409,4.409,0,0,1,1.527-1.621A3.652,3.652,0,0,1,54.772,32.391ZM51.9,36.922a4.8,4.8,0,0,0,0,1.023,2.507,2.507,0,0,0,.551,1.469,1.653,1.653,0,0,0,1.262.57,2.253,2.253,0,0,0,1.3-.348,2.919,2.919,0,0,0,1-1.121,4.721,4.721,0,0,0,.523-1.664,7.494,7.494,0,0,0,.023-1.211,2.6,2.6,0,0,0-.57-1.492,1.69,1.69,0,0,0-1.266-.578,2.3,2.3,0,0,0-1.859.859,4.245,4.245,0,0,0-.945,2.313Zm9.914-4.383-.2,1.07A3.333,3.333,0,0,1,64.2,32.391a2.1,2.1,0,0,1,1.766.828,3.217,3.217,0,0,1,.422,2.242L65.467,41H64.053l.93-5.557a2.962,2.962,0,0,0,.008-.71A1.168,1.168,0,0,0,63.7,33.617a2.661,2.661,0,0,0-2.234,1.358L60.42,41H59.006l1.469-8.453ZM71.3,41.156a3.048,3.048,0,0,1-2.469-1.164,4.006,4.006,0,0,1-.75-2.9l.039-.336a5.624,5.624,0,0,1,.746-2.3,4.339,4.339,0,0,1,1.5-1.566,3.491,3.491,0,0,1,1.906-.5,2.688,2.688,0,0,1,2.047.867,3.566,3.566,0,0,1,.813,2.266,6.62,6.62,0,0,1-.031,1.016l-.086.648H69.49a2.856,2.856,0,0,0,.379,1.953,1.8,1.8,0,0,0,1.551.836,3.007,3.007,0,0,0,2.313-1.125l.813.688a3.718,3.718,0,0,1-1.371,1.2A3.886,3.886,0,0,1,71.3,41.156Zm.9-7.586a2.066,2.066,0,0,0-1.527.594A4.22,4.22,0,0,0,69.639,36l4.109.008.031-.125a2.313,2.313,0,0,0-.316-1.637A1.488,1.488,0,0,0,72.2,33.57Zm6.547-1.031-.2,1.07a3.333,3.333,0,0,1,2.594-1.219,2.1,2.1,0,0,1,1.766.828,3.217,3.217,0,0,1,.422,2.242L82.4,41H80.99l.93-5.557a2.962,2.962,0,0,0,.008-.71,1.168,1.168,0,0,0-1.289-1.116A2.661,2.661,0,0,0,78.4,34.975L77.358,41H75.943l1.469-8.453Zm9.57-2.039-.359,2.047H89.5l-.2,1.117H87.772l-.883,5.258a1.833,1.833,0,0,0-.008.375.6.6,0,0,0,.664.609,4.05,4.05,0,0,0,.688-.078l-.109,1.18a3.847,3.847,0,0,1-1.031.141,1.476,1.476,0,0,1-1.266-.621A2.4,2.4,0,0,1,85.5,38.9l.859-5.234H84.865l.2-1.117h1.492l.359-2.047Zm-47.1,24.352H37.678L35.92,65H34.459l1.758-10.148H32.678l.219-1.227h8.539Zm3.383,10.3a3.048,3.048,0,0,1-2.469-1.164,4.006,4.006,0,0,1-.75-2.9l.039-.336a5.624,5.624,0,0,1,.746-2.3,4.339,4.339,0,0,1,1.5-1.566,3.491,3.491,0,0,1,1.906-.5,2.688,2.688,0,0,1,2.047.867,3.566,3.566,0,0,1,.813,2.266,6.621,6.621,0,0,1-.031,1.016l-.086.648H42.787a2.856,2.856,0,0,0,.379,1.953,1.8,1.8,0,0,0,1.551.836,3.007,3.007,0,0,0,2.313-1.125l.813.688a3.718,3.718,0,0,1-1.371,1.2A3.886,3.886,0,0,1,44.6,65.156Zm.9-7.586a2.066,2.066,0,0,0-1.527.594A4.22,4.22,0,0,0,42.936,60l4.109.008.031-.125a2.313,2.313,0,0,0-.316-1.637A1.488,1.488,0,0,0,45.5,57.57Zm8.977,5.141q.117-.875-.961-1.234l-1.469-.43q-1.859-.641-1.8-2.125a2.341,2.341,0,0,1,1.02-1.832,3.631,3.631,0,0,1,2.27-.7,3.027,3.027,0,0,1,2.082.746,2.363,2.363,0,0,1,.77,1.9l-1.406-.008a1.319,1.319,0,0,0-.4-1.031,1.576,1.576,0,0,0-1.1-.414,2.059,2.059,0,0,0-1.266.359,1.316,1.316,0,0,0-.57.922q-.1.734.9,1.07l.711.2a4.577,4.577,0,0,1,2.063.977,1.865,1.865,0,0,1,.563,1.492,2.37,2.37,0,0,1-.516,1.375,2.948,2.948,0,0,1-1.25.895,4.18,4.18,0,0,1-1.664.285,3.3,3.3,0,0,1-2.219-.785,2.427,2.427,0,0,1-.844-1.98L50.8,62.4a1.5,1.5,0,0,0,.453,1.141,1.732,1.732,0,0,0,1.242.43,2.436,2.436,0,0,0,1.336-.324A1.247,1.247,0,0,0,54.475,62.711ZM61.053,54.5l-.359,2.047h1.539l-.2,1.117H60.506l-.883,5.258a1.833,1.833,0,0,0-.008.375.6.6,0,0,0,.664.609,4.05,4.05,0,0,0,.688-.078l-.109,1.18a3.847,3.847,0,0,1-1.031.141,1.476,1.476,0,0,1-1.266-.621,2.4,2.4,0,0,1-.328-1.629l.859-5.234H57.6l.2-1.117h1.492l.359-2.047ZM67.7,62.711q.117-.875-.961-1.234l-1.469-.43q-1.859-.641-1.8-2.125a2.341,2.341,0,0,1,1.02-1.832,3.631,3.631,0,0,1,2.27-.7,3.027,3.027,0,0,1,2.082.746,2.363,2.363,0,0,1,.77,1.9l-1.406-.008a1.319,1.319,0,0,0-.4-1.031,1.576,1.576,0,0,0-1.1-.414,2.059,2.059,0,0,0-1.266.359,1.316,1.316,0,0,0-.57.922q-.1.734.9,1.07l.711.2a4.577,4.577,0,0,1,2.063.977,1.865,1.865,0,0,1,.563,1.492,2.37,2.37,0,0,1-.516,1.375,2.948,2.948,0,0,1-1.25.895,4.18,4.18,0,0,1-1.664.285,3.3,3.3,0,0,1-2.219-.785,2.427,2.427,0,0,1-.844-1.98l1.414.008a1.5,1.5,0,0,0,.453,1.141,1.732,1.732,0,0,0,1.242.43,2.436,2.436,0,0,0,1.336-.324A1.247,1.247,0,0,0,67.7,62.711Z" transform="translate(1015.5 20084.006)" fill="#fff"/>
    <path id="Trazado_827917" data-name="Trazado 827917" d="M157.524,75.343c-.442,0-.924.04-1.366.04v-.4A26.74,26.74,0,0,0,133.02,48.509v-.241a5.555,5.555,0,0,0-5.544-5.544,5.657,5.657,0,0,0-2.169.442,37.1,37.1,0,0,0-68.733,6.909,14.965,14.965,0,0,0-4.258-.643,14.434,14.434,0,0,0-12.774,21.13,19.707,19.707,0,0,0,.482,39.408h117.5a17.314,17.314,0,1,0,0-34.627Z" transform="translate(839.399 19877.975)" fill="#3a4d9d"/>
    <path id="Trazado_827917-2" data-name="Trazado 827917" d="M157.524,75.343c-.442,0-.924.04-1.366.04v-.4A26.74,26.74,0,0,0,133.02,48.509v-.241a5.555,5.555,0,0,0-5.544-5.544,5.657,5.657,0,0,0-2.169.442,37.1,37.1,0,0,0-68.733,6.909,14.965,14.965,0,0,0-4.258-.643,14.434,14.434,0,0,0-12.774,21.13,19.707,19.707,0,0,0,.482,39.408h117.5a17.314,17.314,0,1,0,0-34.627Z" transform="translate(845.027 20061.715)" fill="#2f64a1"/>
    <path id="Trazado_830697" data-name="Trazado 830697" d="M-31.344-2.791h-4.321L-37.123,0h-1.472L-32.8-10.664h1.208L-29.484,0h-1.355Zm-3.713-1.15h3.508l-.886-4.973Zm11.8,3.157a3.061,3.061,0,0,1-2.366.93A1.975,1.975,0,0,1-27.3-.667a3.109,3.109,0,0,1-.406-2.139l.85-5.12h1.326l-.857,5.142a3.415,3.415,0,0,0-.015.63,1.311,1.311,0,0,0,.315.828A1.075,1.075,0,0,0-25.316-1a2.378,2.378,0,0,0,2.2-1.15l1-5.771H-20.8L-22.174,0h-1.252Zm6.563-9.06-.337,1.919h1.443l-.183,1.047h-1.436l-.828,4.929a1.719,1.719,0,0,0-.007.352.559.559,0,0,0,.623.571,3.8,3.8,0,0,0,.645-.073l-.1,1.106a3.606,3.606,0,0,1-.967.132,1.384,1.384,0,0,1-1.187-.582A2.252,2.252,0,0,1-19.34-1.97l.806-4.907h-1.4l.183-1.047h1.4l.337-1.919Zm5.581,1.772a2.856,2.856,0,0,1,1.707.542A3.08,3.08,0,0,1-8.357-6.075,4.5,4.5,0,0,1-8.126-4.05l-.015.161A5.33,5.33,0,0,1-8.829-1.8,4.04,4.04,0,0,1-10.25-.344a3.465,3.465,0,0,1-1.912.491,2.861,2.861,0,0,1-1.7-.542,3.01,3.01,0,0,1-1.044-1.436,4.623,4.623,0,0,1-.234-2,5.4,5.4,0,0,1,.667-2.212,4.134,4.134,0,0,1,1.432-1.52A3.424,3.424,0,0,1-11.115-8.071Zm-2.7,4.248a4.5,4.5,0,0,0,0,.959,2.35,2.35,0,0,0,.516,1.377,1.55,1.55,0,0,0,1.183.535,2.112,2.112,0,0,0,1.216-.326,2.736,2.736,0,0,0,.938-1.051,4.426,4.426,0,0,0,.491-1.56,7.026,7.026,0,0,0,.022-1.135,2.439,2.439,0,0,0-.535-1.4,1.585,1.585,0,0,0-1.187-.542,2.16,2.16,0,0,0-1.743.806A3.98,3.98,0,0,0-13.8-3.992Zm9.28-4.109-.168.886a3.1,3.1,0,0,1,2.41-1.025,2.445,2.445,0,0,1,1.278.344,1.688,1.688,0,0,1,.721.93A3.272,3.272,0,0,1,2.34-8.071a2.1,2.1,0,0,1,1.75.8,2.852,2.852,0,0,1,.417,2.065L3.636,0H2.318l.864-5.222a2.759,2.759,0,0,0,0-.7q-.139-1-1.3-1.018a2,2,0,0,0-1.315.45A2.083,2.083,0,0,0-.194-5.266L-1.095,0H-2.428l.879-5.215a1.674,1.674,0,0,0-.245-1.252,1.291,1.291,0,0,0-1.058-.454,2.17,2.17,0,0,0-1.97,1.128L-5.826,0H-7.152l1.377-7.925ZM10.529,0a1.775,1.775,0,0,1-.051-.417L10.5-.835A3.249,3.249,0,0,1,8.185.146a2.368,2.368,0,0,1-1.7-.663,2.006,2.006,0,0,1-.6-1.622,2.44,2.44,0,0,1,1.1-1.967,4.693,4.693,0,0,1,2.706-.707l1.384.007.088-.63a1.448,1.448,0,0,0-.275-1.124,1.326,1.326,0,0,0-1.044-.428,2.044,2.044,0,0,0-1.2.333A1.418,1.418,0,0,0,8-5.735l-1.333.007a2.125,2.125,0,0,1,.542-1.234A3.153,3.153,0,0,1,8.434-7.8a3.951,3.951,0,0,1,1.545-.282,2.627,2.627,0,0,1,1.926.751,2.328,2.328,0,0,1,.579,1.915L11.84-1.487,11.8-.923a2.765,2.765,0,0,0,.088.8L11.876,0ZM8.448-1.025a2.312,2.312,0,0,0,1.2-.3,3.051,3.051,0,0,0,.978-.883l.286-1.633-1-.007a3.8,3.8,0,0,0-1.919.4A1.457,1.457,0,0,0,7.24-2.336a1.135,1.135,0,0,0,.26.927A1.238,1.238,0,0,0,8.448-1.025Zm8.723-8.818-.337,1.919h1.443l-.183,1.047H16.659l-.828,4.929a1.719,1.719,0,0,0-.007.352.559.559,0,0,0,.623.571,3.8,3.8,0,0,0,.645-.073l-.1,1.106a3.606,3.606,0,0,1-.967.132,1.384,1.384,0,0,1-1.187-.582,2.252,2.252,0,0,1-.308-1.527l.806-4.907h-1.4l.183-1.047h1.4l.337-1.919ZM21.925.146A2.857,2.857,0,0,1,19.611-.945a3.756,3.756,0,0,1-.7-2.717l.037-.315a5.273,5.273,0,0,1,.7-2.153,4.068,4.068,0,0,1,1.4-1.469,3.273,3.273,0,0,1,1.787-.472,2.52,2.52,0,0,1,1.919.813,3.343,3.343,0,0,1,.762,2.124,6.207,6.207,0,0,1-.029.952l-.081.608H20.226a2.677,2.677,0,0,0,.355,1.831,1.683,1.683,0,0,0,1.454.784A2.819,2.819,0,0,0,24.2-2.014l.762.645A3.486,3.486,0,0,1,23.679-.245,3.643,3.643,0,0,1,21.925.146Zm.842-7.112a1.937,1.937,0,0,0-1.432.557,3.956,3.956,0,0,0-.97,1.721l3.853.007.029-.117a2.168,2.168,0,0,0-.3-1.534A1.4,1.4,0,0,0,22.767-6.965Zm3.889,2.988a6.166,6.166,0,0,1,.667-2.183A3.779,3.779,0,0,1,28.6-7.617a2.931,2.931,0,0,1,1.677-.461,2.475,2.475,0,0,1,2.036.967l.762-4.138h1.326L32.457,0H31.249l.139-.85a2.921,2.921,0,0,1-2.314,1,2.189,2.189,0,0,1-1.75-.861,3.75,3.75,0,0,1-.7-2.23A7.123,7.123,0,0,1,26.656-3.977Zm1.274.757A2.746,2.746,0,0,0,28.3-1.6,1.347,1.347,0,0,0,29.462-1a2.4,2.4,0,0,0,2.043-1.156l.63-3.658a1.644,1.644,0,0,0-1.6-1.112,2.009,2.009,0,0,0-1.381.472,3.052,3.052,0,0,0-.908,1.383A5.7,5.7,0,0,0,27.931-3.22ZM-30.154,20.188a3.354,3.354,0,0,1,1.626-2.432l.835-.557-.315-.564a3.283,3.283,0,0,1-.469-1.794A2.828,2.828,0,0,1-27.6,12.9a2.708,2.708,0,0,1,1.992-.707,2.3,2.3,0,0,1,1.633.641,1.9,1.9,0,0,1,.586,1.556,3.108,3.108,0,0,1-1.56,2.307l-1.077.718L-24.2,20.2a5.1,5.1,0,0,0,.835-2.124h1.179a5.408,5.408,0,0,1-1.326,3.127L-22.361,23H-23.84l-.535-.828a4.311,4.311,0,0,1-2.805.967,3.1,3.1,0,0,1-2.227-.839A2.546,2.546,0,0,1-30.154,20.188Zm3.018,1.853a3.336,3.336,0,0,0,2.08-.828l-1.985-3.105-.315.22a2.985,2.985,0,0,0-1.45,1.868,1.556,1.556,0,0,0,.352,1.311A1.712,1.712,0,0,0-27.136,22.041Zm-.037-7.251a2.331,2.331,0,0,0,.359,1.355l.2.344,1.121-.754a1.946,1.946,0,0,0,.864-1.355.932.932,0,0,0-.256-.776,1.065,1.065,0,0,0-.8-.308,1.331,1.331,0,0,0-1.018.443A1.754,1.754,0,0,0-27.173,14.79Zm13.315-2.454,1.868,8.687L-7.1,12.336h1.809L-7.141,23h-1.37l.732-4.219.872-4.292L-11.741,23H-12.8l-1.9-8.679-.659,4.6-.71,4.08h-1.377l1.853-10.664ZM-.029,23a1.775,1.775,0,0,1-.051-.417l.022-.417a3.249,3.249,0,0,1-2.314.981,2.368,2.368,0,0,1-1.7-.663,2.006,2.006,0,0,1-.6-1.622,2.44,2.44,0,0,1,1.1-1.967,4.693,4.693,0,0,1,2.706-.707L.52,18.2l.088-.63a1.448,1.448,0,0,0-.275-1.124A1.326,1.326,0,0,0-.71,16.013a2.044,2.044,0,0,0-1.2.333,1.418,1.418,0,0,0-.641.919l-1.333.007a2.125,2.125,0,0,1,.542-1.234A3.153,3.153,0,0,1-2.124,15.2a3.951,3.951,0,0,1,1.545-.282,2.627,2.627,0,0,1,1.926.751,2.328,2.328,0,0,1,.579,1.915l-.645,3.926-.037.564a2.765,2.765,0,0,0,.088.8L1.318,23Zm-2.08-1.025a2.312,2.312,0,0,0,1.2-.3,3.051,3.051,0,0,0,.978-.883l.286-1.633-1-.007a3.8,3.8,0,0,0-1.919.4,1.457,1.457,0,0,0-.754,1.121,1.135,1.135,0,0,0,.26.927A1.238,1.238,0,0,0-2.109,21.975Zm7.852-6.907-.19,1a3.124,3.124,0,0,1,2.432-1.143,1.966,1.966,0,0,1,1.655.776,3.016,3.016,0,0,1,.4,2.1L9.17,23H7.844l.872-5.209a2.777,2.777,0,0,0,.007-.666,1.1,1.1,0,0,0-1.208-1.046A2.5,2.5,0,0,0,5.42,17.352L4.438,23H3.113L4.49,15.075Zm10.5,7.148a3.061,3.061,0,0,1-2.366.93,1.975,1.975,0,0,1-1.681-.813,3.109,3.109,0,0,1-.406-2.139l.85-5.12h1.326l-.857,5.142a3.415,3.415,0,0,0-.015.63,1.311,1.311,0,0,0,.315.828,1.075,1.075,0,0,0,.776.322,2.378,2.378,0,0,0,2.2-1.15l1-5.771h1.326L17.329,23H16.077Zm7.91.784a1.775,1.775,0,0,1-.051-.417l.022-.417a3.249,3.249,0,0,1-2.314.981,2.368,2.368,0,0,1-1.7-.663,2.006,2.006,0,0,1-.6-1.622,2.44,2.44,0,0,1,1.1-1.967,4.693,4.693,0,0,1,2.706-.707L24.7,18.2l.088-.63a1.448,1.448,0,0,0-.275-1.124,1.326,1.326,0,0,0-1.044-.428,2.044,2.044,0,0,0-1.2.333,1.418,1.418,0,0,0-.641.919l-1.333.007a2.125,2.125,0,0,1,.542-1.234,3.153,3.153,0,0,1,1.223-.835,3.951,3.951,0,0,1,1.545-.282,2.627,2.627,0,0,1,1.926.751,2.328,2.328,0,0,1,.579,1.915l-.645,3.926-.037.564a2.765,2.765,0,0,0,.088.8L25.5,23Zm-2.08-1.025a2.312,2.312,0,0,0,1.2-.3,3.051,3.051,0,0,0,.978-.883l.286-1.633-1-.007a3.8,3.8,0,0,0-1.919.4,1.457,1.457,0,0,0-.754,1.121,1.135,1.135,0,0,0,.26.927A1.238,1.238,0,0,0,22.075,21.975ZM28.733,23H27.415l1.948-11.25h1.326Z" transform="translate(935.785 19946.484)" fill="#fff"/>
    <path id="Trazado_830698" data-name="Trazado 830698" d="M-29.506-2.791h-4.321L-35.284,0h-1.472l5.793-10.664h1.208L-27.645,0H-29Zm-3.713-1.15h3.508L-30.6-8.914Zm11.8,3.157a3.061,3.061,0,0,1-2.366.93,1.975,1.975,0,0,1-1.681-.813,3.109,3.109,0,0,1-.406-2.139l.85-5.12H-23.7l-.857,5.142a3.415,3.415,0,0,0-.015.63,1.311,1.311,0,0,0,.315.828A1.075,1.075,0,0,0-23.478-1a2.378,2.378,0,0,0,2.2-1.15l1-5.771h1.326L-20.336,0h-1.252Zm6.563-9.06-.337,1.919h1.443l-.183,1.047H-15.37L-16.2-1.948A1.719,1.719,0,0,0-16.2-1.6a.559.559,0,0,0,.623.571,3.8,3.8,0,0,0,.645-.073l-.1,1.106a3.606,3.606,0,0,1-.967.132,1.384,1.384,0,0,1-1.187-.582A2.252,2.252,0,0,1-17.5-1.97l.806-4.907h-1.4l.183-1.047h1.4l.337-1.919Zm5.581,1.772a2.856,2.856,0,0,1,1.707.542A3.08,3.08,0,0,1-6.519-6.075,4.5,4.5,0,0,1-6.288-4.05l-.015.161A5.33,5.33,0,0,1-6.991-1.8,4.04,4.04,0,0,1-8.412-.344a3.465,3.465,0,0,1-1.912.491,2.861,2.861,0,0,1-1.7-.542A3.01,3.01,0,0,1-13.07-1.831a4.623,4.623,0,0,1-.234-2,5.4,5.4,0,0,1,.667-2.212,4.134,4.134,0,0,1,1.432-1.52A3.424,3.424,0,0,1-9.276-8.071Zm-2.7,4.248a4.5,4.5,0,0,0,0,.959,2.35,2.35,0,0,0,.516,1.377,1.55,1.55,0,0,0,1.183.535,2.112,2.112,0,0,0,1.216-.326,2.736,2.736,0,0,0,.938-1.051,4.426,4.426,0,0,0,.491-1.56,7.026,7.026,0,0,0,.022-1.135,2.439,2.439,0,0,0-.535-1.4,1.585,1.585,0,0,0-1.187-.542,2.16,2.16,0,0,0-1.743.806,3.98,3.98,0,0,0-.886,2.168Zm9.28-4.109-.168.886A3.1,3.1,0,0,1-.45-8.071a2.445,2.445,0,0,1,1.278.344,1.688,1.688,0,0,1,.721.93A3.272,3.272,0,0,1,4.178-8.071a2.1,2.1,0,0,1,1.75.8,2.852,2.852,0,0,1,.417,2.065L5.475,0H4.156l.864-5.222a2.759,2.759,0,0,0,0-.7q-.139-1-1.3-1.018a2,2,0,0,0-1.315.45,2.083,2.083,0,0,0-.758,1.219L.743,0H-.59L.289-5.215A1.674,1.674,0,0,0,.044-6.467a1.291,1.291,0,0,0-1.058-.454,2.17,2.17,0,0,0-1.97,1.128L-3.988,0H-5.314l1.377-7.925ZM12.367,0a1.775,1.775,0,0,1-.051-.417l.022-.417a3.249,3.249,0,0,1-2.314.981,2.368,2.368,0,0,1-1.7-.663,2.006,2.006,0,0,1-.6-1.622,2.44,2.44,0,0,1,1.1-1.967,4.693,4.693,0,0,1,2.706-.707l1.384.007L13-5.435a1.448,1.448,0,0,0-.275-1.124,1.326,1.326,0,0,0-1.044-.428,2.044,2.044,0,0,0-1.2.333,1.418,1.418,0,0,0-.641.919l-1.333.007a2.125,2.125,0,0,1,.542-1.234A3.153,3.153,0,0,1,10.272-7.8a3.951,3.951,0,0,1,1.545-.282,2.627,2.627,0,0,1,1.926.751,2.328,2.328,0,0,1,.579,1.915l-.645,3.926-.037.564a2.765,2.765,0,0,0,.088.8L13.715,0Zm-2.08-1.025a2.312,2.312,0,0,0,1.2-.3,3.051,3.051,0,0,0,.978-.883l.286-1.633-1-.007a3.8,3.8,0,0,0-1.919.4,1.457,1.457,0,0,0-.754,1.121,1.135,1.135,0,0,0,.26.927A1.238,1.238,0,0,0,10.287-1.025ZM19.01-9.844l-.337,1.919h1.443l-.183,1.047H18.5L17.67-1.948a1.719,1.719,0,0,0-.007.352.559.559,0,0,0,.623.571,3.8,3.8,0,0,0,.645-.073l-.1,1.106a3.606,3.606,0,0,1-.967.132,1.384,1.384,0,0,1-1.187-.582,2.252,2.252,0,0,1-.308-1.527l.806-4.907h-1.4l.183-1.047h1.4l.337-1.919ZM23.763.146A2.857,2.857,0,0,1,21.449-.945a3.756,3.756,0,0,1-.7-2.717l.037-.315a5.273,5.273,0,0,1,.7-2.153,4.068,4.068,0,0,1,1.4-1.469,3.273,3.273,0,0,1,1.787-.472,2.52,2.52,0,0,1,1.919.813,3.343,3.343,0,0,1,.762,2.124,6.207,6.207,0,0,1-.029.952l-.081.608H22.064a2.677,2.677,0,0,0,.355,1.831,1.683,1.683,0,0,0,1.454.784,2.819,2.819,0,0,0,2.168-1.055l.762.645A3.486,3.486,0,0,1,25.518-.245,3.643,3.643,0,0,1,23.763.146Zm.842-7.112a1.937,1.937,0,0,0-1.432.557,3.956,3.956,0,0,0-.97,1.721l3.853.007.029-.117a2.168,2.168,0,0,0-.3-1.534A1.4,1.4,0,0,0,24.606-6.965Zm3.889,2.988a6.166,6.166,0,0,1,.667-2.183,3.779,3.779,0,0,1,1.282-1.458,2.931,2.931,0,0,1,1.677-.461,2.475,2.475,0,0,1,2.036.967l.762-4.138h1.326L34.3,0H33.087l.139-.85a2.921,2.921,0,0,1-2.314,1,2.189,2.189,0,0,1-1.75-.861,3.75,3.75,0,0,1-.7-2.23A7.123,7.123,0,0,1,28.495-3.977Zm1.274.757A2.746,2.746,0,0,0,30.143-1.6,1.347,1.347,0,0,0,31.3-1a2.4,2.4,0,0,0,2.043-1.156l.63-3.658a1.644,1.644,0,0,0-1.6-1.112A2.009,2.009,0,0,0,31-6.457a3.052,3.052,0,0,0-.908,1.383A5.7,5.7,0,0,0,29.769-3.22Z" transform="translate(935.236 20139.125)" fill="#fff"/>
    <path id="Trazado_830691" data-name="Trazado 830691" d="M13,0H41V62H13A13,13,0,0,1,0,49V13A13,13,0,0,1,13,0Z" transform="translate(1118 20031)" fill="#e9ba20"/>
    <path id="Trazado_830694" data-name="Trazado 830694" d="M-1.447-5.12a6.889,6.889,0,0,1-.875,2.626A5.378,5.378,0,0,1-4.01-.725L-2.582.688l-1.663,1.26L-6.134.11a5.4,5.4,0,0,1-.615.029A3.778,3.778,0,0,1-8.657-.352,3.432,3.432,0,0,1-9.972-1.743a5.124,5.124,0,0,1-.564-2.08,8.454,8.454,0,0,1,.125-1.952A7.353,7.353,0,0,1-9.76-7.822a5.515,5.515,0,0,1,1.9-2.223,4.619,4.619,0,0,1,2.7-.765,3.862,3.862,0,0,1,1.9.5,3.487,3.487,0,0,1,1.315,1.4,5.062,5.062,0,0,1,.575,2.069,6.806,6.806,0,0,1-.037,1.3ZM-3.871-6.9a2.55,2.55,0,0,0-.414-1.414A1.311,1.311,0,0,0-5.3-8.8a1.985,1.985,0,0,0-1.729.835,5.43,5.43,0,0,0-.894,2.585,8.785,8.785,0,0,0-.1,1.626q.073,1.853,1.436,1.9a1.92,1.92,0,0,0,1.659-.773A5.073,5.073,0,0,0-4.01-5.068,10.153,10.153,0,0,0-3.871-6.9ZM4.149,0H1.732L3.094-7.837l-2.483.7L.948-9.089l4.717-1.575.271-.007Z" transform="translate(1137.673 20079.932)" fill="#fff"/>
    <path id="Trazado_830692" data-name="Trazado 830692" d="M-1.447-5.12a6.889,6.889,0,0,1-.875,2.626A5.378,5.378,0,0,1-4.01-.725L-2.582.688l-1.663,1.26L-6.134.11a5.4,5.4,0,0,1-.615.029A3.778,3.778,0,0,1-8.657-.352,3.432,3.432,0,0,1-9.972-1.743a5.124,5.124,0,0,1-.564-2.08,8.454,8.454,0,0,1,.125-1.952A7.353,7.353,0,0,1-9.76-7.822a5.515,5.515,0,0,1,1.9-2.223,4.619,4.619,0,0,1,2.7-.765,3.862,3.862,0,0,1,1.9.5,3.487,3.487,0,0,1,1.315,1.4,5.062,5.062,0,0,1,.575,2.069,6.806,6.806,0,0,1-.037,1.3ZM-3.871-6.9a2.55,2.55,0,0,0-.414-1.414A1.311,1.311,0,0,0-5.3-8.8a1.985,1.985,0,0,0-1.729.835,5.43,5.43,0,0,0-.894,2.585,8.785,8.785,0,0,0-.1,1.626q.073,1.853,1.436,1.9a1.92,1.92,0,0,0,1.659-.773A5.073,5.073,0,0,0-4.01-5.068,10.153,10.153,0,0,0-3.871-6.9Zm10,6.9H-1.095l.264-1.7L2.963-5.222l.52-.52A3.025,3.025,0,0,0,4.6-8.064a.837.837,0,0,0-.879-.872,1.157,1.157,0,0,0-.956.458,2.343,2.343,0,0,0-.487,1.234l-2.4.015A3.657,3.657,0,0,1,.494-9.064a3.787,3.787,0,0,1,1.469-1.3,4.186,4.186,0,0,1,1.959-.461,3.464,3.464,0,0,1,2.417.846,2.6,2.6,0,0,1,.747,2.208,3.6,3.6,0,0,1-.538,1.6A8.23,8.23,0,0,1,5.175-4.541L4.061-3.516l-1.655,1.6L6.434-1.9Z" transform="translate(1137.673 20051.271)" fill="#fff"/>
    <path id="Trazado_830695" data-name="Trazado 830695" d="M0,0H177" transform="translate(982.5 20057.5)" fill="none" stroke="#fff" stroke-width="1"/>
  </g>
</svg>
