<svg xmlns="http://www.w3.org/2000/svg" width="273.046" height="169.494" viewBox="0 0 273.046 169.494">
  <g id="Grupo_1084967" data-name="Grupo 1084967" transform="translate(-887.012 -21266.432)">
    <path id="Trazado_830667" data-name="Trazado 830667" d="M0,0H184.388V129.851H0Z" transform="translate(975.657 21305.924)" fill="#273a89"/>
    <path id="Trazado_830669" data-name="Trazado 830669" d="M12.7,10.6H8.658L7.892,15H6.607L8.336,5.047h5.988L14.133,6.12H9.43L8.842,9.531H12.9Zm5.831,3.664a2.856,2.856,0,0,1-2.208.868,1.843,1.843,0,0,1-1.569-.759,2.9,2.9,0,0,1-.379-2L15.172,7.6H16.41l-.8,4.8a3.187,3.187,0,0,0-.014.588,1.223,1.223,0,0,0,.294.772,1,1,0,0,0,.725.3,2.219,2.219,0,0,0,2.051-1.073L19.6,7.6h1.237L19.547,15H18.378ZM23.847,7.6l-.178.937a2.916,2.916,0,0,1,2.27-1.066,1.835,1.835,0,0,1,1.545.725,2.815,2.815,0,0,1,.369,1.962L27.046,15H25.809l.813-4.862a2.592,2.592,0,0,0,.007-.621A1.022,1.022,0,0,0,25.5,8.54a2.329,2.329,0,0,0-1.955,1.188L22.63,15H21.393l1.285-7.4Zm8.23,6.515a1.877,1.877,0,0,0,1.2-.386,1.837,1.837,0,0,0,.7-1.049l1.169-.007a2.638,2.638,0,0,1-.557,1.271,3.22,3.22,0,0,1-2.56,1.2,2.64,2.64,0,0,1-1.562-.482,2.7,2.7,0,0,1-.94-1.306,4.35,4.35,0,0,1-.205-1.883l.034-.342a4.9,4.9,0,0,1,.622-1.907,3.6,3.6,0,0,1,1.285-1.309,3.192,3.192,0,0,1,1.75-.441,2.5,2.5,0,0,1,1.859.779,2.7,2.7,0,0,1,.7,1.907l-1.155-.007a1.775,1.775,0,0,0-.4-1.172A1.406,1.406,0,0,0,32.953,8.5a1.972,1.972,0,0,0-1.6.718,3.76,3.76,0,0,0-.8,2.064l-.021.178a5.929,5.929,0,0,0-.014.9,2.061,2.061,0,0,0,.451,1.265A1.449,1.449,0,0,0,32.078,14.111Zm7.321-8.3L39.084,7.6h1.347l-.171.978H38.92l-.772,4.6a1.6,1.6,0,0,0-.007.328.521.521,0,0,0,.581.533,3.544,3.544,0,0,0,.6-.068l-.1,1.032a3.366,3.366,0,0,1-.9.123,1.292,1.292,0,0,1-1.107-.543,2.1,2.1,0,0,1-.287-1.425l.752-4.58H36.377l.171-.978h1.306l.314-1.791ZM41.976,15h-1.23l1.285-7.4h1.23ZM42.995,4.9a.677.677,0,0,1,.523.188.7.7,0,0,1,.208.53.73.73,0,0,1-.731.745.682.682,0,0,1-.526-.185.669.669,0,0,1-.2-.52.776.776,0,0,1,.205-.533A.723.723,0,0,1,42.995,4.9Zm5.113,2.563a2.666,2.666,0,0,1,1.593.506,2.874,2.874,0,0,1,.981,1.357,4.2,4.2,0,0,1,.215,1.89l-.014.15a4.975,4.975,0,0,1-.643,1.952,3.77,3.77,0,0,1-1.326,1.357,3.234,3.234,0,0,1-1.784.458,2.671,2.671,0,0,1-1.589-.506,2.809,2.809,0,0,1-.974-1.34,4.314,4.314,0,0,1-.219-1.866A5.04,5.04,0,0,1,44.97,9.36a3.858,3.858,0,0,1,1.336-1.418A3.2,3.2,0,0,1,48.108,7.467Zm-2.516,3.965a4.2,4.2,0,0,0,0,.9,2.194,2.194,0,0,0,.482,1.285,1.447,1.447,0,0,0,1.1.5,1.971,1.971,0,0,0,1.135-.3,2.554,2.554,0,0,0,.875-.981,4.131,4.131,0,0,0,.458-1.456,6.558,6.558,0,0,0,.021-1.06A2.277,2.277,0,0,0,49.167,9,1.479,1.479,0,0,0,48.06,8.5a2.016,2.016,0,0,0-1.627.752,3.715,3.715,0,0,0-.827,2.023ZM54.267,7.6l-.178.937a2.916,2.916,0,0,1,2.27-1.066,1.835,1.835,0,0,1,1.545.725,2.815,2.815,0,0,1,.369,1.962L57.466,15H56.229l.813-4.862a2.592,2.592,0,0,0,.007-.621,1.022,1.022,0,0,0-1.128-.976,2.329,2.329,0,0,0-1.955,1.188L53.05,15H51.813L53.1,7.6ZM63.9,15a1.657,1.657,0,0,1-.048-.39l.021-.39a3.032,3.032,0,0,1-2.16.916,2.21,2.21,0,0,1-1.589-.619A1.872,1.872,0,0,1,59.565,13a2.277,2.277,0,0,1,1.029-1.835,4.38,4.38,0,0,1,2.526-.66l1.292.007.082-.588a1.352,1.352,0,0,0-.256-1.049,1.237,1.237,0,0,0-.974-.4,1.908,1.908,0,0,0-1.125.311,1.324,1.324,0,0,0-.6.858L60.3,9.654A1.983,1.983,0,0,1,60.8,8.5a2.943,2.943,0,0,1,1.142-.779,3.688,3.688,0,0,1,1.442-.263,2.452,2.452,0,0,1,1.8.7,2.173,2.173,0,0,1,.54,1.788l-.6,3.664-.034.526a2.58,2.58,0,0,0,.082.745L65.157,15Zm-1.941-.957a2.158,2.158,0,0,0,1.125-.284,2.847,2.847,0,0,0,.913-.824l.267-1.524-.937-.007a3.547,3.547,0,0,0-1.791.369,1.36,1.36,0,0,0-.7,1.046,1.059,1.059,0,0,0,.243.865A1.156,1.156,0,0,0,61.958,14.043ZM68.171,15h-1.23L68.759,4.5H70Zm13.59-8.88h-3.1L77.126,15H75.848l1.538-8.88h-3.1l.191-1.073h7.472Zm2.96,9.017a2.667,2.667,0,0,1-2.16-1.019,3.505,3.505,0,0,1-.656-2.536l.034-.294a4.921,4.921,0,0,1,.653-2.01A3.8,3.8,0,0,1,83.9,7.908a3.054,3.054,0,0,1,1.668-.441,2.352,2.352,0,0,1,1.791.759,3.121,3.121,0,0,1,.711,1.982,5.793,5.793,0,0,1-.027.889l-.075.567H83.135a2.5,2.5,0,0,0,.332,1.709,1.57,1.57,0,0,0,1.357.731,2.631,2.631,0,0,0,2.023-.984l.711.6a3.253,3.253,0,0,1-1.2,1.049A3.4,3.4,0,0,1,84.721,15.137ZM85.507,8.5a1.807,1.807,0,0,0-1.336.52,3.693,3.693,0,0,0-.906,1.606l3.6.007.027-.109a2.024,2.024,0,0,0-.277-1.432A1.3,1.3,0,0,0,85.507,8.5ZM93.362,13q.1-.766-.841-1.08l-1.285-.376q-1.627-.561-1.572-1.859a2.048,2.048,0,0,1,.892-1.6,3.177,3.177,0,0,1,1.986-.612,2.649,2.649,0,0,1,1.822.653,2.068,2.068,0,0,1,.673,1.665l-1.23-.007a1.154,1.154,0,0,0-.349-.9,1.379,1.379,0,0,0-.964-.362,1.8,1.8,0,0,0-1.107.314,1.151,1.151,0,0,0-.5.807q-.089.643.786.937l.622.171a4.005,4.005,0,0,1,1.8.854,1.632,1.632,0,0,1,.492,1.306,2.074,2.074,0,0,1-.451,1.2,2.58,2.58,0,0,1-1.094.783,3.658,3.658,0,0,1-1.456.25,2.885,2.885,0,0,1-1.941-.687,2.124,2.124,0,0,1-.738-1.733l1.237.007a1.311,1.311,0,0,0,.4,1,1.515,1.515,0,0,0,1.087.376,2.132,2.132,0,0,0,1.169-.284A1.091,1.091,0,0,0,93.362,13Zm5.756-7.185L98.8,7.6h1.347l-.171.978h-1.34l-.772,4.6a1.6,1.6,0,0,0-.007.328.521.521,0,0,0,.581.533,3.544,3.544,0,0,0,.6-.068l-.1,1.032a3.366,3.366,0,0,1-.9.123,1.292,1.292,0,0,1-1.107-.543,2.1,2.1,0,0,1-.287-1.425l.752-4.58H96.1l.171-.978h1.306l.314-1.791ZM30.146,34.4H25.963l-.615,3.527h4.867L30.023,39H23.878l1.729-9.953h6.077l-.191,1.073H26.7l-.554,3.206h4.184Zm4.5-.1,2.01-2.693h1.518l-2.967,3.719L37.017,39H35.67l-1.224-2.762L32.361,39H30.851l3.056-3.8-1.75-3.6H33.51ZM42.8,39a1.657,1.657,0,0,1-.048-.39l.021-.39a3.032,3.032,0,0,1-2.16.916,2.21,2.21,0,0,1-1.589-.619A1.872,1.872,0,0,1,38.466,37a2.277,2.277,0,0,1,1.029-1.835,4.38,4.38,0,0,1,2.526-.66l1.292.007.082-.588a1.352,1.352,0,0,0-.256-1.049,1.237,1.237,0,0,0-.974-.4,1.908,1.908,0,0,0-1.125.311,1.324,1.324,0,0,0-.6.858l-1.244.007A1.983,1.983,0,0,1,39.7,32.5a2.943,2.943,0,0,1,1.142-.779,3.688,3.688,0,0,1,1.442-.263,2.452,2.452,0,0,1,1.8.7,2.173,2.173,0,0,1,.54,1.788l-.6,3.664-.034.526a2.58,2.58,0,0,0,.082.745L44.058,39Zm-1.941-.957a2.158,2.158,0,0,0,1.125-.284,2.847,2.847,0,0,0,.913-.824l.267-1.524-.937-.007a3.547,3.547,0,0,0-1.791.369,1.36,1.36,0,0,0-.7,1.046,1.059,1.059,0,0,0,.243.865A1.156,1.156,0,0,0,40.858,38.043ZM48.173,31.6l-.157.827a2.892,2.892,0,0,1,2.249-.957,2.282,2.282,0,0,1,1.193.321,1.576,1.576,0,0,1,.673.868,3.054,3.054,0,0,1,2.454-1.189,1.956,1.956,0,0,1,1.634.745,2.662,2.662,0,0,1,.39,1.928L55.795,39h-1.23l.807-4.874a2.575,2.575,0,0,0,0-.649q-.13-.93-1.217-.95a1.869,1.869,0,0,0-1.227.42,1.945,1.945,0,0,0-.708,1.138L51.379,39H50.135l.82-4.867a1.563,1.563,0,0,0-.229-1.169,1.2,1.2,0,0,0-.988-.424A2.026,2.026,0,0,0,47.9,33.593L46.963,39H45.726l1.285-7.4ZM64.4,35.336a5.868,5.868,0,0,1-.608,2.03,3.455,3.455,0,0,1-1.169,1.35,2.676,2.676,0,0,1-1.545.427,2.463,2.463,0,0,1-1.969-.868l-.663,3.568H57.21L58.987,31.6l1.121-.007-.137.827a2.806,2.806,0,0,1,2.194-.957,2.063,2.063,0,0,1,1.661.786,3.46,3.46,0,0,1,.629,2.092,7.362,7.362,0,0,1-.034.848Zm-1.217-.14.034-.573a2.6,2.6,0,0,0-.379-1.526,1.334,1.334,0,0,0-1.1-.556,2.194,2.194,0,0,0-1.853,1.017L59.268,37.1a1.548,1.548,0,0,0,1.5,1.01,1.946,1.946,0,0,0,1.569-.72A4.18,4.18,0,0,0,63.185,35.2ZM66.732,39H65.5L67.32,28.5h1.237Zm5.223.137a2.667,2.667,0,0,1-2.16-1.019,3.505,3.505,0,0,1-.656-2.536l.034-.294a4.921,4.921,0,0,1,.653-2.01,3.8,3.8,0,0,1,1.309-1.371,3.054,3.054,0,0,1,1.668-.441,2.352,2.352,0,0,1,1.791.759,3.121,3.121,0,0,1,.711,1.982,5.793,5.793,0,0,1-.027.889l-.075.567H70.369a2.5,2.5,0,0,0,.332,1.709,1.57,1.57,0,0,0,1.357.731,2.631,2.631,0,0,0,2.023-.984l.711.6a3.253,3.253,0,0,1-1.2,1.049A3.4,3.4,0,0,1,71.955,39.137Zm.786-6.638a1.807,1.807,0,0,0-1.336.52,3.693,3.693,0,0,0-.906,1.606l3.6.007.027-.109a2.024,2.024,0,0,0-.277-1.432A1.3,1.3,0,0,0,72.741,32.5ZM80.6,37q.1-.766-.841-1.08l-1.285-.376q-1.627-.561-1.572-1.859a2.048,2.048,0,0,1,.892-1.6,3.177,3.177,0,0,1,1.986-.612,2.649,2.649,0,0,1,1.822.653,2.068,2.068,0,0,1,.673,1.665l-1.23-.007a1.154,1.154,0,0,0-.349-.9,1.379,1.379,0,0,0-.964-.362,1.8,1.8,0,0,0-1.107.314,1.151,1.151,0,0,0-.5.807q-.089.643.786.937l.622.171a4.005,4.005,0,0,1,1.8.854,1.632,1.632,0,0,1,.492,1.306,2.074,2.074,0,0,1-.451,1.2,2.58,2.58,0,0,1-1.094.783,3.658,3.658,0,0,1-1.456.25,2.885,2.885,0,0,1-1.941-.687,2.124,2.124,0,0,1-.738-1.733l1.237.007a1.311,1.311,0,0,0,.4,1,1.515,1.515,0,0,0,1.087.376,2.132,2.132,0,0,0,1.169-.284A1.091,1.091,0,0,0,80.6,37ZM24.821,60.437q.15-1.094-1.135-1.6L22.5,58.406l-.4-.171q-2-.909-1.866-2.557a2.674,2.674,0,0,1,.567-1.463,3.228,3.228,0,0,1,1.323-.981,4.243,4.243,0,0,1,1.753-.325,3.5,3.5,0,0,1,1.61.4,2.592,2.592,0,0,1,1.077,1.07,2.916,2.916,0,0,1,.328,1.548l-1.292-.007A1.783,1.783,0,0,0,25.2,54.5a1.836,1.836,0,0,0-1.367-.518,2.547,2.547,0,0,0-1.565.438,1.711,1.711,0,0,0-.725,1.233q-.137,1.02,1.251,1.548l1.019.363.513.219a2.574,2.574,0,0,1,1.784,2.639,2.636,2.636,0,0,1-.567,1.453,3.172,3.172,0,0,1-1.336.947,4.607,4.607,0,0,1-1.815.314,3.8,3.8,0,0,1-1.712-.4A2.794,2.794,0,0,1,19.5,61.66a2.693,2.693,0,0,1-.355-1.552l1.285.007a1.693,1.693,0,0,0,.482,1.412,2.169,2.169,0,0,0,1.535.537,2.74,2.74,0,0,0,1.634-.431A1.677,1.677,0,0,0,24.821,60.437Zm5.612-6.624L30.119,55.6h1.347l-.171.978h-1.34l-.772,4.6a1.6,1.6,0,0,0-.007.328.521.521,0,0,0,.581.533,3.544,3.544,0,0,0,.6-.068l-.1,1.032a3.366,3.366,0,0,1-.9.123,1.292,1.292,0,0,1-1.107-.543,2.1,2.1,0,0,1-.287-1.425l.752-4.58H27.412l.171-.978h1.306l.314-1.791Zm5.209,1.654a2.666,2.666,0,0,1,1.593.506,2.874,2.874,0,0,1,.981,1.357,4.2,4.2,0,0,1,.215,1.89l-.014.15a4.975,4.975,0,0,1-.643,1.952,3.77,3.77,0,0,1-1.326,1.357,3.234,3.234,0,0,1-1.784.458,2.671,2.671,0,0,1-1.589-.506,2.809,2.809,0,0,1-.974-1.34,4.314,4.314,0,0,1-.219-1.866A5.04,5.04,0,0,1,32.5,57.36a3.858,3.858,0,0,1,1.336-1.418A3.2,3.2,0,0,1,35.643,55.467Zm-2.516,3.965a4.2,4.2,0,0,0,0,.9,2.194,2.194,0,0,0,.482,1.285,1.447,1.447,0,0,0,1.1.5,1.971,1.971,0,0,0,1.135-.3,2.554,2.554,0,0,0,.875-.981,4.131,4.131,0,0,0,.458-1.456,6.558,6.558,0,0,0,.021-1.06A2.277,2.277,0,0,0,36.7,57a1.479,1.479,0,0,0-1.107-.506,2.016,2.016,0,0,0-1.627.752,3.715,3.715,0,0,0-.827,2.023Zm10.821-2.7-.581-.062a2.117,2.117,0,0,0-1.873,1.073L40.585,63H39.348l1.285-7.4,1.2-.007-.185.861a2.211,2.211,0,0,1,1.853-1,2.27,2.27,0,0,1,.588.1Zm2.714,4.4,2.632-5.53h1.367L46.272,64.23a2.656,2.656,0,0,1-2.352,1.777,4.029,4.029,0,0,1-.745-.123l.109-1.025.321.034a1.622,1.622,0,0,0,1.015-.263,2.426,2.426,0,0,0,.755-.94l.444-.848L44.543,55.6h1.292ZM62.07,54.12h-3.1L57.436,63H56.157L57.7,54.12H54.6l.191-1.073h7.472Zm2.96,9.017a2.667,2.667,0,0,1-2.16-1.019,3.505,3.505,0,0,1-.656-2.536l.034-.294a4.921,4.921,0,0,1,.653-2.01,3.8,3.8,0,0,1,1.309-1.371,3.054,3.054,0,0,1,1.668-.441,2.352,2.352,0,0,1,1.791.759,3.121,3.121,0,0,1,.711,1.982,5.793,5.793,0,0,1-.027.889l-.075.567H63.444a2.5,2.5,0,0,0,.332,1.709,1.57,1.57,0,0,0,1.357.731,2.631,2.631,0,0,0,2.023-.984l.711.6a3.253,3.253,0,0,1-1.2,1.049A3.4,3.4,0,0,1,65.03,63.137Zm.786-6.638a1.807,1.807,0,0,0-1.336.52,3.693,3.693,0,0,0-.906,1.606l3.6.007.027-.109a2.024,2.024,0,0,0-.277-1.432A1.3,1.3,0,0,0,65.816,56.5ZM73.671,61q.1-.766-.841-1.08l-1.285-.376q-1.627-.561-1.572-1.859a2.048,2.048,0,0,1,.892-1.6,3.177,3.177,0,0,1,1.986-.612,2.649,2.649,0,0,1,1.822.653,2.068,2.068,0,0,1,.673,1.665l-1.23-.007a1.154,1.154,0,0,0-.349-.9,1.379,1.379,0,0,0-.964-.362,1.8,1.8,0,0,0-1.107.314,1.151,1.151,0,0,0-.5.807q-.089.643.786.937l.622.171a4.005,4.005,0,0,1,1.8.854A1.632,1.632,0,0,1,74.9,60.9a2.074,2.074,0,0,1-.451,1.2,2.58,2.58,0,0,1-1.094.783,3.658,3.658,0,0,1-1.456.25,2.885,2.885,0,0,1-1.941-.687,2.124,2.124,0,0,1-.738-1.733l1.237.007a1.311,1.311,0,0,0,.4,1,1.515,1.515,0,0,0,1.087.376,2.132,2.132,0,0,0,1.169-.284A1.091,1.091,0,0,0,73.671,61Zm5.756-7.185L79.112,55.6h1.347l-.171.978h-1.34l-.772,4.6a1.6,1.6,0,0,0-.007.328.521.521,0,0,0,.581.533,3.544,3.544,0,0,0,.6-.068l-.1,1.032a3.366,3.366,0,0,1-.9.123,1.292,1.292,0,0,1-1.107-.543,2.1,2.1,0,0,1-.287-1.425l.752-4.58H76.405l.171-.978h1.306l.314-1.791ZM85.244,61q.1-.766-.841-1.08l-1.285-.376q-1.627-.561-1.572-1.859a2.048,2.048,0,0,1,.892-1.6,3.177,3.177,0,0,1,1.986-.612,2.649,2.649,0,0,1,1.822.653,2.068,2.068,0,0,1,.673,1.665l-1.23-.007a1.154,1.154,0,0,0-.349-.9,1.379,1.379,0,0,0-.964-.362,1.8,1.8,0,0,0-1.107.314,1.151,1.151,0,0,0-.5.807q-.089.643.786.937l.622.171a4.005,4.005,0,0,1,1.8.854,1.632,1.632,0,0,1,.492,1.306,2.074,2.074,0,0,1-.451,1.2,2.58,2.58,0,0,1-1.094.783,3.658,3.658,0,0,1-1.456.25,2.885,2.885,0,0,1-1.941-.687,2.124,2.124,0,0,1-.738-1.733l1.237.007a1.311,1.311,0,0,0,.4,1,1.515,1.515,0,0,0,1.087.376,2.132,2.132,0,0,0,1.169-.284A1.091,1.091,0,0,0,85.244,61ZM22.453,83.1,21.776,87H20.491l1.729-9.953,3.322.007a3.249,3.249,0,0,1,2.372.817,2.57,2.57,0,0,1,.718,2.17,3.1,3.1,0,0,1-1.138,2.249,4.128,4.128,0,0,1-2.676.82Zm.185-1.073,2.215.007a2.694,2.694,0,0,0,1.716-.526,2.106,2.106,0,0,0,.786-1.463,1.65,1.65,0,0,0-.349-1.364,1.755,1.755,0,0,0-1.333-.55l-2.358-.007Zm10.9-1.3-.581-.062a2.117,2.117,0,0,0-1.873,1.073L30.17,87H28.933l1.285-7.4,1.2-.007-.185.861a2.212,2.212,0,0,1,1.853-1,2.27,2.27,0,0,1,.588.1Zm4.033-1.265a2.666,2.666,0,0,1,1.593.506,2.874,2.874,0,0,1,.981,1.357,4.2,4.2,0,0,1,.215,1.89l-.014.15a4.975,4.975,0,0,1-.643,1.952,3.77,3.77,0,0,1-1.326,1.357,3.234,3.234,0,0,1-1.784.458A2.671,2.671,0,0,1,35,86.631a2.809,2.809,0,0,1-.974-1.34,4.314,4.314,0,0,1-.219-1.866,5.04,5.04,0,0,1,.622-2.064,3.858,3.858,0,0,1,1.336-1.418A3.2,3.2,0,0,1,37.567,79.467Zm-2.516,3.965a4.2,4.2,0,0,0,0,.9,2.194,2.194,0,0,0,.482,1.285,1.447,1.447,0,0,0,1.1.5,1.971,1.971,0,0,0,1.135-.3,2.554,2.554,0,0,0,.875-.981A4.131,4.131,0,0,0,39.1,83.37a6.558,6.558,0,0,0,.021-1.06,2.277,2.277,0,0,0-.5-1.306,1.479,1.479,0,0,0-1.107-.506,2.016,2.016,0,0,0-1.627.752,3.715,3.715,0,0,0-.827,2.023Zm9.488-5.619L44.225,79.6h1.347l-.171.978h-1.34l-.772,4.6a1.6,1.6,0,0,0-.007.328.521.521,0,0,0,.581.533,3.544,3.544,0,0,0,.6-.068l-.1,1.032a3.366,3.366,0,0,1-.9.123,1.292,1.292,0,0,1-1.107-.543,2.1,2.1,0,0,1-.287-1.425l.752-4.58H41.518l.171-.978h1.306l.314-1.791Zm5.209,1.654a2.666,2.666,0,0,1,1.593.506,2.874,2.874,0,0,1,.981,1.357,4.2,4.2,0,0,1,.215,1.89l-.014.15a4.975,4.975,0,0,1-.643,1.952,3.77,3.77,0,0,1-1.326,1.357,3.234,3.234,0,0,1-1.784.458,2.671,2.671,0,0,1-1.589-.506,2.809,2.809,0,0,1-.974-1.34,4.314,4.314,0,0,1-.219-1.866,5.04,5.04,0,0,1,.622-2.064,3.858,3.858,0,0,1,1.336-1.418A3.2,3.2,0,0,1,49.749,79.467Zm-2.516,3.965a4.2,4.2,0,0,0,0,.9,2.194,2.194,0,0,0,.482,1.285,1.447,1.447,0,0,0,1.1.5,1.971,1.971,0,0,0,1.135-.3,2.554,2.554,0,0,0,.875-.981,4.131,4.131,0,0,0,.458-1.456,6.558,6.558,0,0,0,.021-1.06,2.277,2.277,0,0,0-.5-1.306A1.479,1.479,0,0,0,49.7,80.5a2.016,2.016,0,0,0-1.627.752,3.715,3.715,0,0,0-.827,2.023Zm9.488-5.619L56.407,79.6h1.347l-.171.978h-1.34l-.772,4.6a1.6,1.6,0,0,0-.007.328.521.521,0,0,0,.581.533,3.544,3.544,0,0,0,.6-.068l-.1,1.032a3.366,3.366,0,0,1-.9.123,1.292,1.292,0,0,1-1.107-.543,2.1,2.1,0,0,1-.287-1.425l.752-4.58H53.7l.171-.978h1.306l.314-1.791Zm3.89,7.321,2.632-5.53H64.61L60.221,88.23a2.656,2.656,0,0,1-2.352,1.777,4.029,4.029,0,0,1-.745-.123l.109-1.025.321.034a1.622,1.622,0,0,0,1.015-.263,2.426,2.426,0,0,0,.755-.94l.444-.848L58.492,79.6h1.292Zm10.541-1.8a5.868,5.868,0,0,1-.608,2.03,3.455,3.455,0,0,1-1.169,1.35,2.676,2.676,0,0,1-1.545.427,2.463,2.463,0,0,1-1.969-.868L65.2,89.844H63.96L65.738,79.6l1.121-.007-.137.827a2.806,2.806,0,0,1,2.194-.957,2.063,2.063,0,0,1,1.661.786,3.46,3.46,0,0,1,.629,2.092,7.362,7.362,0,0,1-.034.848Zm-1.217-.14.034-.573A2.6,2.6,0,0,0,69.59,81.1a1.334,1.334,0,0,0-1.1-.556,2.194,2.194,0,0,0-1.853,1.017L66.018,85.1a1.548,1.548,0,0,0,1.5,1.01,1.946,1.946,0,0,0,1.569-.72A4.18,4.18,0,0,0,69.935,83.2Zm5.407,3.941a2.667,2.667,0,0,1-2.16-1.019,3.505,3.505,0,0,1-.656-2.536l.034-.294a4.921,4.921,0,0,1,.653-2.01,3.8,3.8,0,0,1,1.309-1.371,3.054,3.054,0,0,1,1.668-.441,2.352,2.352,0,0,1,1.791.759,3.121,3.121,0,0,1,.711,1.982,5.793,5.793,0,0,1-.027.889l-.075.567H73.756a2.5,2.5,0,0,0,.332,1.709,1.57,1.57,0,0,0,1.357.731,2.631,2.631,0,0,0,2.023-.984l.711.6a3.253,3.253,0,0,1-1.2,1.049A3.4,3.4,0,0,1,75.342,87.137Zm.786-6.638a1.807,1.807,0,0,0-1.336.52,3.693,3.693,0,0,0-.906,1.606l3.6.007.027-.109a2.024,2.024,0,0,0-.277-1.432A1.3,1.3,0,0,0,76.128,80.5ZM83.983,85q.1-.766-.841-1.08l-1.285-.376q-1.627-.561-1.572-1.859a2.048,2.048,0,0,1,.892-1.6,3.177,3.177,0,0,1,1.986-.612,2.649,2.649,0,0,1,1.822.653,2.068,2.068,0,0,1,.673,1.665l-1.23-.007a1.154,1.154,0,0,0-.349-.9,1.379,1.379,0,0,0-.964-.362,1.8,1.8,0,0,0-1.107.314,1.151,1.151,0,0,0-.5.807q-.089.643.786.937l.622.171a4.005,4.005,0,0,1,1.8.854,1.632,1.632,0,0,1,.492,1.306,2.074,2.074,0,0,1-.451,1.2,2.58,2.58,0,0,1-1.094.783,3.658,3.658,0,0,1-1.456.25,2.886,2.886,0,0,1-1.941-.687,2.124,2.124,0,0,1-.738-1.733l1.237.007a1.311,1.311,0,0,0,.4,1,1.515,1.515,0,0,0,1.087.376,2.131,2.131,0,0,0,1.169-.284A1.091,1.091,0,0,0,83.983,85ZM23.1,108.437q.15-1.094-1.135-1.6l-1.183-.431-.4-.171q-2-.909-1.866-2.557a2.674,2.674,0,0,1,.567-1.463,3.228,3.228,0,0,1,1.323-.981,4.243,4.243,0,0,1,1.753-.325,3.5,3.5,0,0,1,1.61.4,2.592,2.592,0,0,1,1.077,1.07,2.916,2.916,0,0,1,.328,1.548l-1.292-.007a1.783,1.783,0,0,0-.41-1.423,1.836,1.836,0,0,0-1.367-.518,2.546,2.546,0,0,0-1.565.438,1.711,1.711,0,0,0-.725,1.233q-.137,1.02,1.251,1.548l1.019.363.513.219a2.574,2.574,0,0,1,1.784,2.639,2.636,2.636,0,0,1-.567,1.453,3.172,3.172,0,0,1-1.336.947,4.607,4.607,0,0,1-1.815.314,3.8,3.8,0,0,1-1.712-.4,2.794,2.794,0,0,1-1.179-1.077,2.693,2.693,0,0,1-.355-1.552l1.285.007a1.693,1.693,0,0,0,.482,1.412,2.169,2.169,0,0,0,1.535.537,2.74,2.74,0,0,0,1.634-.431A1.677,1.677,0,0,0,23.1,108.437ZM26.78,111h-1.23l1.285-7.4h1.23ZM27.8,100.9a.677.677,0,0,1,.523.188.7.7,0,0,1,.208.53.73.73,0,0,1-.731.745.681.681,0,0,1-.526-.185.669.669,0,0,1-.2-.52.775.775,0,0,1,.205-.533A.723.723,0,0,1,27.8,100.9Zm3.445,2.693-.157.827a2.892,2.892,0,0,1,2.249-.957,2.282,2.282,0,0,1,1.193.321,1.576,1.576,0,0,1,.673.868,3.054,3.054,0,0,1,2.454-1.189,1.956,1.956,0,0,1,1.634.745,2.662,2.662,0,0,1,.39,1.928L38.866,111h-1.23l.807-4.874a2.575,2.575,0,0,0,0-.649q-.13-.93-1.217-.95a1.869,1.869,0,0,0-1.227.42,1.945,1.945,0,0,0-.708,1.138L34.45,111H33.206l.82-4.867a1.563,1.563,0,0,0-.229-1.169,1.2,1.2,0,0,0-.988-.424,2.026,2.026,0,0,0-1.839,1.053L30.034,111H28.8l1.285-7.4Zm14.226,6.672a2.856,2.856,0,0,1-2.208.868,1.843,1.843,0,0,1-1.569-.759,2.9,2.9,0,0,1-.379-2l.793-4.778h1.237l-.8,4.8a3.187,3.187,0,0,0-.014.588,1.223,1.223,0,0,0,.294.772,1,1,0,0,0,.725.3A2.219,2.219,0,0,0,45.6,108.99l.93-5.387h1.237L46.481,111H45.312Zm4.2.731h-1.23l1.818-10.5h1.237Zm6.549,0a1.657,1.657,0,0,1-.048-.39l.021-.39a3.032,3.032,0,0,1-2.16.916,2.21,2.21,0,0,1-1.589-.619A1.872,1.872,0,0,1,51.881,109a2.277,2.277,0,0,1,1.029-1.835,4.38,4.38,0,0,1,2.526-.66l1.292.007.082-.588a1.352,1.352,0,0,0-.256-1.049,1.237,1.237,0,0,0-.974-.4,1.908,1.908,0,0,0-1.125.311,1.324,1.324,0,0,0-.6.858l-1.244.007a1.983,1.983,0,0,1,.506-1.152,2.943,2.943,0,0,1,1.142-.779,3.688,3.688,0,0,1,1.442-.263,2.452,2.452,0,0,1,1.8.7,2.173,2.173,0,0,1,.54,1.788l-.6,3.664-.034.526a2.58,2.58,0,0,0,.082.745l-.014.116Zm-1.941-.957a2.158,2.158,0,0,0,1.125-.284,2.847,2.847,0,0,0,.913-.824l.267-1.524-.937-.007a3.547,3.547,0,0,0-1.791.369,1.36,1.36,0,0,0-.7,1.046,1.059,1.059,0,0,0,.243.865A1.156,1.156,0,0,0,54.274,110.043Zm8.142-8.23L62.1,103.6h1.347l-.171.978h-1.34l-.772,4.6a1.6,1.6,0,0,0-.007.328.521.521,0,0,0,.581.533,3.544,3.544,0,0,0,.6-.068l-.1,1.032a3.366,3.366,0,0,1-.9.123,1.292,1.292,0,0,1-1.107-.543,2.1,2.1,0,0,1-.287-1.425l.752-4.58H59.394l.171-.978h1.306l.314-1.791ZM64.993,111h-1.23l1.285-7.4h1.23Zm1.019-10.1a.677.677,0,0,1,.523.188.7.7,0,0,1,.208.53.73.73,0,0,1-.731.745.681.681,0,0,1-.526-.185.669.669,0,0,1-.2-.52.775.775,0,0,1,.205-.533A.723.723,0,0,1,66.011,100.9Zm5.113,2.563a2.666,2.666,0,0,1,1.593.506,2.874,2.874,0,0,1,.981,1.357,4.2,4.2,0,0,1,.215,1.89l-.014.15a4.975,4.975,0,0,1-.643,1.952,3.77,3.77,0,0,1-1.326,1.357,3.234,3.234,0,0,1-1.784.458,2.671,2.671,0,0,1-1.589-.506,2.809,2.809,0,0,1-.974-1.34,4.314,4.314,0,0,1-.219-1.866,5.04,5.04,0,0,1,.622-2.064,3.858,3.858,0,0,1,1.336-1.418A3.2,3.2,0,0,1,71.125,103.467Zm-2.516,3.965a4.2,4.2,0,0,0,0,.9,2.194,2.194,0,0,0,.482,1.285,1.447,1.447,0,0,0,1.1.5,1.971,1.971,0,0,0,1.135-.3,2.554,2.554,0,0,0,.875-.981,4.131,4.131,0,0,0,.458-1.456,6.557,6.557,0,0,0,.021-1.06,2.277,2.277,0,0,0-.5-1.306,1.479,1.479,0,0,0-1.107-.506,2.016,2.016,0,0,0-1.627.752,3.715,3.715,0,0,0-.827,2.023Zm8.675-3.835-.178.937a2.916,2.916,0,0,1,2.27-1.066,1.835,1.835,0,0,1,1.545.725,2.815,2.815,0,0,1,.369,1.962L80.483,111H79.246l.813-4.862a2.592,2.592,0,0,0,.007-.621,1.022,1.022,0,0,0-1.128-.976,2.329,2.329,0,0,0-1.955,1.188L76.067,111H74.83l1.285-7.4ZM86.97,109q.1-.766-.841-1.08l-1.285-.376q-1.627-.561-1.572-1.859a2.048,2.048,0,0,1,.892-1.6,3.177,3.177,0,0,1,1.986-.612,2.649,2.649,0,0,1,1.822.653,2.068,2.068,0,0,1,.673,1.665l-1.23-.007a1.154,1.154,0,0,0-.349-.9,1.379,1.379,0,0,0-.964-.362,1.8,1.8,0,0,0-1.107.314,1.151,1.151,0,0,0-.5.807q-.089.643.786.937l.622.171a4.005,4.005,0,0,1,1.8.854A1.632,1.632,0,0,1,88.2,108.9a2.074,2.074,0,0,1-.451,1.2,2.58,2.58,0,0,1-1.094.783,3.658,3.658,0,0,1-1.456.25,2.886,2.886,0,0,1-1.941-.687,2.124,2.124,0,0,1-.738-1.733l1.237.007a1.311,1.311,0,0,0,.4,1,1.515,1.515,0,0,0,1.087.376,2.131,2.131,0,0,0,1.169-.284A1.091,1.091,0,0,0,86.97,109Z" transform="translate(1009.5 21315.102)" fill="#fff"/>
    <path id="Trazado_827917" data-name="Trazado 827917" d="M126.673,63.575c-.343,0-.716.031-1.059.031v-.311a20.728,20.728,0,0,0-17.936-20.521v-.187a4.306,4.306,0,0,0-4.3-4.3,4.385,4.385,0,0,0-1.682.343,28.761,28.761,0,0,0-53.28,5.356,11.6,11.6,0,0,0-3.3-.5,11.189,11.189,0,0,0-9.9,16.38,15.276,15.276,0,0,0,.374,30.548h91.084a13.421,13.421,0,0,0,0-26.842Z" transform="translate(866.712 21243.432)" fill="#3a4d9d"/>
    <path id="Trazado_830672" data-name="Trazado 830672" d="M-20.9-1.86h-2.881L-24.749,0h-.981l3.862-7.109h.806L-19.656,0h-.9Zm-2.476-.767h2.339l-.591-3.315Zm7.866,2.1A2.04,2.04,0,0,1-17.083.1,1.317,1.317,0,0,1-18.2-.444a2.073,2.073,0,0,1-.271-1.426l.566-3.413h.884L-17.6-1.855a2.277,2.277,0,0,0-.01.42.874.874,0,0,0,.21.552.716.716,0,0,0,.518.215,1.585,1.585,0,0,0,1.465-.767l.664-3.848h.884L-14.783,0h-.835Zm4.375-6.04-.225,1.279h.962l-.122.7h-.957L-12.024-1.3a1.146,1.146,0,0,0,0,.234.372.372,0,0,0,.415.381,2.531,2.531,0,0,0,.43-.049L-11.252,0A2.4,2.4,0,0,1-11.9.093.923.923,0,0,1-12.688-.3a1.5,1.5,0,0,1-.205-1.018l.537-3.271h-.933l.122-.7h.933l.225-1.279ZM-7.41-5.381a1.9,1.9,0,0,1,1.138.361,2.053,2.053,0,0,1,.7.969A3,3,0,0,1-5.417-2.7l-.01.107A3.553,3.553,0,0,1-5.886-1.2a2.693,2.693,0,0,1-.947.969A2.31,2.31,0,0,1-8.108.1,1.908,1.908,0,0,1-9.243-.264a2.006,2.006,0,0,1-.7-.957A3.082,3.082,0,0,1-10.1-2.554a3.6,3.6,0,0,1,.444-1.475A2.756,2.756,0,0,1-8.7-5.042,2.283,2.283,0,0,1-7.41-5.381Zm-1.8,2.832a3,3,0,0,0,0,.64,1.567,1.567,0,0,0,.344.918,1.033,1.033,0,0,0,.789.356,1.408,1.408,0,0,0,.811-.217,1.824,1.824,0,0,0,.625-.7,2.951,2.951,0,0,0,.327-1.04A4.684,4.684,0,0,0-6.3-3.35a1.626,1.626,0,0,0-.356-.933,1.056,1.056,0,0,0-.791-.361,1.44,1.44,0,0,0-1.162.537A2.653,2.653,0,0,0-9.2-2.661ZM-3.02-5.288l-.112.591a2.066,2.066,0,0,1,1.606-.684,1.63,1.63,0,0,1,.852.229,1.126,1.126,0,0,1,.481.62,2.181,2.181,0,0,1,1.753-.85,1.4,1.4,0,0,1,1.167.532,1.9,1.9,0,0,1,.278,1.377L2.424,0H1.545l.576-3.481a1.839,1.839,0,0,0,0-.464q-.093-.664-.869-.679a1.335,1.335,0,0,0-.876.3,1.389,1.389,0,0,0-.505.813L-.73,0h-.889l.586-3.477A1.116,1.116,0,0,0-1.2-4.312a.861.861,0,0,0-.706-.3,1.447,1.447,0,0,0-1.313.752L-3.884,0h-.884l.918-5.283ZM7.019,0a1.183,1.183,0,0,1-.034-.278L7-.557A2.166,2.166,0,0,1,5.457.1,1.579,1.579,0,0,1,4.321-.344a1.337,1.337,0,0,1-.4-1.082,1.626,1.626,0,0,1,.735-1.311,3.128,3.128,0,0,1,1.8-.471l.923,0,.059-.42a.965.965,0,0,0-.183-.75.884.884,0,0,0-.7-.286,1.363,1.363,0,0,0-.8.222.946.946,0,0,0-.427.613l-.889,0a1.416,1.416,0,0,1,.361-.823A2.1,2.1,0,0,1,5.623-5.2a2.634,2.634,0,0,1,1.03-.188,1.752,1.752,0,0,1,1.284.5,1.552,1.552,0,0,1,.386,1.277L7.893-.991l-.024.376a1.843,1.843,0,0,0,.059.532L7.917,0ZM5.632-.684a1.541,1.541,0,0,0,.8-.2,2.034,2.034,0,0,0,.652-.588l.19-1.089-.669,0A2.534,2.534,0,0,0,5.33-2.3a.971.971,0,0,0-.5.747A.756.756,0,0,0,5-.94.826.826,0,0,0,5.632-.684Zm5.815-5.879-.225,1.279h.962l-.122.7h-.957L10.554-1.3a1.146,1.146,0,0,0,0,.234.372.372,0,0,0,.415.381,2.531,2.531,0,0,0,.43-.049L11.326,0a2.4,2.4,0,0,1-.645.088A.923.923,0,0,1,9.89-.3a1.5,1.5,0,0,1-.205-1.018l.537-3.271H9.29l.122-.7h.933l.225-1.279ZM14.617.1A1.9,1.9,0,0,1,13.074-.63,2.5,2.5,0,0,1,12.6-2.441l.024-.21A3.515,3.515,0,0,1,13.1-4.087a2.712,2.712,0,0,1,.935-.979,2.182,2.182,0,0,1,1.191-.315,1.68,1.68,0,0,1,1.279.542,2.229,2.229,0,0,1,.508,1.416,4.138,4.138,0,0,1-.02.635l-.054.405H13.484a1.785,1.785,0,0,0,.237,1.221,1.122,1.122,0,0,0,.969.522,1.88,1.88,0,0,0,1.445-.7l.508.43a2.324,2.324,0,0,1-.857.75A2.429,2.429,0,0,1,14.617.1Zm.562-4.741a1.291,1.291,0,0,0-.955.371,2.638,2.638,0,0,0-.647,1.147l2.568,0,.02-.078a1.445,1.445,0,0,0-.2-1.023A.93.93,0,0,0,15.178-4.644Zm2.593,1.992a4.111,4.111,0,0,1,.444-1.455,2.519,2.519,0,0,1,.854-.972,1.954,1.954,0,0,1,1.118-.308,1.65,1.65,0,0,1,1.357.645L22.053-7.5h.884L21.638,0h-.806l.093-.566A1.948,1.948,0,0,1,19.382.1a1.46,1.46,0,0,1-1.167-.574,2.5,2.5,0,0,1-.469-1.487A4.748,4.748,0,0,1,17.771-2.651Zm.85.5a1.831,1.831,0,0,0,.249,1.083.9.9,0,0,0,.771.4A1.6,1.6,0,0,0,21-1.44l.42-2.438a1.1,1.1,0,0,0-1.064-.741,1.339,1.339,0,0,0-.92.315,2.035,2.035,0,0,0-.605.922A3.8,3.8,0,0,0,18.621-2.147ZM-20.1,13.125A2.236,2.236,0,0,1-19.019,11.5l.557-.371-.21-.376a2.189,2.189,0,0,1-.312-1.2,1.885,1.885,0,0,1,.586-1.3,1.805,1.805,0,0,1,1.328-.471,1.533,1.533,0,0,1,1.089.427,1.269,1.269,0,0,1,.391,1.038,2.072,2.072,0,0,1-1.04,1.538l-.718.479,1.216,1.86a3.4,3.4,0,0,0,.557-1.416h.786a3.605,3.605,0,0,1-.884,2.085l.767,1.2h-.986l-.356-.552a2.874,2.874,0,0,1-1.87.645,2.065,2.065,0,0,1-1.484-.559A1.7,1.7,0,0,1-20.1,13.125Zm2.012,1.235a2.224,2.224,0,0,0,1.387-.552l-1.323-2.07-.21.146A1.99,1.99,0,0,0-19.2,13.13,1.038,1.038,0,0,0-18.97,14,1.141,1.141,0,0,0-18.091,14.36Zm-.024-4.834a1.554,1.554,0,0,0,.239.9l.132.229.747-.5a1.3,1.3,0,0,0,.576-.9.621.621,0,0,0-.171-.518.71.71,0,0,0-.532-.205.887.887,0,0,0-.679.3A1.17,1.17,0,0,0-18.115,9.526Zm8.877-1.636,1.245,5.791,3.262-5.791h1.206L-4.761,15h-.913l.488-2.812L-4.6,9.326-7.827,15h-.7L-9.8,9.214l-.439,3.066L-10.713,15h-.918L-10.4,7.891ZM-.02,15a1.183,1.183,0,0,1-.034-.278l.015-.278a2.166,2.166,0,0,1-1.543.654,1.579,1.579,0,0,1-1.135-.442,1.337,1.337,0,0,1-.4-1.082,1.626,1.626,0,0,1,.735-1.311,3.128,3.128,0,0,1,1.8-.471l.923,0,.059-.42a.965.965,0,0,0-.183-.75.884.884,0,0,0-.7-.286,1.363,1.363,0,0,0-.8.222.946.946,0,0,0-.427.613l-.889,0a1.416,1.416,0,0,1,.361-.823A2.1,2.1,0,0,1-1.416,9.8a2.634,2.634,0,0,1,1.03-.188,1.752,1.752,0,0,1,1.284.5,1.552,1.552,0,0,1,.386,1.277l-.43,2.617-.024.376a1.843,1.843,0,0,0,.059.532L.879,15Zm-1.387-.684a1.541,1.541,0,0,0,.8-.2,2.034,2.034,0,0,0,.652-.588l.19-1.089-.669,0a2.534,2.534,0,0,0-1.279.264.971.971,0,0,0-.5.747.756.756,0,0,0,.173.618A.826.826,0,0,0-1.406,14.316Zm5.234-4.6-.127.669a2.083,2.083,0,0,1,1.621-.762,1.311,1.311,0,0,1,1.1.518,2.011,2.011,0,0,1,.264,1.4L6.113,15H5.229l.581-3.473a1.851,1.851,0,0,0,0-.444.73.73,0,0,0-.806-.7,1.663,1.663,0,0,0-1.4.849L2.959,15H2.075l.918-5.283Zm7,4.766a2.04,2.04,0,0,1-1.577.62,1.317,1.317,0,0,1-1.121-.542,2.073,2.073,0,0,1-.271-1.426l.566-3.413h.884L8.74,13.145a2.277,2.277,0,0,0-.01.42.874.874,0,0,0,.21.552.716.716,0,0,0,.518.215,1.585,1.585,0,0,0,1.465-.767l.664-3.848h.884L11.553,15h-.835ZM16.1,15a1.183,1.183,0,0,1-.034-.278l.015-.278a2.166,2.166,0,0,1-1.543.654,1.579,1.579,0,0,1-1.135-.442,1.337,1.337,0,0,1-.4-1.082,1.626,1.626,0,0,1,.735-1.311,3.128,3.128,0,0,1,1.8-.471l.923,0,.059-.42a.965.965,0,0,0-.183-.75.884.884,0,0,0-.7-.286,1.363,1.363,0,0,0-.8.222.946.946,0,0,0-.427.613l-.889,0a1.416,1.416,0,0,1,.361-.823,2.1,2.1,0,0,1,.815-.557,2.634,2.634,0,0,1,1.03-.188,1.752,1.752,0,0,1,1.284.5,1.552,1.552,0,0,1,.386,1.277l-.43,2.617-.024.376a1.843,1.843,0,0,0,.059.532L17,15Zm-1.387-.684a1.541,1.541,0,0,0,.8-.2,2.034,2.034,0,0,0,.652-.588l.19-1.089-.669,0a2.534,2.534,0,0,0-1.279.264.971.971,0,0,0-.5.747.756.756,0,0,0,.173.618A.826.826,0,0,0,14.717,14.316ZM19.155,15h-.879l1.3-7.5h.884Z" transform="translate(941.76 21300.551)" fill="#fff"/>
    <path id="Trazado_830670" data-name="Trazado 830670" d="M5,0H30.873V25.969H0V5A5,5,0,0,1,5,0Z" transform="translate(1129.173 21409.957)" fill="#e9ba20"/>
    <path id="Trazado_830671" data-name="Trazado 830671" d="M-1.061-3.754A5.052,5.052,0,0,1-1.7-1.829a3.944,3.944,0,0,1-1.238,1.3L-1.893.5l-1.219.924L-4.5.081A3.963,3.963,0,0,1-4.949.1a2.771,2.771,0,0,1-1.4-.36,2.517,2.517,0,0,1-.964-1.021A3.758,3.758,0,0,1-7.726-2.8a6.2,6.2,0,0,1,.091-1.431,5.392,5.392,0,0,1,.478-1.5,4.044,4.044,0,0,1,1.4-1.63,3.388,3.388,0,0,1,1.982-.561,2.832,2.832,0,0,1,1.4.368,2.557,2.557,0,0,1,.964,1.026A3.712,3.712,0,0,1-1-5.017a4.991,4.991,0,0,1-.027.951ZM-2.839-5.06a1.87,1.87,0,0,0-.3-1.037.961.961,0,0,0-.744-.36,1.456,1.456,0,0,0-1.268.612,3.982,3.982,0,0,0-.655,1.9,6.443,6.443,0,0,0-.075,1.192q.054,1.359,1.053,1.4a1.408,1.408,0,0,0,1.217-.567,3.72,3.72,0,0,0,.674-1.791A7.445,7.445,0,0,0-2.839-5.06ZM4.5,0H-.8L-.61-1.246,2.173-3.83l.381-.381a2.218,2.218,0,0,0,.822-1.7.614.614,0,0,0-.645-.639.848.848,0,0,0-.7.336,1.718,1.718,0,0,0-.357.905L-.083-5.3A2.682,2.682,0,0,1,.363-6.647,2.777,2.777,0,0,1,1.439-7.6a3.07,3.07,0,0,1,1.437-.338,2.54,2.54,0,0,1,1.772.62A1.908,1.908,0,0,1,5.2-5.7,2.642,2.642,0,0,1,4.8-4.528a6.035,6.035,0,0,1-1.007,1.2l-.816.752L1.764-1.407,4.719-1.4Z" transform="translate(1146.121 21426.441)" fill="#fff"/>
    <path id="Trazado_830668" data-name="Trazado 830668" d="M0,0V129.606" transform="translate(1159.558 21306.32)" fill="none" stroke="#fff" stroke-width="1"/>
  </g>
</svg>
