<svg xmlns="http://www.w3.org/2000/svg" width="121.438" height="243.742" viewBox="0 0 121.438 243.742">
  <g id="Grupo_1074316" data-name="Grupo 1074316" transform="translate(0.5 0.5)" opacity="0.533">
    <g id="Grupo_1074315" data-name="Grupo 1074315">
      <path id="Trazado_826742" data-name="Trazado 826742" d="M116.669,31.8a1.5,1.5,0,1,0-1.469-1.5,1.482,1.482,0,0,0,1.469,1.5" transform="translate(2.302 1.168)" fill="#273a89" stroke="#273a89" stroke-width="1"/>
      <path id="Trazado_826743" data-name="Trazado 826743" d="M102.268,31.8a1.5,1.5,0,1,0-1.468-1.5,1.484,1.484,0,0,0,1.468,1.5" transform="translate(2.014 1.168)" fill="#273a89" stroke="#273a89" stroke-width="1"/>
      <path id="Trazado_826744" data-name="Trazado 826744" d="M116.669,17.4a1.5,1.5,0,1,0-1.469-1.5,1.483,1.483,0,0,0,1.469,1.5" transform="translate(2.302 0.584)" fill="#273a89" stroke="#273a89" stroke-width="1"/>
      <path id="Trazado_826745" data-name="Trazado 826745" d="M102.268,17.4a1.5,1.5,0,1,0-1.468-1.5,1.485,1.485,0,0,0,1.468,1.5" transform="translate(2.014 0.584)" fill="#273a89" stroke="#273a89" stroke-width="1"/>
      <path id="Trazado_826746" data-name="Trazado 826746" d="M95.068,24.6A1.5,1.5,0,1,0,93.6,23.1a1.483,1.483,0,0,0,1.468,1.5" transform="translate(1.87 0.876)" fill="#273a89" stroke="#273a89" stroke-width="1"/>
      <path id="Trazado_826747" data-name="Trazado 826747" d="M109.468,24.6A1.5,1.5,0,1,0,108,23.1a1.483,1.483,0,0,0,1.469,1.5" transform="translate(2.158 0.876)" fill="#273a89" stroke="#273a89" stroke-width="1"/>
      <path id="Trazado_826748" data-name="Trazado 826748" d="M95.068,10.2A1.5,1.5,0,1,0,93.6,8.7a1.484,1.484,0,0,0,1.468,1.5" transform="translate(1.87 0.292)" fill="#273a89" stroke="#273a89" stroke-width="1"/>
      <path id="Trazado_826749" data-name="Trazado 826749" d="M109.468,10.2A1.5,1.5,0,1,0,108,8.7a1.484,1.484,0,0,0,1.469,1.5" transform="translate(2.158 0.292)" fill="#273a89" stroke="#273a89" stroke-width="1"/>
      <path id="Trazado_826750" data-name="Trazado 826750" d="M87.869,31.8A1.5,1.5,0,1,0,86.4,30.3a1.483,1.483,0,0,0,1.469,1.5" transform="translate(1.726 1.168)" fill="#273a89" stroke="#273a89" stroke-width="1"/>
      <path id="Trazado_826751" data-name="Trazado 826751" d="M87.869,17.4A1.5,1.5,0,1,0,86.4,15.9a1.484,1.484,0,0,0,1.469,1.5" transform="translate(1.726 0.584)" fill="#273a89" stroke="#273a89" stroke-width="1"/>
      <path id="Trazado_826752" data-name="Trazado 826752" d="M116.669,3a1.482,1.482,0,0,0,1.467-1.5,1.468,1.468,0,1,0-2.936,0A1.483,1.483,0,0,0,116.669,3" transform="translate(2.302)" fill="#273a89" stroke="#273a89" stroke-width="1"/>
      <path id="Trazado_826753" data-name="Trazado 826753" d="M102.268,3a1.484,1.484,0,0,0,1.469-1.5,1.469,1.469,0,1,0-2.937,0A1.482,1.482,0,0,0,102.268,3" transform="translate(2.014)" fill="#273a89" stroke="#273a89" stroke-width="1"/>
      <path id="Trazado_826754" data-name="Trazado 826754" d="M87.869,3a1.483,1.483,0,0,0,1.468-1.5,1.469,1.469,0,1,0-2.937,0A1.483,1.483,0,0,0,87.869,3" transform="translate(1.726)" fill="#273a89" stroke="#273a89" stroke-width="1"/>
      <path id="Trazado_826755" data-name="Trazado 826755" d="M116.669,60.6a1.5,1.5,0,1,0-1.469-1.5,1.481,1.481,0,0,0,1.469,1.5" transform="translate(2.302 2.335)" fill="#273a89" stroke="#273a89" stroke-width="1"/>
      <path id="Trazado_826756" data-name="Trazado 826756" d="M102.268,60.6a1.5,1.5,0,1,0-1.468-1.5,1.483,1.483,0,0,0,1.468,1.5" transform="translate(2.014 2.335)" fill="#273a89" stroke="#273a89" stroke-width="1"/>
      <path id="Trazado_826757" data-name="Trazado 826757" d="M116.669,46.2a1.5,1.5,0,1,0-1.469-1.5,1.483,1.483,0,0,0,1.469,1.5" transform="translate(2.302 1.751)" fill="#273a89" stroke="#273a89" stroke-width="1"/>
      <path id="Trazado_826758" data-name="Trazado 826758" d="M102.268,46.2a1.5,1.5,0,1,0-1.468-1.5,1.485,1.485,0,0,0,1.468,1.5" transform="translate(2.014 1.751)" fill="#273a89" stroke="#273a89" stroke-width="1"/>
      <path id="Trazado_826759" data-name="Trazado 826759" d="M95.068,53.4A1.5,1.5,0,1,0,93.6,51.9a1.484,1.484,0,0,0,1.468,1.5" transform="translate(1.87 2.043)" fill="#273a89" stroke="#273a89" stroke-width="1"/>
      <path id="Trazado_826760" data-name="Trazado 826760" d="M109.468,53.4A1.5,1.5,0,1,0,108,51.9a1.484,1.484,0,0,0,1.469,1.5" transform="translate(2.158 2.043)" fill="#273a89" stroke="#273a89" stroke-width="1"/>
      <path id="Trazado_826761" data-name="Trazado 826761" d="M95.068,39A1.5,1.5,0,1,0,93.6,37.5,1.484,1.484,0,0,0,95.068,39" transform="translate(1.87 1.459)" fill="#273a89" stroke="#273a89" stroke-width="1"/>
      <path id="Trazado_826762" data-name="Trazado 826762" d="M109.468,39A1.5,1.5,0,1,0,108,37.5a1.484,1.484,0,0,0,1.469,1.5" transform="translate(2.158 1.459)" fill="#273a89" stroke="#273a89" stroke-width="1"/>
      <path id="Trazado_826763" data-name="Trazado 826763" d="M87.869,60.6A1.5,1.5,0,1,0,86.4,59.1a1.482,1.482,0,0,0,1.469,1.5" transform="translate(1.726 2.335)" fill="#273a89" stroke="#273a89" stroke-width="1"/>
      <path id="Trazado_826764" data-name="Trazado 826764" d="M87.869,46.2A1.5,1.5,0,1,0,86.4,44.7a1.484,1.484,0,0,0,1.469,1.5" transform="translate(1.726 1.751)" fill="#273a89" stroke="#273a89" stroke-width="1"/>
      <path id="Trazado_826765" data-name="Trazado 826765" d="M116.669,31.8a1.5,1.5,0,1,0-1.469-1.5,1.482,1.482,0,0,0,1.469,1.5" transform="translate(2.302 1.168)" fill="#273a89" stroke="#273a89" stroke-width="1"/>
      <path id="Trazado_826766" data-name="Trazado 826766" d="M102.268,31.8a1.5,1.5,0,1,0-1.468-1.5,1.484,1.484,0,0,0,1.468,1.5" transform="translate(2.014 1.168)" fill="#273a89" stroke="#273a89" stroke-width="1"/>
      <path id="Trazado_826767" data-name="Trazado 826767" d="M87.869,31.8A1.5,1.5,0,1,0,86.4,30.3a1.483,1.483,0,0,0,1.469,1.5" transform="translate(1.726 1.168)" fill="#273a89" stroke="#273a89" stroke-width="1"/>
      <path id="Trazado_826768" data-name="Trazado 826768" d="M116.669,89.4a1.5,1.5,0,1,0-1.469-1.5,1.482,1.482,0,0,0,1.469,1.5" transform="translate(2.302 3.503)" fill="#273a89" stroke="#273a89" stroke-width="1"/>
      <path id="Trazado_826769" data-name="Trazado 826769" d="M102.268,89.4a1.5,1.5,0,1,0-1.468-1.5,1.484,1.484,0,0,0,1.468,1.5" transform="translate(2.014 3.503)" fill="#273a89" stroke="#273a89" stroke-width="1"/>
      <path id="Trazado_826770" data-name="Trazado 826770" d="M116.669,75a1.5,1.5,0,1,0-1.469-1.5,1.483,1.483,0,0,0,1.469,1.5" transform="translate(2.302 2.919)" fill="#273a89" stroke="#273a89" stroke-width="1"/>
      <path id="Trazado_826771" data-name="Trazado 826771" d="M102.268,75a1.5,1.5,0,1,0-1.468-1.5,1.485,1.485,0,0,0,1.468,1.5" transform="translate(2.014 2.919)" fill="#273a89" stroke="#273a89" stroke-width="1"/>
      <path id="Trazado_826772" data-name="Trazado 826772" d="M95.068,82.2A1.5,1.5,0,1,0,93.6,80.7a1.484,1.484,0,0,0,1.468,1.5" transform="translate(1.87 3.211)" fill="#273a89" stroke="#273a89" stroke-width="1"/>
      <path id="Trazado_826773" data-name="Trazado 826773" d="M109.468,82.2A1.5,1.5,0,1,0,108,80.7a1.484,1.484,0,0,0,1.469,1.5" transform="translate(2.158 3.211)" fill="#273a89" stroke="#273a89" stroke-width="1"/>
      <path id="Trazado_826774" data-name="Trazado 826774" d="M95.068,67.8A1.5,1.5,0,1,0,93.6,66.3a1.484,1.484,0,0,0,1.468,1.5" transform="translate(1.87 2.627)" fill="#273a89" stroke="#273a89" stroke-width="1"/>
      <path id="Trazado_826775" data-name="Trazado 826775" d="M109.468,67.8A1.5,1.5,0,1,0,108,66.3a1.484,1.484,0,0,0,1.469,1.5" transform="translate(2.158 2.627)" fill="#273a89" stroke="#273a89" stroke-width="1"/>
      <path id="Trazado_826776" data-name="Trazado 826776" d="M87.869,89.4A1.5,1.5,0,1,0,86.4,87.9a1.483,1.483,0,0,0,1.469,1.5" transform="translate(1.726 3.503)" fill="#273a89" stroke="#273a89" stroke-width="1"/>
      <path id="Trazado_826777" data-name="Trazado 826777" d="M87.869,75A1.5,1.5,0,1,0,86.4,73.5,1.484,1.484,0,0,0,87.869,75" transform="translate(1.726 2.919)" fill="#273a89" stroke="#273a89" stroke-width="1"/>
      <path id="Trazado_826778" data-name="Trazado 826778" d="M116.669,60.6a1.5,1.5,0,1,0-1.469-1.5,1.482,1.482,0,0,0,1.469,1.5" transform="translate(2.302 2.335)" fill="#273a89" stroke="#273a89" stroke-width="1"/>
      <path id="Trazado_826779" data-name="Trazado 826779" d="M102.268,60.6a1.5,1.5,0,1,0-1.468-1.5,1.484,1.484,0,0,0,1.468,1.5" transform="translate(2.014 2.335)" fill="#273a89" stroke="#273a89" stroke-width="1"/>
      <path id="Trazado_826780" data-name="Trazado 826780" d="M87.869,60.6A1.5,1.5,0,1,0,86.4,59.1a1.483,1.483,0,0,0,1.469,1.5" transform="translate(1.726 2.335)" fill="#273a89" stroke="#273a89" stroke-width="1"/>
      <path id="Trazado_826781" data-name="Trazado 826781" d="M116.669,118.2a1.5,1.5,0,1,0-1.469-1.5,1.482,1.482,0,0,0,1.469,1.5" transform="translate(2.302 4.67)" fill="#273a89" stroke="#273a89" stroke-width="1"/>
      <path id="Trazado_826782" data-name="Trazado 826782" d="M102.268,118.2a1.5,1.5,0,1,0-1.468-1.5,1.484,1.484,0,0,0,1.468,1.5" transform="translate(2.014 4.67)" fill="#273a89" stroke="#273a89" stroke-width="1"/>
      <path id="Trazado_826783" data-name="Trazado 826783" d="M116.669,103.8a1.5,1.5,0,1,0-1.469-1.5,1.483,1.483,0,0,0,1.469,1.5" transform="translate(2.302 4.087)" fill="#273a89" stroke="#273a89" stroke-width="1"/>
      <path id="Trazado_826784" data-name="Trazado 826784" d="M102.268,103.8a1.5,1.5,0,1,0-1.468-1.5,1.485,1.485,0,0,0,1.468,1.5" transform="translate(2.014 4.087)" fill="#273a89" stroke="#273a89" stroke-width="1"/>
      <path id="Trazado_826785" data-name="Trazado 826785" d="M95.068,111a1.5,1.5,0,1,0-1.468-1.5,1.484,1.484,0,0,0,1.468,1.5" transform="translate(1.87 4.378)" fill="#273a89" stroke="#273a89" stroke-width="1"/>
      <path id="Trazado_826786" data-name="Trazado 826786" d="M109.468,111A1.5,1.5,0,1,0,108,109.5a1.484,1.484,0,0,0,1.469,1.5" transform="translate(2.158 4.378)" fill="#273a89" stroke="#273a89" stroke-width="1"/>
      <path id="Trazado_826787" data-name="Trazado 826787" d="M95.068,96.6A1.5,1.5,0,1,0,93.6,95.1a1.484,1.484,0,0,0,1.468,1.5" transform="translate(1.87 3.795)" fill="#273a89" stroke="#273a89" stroke-width="1"/>
      <path id="Trazado_826788" data-name="Trazado 826788" d="M109.468,96.6A1.5,1.5,0,1,0,108,95.1a1.484,1.484,0,0,0,1.469,1.5" transform="translate(2.158 3.795)" fill="#273a89" stroke="#273a89" stroke-width="1"/>
      <path id="Trazado_826789" data-name="Trazado 826789" d="M87.869,118.2a1.5,1.5,0,1,0-1.469-1.5,1.483,1.483,0,0,0,1.469,1.5" transform="translate(1.726 4.67)" fill="#273a89" stroke="#273a89" stroke-width="1"/>
      <path id="Trazado_826790" data-name="Trazado 826790" d="M87.869,103.8a1.5,1.5,0,1,0-1.469-1.5,1.484,1.484,0,0,0,1.469,1.5" transform="translate(1.726 4.087)" fill="#273a89" stroke="#273a89" stroke-width="1"/>
      <path id="Trazado_826791" data-name="Trazado 826791" d="M116.669,89.4a1.5,1.5,0,1,0-1.469-1.5,1.482,1.482,0,0,0,1.469,1.5" transform="translate(2.302 3.503)" fill="#273a89" stroke="#273a89" stroke-width="1"/>
      <path id="Trazado_826792" data-name="Trazado 826792" d="M102.268,89.4a1.5,1.5,0,1,0-1.468-1.5,1.484,1.484,0,0,0,1.468,1.5" transform="translate(2.014 3.503)" fill="#273a89" stroke="#273a89" stroke-width="1"/>
      <path id="Trazado_826793" data-name="Trazado 826793" d="M87.869,89.4A1.5,1.5,0,1,0,86.4,87.9a1.483,1.483,0,0,0,1.469,1.5" transform="translate(1.726 3.503)" fill="#273a89" stroke="#273a89" stroke-width="1"/>
      <path id="Trazado_826794" data-name="Trazado 826794" d="M116.669,147a1.5,1.5,0,1,0-1.469-1.5,1.482,1.482,0,0,0,1.469,1.5" transform="translate(2.302 5.838)" fill="#273a89" stroke="#273a89" stroke-width="1"/>
      <path id="Trazado_826795" data-name="Trazado 826795" d="M102.268,147a1.5,1.5,0,1,0-1.468-1.5,1.484,1.484,0,0,0,1.468,1.5" transform="translate(2.014 5.838)" fill="#273a89" stroke="#273a89" stroke-width="1"/>
      <path id="Trazado_826796" data-name="Trazado 826796" d="M116.669,132.6a1.5,1.5,0,1,0-1.469-1.5,1.483,1.483,0,0,0,1.469,1.5" transform="translate(2.302 5.254)" fill="#273a89" stroke="#273a89" stroke-width="1"/>
      <path id="Trazado_826797" data-name="Trazado 826797" d="M102.268,132.6a1.5,1.5,0,1,0-1.468-1.5,1.485,1.485,0,0,0,1.468,1.5" transform="translate(2.014 5.254)" fill="#273a89" stroke="#273a89" stroke-width="1"/>
      <path id="Trazado_826798" data-name="Trazado 826798" d="M95.068,139.8a1.5,1.5,0,1,0-1.468-1.5,1.484,1.484,0,0,0,1.468,1.5" transform="translate(1.87 5.546)" fill="#273a89" stroke="#273a89" stroke-width="1"/>
      <path id="Trazado_826799" data-name="Trazado 826799" d="M109.468,139.8A1.5,1.5,0,1,0,108,138.3a1.484,1.484,0,0,0,1.469,1.5" transform="translate(2.158 5.546)" fill="#273a89" stroke="#273a89" stroke-width="1"/>
      <path id="Trazado_826800" data-name="Trazado 826800" d="M95.068,125.4a1.5,1.5,0,1,0-1.468-1.5,1.484,1.484,0,0,0,1.468,1.5" transform="translate(1.87 4.962)" fill="#273a89" stroke="#273a89" stroke-width="1"/>
      <path id="Trazado_826801" data-name="Trazado 826801" d="M109.468,125.4A1.5,1.5,0,1,0,108,123.9a1.484,1.484,0,0,0,1.469,1.5" transform="translate(2.158 4.962)" fill="#273a89" stroke="#273a89" stroke-width="1"/>
      <path id="Trazado_826802" data-name="Trazado 826802" d="M87.869,147a1.5,1.5,0,1,0-1.469-1.5,1.483,1.483,0,0,0,1.469,1.5" transform="translate(1.726 5.838)" fill="#273a89" stroke="#273a89" stroke-width="1"/>
      <path id="Trazado_826803" data-name="Trazado 826803" d="M87.869,132.6a1.5,1.5,0,1,0-1.469-1.5,1.484,1.484,0,0,0,1.469,1.5" transform="translate(1.726 5.254)" fill="#273a89" stroke="#273a89" stroke-width="1"/>
      <path id="Trazado_826804" data-name="Trazado 826804" d="M116.669,118.2a1.5,1.5,0,1,0-1.469-1.5,1.482,1.482,0,0,0,1.469,1.5" transform="translate(2.302 4.67)" fill="#273a89" stroke="#273a89" stroke-width="1"/>
      <path id="Trazado_826805" data-name="Trazado 826805" d="M102.268,118.2a1.5,1.5,0,1,0-1.468-1.5,1.484,1.484,0,0,0,1.468,1.5" transform="translate(2.014 4.67)" fill="#273a89" stroke="#273a89" stroke-width="1"/>
      <path id="Trazado_826806" data-name="Trazado 826806" d="M87.869,118.2a1.5,1.5,0,1,0-1.469-1.5,1.483,1.483,0,0,0,1.469,1.5" transform="translate(1.726 4.67)" fill="#273a89" stroke="#273a89" stroke-width="1"/>
      <path id="Trazado_826807" data-name="Trazado 826807" d="M116.669,175.8a1.5,1.5,0,1,0-1.469-1.5,1.482,1.482,0,0,0,1.469,1.5" transform="translate(2.302 7.006)" fill="#273a89" stroke="#273a89" stroke-width="1"/>
      <path id="Trazado_826808" data-name="Trazado 826808" d="M102.268,175.8a1.5,1.5,0,1,0-1.468-1.5,1.484,1.484,0,0,0,1.468,1.5" transform="translate(2.014 7.006)" fill="#273a89" stroke="#273a89" stroke-width="1"/>
      <path id="Trazado_826809" data-name="Trazado 826809" d="M116.669,161.4a1.5,1.5,0,1,0-1.469-1.5,1.483,1.483,0,0,0,1.469,1.5" transform="translate(2.302 6.422)" fill="#273a89" stroke="#273a89" stroke-width="1"/>
      <path id="Trazado_826810" data-name="Trazado 826810" d="M102.268,161.4a1.5,1.5,0,1,0-1.468-1.5,1.485,1.485,0,0,0,1.468,1.5" transform="translate(2.014 6.422)" fill="#273a89" stroke="#273a89" stroke-width="1"/>
      <path id="Trazado_826811" data-name="Trazado 826811" d="M95.068,168.6a1.5,1.5,0,1,0-1.468-1.5,1.484,1.484,0,0,0,1.468,1.5" transform="translate(1.87 6.714)" fill="#273a89" stroke="#273a89" stroke-width="1"/>
      <path id="Trazado_826812" data-name="Trazado 826812" d="M109.468,168.6A1.5,1.5,0,1,0,108,167.1a1.484,1.484,0,0,0,1.469,1.5" transform="translate(2.158 6.714)" fill="#273a89" stroke="#273a89" stroke-width="1"/>
      <path id="Trazado_826813" data-name="Trazado 826813" d="M95.068,154.2a1.5,1.5,0,1,0-1.468-1.5,1.483,1.483,0,0,0,1.468,1.5" transform="translate(1.87 6.13)" fill="#273a89" stroke="#273a89" stroke-width="1"/>
      <path id="Trazado_826814" data-name="Trazado 826814" d="M109.468,154.2A1.5,1.5,0,1,0,108,152.7a1.483,1.483,0,0,0,1.469,1.5" transform="translate(2.158 6.13)" fill="#273a89" stroke="#273a89" stroke-width="1"/>
      <path id="Trazado_826815" data-name="Trazado 826815" d="M87.869,175.8a1.5,1.5,0,1,0-1.469-1.5,1.483,1.483,0,0,0,1.469,1.5" transform="translate(1.726 7.006)" fill="#273a89" stroke="#273a89" stroke-width="1"/>
      <path id="Trazado_826816" data-name="Trazado 826816" d="M87.869,161.4a1.5,1.5,0,1,0-1.469-1.5,1.484,1.484,0,0,0,1.469,1.5" transform="translate(1.726 6.422)" fill="#273a89" stroke="#273a89" stroke-width="1"/>
      <path id="Trazado_826817" data-name="Trazado 826817" d="M116.669,147a1.5,1.5,0,1,0-1.469-1.5,1.482,1.482,0,0,0,1.469,1.5" transform="translate(2.302 5.838)" fill="#273a89" stroke="#273a89" stroke-width="1"/>
      <path id="Trazado_826818" data-name="Trazado 826818" d="M102.268,147a1.5,1.5,0,1,0-1.468-1.5,1.484,1.484,0,0,0,1.468,1.5" transform="translate(2.014 5.838)" fill="#273a89" stroke="#273a89" stroke-width="1"/>
      <path id="Trazado_826819" data-name="Trazado 826819" d="M87.869,147a1.5,1.5,0,1,0-1.469-1.5,1.483,1.483,0,0,0,1.469,1.5" transform="translate(1.726 5.838)" fill="#273a89" stroke="#273a89" stroke-width="1"/>
      <path id="Trazado_826820" data-name="Trazado 826820" d="M116.669,204.6a1.5,1.5,0,1,0-1.469-1.5,1.482,1.482,0,0,0,1.469,1.5" transform="translate(2.302 8.173)" fill="#273a89" stroke="#273a89" stroke-width="1"/>
      <path id="Trazado_826821" data-name="Trazado 826821" d="M102.268,204.6a1.5,1.5,0,1,0-1.468-1.5,1.484,1.484,0,0,0,1.468,1.5" transform="translate(2.014 8.173)" fill="#273a89" stroke="#273a89" stroke-width="1"/>
      <path id="Trazado_826822" data-name="Trazado 826822" d="M116.669,190.2a1.5,1.5,0,1,0-1.469-1.5,1.483,1.483,0,0,0,1.469,1.5" transform="translate(2.302 7.589)" fill="#273a89" stroke="#273a89" stroke-width="1"/>
      <path id="Trazado_826823" data-name="Trazado 826823" d="M102.268,190.2a1.5,1.5,0,1,0-1.468-1.5,1.485,1.485,0,0,0,1.468,1.5" transform="translate(2.014 7.589)" fill="#273a89" stroke="#273a89" stroke-width="1"/>
      <path id="Trazado_826824" data-name="Trazado 826824" d="M95.068,197.4a1.5,1.5,0,1,0-1.468-1.5,1.484,1.484,0,0,0,1.468,1.5" transform="translate(1.87 7.881)" fill="#273a89" stroke="#273a89" stroke-width="1"/>
      <path id="Trazado_826825" data-name="Trazado 826825" d="M109.468,197.4A1.5,1.5,0,1,0,108,195.9a1.484,1.484,0,0,0,1.469,1.5" transform="translate(2.158 7.881)" fill="#273a89" stroke="#273a89" stroke-width="1"/>
      <path id="Trazado_826826" data-name="Trazado 826826" d="M95.068,183a1.5,1.5,0,1,0-1.468-1.5,1.484,1.484,0,0,0,1.468,1.5" transform="translate(1.87 7.297)" fill="#273a89" stroke="#273a89" stroke-width="1"/>
      <path id="Trazado_826827" data-name="Trazado 826827" d="M109.468,183A1.5,1.5,0,1,0,108,181.5a1.484,1.484,0,0,0,1.469,1.5" transform="translate(2.158 7.297)" fill="#273a89" stroke="#273a89" stroke-width="1"/>
      <path id="Trazado_826828" data-name="Trazado 826828" d="M87.869,204.6a1.5,1.5,0,1,0-1.469-1.5,1.483,1.483,0,0,0,1.469,1.5" transform="translate(1.726 8.173)" fill="#273a89" stroke="#273a89" stroke-width="1"/>
      <path id="Trazado_826829" data-name="Trazado 826829" d="M87.869,190.2a1.5,1.5,0,1,0-1.469-1.5,1.484,1.484,0,0,0,1.469,1.5" transform="translate(1.726 7.589)" fill="#273a89" stroke="#273a89" stroke-width="1"/>
      <path id="Trazado_826830" data-name="Trazado 826830" d="M116.669,175.8a1.5,1.5,0,1,0-1.469-1.5,1.482,1.482,0,0,0,1.469,1.5" transform="translate(2.302 7.006)" fill="#273a89" stroke="#273a89" stroke-width="1"/>
      <path id="Trazado_826831" data-name="Trazado 826831" d="M102.268,175.8a1.5,1.5,0,1,0-1.468-1.5,1.484,1.484,0,0,0,1.468,1.5" transform="translate(2.014 7.006)" fill="#273a89" stroke="#273a89" stroke-width="1"/>
      <path id="Trazado_826832" data-name="Trazado 826832" d="M87.869,175.8a1.5,1.5,0,1,0-1.469-1.5,1.483,1.483,0,0,0,1.469,1.5" transform="translate(1.726 7.006)" fill="#273a89" stroke="#273a89" stroke-width="1"/>
      <path id="Trazado_826833" data-name="Trazado 826833" d="M116.669,233.4a1.5,1.5,0,1,0-1.469-1.5,1.482,1.482,0,0,0,1.469,1.5" transform="translate(2.302 9.341)" fill="#273a89" stroke="#273a89" stroke-width="1"/>
      <path id="Trazado_826834" data-name="Trazado 826834" d="M102.268,233.4a1.5,1.5,0,1,0-1.468-1.5,1.484,1.484,0,0,0,1.468,1.5" transform="translate(2.014 9.341)" fill="#273a89" stroke="#273a89" stroke-width="1"/>
      <path id="Trazado_826835" data-name="Trazado 826835" d="M116.669,219a1.5,1.5,0,1,0-1.469-1.5,1.483,1.483,0,0,0,1.469,1.5" transform="translate(2.302 8.757)" fill="#273a89" stroke="#273a89" stroke-width="1"/>
      <path id="Trazado_826836" data-name="Trazado 826836" d="M102.268,219a1.5,1.5,0,1,0-1.468-1.5,1.485,1.485,0,0,0,1.468,1.5" transform="translate(2.014 8.757)" fill="#273a89" stroke="#273a89" stroke-width="1"/>
      <path id="Trazado_826837" data-name="Trazado 826837" d="M95.068,226.2a1.5,1.5,0,1,0-1.468-1.5,1.484,1.484,0,0,0,1.468,1.5" transform="translate(1.87 9.049)" fill="#273a89" stroke="#273a89" stroke-width="1"/>
      <path id="Trazado_826838" data-name="Trazado 826838" d="M109.468,226.2a1.5,1.5,0,1,0-1.469-1.5,1.484,1.484,0,0,0,1.469,1.5" transform="translate(2.158 9.049)" fill="#273a89" stroke="#273a89" stroke-width="1"/>
      <path id="Trazado_826839" data-name="Trazado 826839" d="M95.068,211.8a1.5,1.5,0,1,0-1.468-1.5,1.484,1.484,0,0,0,1.468,1.5" transform="translate(1.87 8.465)" fill="#273a89" stroke="#273a89" stroke-width="1"/>
      <path id="Trazado_826840" data-name="Trazado 826840" d="M109.468,211.8A1.5,1.5,0,1,0,108,210.3a1.484,1.484,0,0,0,1.469,1.5" transform="translate(2.158 8.465)" fill="#273a89" stroke="#273a89" stroke-width="1"/>
      <path id="Trazado_826841" data-name="Trazado 826841" d="M87.869,233.4a1.5,1.5,0,1,0-1.469-1.5,1.483,1.483,0,0,0,1.469,1.5" transform="translate(1.726 9.341)" fill="#273a89" stroke="#273a89" stroke-width="1"/>
      <path id="Trazado_826842" data-name="Trazado 826842" d="M87.869,219a1.5,1.5,0,1,0-1.469-1.5,1.484,1.484,0,0,0,1.469,1.5" transform="translate(1.726 8.757)" fill="#273a89" stroke="#273a89" stroke-width="1"/>
      <path id="Trazado_826843" data-name="Trazado 826843" d="M116.669,204.6a1.5,1.5,0,1,0-1.469-1.5,1.482,1.482,0,0,0,1.469,1.5" transform="translate(2.302 8.173)" fill="#273a89" stroke="#273a89" stroke-width="1"/>
      <path id="Trazado_826844" data-name="Trazado 826844" d="M102.268,204.6a1.5,1.5,0,1,0-1.468-1.5,1.484,1.484,0,0,0,1.468,1.5" transform="translate(2.014 8.173)" fill="#273a89" stroke="#273a89" stroke-width="1"/>
      <path id="Trazado_826845" data-name="Trazado 826845" d="M87.869,204.6a1.5,1.5,0,1,0-1.469-1.5,1.483,1.483,0,0,0,1.469,1.5" transform="translate(1.726 8.173)" fill="#273a89" stroke="#273a89" stroke-width="1"/>
      <path id="Trazado_826846" data-name="Trazado 826846" d="M87.869,31.8A1.5,1.5,0,1,0,86.4,30.3a1.484,1.484,0,0,0,1.469,1.5" transform="translate(1.726 1.168)" fill="#273a89" stroke="#273a89" stroke-width="1"/>
      <path id="Trazado_826847" data-name="Trazado 826847" d="M73.468,31.8A1.5,1.5,0,1,0,72,30.3a1.484,1.484,0,0,0,1.468,1.5" transform="translate(1.439 1.168)" fill="#273a89" stroke="#273a89" stroke-width="1"/>
      <path id="Trazado_826848" data-name="Trazado 826848" d="M87.869,17.4A1.5,1.5,0,1,0,86.4,15.9a1.485,1.485,0,0,0,1.469,1.5" transform="translate(1.726 0.584)" fill="#273a89" stroke="#273a89" stroke-width="1"/>
      <path id="Trazado_826849" data-name="Trazado 826849" d="M73.468,17.4A1.5,1.5,0,1,0,72,15.9a1.485,1.485,0,0,0,1.468,1.5" transform="translate(1.439 0.584)" fill="#273a89" stroke="#273a89" stroke-width="1"/>
      <path id="Trazado_826850" data-name="Trazado 826850" d="M66.268,24.6A1.5,1.5,0,1,0,64.8,23.1a1.483,1.483,0,0,0,1.468,1.5" transform="translate(1.295 0.876)" fill="#273a89" stroke="#273a89" stroke-width="1"/>
      <path id="Trazado_826851" data-name="Trazado 826851" d="M80.669,24.6A1.5,1.5,0,1,0,79.2,23.1a1.483,1.483,0,0,0,1.469,1.5" transform="translate(1.583 0.876)" fill="#273a89" stroke="#273a89" stroke-width="1"/>
      <path id="Trazado_826852" data-name="Trazado 826852" d="M66.268,10.2A1.5,1.5,0,1,0,64.8,8.7a1.484,1.484,0,0,0,1.468,1.5" transform="translate(1.295 0.292)" fill="#273a89" stroke="#273a89" stroke-width="1"/>
      <path id="Trazado_826853" data-name="Trazado 826853" d="M80.669,10.2A1.5,1.5,0,1,0,79.2,8.7a1.484,1.484,0,0,0,1.469,1.5" transform="translate(1.583 0.292)" fill="#273a89" stroke="#273a89" stroke-width="1"/>
      <path id="Trazado_826854" data-name="Trazado 826854" d="M59.069,31.8A1.5,1.5,0,1,0,57.6,30.3a1.483,1.483,0,0,0,1.469,1.5" transform="translate(1.151 1.168)" fill="#273a89" stroke="#273a89" stroke-width="1"/>
      <path id="Trazado_826855" data-name="Trazado 826855" d="M59.069,17.4A1.5,1.5,0,1,0,57.6,15.9a1.484,1.484,0,0,0,1.469,1.5" transform="translate(1.151 0.584)" fill="#273a89" stroke="#273a89" stroke-width="1"/>
      <path id="Trazado_826856" data-name="Trazado 826856" d="M87.869,3a1.484,1.484,0,0,0,1.469-1.5,1.469,1.469,0,1,0-2.938,0A1.483,1.483,0,0,0,87.869,3" transform="translate(1.726)" fill="#273a89" stroke="#273a89" stroke-width="1"/>
      <path id="Trazado_826857" data-name="Trazado 826857" d="M73.468,3a1.484,1.484,0,0,0,1.469-1.5A1.469,1.469,0,1,0,72,1.5,1.482,1.482,0,0,0,73.468,3" transform="translate(1.439)" fill="#273a89" stroke="#273a89" stroke-width="1"/>
      <path id="Trazado_826858" data-name="Trazado 826858" d="M59.069,3a1.483,1.483,0,0,0,1.468-1.5,1.469,1.469,0,1,0-2.937,0A1.483,1.483,0,0,0,59.069,3" transform="translate(1.151)" fill="#273a89" stroke="#273a89" stroke-width="1"/>
      <path id="Trazado_826859" data-name="Trazado 826859" d="M87.869,60.6A1.5,1.5,0,1,0,86.4,59.1a1.483,1.483,0,0,0,1.469,1.5" transform="translate(1.726 2.335)" fill="#273a89" stroke="#273a89" stroke-width="1"/>
      <path id="Trazado_826860" data-name="Trazado 826860" d="M73.468,60.6A1.5,1.5,0,1,0,72,59.1a1.483,1.483,0,0,0,1.468,1.5" transform="translate(1.439 2.335)" fill="#273a89" stroke="#273a89" stroke-width="1"/>
      <path id="Trazado_826861" data-name="Trazado 826861" d="M87.869,46.2A1.5,1.5,0,1,0,86.4,44.7a1.485,1.485,0,0,0,1.469,1.5" transform="translate(1.726 1.751)" fill="#273a89" stroke="#273a89" stroke-width="1"/>
      <path id="Trazado_826862" data-name="Trazado 826862" d="M73.468,46.2A1.5,1.5,0,1,0,72,44.7a1.485,1.485,0,0,0,1.468,1.5" transform="translate(1.439 1.751)" fill="#273a89" stroke="#273a89" stroke-width="1"/>
      <path id="Trazado_826863" data-name="Trazado 826863" d="M66.268,53.4A1.5,1.5,0,1,0,64.8,51.9a1.484,1.484,0,0,0,1.468,1.5" transform="translate(1.295 2.043)" fill="#273a89" stroke="#273a89" stroke-width="1"/>
      <path id="Trazado_826864" data-name="Trazado 826864" d="M80.669,53.4A1.5,1.5,0,1,0,79.2,51.9a1.484,1.484,0,0,0,1.469,1.5" transform="translate(1.583 2.043)" fill="#273a89" stroke="#273a89" stroke-width="1"/>
      <path id="Trazado_826865" data-name="Trazado 826865" d="M66.268,39A1.5,1.5,0,1,0,64.8,37.5,1.484,1.484,0,0,0,66.268,39" transform="translate(1.295 1.459)" fill="#273a89" stroke="#273a89" stroke-width="1"/>
      <path id="Trazado_826866" data-name="Trazado 826866" d="M80.669,39A1.5,1.5,0,1,0,79.2,37.5,1.484,1.484,0,0,0,80.669,39" transform="translate(1.583 1.459)" fill="#273a89" stroke="#273a89" stroke-width="1"/>
      <path id="Trazado_826867" data-name="Trazado 826867" d="M59.069,60.6A1.5,1.5,0,1,0,57.6,59.1a1.482,1.482,0,0,0,1.469,1.5" transform="translate(1.151 2.335)" fill="#273a89" stroke="#273a89" stroke-width="1"/>
      <path id="Trazado_826868" data-name="Trazado 826868" d="M59.069,46.2A1.5,1.5,0,1,0,57.6,44.7a1.484,1.484,0,0,0,1.469,1.5" transform="translate(1.151 1.751)" fill="#273a89" stroke="#273a89" stroke-width="1"/>
      <path id="Trazado_826869" data-name="Trazado 826869" d="M87.869,31.8A1.5,1.5,0,1,0,86.4,30.3a1.484,1.484,0,0,0,1.469,1.5" transform="translate(1.726 1.168)" fill="#273a89" stroke="#273a89" stroke-width="1"/>
      <path id="Trazado_826870" data-name="Trazado 826870" d="M73.468,31.8A1.5,1.5,0,1,0,72,30.3a1.484,1.484,0,0,0,1.468,1.5" transform="translate(1.439 1.168)" fill="#273a89" stroke="#273a89" stroke-width="1"/>
      <path id="Trazado_826871" data-name="Trazado 826871" d="M59.069,31.8A1.5,1.5,0,1,0,57.6,30.3a1.483,1.483,0,0,0,1.469,1.5" transform="translate(1.151 1.168)" fill="#273a89" stroke="#273a89" stroke-width="1"/>
      <path id="Trazado_826872" data-name="Trazado 826872" d="M87.869,89.4A1.5,1.5,0,1,0,86.4,87.9a1.484,1.484,0,0,0,1.469,1.5" transform="translate(1.726 3.503)" fill="#273a89" stroke="#273a89" stroke-width="1"/>
      <path id="Trazado_826873" data-name="Trazado 826873" d="M73.468,89.4A1.5,1.5,0,1,0,72,87.9a1.484,1.484,0,0,0,1.468,1.5" transform="translate(1.439 3.503)" fill="#273a89" stroke="#273a89" stroke-width="1"/>
      <path id="Trazado_826874" data-name="Trazado 826874" d="M87.869,75A1.5,1.5,0,1,0,86.4,73.5,1.485,1.485,0,0,0,87.869,75" transform="translate(1.726 2.919)" fill="#273a89" stroke="#273a89" stroke-width="1"/>
      <path id="Trazado_826875" data-name="Trazado 826875" d="M73.468,75A1.5,1.5,0,1,0,72,73.5,1.485,1.485,0,0,0,73.468,75" transform="translate(1.439 2.919)" fill="#273a89" stroke="#273a89" stroke-width="1"/>
      <path id="Trazado_826876" data-name="Trazado 826876" d="M66.268,82.2A1.5,1.5,0,1,0,64.8,80.7a1.484,1.484,0,0,0,1.468,1.5" transform="translate(1.295 3.211)" fill="#273a89" stroke="#273a89" stroke-width="1"/>
      <path id="Trazado_826877" data-name="Trazado 826877" d="M80.669,82.2A1.5,1.5,0,1,0,79.2,80.7a1.484,1.484,0,0,0,1.469,1.5" transform="translate(1.583 3.211)" fill="#273a89" stroke="#273a89" stroke-width="1"/>
      <path id="Trazado_826878" data-name="Trazado 826878" d="M66.268,67.8A1.5,1.5,0,1,0,64.8,66.3a1.484,1.484,0,0,0,1.468,1.5" transform="translate(1.295 2.627)" fill="#273a89" stroke="#273a89" stroke-width="1"/>
      <path id="Trazado_826879" data-name="Trazado 826879" d="M80.669,67.8A1.5,1.5,0,1,0,79.2,66.3a1.484,1.484,0,0,0,1.469,1.5" transform="translate(1.583 2.627)" fill="#273a89" stroke="#273a89" stroke-width="1"/>
      <path id="Trazado_826880" data-name="Trazado 826880" d="M59.069,89.4A1.5,1.5,0,1,0,57.6,87.9a1.483,1.483,0,0,0,1.469,1.5" transform="translate(1.151 3.503)" fill="#273a89" stroke="#273a89" stroke-width="1"/>
      <path id="Trazado_826881" data-name="Trazado 826881" d="M59.069,75A1.5,1.5,0,1,0,57.6,73.5,1.484,1.484,0,0,0,59.069,75" transform="translate(1.151 2.919)" fill="#273a89" stroke="#273a89" stroke-width="1"/>
      <path id="Trazado_826882" data-name="Trazado 826882" d="M87.869,60.6A1.5,1.5,0,1,0,86.4,59.1a1.484,1.484,0,0,0,1.469,1.5" transform="translate(1.726 2.335)" fill="#273a89" stroke="#273a89" stroke-width="1"/>
      <path id="Trazado_826883" data-name="Trazado 826883" d="M73.468,60.6A1.5,1.5,0,1,0,72,59.1a1.484,1.484,0,0,0,1.468,1.5" transform="translate(1.439 2.335)" fill="#273a89" stroke="#273a89" stroke-width="1"/>
      <path id="Trazado_826884" data-name="Trazado 826884" d="M59.069,60.6A1.5,1.5,0,1,0,57.6,59.1a1.483,1.483,0,0,0,1.469,1.5" transform="translate(1.151 2.335)" fill="#273a89" stroke="#273a89" stroke-width="1"/>
      <path id="Trazado_826885" data-name="Trazado 826885" d="M87.869,118.2a1.5,1.5,0,1,0-1.469-1.5,1.484,1.484,0,0,0,1.469,1.5" transform="translate(1.726 4.67)" fill="#273a89" stroke="#273a89" stroke-width="1"/>
      <path id="Trazado_826886" data-name="Trazado 826886" d="M73.468,118.2A1.5,1.5,0,1,0,72,116.7a1.484,1.484,0,0,0,1.468,1.5" transform="translate(1.439 4.67)" fill="#273a89" stroke="#273a89" stroke-width="1"/>
      <path id="Trazado_826887" data-name="Trazado 826887" d="M87.869,103.8a1.5,1.5,0,1,0-1.469-1.5,1.485,1.485,0,0,0,1.469,1.5" transform="translate(1.726 4.087)" fill="#273a89" stroke="#273a89" stroke-width="1"/>
      <path id="Trazado_826888" data-name="Trazado 826888" d="M73.468,103.8A1.5,1.5,0,1,0,72,102.3a1.485,1.485,0,0,0,1.468,1.5" transform="translate(1.439 4.087)" fill="#273a89" stroke="#273a89" stroke-width="1"/>
      <path id="Trazado_826889" data-name="Trazado 826889" d="M66.268,111a1.5,1.5,0,1,0-1.468-1.5,1.484,1.484,0,0,0,1.468,1.5" transform="translate(1.295 4.378)" fill="#273a89" stroke="#273a89" stroke-width="1"/>
      <path id="Trazado_826890" data-name="Trazado 826890" d="M80.669,111a1.5,1.5,0,1,0-1.469-1.5,1.484,1.484,0,0,0,1.469,1.5" transform="translate(1.583 4.378)" fill="#273a89" stroke="#273a89" stroke-width="1"/>
      <path id="Trazado_826891" data-name="Trazado 826891" d="M66.268,96.6A1.5,1.5,0,1,0,64.8,95.1a1.484,1.484,0,0,0,1.468,1.5" transform="translate(1.295 3.795)" fill="#273a89" stroke="#273a89" stroke-width="1"/>
      <path id="Trazado_826892" data-name="Trazado 826892" d="M80.669,96.6A1.5,1.5,0,1,0,79.2,95.1a1.484,1.484,0,0,0,1.469,1.5" transform="translate(1.583 3.795)" fill="#273a89" stroke="#273a89" stroke-width="1"/>
      <path id="Trazado_826893" data-name="Trazado 826893" d="M59.069,118.2a1.5,1.5,0,1,0-1.469-1.5,1.483,1.483,0,0,0,1.469,1.5" transform="translate(1.151 4.67)" fill="#273a89" stroke="#273a89" stroke-width="1"/>
      <path id="Trazado_826894" data-name="Trazado 826894" d="M59.069,103.8a1.5,1.5,0,1,0-1.469-1.5,1.484,1.484,0,0,0,1.469,1.5" transform="translate(1.151 4.087)" fill="#273a89" stroke="#273a89" stroke-width="1"/>
      <path id="Trazado_826895" data-name="Trazado 826895" d="M87.869,89.4A1.5,1.5,0,1,0,86.4,87.9a1.484,1.484,0,0,0,1.469,1.5" transform="translate(1.726 3.503)" fill="#273a89" stroke="#273a89" stroke-width="1"/>
      <path id="Trazado_826896" data-name="Trazado 826896" d="M73.468,89.4A1.5,1.5,0,1,0,72,87.9a1.484,1.484,0,0,0,1.468,1.5" transform="translate(1.439 3.503)" fill="#273a89" stroke="#273a89" stroke-width="1"/>
      <path id="Trazado_826897" data-name="Trazado 826897" d="M59.069,89.4A1.5,1.5,0,1,0,57.6,87.9a1.483,1.483,0,0,0,1.469,1.5" transform="translate(1.151 3.503)" fill="#273a89" stroke="#273a89" stroke-width="1"/>
      <path id="Trazado_826898" data-name="Trazado 826898" d="M87.869,147a1.5,1.5,0,1,0-1.469-1.5,1.484,1.484,0,0,0,1.469,1.5" transform="translate(1.726 5.838)" fill="#273a89" stroke="#273a89" stroke-width="1"/>
      <path id="Trazado_826899" data-name="Trazado 826899" d="M73.468,147A1.5,1.5,0,1,0,72,145.5a1.484,1.484,0,0,0,1.468,1.5" transform="translate(1.439 5.838)" fill="#273a89" stroke="#273a89" stroke-width="1"/>
      <path id="Trazado_826900" data-name="Trazado 826900" d="M87.869,132.6a1.5,1.5,0,1,0-1.469-1.5,1.485,1.485,0,0,0,1.469,1.5" transform="translate(1.726 5.254)" fill="#273a89" stroke="#273a89" stroke-width="1"/>
      <path id="Trazado_826901" data-name="Trazado 826901" d="M73.468,132.6A1.5,1.5,0,1,0,72,131.1a1.485,1.485,0,0,0,1.468,1.5" transform="translate(1.439 5.254)" fill="#273a89" stroke="#273a89" stroke-width="1"/>
      <path id="Trazado_826902" data-name="Trazado 826902" d="M66.268,139.8a1.5,1.5,0,1,0-1.468-1.5,1.484,1.484,0,0,0,1.468,1.5" transform="translate(1.295 5.546)" fill="#273a89" stroke="#273a89" stroke-width="1"/>
      <path id="Trazado_826903" data-name="Trazado 826903" d="M80.669,139.8a1.5,1.5,0,1,0-1.469-1.5,1.484,1.484,0,0,0,1.469,1.5" transform="translate(1.583 5.546)" fill="#273a89" stroke="#273a89" stroke-width="1"/>
      <path id="Trazado_826904" data-name="Trazado 826904" d="M66.268,125.4a1.5,1.5,0,1,0-1.468-1.5,1.484,1.484,0,0,0,1.468,1.5" transform="translate(1.295 4.962)" fill="#273a89" stroke="#273a89" stroke-width="1"/>
      <path id="Trazado_826905" data-name="Trazado 826905" d="M80.669,125.4a1.5,1.5,0,1,0-1.469-1.5,1.484,1.484,0,0,0,1.469,1.5" transform="translate(1.583 4.962)" fill="#273a89" stroke="#273a89" stroke-width="1"/>
      <path id="Trazado_826906" data-name="Trazado 826906" d="M59.069,147a1.5,1.5,0,1,0-1.469-1.5,1.483,1.483,0,0,0,1.469,1.5" transform="translate(1.151 5.838)" fill="#273a89" stroke="#273a89" stroke-width="1"/>
      <path id="Trazado_826907" data-name="Trazado 826907" d="M59.069,132.6a1.5,1.5,0,1,0-1.469-1.5,1.484,1.484,0,0,0,1.469,1.5" transform="translate(1.151 5.254)" fill="#273a89" stroke="#273a89" stroke-width="1"/>
      <path id="Trazado_826908" data-name="Trazado 826908" d="M87.869,118.2a1.5,1.5,0,1,0-1.469-1.5,1.484,1.484,0,0,0,1.469,1.5" transform="translate(1.726 4.67)" fill="#273a89" stroke="#273a89" stroke-width="1"/>
      <path id="Trazado_826909" data-name="Trazado 826909" d="M73.468,118.2A1.5,1.5,0,1,0,72,116.7a1.484,1.484,0,0,0,1.468,1.5" transform="translate(1.439 4.67)" fill="#273a89" stroke="#273a89" stroke-width="1"/>
      <path id="Trazado_826910" data-name="Trazado 826910" d="M59.069,118.2a1.5,1.5,0,1,0-1.469-1.5,1.483,1.483,0,0,0,1.469,1.5" transform="translate(1.151 4.67)" fill="#273a89" stroke="#273a89" stroke-width="1"/>
      <path id="Trazado_826911" data-name="Trazado 826911" d="M87.869,175.8a1.5,1.5,0,1,0-1.469-1.5,1.484,1.484,0,0,0,1.469,1.5" transform="translate(1.726 7.006)" fill="#273a89" stroke="#273a89" stroke-width="1"/>
      <path id="Trazado_826912" data-name="Trazado 826912" d="M73.468,175.8A1.5,1.5,0,1,0,72,174.3a1.484,1.484,0,0,0,1.468,1.5" transform="translate(1.439 7.006)" fill="#273a89" stroke="#273a89" stroke-width="1"/>
      <path id="Trazado_826913" data-name="Trazado 826913" d="M87.869,161.4a1.5,1.5,0,1,0-1.469-1.5,1.485,1.485,0,0,0,1.469,1.5" transform="translate(1.726 6.422)" fill="#273a89" stroke="#273a89" stroke-width="1"/>
      <path id="Trazado_826914" data-name="Trazado 826914" d="M73.468,161.4A1.5,1.5,0,1,0,72,159.9a1.485,1.485,0,0,0,1.468,1.5" transform="translate(1.439 6.422)" fill="#273a89" stroke="#273a89" stroke-width="1"/>
      <path id="Trazado_826915" data-name="Trazado 826915" d="M66.268,168.6a1.5,1.5,0,1,0-1.468-1.5,1.484,1.484,0,0,0,1.468,1.5" transform="translate(1.295 6.714)" fill="#273a89" stroke="#273a89" stroke-width="1"/>
      <path id="Trazado_826916" data-name="Trazado 826916" d="M80.669,168.6a1.5,1.5,0,1,0-1.469-1.5,1.484,1.484,0,0,0,1.469,1.5" transform="translate(1.583 6.714)" fill="#273a89" stroke="#273a89" stroke-width="1"/>
      <path id="Trazado_826917" data-name="Trazado 826917" d="M66.268,154.2a1.5,1.5,0,1,0-1.468-1.5,1.483,1.483,0,0,0,1.468,1.5" transform="translate(1.295 6.13)" fill="#273a89" stroke="#273a89" stroke-width="1"/>
      <path id="Trazado_826918" data-name="Trazado 826918" d="M80.669,154.2a1.5,1.5,0,1,0-1.469-1.5,1.483,1.483,0,0,0,1.469,1.5" transform="translate(1.583 6.13)" fill="#273a89" stroke="#273a89" stroke-width="1"/>
      <path id="Trazado_826919" data-name="Trazado 826919" d="M59.069,175.8a1.5,1.5,0,1,0-1.469-1.5,1.483,1.483,0,0,0,1.469,1.5" transform="translate(1.151 7.006)" fill="#273a89" stroke="#273a89" stroke-width="1"/>
      <path id="Trazado_826920" data-name="Trazado 826920" d="M59.069,161.4a1.5,1.5,0,1,0-1.469-1.5,1.484,1.484,0,0,0,1.469,1.5" transform="translate(1.151 6.422)" fill="#273a89" stroke="#273a89" stroke-width="1"/>
      <path id="Trazado_826921" data-name="Trazado 826921" d="M87.869,147a1.5,1.5,0,1,0-1.469-1.5,1.484,1.484,0,0,0,1.469,1.5" transform="translate(1.726 5.838)" fill="#273a89" stroke="#273a89" stroke-width="1"/>
      <path id="Trazado_826922" data-name="Trazado 826922" d="M73.468,147A1.5,1.5,0,1,0,72,145.5a1.484,1.484,0,0,0,1.468,1.5" transform="translate(1.439 5.838)" fill="#273a89" stroke="#273a89" stroke-width="1"/>
      <path id="Trazado_826923" data-name="Trazado 826923" d="M59.069,147a1.5,1.5,0,1,0-1.469-1.5,1.483,1.483,0,0,0,1.469,1.5" transform="translate(1.151 5.838)" fill="#273a89" stroke="#273a89" stroke-width="1"/>
      <path id="Trazado_826924" data-name="Trazado 826924" d="M87.869,204.6a1.5,1.5,0,1,0-1.469-1.5,1.484,1.484,0,0,0,1.469,1.5" transform="translate(1.726 8.173)" fill="#273a89" stroke="#273a89" stroke-width="1"/>
      <path id="Trazado_826925" data-name="Trazado 826925" d="M73.468,204.6A1.5,1.5,0,1,0,72,203.1a1.484,1.484,0,0,0,1.468,1.5" transform="translate(1.439 8.173)" fill="#273a89" stroke="#273a89" stroke-width="1"/>
      <path id="Trazado_826926" data-name="Trazado 826926" d="M87.869,190.2a1.5,1.5,0,1,0-1.469-1.5,1.485,1.485,0,0,0,1.469,1.5" transform="translate(1.726 7.589)" fill="#273a89" stroke="#273a89" stroke-width="1"/>
      <path id="Trazado_826927" data-name="Trazado 826927" d="M73.468,190.2A1.5,1.5,0,1,0,72,188.7a1.485,1.485,0,0,0,1.468,1.5" transform="translate(1.439 7.589)" fill="#273a89" stroke="#273a89" stroke-width="1"/>
      <path id="Trazado_826928" data-name="Trazado 826928" d="M66.268,197.4a1.5,1.5,0,1,0-1.468-1.5,1.484,1.484,0,0,0,1.468,1.5" transform="translate(1.295 7.881)" fill="#273a89" stroke="#273a89" stroke-width="1"/>
      <path id="Trazado_826929" data-name="Trazado 826929" d="M80.669,197.4a1.5,1.5,0,1,0-1.469-1.5,1.484,1.484,0,0,0,1.469,1.5" transform="translate(1.583 7.881)" fill="#273a89" stroke="#273a89" stroke-width="1"/>
      <path id="Trazado_826930" data-name="Trazado 826930" d="M66.268,183a1.5,1.5,0,1,0-1.468-1.5,1.484,1.484,0,0,0,1.468,1.5" transform="translate(1.295 7.297)" fill="#273a89" stroke="#273a89" stroke-width="1"/>
      <path id="Trazado_826931" data-name="Trazado 826931" d="M80.669,183a1.5,1.5,0,1,0-1.469-1.5,1.484,1.484,0,0,0,1.469,1.5" transform="translate(1.583 7.297)" fill="#273a89" stroke="#273a89" stroke-width="1"/>
      <path id="Trazado_826932" data-name="Trazado 826932" d="M59.069,204.6a1.5,1.5,0,1,0-1.469-1.5,1.483,1.483,0,0,0,1.469,1.5" transform="translate(1.151 8.173)" fill="#273a89" stroke="#273a89" stroke-width="1"/>
      <path id="Trazado_826933" data-name="Trazado 826933" d="M59.069,190.2a1.5,1.5,0,1,0-1.469-1.5,1.484,1.484,0,0,0,1.469,1.5" transform="translate(1.151 7.589)" fill="#273a89" stroke="#273a89" stroke-width="1"/>
      <path id="Trazado_826934" data-name="Trazado 826934" d="M87.869,175.8a1.5,1.5,0,1,0-1.469-1.5,1.484,1.484,0,0,0,1.469,1.5" transform="translate(1.726 7.006)" fill="#273a89" stroke="#273a89" stroke-width="1"/>
      <path id="Trazado_826935" data-name="Trazado 826935" d="M73.468,175.8A1.5,1.5,0,1,0,72,174.3a1.484,1.484,0,0,0,1.468,1.5" transform="translate(1.439 7.006)" fill="#273a89" stroke="#273a89" stroke-width="1"/>
      <path id="Trazado_826936" data-name="Trazado 826936" d="M59.069,175.8a1.5,1.5,0,1,0-1.469-1.5,1.483,1.483,0,0,0,1.469,1.5" transform="translate(1.151 7.006)" fill="#273a89" stroke="#273a89" stroke-width="1"/>
      <path id="Trazado_826937" data-name="Trazado 826937" d="M87.869,233.4a1.5,1.5,0,1,0-1.469-1.5,1.484,1.484,0,0,0,1.469,1.5" transform="translate(1.726 9.341)" fill="#273a89" stroke="#273a89" stroke-width="1"/>
      <path id="Trazado_826938" data-name="Trazado 826938" d="M73.468,233.4A1.5,1.5,0,1,0,72,231.9a1.484,1.484,0,0,0,1.468,1.5" transform="translate(1.439 9.341)" fill="#273a89" stroke="#273a89" stroke-width="1"/>
      <path id="Trazado_826939" data-name="Trazado 826939" d="M87.869,219a1.5,1.5,0,1,0-1.469-1.5,1.485,1.485,0,0,0,1.469,1.5" transform="translate(1.726 8.757)" fill="#273a89" stroke="#273a89" stroke-width="1"/>
      <path id="Trazado_826940" data-name="Trazado 826940" d="M73.468,219A1.5,1.5,0,1,0,72,217.5a1.485,1.485,0,0,0,1.468,1.5" transform="translate(1.439 8.757)" fill="#273a89" stroke="#273a89" stroke-width="1"/>
      <path id="Trazado_826941" data-name="Trazado 826941" d="M66.268,226.2a1.5,1.5,0,1,0-1.468-1.5,1.484,1.484,0,0,0,1.468,1.5" transform="translate(1.295 9.049)" fill="#273a89" stroke="#273a89" stroke-width="1"/>
      <path id="Trazado_826942" data-name="Trazado 826942" d="M80.669,226.2a1.5,1.5,0,1,0-1.469-1.5,1.484,1.484,0,0,0,1.469,1.5" transform="translate(1.583 9.049)" fill="#273a89" stroke="#273a89" stroke-width="1"/>
      <path id="Trazado_826943" data-name="Trazado 826943" d="M66.268,211.8a1.5,1.5,0,1,0-1.468-1.5,1.484,1.484,0,0,0,1.468,1.5" transform="translate(1.295 8.465)" fill="#273a89" stroke="#273a89" stroke-width="1"/>
      <path id="Trazado_826944" data-name="Trazado 826944" d="M80.669,211.8a1.5,1.5,0,1,0-1.469-1.5,1.484,1.484,0,0,0,1.469,1.5" transform="translate(1.583 8.465)" fill="#273a89" stroke="#273a89" stroke-width="1"/>
      <path id="Trazado_826945" data-name="Trazado 826945" d="M59.069,233.4a1.5,1.5,0,1,0-1.469-1.5,1.483,1.483,0,0,0,1.469,1.5" transform="translate(1.151 9.341)" fill="#273a89" stroke="#273a89" stroke-width="1"/>
      <path id="Trazado_826946" data-name="Trazado 826946" d="M59.069,219a1.5,1.5,0,1,0-1.469-1.5,1.484,1.484,0,0,0,1.469,1.5" transform="translate(1.151 8.757)" fill="#273a89" stroke="#273a89" stroke-width="1"/>
      <path id="Trazado_826947" data-name="Trazado 826947" d="M87.869,204.6a1.5,1.5,0,1,0-1.469-1.5,1.484,1.484,0,0,0,1.469,1.5" transform="translate(1.726 8.173)" fill="#273a89" stroke="#273a89" stroke-width="1"/>
      <path id="Trazado_826948" data-name="Trazado 826948" d="M73.468,204.6A1.5,1.5,0,1,0,72,203.1a1.484,1.484,0,0,0,1.468,1.5" transform="translate(1.439 8.173)" fill="#273a89" stroke="#273a89" stroke-width="1"/>
      <path id="Trazado_826949" data-name="Trazado 826949" d="M59.069,204.6a1.5,1.5,0,1,0-1.469-1.5,1.483,1.483,0,0,0,1.469,1.5" transform="translate(1.151 8.173)" fill="#273a89" stroke="#273a89" stroke-width="1"/>
      <path id="Trazado_826950" data-name="Trazado 826950" d="M59.069,31.8A1.5,1.5,0,1,0,57.6,30.3a1.483,1.483,0,0,0,1.469,1.5" transform="translate(1.151 1.168)" fill="#273a89" stroke="#273a89" stroke-width="1"/>
      <path id="Trazado_826951" data-name="Trazado 826951" d="M44.669,31.8A1.5,1.5,0,1,0,43.2,30.3a1.485,1.485,0,0,0,1.468,1.5" transform="translate(0.863 1.168)" fill="#273a89" stroke="#273a89" stroke-width="1"/>
      <path id="Trazado_826952" data-name="Trazado 826952" d="M59.069,17.4A1.5,1.5,0,1,0,57.6,15.9a1.484,1.484,0,0,0,1.469,1.5" transform="translate(1.151 0.584)" fill="#273a89" stroke="#273a89" stroke-width="1"/>
      <path id="Trazado_826953" data-name="Trazado 826953" d="M44.669,17.4A1.5,1.5,0,1,0,43.2,15.9a1.486,1.486,0,0,0,1.468,1.5" transform="translate(0.863 0.584)" fill="#273a89" stroke="#273a89" stroke-width="1"/>
      <path id="Trazado_826954" data-name="Trazado 826954" d="M37.468,24.6A1.5,1.5,0,1,0,36,23.1a1.483,1.483,0,0,0,1.468,1.5" transform="translate(0.719 0.876)" fill="#273a89" stroke="#273a89" stroke-width="1"/>
      <path id="Trazado_826955" data-name="Trazado 826955" d="M51.869,24.6A1.5,1.5,0,1,0,50.4,23.1a1.484,1.484,0,0,0,1.469,1.5" transform="translate(1.007 0.876)" fill="#273a89" stroke="#273a89" stroke-width="1"/>
      <path id="Trazado_826956" data-name="Trazado 826956" d="M37.468,10.2A1.5,1.5,0,1,0,36,8.7a1.484,1.484,0,0,0,1.468,1.5" transform="translate(0.719 0.292)" fill="#273a89" stroke="#273a89" stroke-width="1"/>
      <path id="Trazado_826957" data-name="Trazado 826957" d="M51.869,10.2A1.5,1.5,0,1,0,50.4,8.7a1.485,1.485,0,0,0,1.469,1.5" transform="translate(1.007 0.292)" fill="#273a89" stroke="#273a89" stroke-width="1"/>
      <path id="Trazado_826958" data-name="Trazado 826958" d="M30.269,31.8A1.5,1.5,0,1,0,28.8,30.3a1.483,1.483,0,0,0,1.469,1.5" transform="translate(0.575 1.168)" fill="#273a89" stroke="#273a89" stroke-width="1"/>
      <path id="Trazado_826959" data-name="Trazado 826959" d="M30.269,17.4A1.5,1.5,0,1,0,28.8,15.9a1.484,1.484,0,0,0,1.469,1.5" transform="translate(0.575 0.584)" fill="#273a89" stroke="#273a89" stroke-width="1"/>
      <path id="Trazado_826960" data-name="Trazado 826960" d="M59.069,3a1.483,1.483,0,0,0,1.468-1.5,1.469,1.469,0,1,0-2.937,0A1.483,1.483,0,0,0,59.069,3" transform="translate(1.151)" fill="#273a89" stroke="#273a89" stroke-width="1"/>
      <path id="Trazado_826961" data-name="Trazado 826961" d="M44.669,3a1.485,1.485,0,0,0,1.47-1.5,1.469,1.469,0,1,0-2.938,0A1.482,1.482,0,0,0,44.669,3" transform="translate(0.863)" fill="#273a89" stroke="#273a89" stroke-width="1"/>
      <path id="Trazado_826962" data-name="Trazado 826962" d="M30.269,3a1.483,1.483,0,0,0,1.468-1.5,1.469,1.469,0,1,0-2.937,0A1.483,1.483,0,0,0,30.269,3" transform="translate(0.575)" fill="#273a89" stroke="#273a89" stroke-width="1"/>
      <path id="Trazado_826963" data-name="Trazado 826963" d="M59.069,60.6A1.5,1.5,0,1,0,57.6,59.1a1.482,1.482,0,0,0,1.469,1.5" transform="translate(1.151 2.335)" fill="#273a89" stroke="#273a89" stroke-width="1"/>
      <path id="Trazado_826964" data-name="Trazado 826964" d="M44.669,60.6A1.5,1.5,0,1,0,43.2,59.1a1.484,1.484,0,0,0,1.468,1.5" transform="translate(0.863 2.335)" fill="#273a89" stroke="#273a89" stroke-width="1"/>
      <path id="Trazado_826965" data-name="Trazado 826965" d="M59.069,46.2A1.5,1.5,0,1,0,57.6,44.7a1.484,1.484,0,0,0,1.469,1.5" transform="translate(1.151 1.751)" fill="#273a89" stroke="#273a89" stroke-width="1"/>
      <path id="Trazado_826966" data-name="Trazado 826966" d="M44.669,46.2A1.5,1.5,0,1,0,43.2,44.7a1.486,1.486,0,0,0,1.468,1.5" transform="translate(0.863 1.751)" fill="#273a89" stroke="#273a89" stroke-width="1"/>
      <path id="Trazado_826967" data-name="Trazado 826967" d="M37.468,53.4A1.5,1.5,0,1,0,36,51.9a1.484,1.484,0,0,0,1.468,1.5" transform="translate(0.719 2.043)" fill="#273a89" stroke="#273a89" stroke-width="1"/>
      <path id="Trazado_826968" data-name="Trazado 826968" d="M51.869,53.4A1.5,1.5,0,1,0,50.4,51.9a1.485,1.485,0,0,0,1.469,1.5" transform="translate(1.007 2.043)" fill="#273a89" stroke="#273a89" stroke-width="1"/>
      <path id="Trazado_826969" data-name="Trazado 826969" d="M37.468,39A1.5,1.5,0,1,0,36,37.5,1.484,1.484,0,0,0,37.468,39" transform="translate(0.719 1.459)" fill="#273a89" stroke="#273a89" stroke-width="1"/>
      <path id="Trazado_826970" data-name="Trazado 826970" d="M51.869,39A1.5,1.5,0,1,0,50.4,37.5,1.485,1.485,0,0,0,51.869,39" transform="translate(1.007 1.459)" fill="#273a89" stroke="#273a89" stroke-width="1"/>
      <path id="Trazado_826971" data-name="Trazado 826971" d="M30.269,60.6A1.5,1.5,0,1,0,28.8,59.1a1.482,1.482,0,0,0,1.469,1.5" transform="translate(0.575 2.335)" fill="#273a89" stroke="#273a89" stroke-width="1"/>
      <path id="Trazado_826972" data-name="Trazado 826972" d="M30.269,46.2A1.5,1.5,0,1,0,28.8,44.7a1.484,1.484,0,0,0,1.469,1.5" transform="translate(0.575 1.751)" fill="#273a89" stroke="#273a89" stroke-width="1"/>
      <path id="Trazado_826973" data-name="Trazado 826973" d="M59.069,31.8A1.5,1.5,0,1,0,57.6,30.3a1.483,1.483,0,0,0,1.469,1.5" transform="translate(1.151 1.168)" fill="#273a89" stroke="#273a89" stroke-width="1"/>
      <path id="Trazado_826974" data-name="Trazado 826974" d="M44.669,31.8A1.5,1.5,0,1,0,43.2,30.3a1.485,1.485,0,0,0,1.468,1.5" transform="translate(0.863 1.168)" fill="#273a89" stroke="#273a89" stroke-width="1"/>
      <path id="Trazado_826975" data-name="Trazado 826975" d="M30.269,31.8A1.5,1.5,0,1,0,28.8,30.3a1.483,1.483,0,0,0,1.469,1.5" transform="translate(0.575 1.168)" fill="#273a89" stroke="#273a89" stroke-width="1"/>
      <path id="Trazado_826976" data-name="Trazado 826976" d="M59.069,89.4A1.5,1.5,0,1,0,57.6,87.9a1.483,1.483,0,0,0,1.469,1.5" transform="translate(1.151 3.503)" fill="#273a89" stroke="#273a89" stroke-width="1"/>
      <path id="Trazado_826977" data-name="Trazado 826977" d="M44.669,89.4A1.5,1.5,0,1,0,43.2,87.9a1.485,1.485,0,0,0,1.468,1.5" transform="translate(0.863 3.503)" fill="#273a89" stroke="#273a89" stroke-width="1"/>
      <path id="Trazado_826978" data-name="Trazado 826978" d="M59.069,75A1.5,1.5,0,1,0,57.6,73.5,1.484,1.484,0,0,0,59.069,75" transform="translate(1.151 2.919)" fill="#273a89" stroke="#273a89" stroke-width="1"/>
      <path id="Trazado_826979" data-name="Trazado 826979" d="M44.669,75A1.5,1.5,0,1,0,43.2,73.5,1.486,1.486,0,0,0,44.669,75" transform="translate(0.863 2.919)" fill="#273a89" stroke="#273a89" stroke-width="1"/>
      <path id="Trazado_826980" data-name="Trazado 826980" d="M37.468,82.2A1.5,1.5,0,1,0,36,80.7a1.484,1.484,0,0,0,1.468,1.5" transform="translate(0.719 3.211)" fill="#273a89" stroke="#273a89" stroke-width="1"/>
      <path id="Trazado_826981" data-name="Trazado 826981" d="M51.869,82.2A1.5,1.5,0,1,0,50.4,80.7a1.485,1.485,0,0,0,1.469,1.5" transform="translate(1.007 3.211)" fill="#273a89" stroke="#273a89" stroke-width="1"/>
      <path id="Trazado_826982" data-name="Trazado 826982" d="M37.468,67.8A1.5,1.5,0,1,0,36,66.3a1.484,1.484,0,0,0,1.468,1.5" transform="translate(0.719 2.627)" fill="#273a89" stroke="#273a89" stroke-width="1"/>
      <path id="Trazado_826983" data-name="Trazado 826983" d="M51.869,67.8A1.5,1.5,0,1,0,50.4,66.3a1.485,1.485,0,0,0,1.469,1.5" transform="translate(1.007 2.627)" fill="#273a89" stroke="#273a89" stroke-width="1"/>
      <path id="Trazado_826984" data-name="Trazado 826984" d="M30.269,89.4A1.5,1.5,0,1,0,28.8,87.9a1.483,1.483,0,0,0,1.469,1.5" transform="translate(0.575 3.503)" fill="#273a89" stroke="#273a89" stroke-width="1"/>
      <path id="Trazado_826985" data-name="Trazado 826985" d="M30.269,75A1.5,1.5,0,1,0,28.8,73.5,1.484,1.484,0,0,0,30.269,75" transform="translate(0.575 2.919)" fill="#273a89" stroke="#273a89" stroke-width="1"/>
      <path id="Trazado_826986" data-name="Trazado 826986" d="M59.069,60.6A1.5,1.5,0,1,0,57.6,59.1a1.483,1.483,0,0,0,1.469,1.5" transform="translate(1.151 2.335)" fill="#273a89" stroke="#273a89" stroke-width="1"/>
      <path id="Trazado_826987" data-name="Trazado 826987" d="M44.669,60.6A1.5,1.5,0,1,0,43.2,59.1a1.485,1.485,0,0,0,1.468,1.5" transform="translate(0.863 2.335)" fill="#273a89" stroke="#273a89" stroke-width="1"/>
      <path id="Trazado_826988" data-name="Trazado 826988" d="M30.269,60.6A1.5,1.5,0,1,0,28.8,59.1a1.483,1.483,0,0,0,1.469,1.5" transform="translate(0.575 2.335)" fill="#273a89" stroke="#273a89" stroke-width="1"/>
      <path id="Trazado_826989" data-name="Trazado 826989" d="M59.069,118.2a1.5,1.5,0,1,0-1.469-1.5,1.483,1.483,0,0,0,1.469,1.5" transform="translate(1.151 4.67)" fill="#273a89" stroke="#273a89" stroke-width="1"/>
      <path id="Trazado_826990" data-name="Trazado 826990" d="M44.669,118.2a1.5,1.5,0,1,0-1.468-1.5,1.485,1.485,0,0,0,1.468,1.5" transform="translate(0.863 4.67)" fill="#273a89" stroke="#273a89" stroke-width="1"/>
      <path id="Trazado_826991" data-name="Trazado 826991" d="M59.069,103.8a1.5,1.5,0,1,0-1.469-1.5,1.484,1.484,0,0,0,1.469,1.5" transform="translate(1.151 4.087)" fill="#273a89" stroke="#273a89" stroke-width="1"/>
      <path id="Trazado_826992" data-name="Trazado 826992" d="M44.669,103.8a1.5,1.5,0,1,0-1.468-1.5,1.486,1.486,0,0,0,1.468,1.5" transform="translate(0.863 4.087)" fill="#273a89" stroke="#273a89" stroke-width="1"/>
      <path id="Trazado_826993" data-name="Trazado 826993" d="M37.468,111A1.5,1.5,0,1,0,36,109.5a1.484,1.484,0,0,0,1.468,1.5" transform="translate(0.719 4.378)" fill="#273a89" stroke="#273a89" stroke-width="1"/>
      <path id="Trazado_826994" data-name="Trazado 826994" d="M51.869,111a1.5,1.5,0,1,0-1.469-1.5,1.485,1.485,0,0,0,1.469,1.5" transform="translate(1.007 4.378)" fill="#273a89" stroke="#273a89" stroke-width="1"/>
      <path id="Trazado_826995" data-name="Trazado 826995" d="M37.468,96.6A1.5,1.5,0,1,0,36,95.1a1.484,1.484,0,0,0,1.468,1.5" transform="translate(0.719 3.795)" fill="#273a89" stroke="#273a89" stroke-width="1"/>
      <path id="Trazado_826996" data-name="Trazado 826996" d="M51.869,96.6A1.5,1.5,0,1,0,50.4,95.1a1.485,1.485,0,0,0,1.469,1.5" transform="translate(1.007 3.795)" fill="#273a89" stroke="#273a89" stroke-width="1"/>
      <path id="Trazado_826997" data-name="Trazado 826997" d="M30.269,118.2a1.5,1.5,0,1,0-1.469-1.5,1.483,1.483,0,0,0,1.469,1.5" transform="translate(0.575 4.67)" fill="#273a89" stroke="#273a89" stroke-width="1"/>
      <path id="Trazado_826998" data-name="Trazado 826998" d="M30.269,103.8a1.5,1.5,0,1,0-1.469-1.5,1.484,1.484,0,0,0,1.469,1.5" transform="translate(0.575 4.087)" fill="#273a89" stroke="#273a89" stroke-width="1"/>
      <path id="Trazado_826999" data-name="Trazado 826999" d="M59.069,89.4A1.5,1.5,0,1,0,57.6,87.9a1.483,1.483,0,0,0,1.469,1.5" transform="translate(1.151 3.503)" fill="#273a89" stroke="#273a89" stroke-width="1"/>
      <path id="Trazado_827000" data-name="Trazado 827000" d="M44.669,89.4A1.5,1.5,0,1,0,43.2,87.9a1.485,1.485,0,0,0,1.468,1.5" transform="translate(0.863 3.503)" fill="#273a89" stroke="#273a89" stroke-width="1"/>
      <path id="Trazado_827001" data-name="Trazado 827001" d="M30.269,89.4A1.5,1.5,0,1,0,28.8,87.9a1.483,1.483,0,0,0,1.469,1.5" transform="translate(0.575 3.503)" fill="#273a89" stroke="#273a89" stroke-width="1"/>
      <path id="Trazado_827002" data-name="Trazado 827002" d="M59.069,147a1.5,1.5,0,1,0-1.469-1.5,1.483,1.483,0,0,0,1.469,1.5" transform="translate(1.151 5.838)" fill="#273a89" stroke="#273a89" stroke-width="1"/>
      <path id="Trazado_827003" data-name="Trazado 827003" d="M44.669,147a1.5,1.5,0,1,0-1.468-1.5,1.485,1.485,0,0,0,1.468,1.5" transform="translate(0.863 5.838)" fill="#273a89" stroke="#273a89" stroke-width="1"/>
      <path id="Trazado_827004" data-name="Trazado 827004" d="M59.069,132.6a1.5,1.5,0,1,0-1.469-1.5,1.484,1.484,0,0,0,1.469,1.5" transform="translate(1.151 5.254)" fill="#273a89" stroke="#273a89" stroke-width="1"/>
      <path id="Trazado_827005" data-name="Trazado 827005" d="M44.669,132.6a1.5,1.5,0,1,0-1.468-1.5,1.486,1.486,0,0,0,1.468,1.5" transform="translate(0.863 5.254)" fill="#273a89" stroke="#273a89" stroke-width="1"/>
      <path id="Trazado_827006" data-name="Trazado 827006" d="M37.468,139.8A1.5,1.5,0,1,0,36,138.3a1.484,1.484,0,0,0,1.468,1.5" transform="translate(0.719 5.546)" fill="#273a89" stroke="#273a89" stroke-width="1"/>
      <path id="Trazado_827007" data-name="Trazado 827007" d="M51.869,139.8a1.5,1.5,0,1,0-1.469-1.5,1.485,1.485,0,0,0,1.469,1.5" transform="translate(1.007 5.546)" fill="#273a89" stroke="#273a89" stroke-width="1"/>
      <path id="Trazado_827008" data-name="Trazado 827008" d="M37.468,125.4A1.5,1.5,0,1,0,36,123.9a1.484,1.484,0,0,0,1.468,1.5" transform="translate(0.719 4.962)" fill="#273a89" stroke="#273a89" stroke-width="1"/>
      <path id="Trazado_827009" data-name="Trazado 827009" d="M51.869,125.4a1.5,1.5,0,1,0-1.469-1.5,1.485,1.485,0,0,0,1.469,1.5" transform="translate(1.007 4.962)" fill="#273a89" stroke="#273a89" stroke-width="1"/>
      <path id="Trazado_827010" data-name="Trazado 827010" d="M30.269,147a1.5,1.5,0,1,0-1.469-1.5,1.483,1.483,0,0,0,1.469,1.5" transform="translate(0.575 5.838)" fill="#273a89" stroke="#273a89" stroke-width="1"/>
      <path id="Trazado_827011" data-name="Trazado 827011" d="M30.269,132.6a1.5,1.5,0,1,0-1.469-1.5,1.484,1.484,0,0,0,1.469,1.5" transform="translate(0.575 5.254)" fill="#273a89" stroke="#273a89" stroke-width="1"/>
      <path id="Trazado_827012" data-name="Trazado 827012" d="M59.069,118.2a1.5,1.5,0,1,0-1.469-1.5,1.483,1.483,0,0,0,1.469,1.5" transform="translate(1.151 4.67)" fill="#273a89" stroke="#273a89" stroke-width="1"/>
      <path id="Trazado_827013" data-name="Trazado 827013" d="M44.669,118.2a1.5,1.5,0,1,0-1.468-1.5,1.485,1.485,0,0,0,1.468,1.5" transform="translate(0.863 4.67)" fill="#273a89" stroke="#273a89" stroke-width="1"/>
      <path id="Trazado_827014" data-name="Trazado 827014" d="M30.269,118.2a1.5,1.5,0,1,0-1.469-1.5,1.483,1.483,0,0,0,1.469,1.5" transform="translate(0.575 4.67)" fill="#273a89" stroke="#273a89" stroke-width="1"/>
      <path id="Trazado_827015" data-name="Trazado 827015" d="M59.069,175.8a1.5,1.5,0,1,0-1.469-1.5,1.483,1.483,0,0,0,1.469,1.5" transform="translate(1.151 7.006)" fill="#273a89" stroke="#273a89" stroke-width="1"/>
      <path id="Trazado_827016" data-name="Trazado 827016" d="M44.669,175.8a1.5,1.5,0,1,0-1.468-1.5,1.485,1.485,0,0,0,1.468,1.5" transform="translate(0.863 7.006)" fill="#273a89" stroke="#273a89" stroke-width="1"/>
      <path id="Trazado_827017" data-name="Trazado 827017" d="M59.069,161.4a1.5,1.5,0,1,0-1.469-1.5,1.484,1.484,0,0,0,1.469,1.5" transform="translate(1.151 6.422)" fill="#273a89" stroke="#273a89" stroke-width="1"/>
      <path id="Trazado_827018" data-name="Trazado 827018" d="M44.669,161.4a1.5,1.5,0,1,0-1.468-1.5,1.486,1.486,0,0,0,1.468,1.5" transform="translate(0.863 6.422)" fill="#273a89" stroke="#273a89" stroke-width="1"/>
      <path id="Trazado_827019" data-name="Trazado 827019" d="M37.468,168.6A1.5,1.5,0,1,0,36,167.1a1.484,1.484,0,0,0,1.468,1.5" transform="translate(0.719 6.714)" fill="#273a89" stroke="#273a89" stroke-width="1"/>
      <path id="Trazado_827020" data-name="Trazado 827020" d="M51.869,168.6a1.5,1.5,0,1,0-1.469-1.5,1.485,1.485,0,0,0,1.469,1.5" transform="translate(1.007 6.714)" fill="#273a89" stroke="#273a89" stroke-width="1"/>
      <path id="Trazado_827021" data-name="Trazado 827021" d="M37.468,154.2A1.5,1.5,0,1,0,36,152.7a1.483,1.483,0,0,0,1.468,1.5" transform="translate(0.719 6.13)" fill="#273a89" stroke="#273a89" stroke-width="1"/>
      <path id="Trazado_827022" data-name="Trazado 827022" d="M51.869,154.2a1.5,1.5,0,1,0-1.469-1.5,1.484,1.484,0,0,0,1.469,1.5" transform="translate(1.007 6.13)" fill="#273a89" stroke="#273a89" stroke-width="1"/>
      <path id="Trazado_827023" data-name="Trazado 827023" d="M30.269,175.8a1.5,1.5,0,1,0-1.469-1.5,1.483,1.483,0,0,0,1.469,1.5" transform="translate(0.575 7.006)" fill="#273a89" stroke="#273a89" stroke-width="1"/>
      <path id="Trazado_827024" data-name="Trazado 827024" d="M30.269,161.4a1.5,1.5,0,1,0-1.469-1.5,1.484,1.484,0,0,0,1.469,1.5" transform="translate(0.575 6.422)" fill="#273a89" stroke="#273a89" stroke-width="1"/>
      <path id="Trazado_827025" data-name="Trazado 827025" d="M59.069,147a1.5,1.5,0,1,0-1.469-1.5,1.483,1.483,0,0,0,1.469,1.5" transform="translate(1.151 5.838)" fill="#273a89" stroke="#273a89" stroke-width="1"/>
      <path id="Trazado_827026" data-name="Trazado 827026" d="M44.669,147a1.5,1.5,0,1,0-1.468-1.5,1.485,1.485,0,0,0,1.468,1.5" transform="translate(0.863 5.838)" fill="#273a89" stroke="#273a89" stroke-width="1"/>
      <path id="Trazado_827027" data-name="Trazado 827027" d="M30.269,147a1.5,1.5,0,1,0-1.469-1.5,1.483,1.483,0,0,0,1.469,1.5" transform="translate(0.575 5.838)" fill="#273a89" stroke="#273a89" stroke-width="1"/>
      <path id="Trazado_827028" data-name="Trazado 827028" d="M59.069,204.6a1.5,1.5,0,1,0-1.469-1.5,1.483,1.483,0,0,0,1.469,1.5" transform="translate(1.151 8.173)" fill="#273a89" stroke="#273a89" stroke-width="1"/>
      <path id="Trazado_827029" data-name="Trazado 827029" d="M44.669,204.6a1.5,1.5,0,1,0-1.468-1.5,1.485,1.485,0,0,0,1.468,1.5" transform="translate(0.863 8.173)" fill="#273a89" stroke="#273a89" stroke-width="1"/>
      <path id="Trazado_827030" data-name="Trazado 827030" d="M59.069,190.2a1.5,1.5,0,1,0-1.469-1.5,1.484,1.484,0,0,0,1.469,1.5" transform="translate(1.151 7.589)" fill="#273a89" stroke="#273a89" stroke-width="1"/>
      <path id="Trazado_827031" data-name="Trazado 827031" d="M44.669,190.2a1.5,1.5,0,1,0-1.468-1.5,1.486,1.486,0,0,0,1.468,1.5" transform="translate(0.863 7.589)" fill="#273a89" stroke="#273a89" stroke-width="1"/>
      <path id="Trazado_827032" data-name="Trazado 827032" d="M37.468,197.4A1.5,1.5,0,1,0,36,195.9a1.484,1.484,0,0,0,1.468,1.5" transform="translate(0.719 7.881)" fill="#273a89" stroke="#273a89" stroke-width="1"/>
      <path id="Trazado_827033" data-name="Trazado 827033" d="M51.869,197.4a1.5,1.5,0,1,0-1.469-1.5,1.485,1.485,0,0,0,1.469,1.5" transform="translate(1.007 7.881)" fill="#273a89" stroke="#273a89" stroke-width="1"/>
      <path id="Trazado_827034" data-name="Trazado 827034" d="M37.468,183A1.5,1.5,0,1,0,36,181.5a1.484,1.484,0,0,0,1.468,1.5" transform="translate(0.719 7.297)" fill="#273a89" stroke="#273a89" stroke-width="1"/>
      <path id="Trazado_827035" data-name="Trazado 827035" d="M51.869,183a1.5,1.5,0,1,0-1.469-1.5,1.485,1.485,0,0,0,1.469,1.5" transform="translate(1.007 7.297)" fill="#273a89" stroke="#273a89" stroke-width="1"/>
      <path id="Trazado_827036" data-name="Trazado 827036" d="M30.269,204.6a1.5,1.5,0,1,0-1.469-1.5,1.483,1.483,0,0,0,1.469,1.5" transform="translate(0.575 8.173)" fill="#273a89" stroke="#273a89" stroke-width="1"/>
      <path id="Trazado_827037" data-name="Trazado 827037" d="M30.269,190.2a1.5,1.5,0,1,0-1.469-1.5,1.484,1.484,0,0,0,1.469,1.5" transform="translate(0.575 7.589)" fill="#273a89" stroke="#273a89" stroke-width="1"/>
      <path id="Trazado_827038" data-name="Trazado 827038" d="M59.069,175.8a1.5,1.5,0,1,0-1.469-1.5,1.483,1.483,0,0,0,1.469,1.5" transform="translate(1.151 7.006)" fill="#273a89" stroke="#273a89" stroke-width="1"/>
      <path id="Trazado_827039" data-name="Trazado 827039" d="M44.669,175.8a1.5,1.5,0,1,0-1.468-1.5,1.485,1.485,0,0,0,1.468,1.5" transform="translate(0.863 7.006)" fill="#273a89" stroke="#273a89" stroke-width="1"/>
      <path id="Trazado_827040" data-name="Trazado 827040" d="M30.269,175.8a1.5,1.5,0,1,0-1.469-1.5,1.483,1.483,0,0,0,1.469,1.5" transform="translate(0.575 7.006)" fill="#273a89" stroke="#273a89" stroke-width="1"/>
      <path id="Trazado_827041" data-name="Trazado 827041" d="M59.069,233.4a1.5,1.5,0,1,0-1.469-1.5,1.483,1.483,0,0,0,1.469,1.5" transform="translate(1.151 9.341)" fill="#273a89" stroke="#273a89" stroke-width="1"/>
      <path id="Trazado_827042" data-name="Trazado 827042" d="M44.669,233.4a1.5,1.5,0,1,0-1.468-1.5,1.485,1.485,0,0,0,1.468,1.5" transform="translate(0.863 9.341)" fill="#273a89" stroke="#273a89" stroke-width="1"/>
      <path id="Trazado_827043" data-name="Trazado 827043" d="M59.069,219a1.5,1.5,0,1,0-1.469-1.5,1.484,1.484,0,0,0,1.469,1.5" transform="translate(1.151 8.757)" fill="#273a89" stroke="#273a89" stroke-width="1"/>
      <path id="Trazado_827044" data-name="Trazado 827044" d="M44.669,219a1.5,1.5,0,1,0-1.468-1.5,1.486,1.486,0,0,0,1.468,1.5" transform="translate(0.863 8.757)" fill="#273a89" stroke="#273a89" stroke-width="1"/>
      <path id="Trazado_827045" data-name="Trazado 827045" d="M37.468,226.2a1.5,1.5,0,1,0-1.468-1.5,1.484,1.484,0,0,0,1.468,1.5" transform="translate(0.719 9.049)" fill="#273a89" stroke="#273a89" stroke-width="1"/>
      <path id="Trazado_827046" data-name="Trazado 827046" d="M51.869,226.2a1.5,1.5,0,1,0-1.469-1.5,1.485,1.485,0,0,0,1.469,1.5" transform="translate(1.007 9.049)" fill="#273a89" stroke="#273a89" stroke-width="1"/>
      <path id="Trazado_827047" data-name="Trazado 827047" d="M37.468,211.8A1.5,1.5,0,1,0,36,210.3a1.484,1.484,0,0,0,1.468,1.5" transform="translate(0.719 8.465)" fill="#273a89" stroke="#273a89" stroke-width="1"/>
      <path id="Trazado_827048" data-name="Trazado 827048" d="M51.869,211.8a1.5,1.5,0,1,0-1.469-1.5,1.485,1.485,0,0,0,1.469,1.5" transform="translate(1.007 8.465)" fill="#273a89" stroke="#273a89" stroke-width="1"/>
      <path id="Trazado_827049" data-name="Trazado 827049" d="M30.269,233.4a1.5,1.5,0,1,0-1.469-1.5,1.483,1.483,0,0,0,1.469,1.5" transform="translate(0.575 9.341)" fill="#273a89" stroke="#273a89" stroke-width="1"/>
      <path id="Trazado_827050" data-name="Trazado 827050" d="M30.269,219a1.5,1.5,0,1,0-1.469-1.5,1.484,1.484,0,0,0,1.469,1.5" transform="translate(0.575 8.757)" fill="#273a89" stroke="#273a89" stroke-width="1"/>
      <path id="Trazado_827051" data-name="Trazado 827051" d="M59.069,204.6a1.5,1.5,0,1,0-1.469-1.5,1.483,1.483,0,0,0,1.469,1.5" transform="translate(1.151 8.173)" fill="#273a89" stroke="#273a89" stroke-width="1"/>
      <path id="Trazado_827052" data-name="Trazado 827052" d="M44.669,204.6a1.5,1.5,0,1,0-1.468-1.5,1.485,1.485,0,0,0,1.468,1.5" transform="translate(0.863 8.173)" fill="#273a89" stroke="#273a89" stroke-width="1"/>
      <path id="Trazado_827053" data-name="Trazado 827053" d="M30.269,204.6a1.5,1.5,0,1,0-1.469-1.5,1.483,1.483,0,0,0,1.469,1.5" transform="translate(0.575 8.173)" fill="#273a89" stroke="#273a89" stroke-width="1"/>
      <path id="Trazado_827054" data-name="Trazado 827054" d="M30.269,31.8A1.5,1.5,0,1,0,28.8,30.3a1.483,1.483,0,0,0,1.469,1.5" transform="translate(0.575 1.168)" fill="#273a89" stroke="#273a89" stroke-width="1"/>
      <path id="Trazado_827055" data-name="Trazado 827055" d="M15.869,31.8A1.5,1.5,0,1,0,14.4,30.3a1.485,1.485,0,0,0,1.468,1.5" transform="translate(0.288 1.168)" fill="#273a89" stroke="#273a89" stroke-width="1"/>
      <path id="Trazado_827056" data-name="Trazado 827056" d="M30.269,17.4A1.5,1.5,0,1,0,28.8,15.9a1.484,1.484,0,0,0,1.469,1.5" transform="translate(0.575 0.584)" fill="#273a89" stroke="#273a89" stroke-width="1"/>
      <path id="Trazado_827057" data-name="Trazado 827057" d="M15.869,17.4A1.5,1.5,0,1,0,14.4,15.9a1.486,1.486,0,0,0,1.468,1.5" transform="translate(0.288 0.584)" fill="#273a89" stroke="#273a89" stroke-width="1"/>
      <path id="Trazado_827058" data-name="Trazado 827058" d="M8.669,24.6A1.5,1.5,0,1,0,7.2,23.1a1.483,1.483,0,0,0,1.468,1.5" transform="translate(0.144 0.876)" fill="#273a89" stroke="#273a89" stroke-width="1"/>
      <path id="Trazado_827059" data-name="Trazado 827059" d="M23.069,24.6A1.5,1.5,0,1,0,21.6,23.1a1.483,1.483,0,0,0,1.469,1.5" transform="translate(0.432 0.876)" fill="#273a89" stroke="#273a89" stroke-width="1"/>
      <path id="Trazado_827060" data-name="Trazado 827060" d="M8.669,10.2A1.5,1.5,0,1,0,7.2,8.7a1.484,1.484,0,0,0,1.468,1.5" transform="translate(0.144 0.292)" fill="#273a89" stroke="#273a89" stroke-width="1"/>
      <path id="Trazado_827061" data-name="Trazado 827061" d="M23.069,10.2A1.5,1.5,0,1,0,21.6,8.7a1.484,1.484,0,0,0,1.469,1.5" transform="translate(0.432 0.292)" fill="#273a89" stroke="#273a89" stroke-width="1"/>
      <path id="Trazado_827062" data-name="Trazado 827062" d="M1.469,31.8a1.5,1.5,0,0,0,0-3,1.5,1.5,0,0,0,0,3" transform="translate(0 1.168)" fill="#273a89" stroke="#273a89" stroke-width="1"/>
      <path id="Trazado_827063" data-name="Trazado 827063" d="M1.469,17.4a1.5,1.5,0,0,0,0-3,1.5,1.5,0,0,0,0,3" transform="translate(0 0.584)" fill="#273a89" stroke="#273a89" stroke-width="1"/>
      <path id="Trazado_827064" data-name="Trazado 827064" d="M30.269,3a1.483,1.483,0,0,0,1.468-1.5,1.469,1.469,0,1,0-2.937,0A1.483,1.483,0,0,0,30.269,3" transform="translate(0.575)" fill="#273a89" stroke="#273a89" stroke-width="1"/>
      <path id="Trazado_827065" data-name="Trazado 827065" d="M15.869,3a1.485,1.485,0,0,0,1.47-1.5,1.469,1.469,0,1,0-2.938,0A1.482,1.482,0,0,0,15.869,3" transform="translate(0.288)" fill="#273a89" stroke="#273a89" stroke-width="1"/>
      <path id="Trazado_827066" data-name="Trazado 827066" d="M1.469,3A1.483,1.483,0,0,0,2.937,1.5,1.483,1.483,0,0,0,1.469,0,1.484,1.484,0,0,0,0,1.5,1.483,1.483,0,0,0,1.469,3" fill="#273a89" stroke="#273a89" stroke-width="1"/>
      <path id="Trazado_827067" data-name="Trazado 827067" d="M30.269,60.6A1.5,1.5,0,1,0,28.8,59.1a1.482,1.482,0,0,0,1.469,1.5" transform="translate(0.575 2.335)" fill="#273a89" stroke="#273a89" stroke-width="1"/>
      <path id="Trazado_827068" data-name="Trazado 827068" d="M15.869,60.6A1.5,1.5,0,1,0,14.4,59.1a1.484,1.484,0,0,0,1.468,1.5" transform="translate(0.288 2.335)" fill="#273a89" stroke="#273a89" stroke-width="1"/>
      <path id="Trazado_827069" data-name="Trazado 827069" d="M30.269,46.2A1.5,1.5,0,1,0,28.8,44.7a1.484,1.484,0,0,0,1.469,1.5" transform="translate(0.575 1.751)" fill="#273a89" stroke="#273a89" stroke-width="1"/>
      <path id="Trazado_827070" data-name="Trazado 827070" d="M15.869,46.2A1.5,1.5,0,1,0,14.4,44.7a1.486,1.486,0,0,0,1.468,1.5" transform="translate(0.288 1.751)" fill="#273a89" stroke="#273a89" stroke-width="1"/>
      <path id="Trazado_827071" data-name="Trazado 827071" d="M8.669,53.4A1.5,1.5,0,1,0,7.2,51.9a1.484,1.484,0,0,0,1.468,1.5" transform="translate(0.144 2.043)" fill="#273a89" stroke="#273a89" stroke-width="1"/>
      <path id="Trazado_827072" data-name="Trazado 827072" d="M23.069,53.4A1.5,1.5,0,1,0,21.6,51.9a1.484,1.484,0,0,0,1.469,1.5" transform="translate(0.432 2.043)" fill="#273a89" stroke="#273a89" stroke-width="1"/>
      <path id="Trazado_827073" data-name="Trazado 827073" d="M8.669,39A1.5,1.5,0,1,0,7.2,37.5,1.484,1.484,0,0,0,8.669,39" transform="translate(0.144 1.459)" fill="#273a89" stroke="#273a89" stroke-width="1"/>
      <path id="Trazado_827074" data-name="Trazado 827074" d="M23.069,39A1.5,1.5,0,1,0,21.6,37.5,1.484,1.484,0,0,0,23.069,39" transform="translate(0.432 1.459)" fill="#273a89" stroke="#273a89" stroke-width="1"/>
      <path id="Trazado_827075" data-name="Trazado 827075" d="M1.469,60.6a1.5,1.5,0,0,0,0-2.995,1.5,1.5,0,0,0,0,2.995" transform="translate(0 2.335)" fill="#273a89" stroke="#273a89" stroke-width="1"/>
      <path id="Trazado_827076" data-name="Trazado 827076" d="M1.469,46.2a1.5,1.5,0,0,0,0-3,1.5,1.5,0,0,0,0,3" transform="translate(0 1.751)" fill="#273a89" stroke="#273a89" stroke-width="1"/>
      <path id="Trazado_827077" data-name="Trazado 827077" d="M30.269,31.8A1.5,1.5,0,1,0,28.8,30.3a1.483,1.483,0,0,0,1.469,1.5" transform="translate(0.575 1.168)" fill="#273a89" stroke="#273a89" stroke-width="1"/>
      <path id="Trazado_827078" data-name="Trazado 827078" d="M15.869,31.8A1.5,1.5,0,1,0,14.4,30.3a1.485,1.485,0,0,0,1.468,1.5" transform="translate(0.288 1.168)" fill="#273a89" stroke="#273a89" stroke-width="1"/>
      <path id="Trazado_827079" data-name="Trazado 827079" d="M1.469,31.8a1.5,1.5,0,0,0,0-3,1.5,1.5,0,0,0,0,3" transform="translate(0 1.168)" fill="#273a89" stroke="#273a89" stroke-width="1"/>
      <path id="Trazado_827080" data-name="Trazado 827080" d="M30.269,89.4A1.5,1.5,0,1,0,28.8,87.9a1.483,1.483,0,0,0,1.469,1.5" transform="translate(0.575 3.503)" fill="#273a89" stroke="#273a89" stroke-width="1"/>
      <path id="Trazado_827081" data-name="Trazado 827081" d="M15.869,89.4A1.5,1.5,0,1,0,14.4,87.9a1.485,1.485,0,0,0,1.468,1.5" transform="translate(0.288 3.503)" fill="#273a89" stroke="#273a89" stroke-width="1"/>
      <path id="Trazado_827082" data-name="Trazado 827082" d="M30.269,75A1.5,1.5,0,1,0,28.8,73.5,1.484,1.484,0,0,0,30.269,75" transform="translate(0.575 2.919)" fill="#273a89" stroke="#273a89" stroke-width="1"/>
      <path id="Trazado_827083" data-name="Trazado 827083" d="M15.869,75A1.5,1.5,0,1,0,14.4,73.5,1.486,1.486,0,0,0,15.869,75" transform="translate(0.288 2.919)" fill="#273a89" stroke="#273a89" stroke-width="1"/>
      <path id="Trazado_827084" data-name="Trazado 827084" d="M8.669,82.2A1.5,1.5,0,1,0,7.2,80.7a1.484,1.484,0,0,0,1.468,1.5" transform="translate(0.144 3.211)" fill="#273a89" stroke="#273a89" stroke-width="1"/>
      <path id="Trazado_827085" data-name="Trazado 827085" d="M23.069,82.2A1.5,1.5,0,1,0,21.6,80.7a1.484,1.484,0,0,0,1.469,1.5" transform="translate(0.432 3.211)" fill="#273a89" stroke="#273a89" stroke-width="1"/>
      <path id="Trazado_827086" data-name="Trazado 827086" d="M8.669,67.8A1.5,1.5,0,1,0,7.2,66.3a1.484,1.484,0,0,0,1.468,1.5" transform="translate(0.144 2.627)" fill="#273a89" stroke="#273a89" stroke-width="1"/>
      <path id="Trazado_827087" data-name="Trazado 827087" d="M23.069,67.8A1.5,1.5,0,1,0,21.6,66.3a1.484,1.484,0,0,0,1.469,1.5" transform="translate(0.432 2.627)" fill="#273a89" stroke="#273a89" stroke-width="1"/>
      <path id="Trazado_827088" data-name="Trazado 827088" d="M1.469,89.4a1.5,1.5,0,0,0,0-3,1.5,1.5,0,0,0,0,3" transform="translate(0 3.503)" fill="#273a89" stroke="#273a89" stroke-width="1"/>
      <path id="Trazado_827089" data-name="Trazado 827089" d="M1.469,75a1.5,1.5,0,0,0,0-3,1.5,1.5,0,0,0,0,3" transform="translate(0 2.919)" fill="#273a89" stroke="#273a89" stroke-width="1"/>
      <path id="Trazado_827090" data-name="Trazado 827090" d="M30.269,60.6A1.5,1.5,0,1,0,28.8,59.1a1.483,1.483,0,0,0,1.469,1.5" transform="translate(0.575 2.335)" fill="#273a89" stroke="#273a89" stroke-width="1"/>
      <path id="Trazado_827091" data-name="Trazado 827091" d="M15.869,60.6A1.5,1.5,0,1,0,14.4,59.1a1.485,1.485,0,0,0,1.468,1.5" transform="translate(0.288 2.335)" fill="#273a89" stroke="#273a89" stroke-width="1"/>
      <path id="Trazado_827092" data-name="Trazado 827092" d="M1.469,60.6a1.5,1.5,0,0,0,0-3,1.5,1.5,0,0,0,0,3" transform="translate(0 2.335)" fill="#273a89" stroke="#273a89" stroke-width="1"/>
      <path id="Trazado_827093" data-name="Trazado 827093" d="M30.269,118.2a1.5,1.5,0,1,0-1.469-1.5,1.483,1.483,0,0,0,1.469,1.5" transform="translate(0.575 4.67)" fill="#273a89" stroke="#273a89" stroke-width="1"/>
      <path id="Trazado_827094" data-name="Trazado 827094" d="M15.869,118.2a1.5,1.5,0,1,0-1.468-1.5,1.485,1.485,0,0,0,1.468,1.5" transform="translate(0.288 4.67)" fill="#273a89" stroke="#273a89" stroke-width="1"/>
      <path id="Trazado_827095" data-name="Trazado 827095" d="M30.269,103.8a1.5,1.5,0,1,0-1.469-1.5,1.484,1.484,0,0,0,1.469,1.5" transform="translate(0.575 4.087)" fill="#273a89" stroke="#273a89" stroke-width="1"/>
      <path id="Trazado_827096" data-name="Trazado 827096" d="M15.869,103.8a1.5,1.5,0,1,0-1.468-1.5,1.486,1.486,0,0,0,1.468,1.5" transform="translate(0.288 4.087)" fill="#273a89" stroke="#273a89" stroke-width="1"/>
      <path id="Trazado_827097" data-name="Trazado 827097" d="M8.669,111A1.5,1.5,0,1,0,7.2,109.5,1.484,1.484,0,0,0,8.669,111" transform="translate(0.144 4.378)" fill="#273a89" stroke="#273a89" stroke-width="1"/>
      <path id="Trazado_827098" data-name="Trazado 827098" d="M23.069,111a1.5,1.5,0,1,0-1.469-1.5,1.484,1.484,0,0,0,1.469,1.5" transform="translate(0.432 4.378)" fill="#273a89" stroke="#273a89" stroke-width="1"/>
      <path id="Trazado_827099" data-name="Trazado 827099" d="M8.669,96.6A1.5,1.5,0,1,0,7.2,95.1a1.484,1.484,0,0,0,1.468,1.5" transform="translate(0.144 3.795)" fill="#273a89" stroke="#273a89" stroke-width="1"/>
      <path id="Trazado_827100" data-name="Trazado 827100" d="M23.069,96.6A1.5,1.5,0,1,0,21.6,95.1a1.484,1.484,0,0,0,1.469,1.5" transform="translate(0.432 3.795)" fill="#273a89" stroke="#273a89" stroke-width="1"/>
      <path id="Trazado_827101" data-name="Trazado 827101" d="M1.469,118.2a1.5,1.5,0,0,0,0-3,1.5,1.5,0,0,0,0,3" transform="translate(0 4.67)" fill="#273a89" stroke="#273a89" stroke-width="1"/>
      <path id="Trazado_827102" data-name="Trazado 827102" d="M1.469,103.8a1.5,1.5,0,0,0,0-3,1.5,1.5,0,0,0,0,3" transform="translate(0 4.087)" fill="#273a89" stroke="#273a89" stroke-width="1"/>
      <path id="Trazado_827103" data-name="Trazado 827103" d="M30.269,89.4A1.5,1.5,0,1,0,28.8,87.9a1.483,1.483,0,0,0,1.469,1.5" transform="translate(0.575 3.503)" fill="#273a89" stroke="#273a89" stroke-width="1"/>
      <path id="Trazado_827104" data-name="Trazado 827104" d="M15.869,89.4A1.5,1.5,0,1,0,14.4,87.9a1.485,1.485,0,0,0,1.468,1.5" transform="translate(0.288 3.503)" fill="#273a89" stroke="#273a89" stroke-width="1"/>
      <path id="Trazado_827105" data-name="Trazado 827105" d="M1.469,89.4a1.5,1.5,0,0,0,0-3,1.5,1.5,0,0,0,0,3" transform="translate(0 3.503)" fill="#273a89" stroke="#273a89" stroke-width="1"/>
      <path id="Trazado_827106" data-name="Trazado 827106" d="M30.269,147a1.5,1.5,0,1,0-1.469-1.5,1.483,1.483,0,0,0,1.469,1.5" transform="translate(0.575 5.838)" fill="#273a89" stroke="#273a89" stroke-width="1"/>
      <path id="Trazado_827107" data-name="Trazado 827107" d="M15.869,147a1.5,1.5,0,1,0-1.468-1.5,1.485,1.485,0,0,0,1.468,1.5" transform="translate(0.288 5.838)" fill="#273a89" stroke="#273a89" stroke-width="1"/>
      <path id="Trazado_827108" data-name="Trazado 827108" d="M30.269,132.6a1.5,1.5,0,1,0-1.469-1.5,1.484,1.484,0,0,0,1.469,1.5" transform="translate(0.575 5.254)" fill="#273a89" stroke="#273a89" stroke-width="1"/>
      <path id="Trazado_827109" data-name="Trazado 827109" d="M15.869,132.6a1.5,1.5,0,1,0-1.468-1.5,1.486,1.486,0,0,0,1.468,1.5" transform="translate(0.288 5.254)" fill="#273a89" stroke="#273a89" stroke-width="1"/>
      <path id="Trazado_827110" data-name="Trazado 827110" d="M8.669,139.8A1.5,1.5,0,1,0,7.2,138.3a1.484,1.484,0,0,0,1.468,1.5" transform="translate(0.144 5.546)" fill="#273a89" stroke="#273a89" stroke-width="1"/>
      <path id="Trazado_827111" data-name="Trazado 827111" d="M23.069,139.8a1.5,1.5,0,1,0-1.469-1.5,1.484,1.484,0,0,0,1.469,1.5" transform="translate(0.432 5.546)" fill="#273a89" stroke="#273a89" stroke-width="1"/>
      <path id="Trazado_827112" data-name="Trazado 827112" d="M8.669,125.4A1.5,1.5,0,1,0,7.2,123.9a1.484,1.484,0,0,0,1.468,1.5" transform="translate(0.144 4.962)" fill="#273a89" stroke="#273a89" stroke-width="1"/>
      <path id="Trazado_827113" data-name="Trazado 827113" d="M23.069,125.4a1.5,1.5,0,1,0-1.469-1.5,1.484,1.484,0,0,0,1.469,1.5" transform="translate(0.432 4.962)" fill="#273a89" stroke="#273a89" stroke-width="1"/>
      <path id="Trazado_827114" data-name="Trazado 827114" d="M1.469,147a1.5,1.5,0,0,0,0-3,1.5,1.5,0,0,0,0,3" transform="translate(0 5.838)" fill="#273a89" stroke="#273a89" stroke-width="1"/>
      <path id="Trazado_827115" data-name="Trazado 827115" d="M1.469,132.6a1.5,1.5,0,0,0,0-3,1.5,1.5,0,0,0,0,3" transform="translate(0 5.254)" fill="#273a89" stroke="#273a89" stroke-width="1"/>
      <path id="Trazado_827116" data-name="Trazado 827116" d="M30.269,118.2a1.5,1.5,0,1,0-1.469-1.5,1.483,1.483,0,0,0,1.469,1.5" transform="translate(0.575 4.67)" fill="#273a89" stroke="#273a89" stroke-width="1"/>
      <path id="Trazado_827117" data-name="Trazado 827117" d="M15.869,118.2a1.5,1.5,0,1,0-1.468-1.5,1.485,1.485,0,0,0,1.468,1.5" transform="translate(0.288 4.67)" fill="#273a89" stroke="#273a89" stroke-width="1"/>
      <path id="Trazado_827118" data-name="Trazado 827118" d="M1.469,118.2a1.5,1.5,0,0,0,0-3,1.5,1.5,0,0,0,0,3" transform="translate(0 4.67)" fill="#273a89" stroke="#273a89" stroke-width="1"/>
      <path id="Trazado_827119" data-name="Trazado 827119" d="M30.269,175.8a1.5,1.5,0,1,0-1.469-1.5,1.483,1.483,0,0,0,1.469,1.5" transform="translate(0.575 7.006)" fill="#273a89" stroke="#273a89" stroke-width="1"/>
      <path id="Trazado_827120" data-name="Trazado 827120" d="M15.869,175.8a1.5,1.5,0,1,0-1.468-1.5,1.485,1.485,0,0,0,1.468,1.5" transform="translate(0.288 7.006)" fill="#273a89" stroke="#273a89" stroke-width="1"/>
      <path id="Trazado_827121" data-name="Trazado 827121" d="M30.269,161.4a1.5,1.5,0,1,0-1.469-1.5,1.484,1.484,0,0,0,1.469,1.5" transform="translate(0.575 6.422)" fill="#273a89" stroke="#273a89" stroke-width="1"/>
      <path id="Trazado_827122" data-name="Trazado 827122" d="M15.869,161.4a1.5,1.5,0,1,0-1.468-1.5,1.486,1.486,0,0,0,1.468,1.5" transform="translate(0.288 6.422)" fill="#273a89" stroke="#273a89" stroke-width="1"/>
      <path id="Trazado_827123" data-name="Trazado 827123" d="M8.669,168.6A1.5,1.5,0,1,0,7.2,167.1a1.484,1.484,0,0,0,1.468,1.5" transform="translate(0.144 6.714)" fill="#273a89" stroke="#273a89" stroke-width="1"/>
      <path id="Trazado_827124" data-name="Trazado 827124" d="M23.069,168.6a1.5,1.5,0,1,0-1.469-1.5,1.484,1.484,0,0,0,1.469,1.5" transform="translate(0.432 6.714)" fill="#273a89" stroke="#273a89" stroke-width="1"/>
      <path id="Trazado_827125" data-name="Trazado 827125" d="M8.669,154.2A1.5,1.5,0,1,0,7.2,152.7a1.483,1.483,0,0,0,1.468,1.5" transform="translate(0.144 6.13)" fill="#273a89" stroke="#273a89" stroke-width="1"/>
      <path id="Trazado_827126" data-name="Trazado 827126" d="M23.069,154.2a1.5,1.5,0,1,0-1.469-1.5,1.483,1.483,0,0,0,1.469,1.5" transform="translate(0.432 6.13)" fill="#273a89" stroke="#273a89" stroke-width="1"/>
      <path id="Trazado_827127" data-name="Trazado 827127" d="M1.469,175.8a1.5,1.5,0,0,0,0-3,1.5,1.5,0,0,0,0,3" transform="translate(0 7.006)" fill="#273a89" stroke="#273a89" stroke-width="1"/>
      <path id="Trazado_827128" data-name="Trazado 827128" d="M1.469,161.4a1.5,1.5,0,0,0,0-3,1.5,1.5,0,0,0,0,3" transform="translate(0 6.422)" fill="#273a89" stroke="#273a89" stroke-width="1"/>
      <path id="Trazado_827129" data-name="Trazado 827129" d="M30.269,147a1.5,1.5,0,1,0-1.469-1.5,1.483,1.483,0,0,0,1.469,1.5" transform="translate(0.575 5.838)" fill="#273a89" stroke="#273a89" stroke-width="1"/>
      <path id="Trazado_827130" data-name="Trazado 827130" d="M15.869,147a1.5,1.5,0,1,0-1.468-1.5,1.485,1.485,0,0,0,1.468,1.5" transform="translate(0.288 5.838)" fill="#273a89" stroke="#273a89" stroke-width="1"/>
      <path id="Trazado_827131" data-name="Trazado 827131" d="M1.469,147a1.5,1.5,0,0,0,0-3,1.5,1.5,0,0,0,0,3" transform="translate(0 5.838)" fill="#273a89" stroke="#273a89" stroke-width="1"/>
      <path id="Trazado_827132" data-name="Trazado 827132" d="M30.269,204.6a1.5,1.5,0,1,0-1.469-1.5,1.483,1.483,0,0,0,1.469,1.5" transform="translate(0.575 8.173)" fill="#273a89" stroke="#273a89" stroke-width="1"/>
      <path id="Trazado_827133" data-name="Trazado 827133" d="M15.869,204.6a1.5,1.5,0,1,0-1.468-1.5,1.485,1.485,0,0,0,1.468,1.5" transform="translate(0.288 8.173)" fill="#273a89" stroke="#273a89" stroke-width="1"/>
      <path id="Trazado_827134" data-name="Trazado 827134" d="M30.269,190.2a1.5,1.5,0,1,0-1.469-1.5,1.484,1.484,0,0,0,1.469,1.5" transform="translate(0.575 7.589)" fill="#273a89" stroke="#273a89" stroke-width="1"/>
      <path id="Trazado_827135" data-name="Trazado 827135" d="M15.869,190.2a1.5,1.5,0,1,0-1.468-1.5,1.486,1.486,0,0,0,1.468,1.5" transform="translate(0.288 7.589)" fill="#273a89" stroke="#273a89" stroke-width="1"/>
      <path id="Trazado_827136" data-name="Trazado 827136" d="M8.669,197.4A1.5,1.5,0,1,0,7.2,195.9a1.484,1.484,0,0,0,1.468,1.5" transform="translate(0.144 7.881)" fill="#273a89" stroke="#273a89" stroke-width="1"/>
      <path id="Trazado_827137" data-name="Trazado 827137" d="M23.069,197.4a1.5,1.5,0,1,0-1.469-1.5,1.484,1.484,0,0,0,1.469,1.5" transform="translate(0.432 7.881)" fill="#273a89" stroke="#273a89" stroke-width="1"/>
      <path id="Trazado_827138" data-name="Trazado 827138" d="M8.669,183A1.5,1.5,0,1,0,7.2,181.5,1.484,1.484,0,0,0,8.669,183" transform="translate(0.144 7.297)" fill="#273a89" stroke="#273a89" stroke-width="1"/>
      <path id="Trazado_827139" data-name="Trazado 827139" d="M23.069,183a1.5,1.5,0,1,0-1.469-1.5,1.484,1.484,0,0,0,1.469,1.5" transform="translate(0.432 7.297)" fill="#273a89" stroke="#273a89" stroke-width="1"/>
      <path id="Trazado_827140" data-name="Trazado 827140" d="M1.469,204.6a1.5,1.5,0,0,0,0-3,1.5,1.5,0,0,0,0,3" transform="translate(0 8.173)" fill="#273a89" stroke="#273a89" stroke-width="1"/>
      <path id="Trazado_827141" data-name="Trazado 827141" d="M1.469,190.2a1.5,1.5,0,0,0,0-3,1.5,1.5,0,0,0,0,3" transform="translate(0 7.589)" fill="#273a89" stroke="#273a89" stroke-width="1"/>
      <path id="Trazado_827142" data-name="Trazado 827142" d="M30.269,175.8a1.5,1.5,0,1,0-1.469-1.5,1.483,1.483,0,0,0,1.469,1.5" transform="translate(0.575 7.006)" fill="#273a89" stroke="#273a89" stroke-width="1"/>
      <path id="Trazado_827143" data-name="Trazado 827143" d="M15.869,175.8a1.5,1.5,0,1,0-1.468-1.5,1.485,1.485,0,0,0,1.468,1.5" transform="translate(0.288 7.006)" fill="#273a89" stroke="#273a89" stroke-width="1"/>
      <path id="Trazado_827144" data-name="Trazado 827144" d="M1.469,175.8a1.5,1.5,0,0,0,0-3,1.5,1.5,0,0,0,0,3" transform="translate(0 7.006)" fill="#273a89" stroke="#273a89" stroke-width="1"/>
      <path id="Trazado_827145" data-name="Trazado 827145" d="M30.269,233.4a1.5,1.5,0,1,0-1.469-1.5,1.483,1.483,0,0,0,1.469,1.5" transform="translate(0.575 9.341)" fill="#273a89" stroke="#273a89" stroke-width="1"/>
      <path id="Trazado_827146" data-name="Trazado 827146" d="M15.869,233.4a1.5,1.5,0,1,0-1.468-1.5,1.485,1.485,0,0,0,1.468,1.5" transform="translate(0.288 9.341)" fill="#273a89" stroke="#273a89" stroke-width="1"/>
      <path id="Trazado_827147" data-name="Trazado 827147" d="M30.269,219a1.5,1.5,0,1,0-1.469-1.5,1.484,1.484,0,0,0,1.469,1.5" transform="translate(0.575 8.757)" fill="#273a89" stroke="#273a89" stroke-width="1"/>
      <path id="Trazado_827148" data-name="Trazado 827148" d="M15.869,219a1.5,1.5,0,1,0-1.468-1.5,1.486,1.486,0,0,0,1.468,1.5" transform="translate(0.288 8.757)" fill="#273a89" stroke="#273a89" stroke-width="1"/>
      <path id="Trazado_827149" data-name="Trazado 827149" d="M8.669,226.2a1.5,1.5,0,1,0-1.468-1.5,1.484,1.484,0,0,0,1.468,1.5" transform="translate(0.144 9.049)" fill="#273a89" stroke="#273a89" stroke-width="1"/>
      <path id="Trazado_827150" data-name="Trazado 827150" d="M23.069,226.2a1.5,1.5,0,1,0-1.469-1.5,1.484,1.484,0,0,0,1.469,1.5" transform="translate(0.432 9.049)" fill="#273a89" stroke="#273a89" stroke-width="1"/>
      <path id="Trazado_827151" data-name="Trazado 827151" d="M8.669,211.8A1.5,1.5,0,1,0,7.2,210.3a1.484,1.484,0,0,0,1.468,1.5" transform="translate(0.144 8.465)" fill="#273a89" stroke="#273a89" stroke-width="1"/>
      <path id="Trazado_827152" data-name="Trazado 827152" d="M23.069,211.8a1.5,1.5,0,1,0-1.469-1.5,1.484,1.484,0,0,0,1.469,1.5" transform="translate(0.432 8.465)" fill="#273a89" stroke="#273a89" stroke-width="1"/>
      <path id="Trazado_827153" data-name="Trazado 827153" d="M1.469,233.4a1.5,1.5,0,0,0,0-3,1.5,1.5,0,0,0,0,3" transform="translate(0 9.341)" fill="#273a89" stroke="#273a89" stroke-width="1"/>
      <path id="Trazado_827154" data-name="Trazado 827154" d="M1.469,219a1.5,1.5,0,0,0,0-3,1.5,1.5,0,0,0,0,3" transform="translate(0 8.757)" fill="#273a89" stroke="#273a89" stroke-width="1"/>
      <path id="Trazado_827155" data-name="Trazado 827155" d="M30.269,204.6a1.5,1.5,0,1,0-1.469-1.5,1.483,1.483,0,0,0,1.469,1.5" transform="translate(0.575 8.173)" fill="#273a89" stroke="#273a89" stroke-width="1"/>
      <path id="Trazado_827156" data-name="Trazado 827156" d="M15.869,204.6a1.5,1.5,0,1,0-1.468-1.5,1.485,1.485,0,0,0,1.468,1.5" transform="translate(0.288 8.173)" fill="#273a89" stroke="#273a89" stroke-width="1"/>
      <path id="Trazado_827157" data-name="Trazado 827157" d="M1.469,204.6a1.5,1.5,0,0,0,0-3,1.5,1.5,0,0,0,0,3" transform="translate(0 8.173)" fill="#273a89" stroke="#273a89" stroke-width="1"/>
    </g>
  </g>
</svg>
