<svg xmlns="http://www.w3.org/2000/svg" width="481.732" height="206.873" viewBox="0 0 481.732 206.873">
  <g id="Grupo_1084968" data-name="Grupo 1084968" transform="translate(-818.327 -19505.918)">
    <path id="Trazado_830684" data-name="Trazado 830684" d="M0,0H196.888V173.159H0Z" transform="translate(851.236 19506.445)" fill="#2b70be"/>
    <path id="Trazado_830678" data-name="Trazado 830678" d="M0,0H214.148V173.159H0Z" transform="translate(1041.544 19506.445)" fill="#a86e2f"/>
    <path id="Trazado_830680" data-name="Trazado 830680" d="M12.992,12.547,12.219,17H10.75L12.727,5.625l3.8.008a3.713,3.713,0,0,1,2.711.934,2.937,2.937,0,0,1,.82,2.48,3.541,3.541,0,0,1-1.3,2.57,4.718,4.718,0,0,1-3.059.938ZM13.2,11.32l2.531.008a3.079,3.079,0,0,0,1.961-.6,2.407,2.407,0,0,0,.9-1.672A1.886,1.886,0,0,0,18.2,7.5a2.005,2.005,0,0,0-1.523-.629l-2.7-.008Zm10.852,5.836a3.048,3.048,0,0,1-2.469-1.164,4.006,4.006,0,0,1-.75-2.9l.039-.336a5.624,5.624,0,0,1,.746-2.3,4.339,4.339,0,0,1,1.5-1.566,3.491,3.491,0,0,1,1.906-.5,2.688,2.688,0,0,1,2.047.867,3.566,3.566,0,0,1,.813,2.266,6.621,6.621,0,0,1-.031,1.016l-.086.648H22.242a2.856,2.856,0,0,0,.379,1.953,1.8,1.8,0,0,0,1.551.836,3.007,3.007,0,0,0,2.313-1.125l.813.688a3.718,3.718,0,0,1-1.371,1.2A3.886,3.886,0,0,1,24.055,17.156Zm.9-7.586a2.066,2.066,0,0,0-1.527.594A4.22,4.22,0,0,0,22.391,12l4.109.008.031-.125a2.313,2.313,0,0,0-.316-1.637A1.488,1.488,0,0,0,24.953,9.57Zm9,.266-.664-.07a2.42,2.42,0,0,0-2.141,1.227L30.11,17H28.7l1.469-8.453,1.367-.008-.211.984a2.527,2.527,0,0,1,2.117-1.148,2.594,2.594,0,0,1,.672.117ZM34.828,17,36.11,9.664H34.8L35,8.547h1.3l.141-1a3.318,3.318,0,0,1,.984-1.992,2.926,2.926,0,0,1,2.094-.734,4.884,4.884,0,0,1,1.008.134l-.172,1.187a4.636,4.636,0,0,0-.758-.094A1.614,1.614,0,0,0,38.4,6.5a2.073,2.073,0,0,0-.566,1.211l-.125.833h1.75l-.2,1.117h-1.75L36.242,17ZM44.3,8.391a3.047,3.047,0,0,1,1.82.578,3.285,3.285,0,0,1,1.121,1.551,4.8,4.8,0,0,1,.246,2.16l-.016.172a5.685,5.685,0,0,1-.734,2.23,4.309,4.309,0,0,1-1.516,1.551,3.7,3.7,0,0,1-2.039.523,3.052,3.052,0,0,1-1.816-.578,3.21,3.21,0,0,1-1.113-1.531,4.931,4.931,0,0,1-.25-2.133,5.76,5.76,0,0,1,.711-2.359,4.409,4.409,0,0,1,1.527-1.621A3.652,3.652,0,0,1,44.3,8.391ZM41.43,12.922a4.8,4.8,0,0,0,0,1.023,2.507,2.507,0,0,0,.551,1.469,1.653,1.653,0,0,0,1.262.57,2.253,2.253,0,0,0,1.3-.348,2.919,2.919,0,0,0,1-1.121,4.721,4.721,0,0,0,.523-1.664,7.494,7.494,0,0,0,.023-1.211,2.6,2.6,0,0,0-.57-1.492A1.69,1.69,0,0,0,44.25,9.57a2.3,2.3,0,0,0-1.859.859,4.245,4.245,0,0,0-.945,2.313ZM53.8,9.836l-.664-.07a2.42,2.42,0,0,0-2.141,1.227L49.953,17H48.539l1.469-8.453,1.367-.008-.211.984a2.527,2.527,0,0,1,2.117-1.148,2.594,2.594,0,0,1,.672.117Zm2.859-1.3-.18.945a3.305,3.305,0,0,1,2.57-1.094,2.608,2.608,0,0,1,1.363.367,1.8,1.8,0,0,1,.77.992,3.49,3.49,0,0,1,2.8-1.359,2.235,2.235,0,0,1,1.867.852,3.042,3.042,0,0,1,.445,2.2L65.367,17H63.961l.922-5.57a2.943,2.943,0,0,0,0-.742Q64.735,9.625,63.492,9.6a2.136,2.136,0,0,0-1.4.48,2.222,2.222,0,0,0-.809,1.3L60.32,17H58.9l.938-5.562a1.786,1.786,0,0,0-.262-1.336,1.377,1.377,0,0,0-1.129-.484,2.315,2.315,0,0,0-2.1,1.2L55.274,17H53.86l1.469-8.453ZM72.719,17a1.893,1.893,0,0,1-.055-.445l.023-.445a3.465,3.465,0,0,1-2.469,1.047,2.526,2.526,0,0,1-1.816-.707,2.14,2.14,0,0,1-.637-1.73,2.6,2.6,0,0,1,1.176-2.1,5.005,5.005,0,0,1,2.887-.754l1.477.008L73.4,11.2a1.545,1.545,0,0,0-.293-1.2,1.414,1.414,0,0,0-1.113-.457,2.181,2.181,0,0,0-1.285.355,1.513,1.513,0,0,0-.684.98l-1.422.008a2.266,2.266,0,0,1,.578-1.316,3.363,3.363,0,0,1,1.3-.891,4.215,4.215,0,0,1,1.648-.3,2.8,2.8,0,0,1,2.055.8,2.484,2.484,0,0,1,.617,2.043l-.687,4.188-.039.6a2.949,2.949,0,0,0,.094.852L74.156,17ZM70.5,15.906a2.466,2.466,0,0,0,1.285-.324,3.254,3.254,0,0,0,1.043-.941l.3-1.742-1.07-.008a4.054,4.054,0,0,0-2.047.422,1.554,1.554,0,0,0-.8,1.2,1.21,1.21,0,0,0,.277.988A1.321,1.321,0,0,0,70.5,15.906Zm8.375-7.367-.2,1.07a3.333,3.333,0,0,1,2.594-1.219,2.1,2.1,0,0,1,1.766.828,3.217,3.217,0,0,1,.422,2.242L82.531,17H81.117l.93-5.557a2.962,2.962,0,0,0,.008-.71,1.168,1.168,0,0,0-1.289-1.116,2.661,2.661,0,0,0-2.234,1.358L77.485,17H76.07l1.469-8.453Zm9.406,7.445a2.145,2.145,0,0,0,1.367-.441,2.1,2.1,0,0,0,.8-1.2l1.336-.008a3.014,3.014,0,0,1-.637,1.453,3.68,3.68,0,0,1-2.926,1.367,3.017,3.017,0,0,1-1.785-.551,3.084,3.084,0,0,1-1.074-1.492,4.972,4.972,0,0,1-.234-2.152l.039-.391a5.605,5.605,0,0,1,.711-2.18,4.11,4.11,0,0,1,1.469-1.5,3.648,3.648,0,0,1,2-.5,2.857,2.857,0,0,1,2.125.891,3.08,3.08,0,0,1,.8,2.18l-1.32-.008a2.029,2.029,0,0,0-.461-1.34,1.607,1.607,0,0,0-1.2-.543,2.254,2.254,0,0,0-1.832.82,4.3,4.3,0,0,0-.91,2.359l-.023.2a6.776,6.776,0,0,0-.016,1.031,2.355,2.355,0,0,0,.516,1.445A1.656,1.656,0,0,0,88.281,15.984Zm8.289,1.172A3.048,3.048,0,0,1,94.1,15.992a4.006,4.006,0,0,1-.75-2.9l.039-.336a5.624,5.624,0,0,1,.746-2.3,4.339,4.339,0,0,1,1.5-1.566,3.491,3.491,0,0,1,1.906-.5,2.688,2.688,0,0,1,2.047.867,3.566,3.566,0,0,1,.813,2.266,6.62,6.62,0,0,1-.031,1.016l-.086.648H94.758a2.856,2.856,0,0,0,.379,1.953,1.8,1.8,0,0,0,1.551.836A3.007,3.007,0,0,0,99,14.852l.813.688a3.718,3.718,0,0,1-1.371,1.2A3.886,3.886,0,0,1,96.57,17.156Zm.9-7.586a2.066,2.066,0,0,0-1.527.594A4.22,4.22,0,0,0,94.906,12l4.109.008.031-.125a2.313,2.313,0,0,0-.316-1.637A1.488,1.488,0,0,0,97.469,9.57ZM105.445,14a3.578,3.578,0,0,1,1.734-2.594l.891-.594-.336-.6a3.5,3.5,0,0,1-.5-1.914,3.016,3.016,0,0,1,.938-2.074,2.888,2.888,0,0,1,2.125-.754,2.453,2.453,0,0,1,1.742.684,2.03,2.03,0,0,1,.625,1.66A3.315,3.315,0,0,1,111,10.273l-1.148.766,1.945,2.977a5.44,5.44,0,0,0,.891-2.266h1.258a5.768,5.768,0,0,1-1.414,3.336L113.758,17H112.18l-.57-.883a4.6,4.6,0,0,1-2.992,1.031,3.3,3.3,0,0,1-2.375-.895A2.715,2.715,0,0,1,105.445,14Zm3.219,1.977a3.559,3.559,0,0,0,2.219-.883l-2.117-3.312-.336.234a3.185,3.185,0,0,0-1.547,1.992,1.66,1.66,0,0,0,.375,1.4A1.826,1.826,0,0,0,108.664,15.977Zm-.039-7.734a2.486,2.486,0,0,0,.383,1.445l.211.367,1.2-.8a2.076,2.076,0,0,0,.922-1.445.994.994,0,0,0-.273-.828,1.136,1.136,0,0,0-.852-.328,1.42,1.42,0,0,0-1.086.473A1.871,1.871,0,0,0,108.625,8.242ZM19.375,39.773H24.61L24.391,41h-6.7l1.977-11.375h1.477Zm11.219-7.383a3.047,3.047,0,0,1,1.82.578,3.285,3.285,0,0,1,1.121,1.551,4.8,4.8,0,0,1,.246,2.16l-.016.172a5.685,5.685,0,0,1-.734,2.23,4.309,4.309,0,0,1-1.516,1.551,3.7,3.7,0,0,1-2.039.523,3.052,3.052,0,0,1-1.816-.578,3.21,3.21,0,0,1-1.113-1.531,4.931,4.931,0,0,1-.25-2.133,5.76,5.76,0,0,1,.711-2.359,4.409,4.409,0,0,1,1.527-1.621A3.652,3.652,0,0,1,30.594,32.391Zm-2.875,4.531a4.8,4.8,0,0,0,0,1.023,2.507,2.507,0,0,0,.551,1.469,1.653,1.653,0,0,0,1.262.57,2.253,2.253,0,0,0,1.3-.348,2.919,2.919,0,0,0,1-1.121,4.721,4.721,0,0,0,.523-1.664,7.494,7.494,0,0,0,.023-1.211,2.6,2.6,0,0,0-.57-1.492,1.69,1.69,0,0,0-1.266-.578,2.3,2.3,0,0,0-1.859.859,4.245,4.245,0,0,0-.945,2.313ZM40,41a1.894,1.894,0,0,1-.055-.445l.023-.445A3.465,3.465,0,0,1,37.5,41.156a2.526,2.526,0,0,1-1.816-.707,2.14,2.14,0,0,1-.637-1.73,2.6,2.6,0,0,1,1.176-2.1,5.005,5.005,0,0,1,2.887-.754l1.477.008.094-.672a1.545,1.545,0,0,0-.293-1.2,1.414,1.414,0,0,0-1.113-.457,2.181,2.181,0,0,0-1.285.355,1.513,1.513,0,0,0-.684.98l-1.422.008a2.266,2.266,0,0,1,.578-1.316,3.363,3.363,0,0,1,1.3-.891,4.215,4.215,0,0,1,1.648-.3,2.8,2.8,0,0,1,2.055.8,2.484,2.484,0,0,1,.617,2.043L41.4,39.414l-.039.6a2.949,2.949,0,0,0,.094.852L41.438,41Zm-2.219-1.094a2.466,2.466,0,0,0,1.285-.324,3.254,3.254,0,0,0,1.043-.941l.3-1.742-1.07-.008a4.054,4.054,0,0,0-2.047.422,1.554,1.554,0,0,0-.8,1.2,1.21,1.21,0,0,0,.277.988A1.321,1.321,0,0,0,37.781,39.906Zm5.977-3.148a6.578,6.578,0,0,1,.711-2.328,4.03,4.03,0,0,1,1.367-1.555,3.127,3.127,0,0,1,1.789-.492A2.64,2.64,0,0,1,49.8,33.414L50.61,29h1.414L49.945,41H48.656l.148-.906a3.116,3.116,0,0,1-2.469,1.063,2.335,2.335,0,0,1-1.867-.918,4,4,0,0,1-.75-2.379A7.6,7.6,0,0,1,43.758,36.758Zm1.359.808a2.929,2.929,0,0,0,.4,1.732,1.437,1.437,0,0,0,1.234.632A2.554,2.554,0,0,0,48.93,38.7l.672-3.9a1.754,1.754,0,0,0-1.7-1.186,2.143,2.143,0,0,0-1.473.5,3.256,3.256,0,0,0-.969,1.475A6.082,6.082,0,0,0,45.117,37.565ZM65.4,30.852H61.86L60.1,41H58.641L60.4,30.852H56.86l.219-1.227h8.539Zm3.383,10.3a3.048,3.048,0,0,1-2.469-1.164,4.006,4.006,0,0,1-.75-2.9l.039-.336a5.624,5.624,0,0,1,.746-2.3,4.339,4.339,0,0,1,1.5-1.566,3.491,3.491,0,0,1,1.906-.5,2.688,2.688,0,0,1,2.047.867,3.566,3.566,0,0,1,.813,2.266,6.62,6.62,0,0,1-.031,1.016l-.086.648H66.969a2.856,2.856,0,0,0,.379,1.953,1.8,1.8,0,0,0,1.551.836,3.007,3.007,0,0,0,2.313-1.125l.813.688a3.718,3.718,0,0,1-1.371,1.2A3.886,3.886,0,0,1,68.781,41.156Zm.9-7.586a2.066,2.066,0,0,0-1.527.594A4.22,4.22,0,0,0,67.117,36l4.109.008.031-.125a2.313,2.313,0,0,0-.316-1.637A1.488,1.488,0,0,0,69.68,33.57Zm8.977,5.141q.117-.875-.961-1.234l-1.469-.43q-1.859-.641-1.8-2.125a2.341,2.341,0,0,1,1.02-1.832,3.631,3.631,0,0,1,2.27-.7,3.027,3.027,0,0,1,2.082.746,2.363,2.363,0,0,1,.77,1.9l-1.406-.008a1.319,1.319,0,0,0-.4-1.031,1.576,1.576,0,0,0-1.1-.414,2.059,2.059,0,0,0-1.266.359,1.316,1.316,0,0,0-.57.922q-.1.734.9,1.07l.711.2a4.577,4.577,0,0,1,2.063.977,1.865,1.865,0,0,1,.563,1.492,2.37,2.37,0,0,1-.516,1.375,2.948,2.948,0,0,1-1.25.895,4.18,4.18,0,0,1-1.664.285,3.3,3.3,0,0,1-2.219-.785,2.427,2.427,0,0,1-.844-1.98l1.414.008a1.5,1.5,0,0,0,.453,1.141,1.732,1.732,0,0,0,1.242.43,2.436,2.436,0,0,0,1.336-.324A1.247,1.247,0,0,0,78.656,38.711ZM85.235,30.5l-.359,2.047h1.539l-.2,1.117H84.688L83.8,38.922a1.833,1.833,0,0,0-.008.375.6.6,0,0,0,.664.609,4.05,4.05,0,0,0,.688-.078l-.109,1.18a3.847,3.847,0,0,1-1.031.141,1.476,1.476,0,0,1-1.266-.621,2.4,2.4,0,0,1-.328-1.629l.859-5.234H81.781l.2-1.117h1.492l.359-2.047ZM88.18,41H86.774l1.469-8.453h1.406Zm1.164-11.539a.774.774,0,0,1,.6.215.8.8,0,0,1,.238.605.834.834,0,0,1-.836.852.779.779,0,0,1-.6-.211.764.764,0,0,1-.227-.594.886.886,0,0,1,.234-.609A.826.826,0,0,1,89.344,29.461ZM93.3,32.539l-.2,1.07a3.333,3.333,0,0,1,2.594-1.219,2.1,2.1,0,0,1,1.766.828,3.217,3.217,0,0,1,.422,2.242L96.953,41H95.539l.93-5.557a2.962,2.962,0,0,0,.008-.71,1.168,1.168,0,0,0-1.289-1.116,2.661,2.661,0,0,0-2.234,1.358L91.906,41H90.492l1.469-8.453Zm6.25,4.219a6.889,6.889,0,0,1,.746-2.4,3.9,3.9,0,0,1,1.359-1.508,3.151,3.151,0,0,1,1.754-.465,2.6,2.6,0,0,1,2.219,1.109l.281-.945h1.3L105.8,40.82a4.113,4.113,0,0,1-1.312,2.59,3.7,3.7,0,0,1-2.68.926,3.8,3.8,0,0,1-1.645-.406,3.127,3.127,0,0,1-1.238-1.07l.8-.867a2.536,2.536,0,0,0,3.73.6,2.9,2.9,0,0,0,.926-1.687l.156-.75a3.2,3.2,0,0,1-2.414,1,2.486,2.486,0,0,1-1.371-.426,2.589,2.589,0,0,1-.9-1.164,4.759,4.759,0,0,1-.352-1.7A8.734,8.734,0,0,1,99.547,36.758Zm1.367.8a2.974,2.974,0,0,0,.387,1.728,1.461,1.461,0,0,0,1.238.644,2.561,2.561,0,0,0,2.18-1.241l.664-3.878a1.776,1.776,0,0,0-1.7-1.2,2.194,2.194,0,0,0-1.887.936,4.878,4.878,0,0,0-.871,2.614ZM13.352,62.07q.172-1.25-1.3-1.828L10.7,59.75l-.453-.2q-2.281-1.039-2.133-2.922a3.056,3.056,0,0,1,.648-1.672,3.69,3.69,0,0,1,1.512-1.121,4.849,4.849,0,0,1,2-.371,4,4,0,0,1,1.84.461,2.962,2.962,0,0,1,1.23,1.223,3.333,3.333,0,0,1,.375,1.77l-1.477-.008a2.037,2.037,0,0,0-.469-1.627,2.1,2.1,0,0,0-1.562-.592,2.91,2.91,0,0,0-1.789.5A1.955,1.955,0,0,0,9.6,56.605q-.156,1.166,1.43,1.769l1.164.415.586.25a2.941,2.941,0,0,1,2.039,3.016,3.012,3.012,0,0,1-.648,1.66A3.626,3.626,0,0,1,12.645,64.8a5.266,5.266,0,0,1-2.074.359A4.34,4.34,0,0,1,8.613,64.7a3.193,3.193,0,0,1-1.348-1.23A3.078,3.078,0,0,1,6.86,61.7l1.469.008a1.935,1.935,0,0,0,.551,1.613,2.479,2.479,0,0,0,1.754.613,3.131,3.131,0,0,0,1.867-.492A1.916,1.916,0,0,0,13.352,62.07Zm6.336,3.086a3.048,3.048,0,0,1-2.469-1.164,4.006,4.006,0,0,1-.75-2.9l.039-.336a5.624,5.624,0,0,1,.746-2.3,4.339,4.339,0,0,1,1.5-1.566,3.491,3.491,0,0,1,1.906-.5,2.688,2.688,0,0,1,2.047.867,3.566,3.566,0,0,1,.813,2.266,6.621,6.621,0,0,1-.031,1.016l-.086.648H17.875a2.856,2.856,0,0,0,.379,1.953,1.8,1.8,0,0,0,1.551.836,3.007,3.007,0,0,0,2.313-1.125l.813.688a3.718,3.718,0,0,1-1.371,1.2A3.886,3.886,0,0,1,19.688,65.156Zm.9-7.586a2.066,2.066,0,0,0-1.527.594A4.22,4.22,0,0,0,18.024,60l4.109.008.031-.125a2.313,2.313,0,0,0-.316-1.637A1.488,1.488,0,0,0,20.586,57.57ZM27.9,63.984a2.145,2.145,0,0,0,1.367-.441,2.1,2.1,0,0,0,.8-1.2l1.336-.008a3.014,3.014,0,0,1-.637,1.453,3.68,3.68,0,0,1-2.926,1.367,3.017,3.017,0,0,1-1.785-.551,3.084,3.084,0,0,1-1.074-1.492,4.972,4.972,0,0,1-.234-2.152l.039-.391a5.605,5.605,0,0,1,.711-2.18,4.11,4.11,0,0,1,1.469-1.5,3.648,3.648,0,0,1,2-.5,2.857,2.857,0,0,1,2.125.891,3.08,3.08,0,0,1,.8,2.18l-1.32-.008a2.029,2.029,0,0,0-.461-1.34,1.607,1.607,0,0,0-1.2-.543,2.254,2.254,0,0,0-1.832.82,4.3,4.3,0,0,0-.91,2.359l-.023.2a6.776,6.776,0,0,0-.016,1.031,2.355,2.355,0,0,0,.516,1.445A1.656,1.656,0,0,0,27.9,63.984Zm10,.18a3.265,3.265,0,0,1-2.523.992,2.107,2.107,0,0,1-1.793-.867,3.317,3.317,0,0,1-.434-2.281l.906-5.461h1.414l-.914,5.484a3.642,3.642,0,0,0-.016.672,1.4,1.4,0,0,0,.336.883,1.146,1.146,0,0,0,.828.344A2.537,2.537,0,0,0,38.047,62.7l1.063-6.156h1.414L39.055,65H37.719Zm8.523-6.328-.664-.07a2.42,2.42,0,0,0-2.141,1.227L42.578,65H41.164l1.469-8.453L44,56.539l-.211.984a2.527,2.527,0,0,1,2.117-1.148,2.594,2.594,0,0,1,.672.117ZM48.024,65H46.617l1.469-8.453h1.406Zm1.164-11.539a.774.774,0,0,1,.6.215.8.8,0,0,1,.238.605.834.834,0,0,1-.836.852.779.779,0,0,1-.6-.211.764.764,0,0,1-.227-.594.886.886,0,0,1,.234-.609A.826.826,0,0,1,49.188,53.461ZM54.07,54.5l-.359,2.047H55.25l-.2,1.117H53.524l-.883,5.258a1.833,1.833,0,0,0-.008.375.6.6,0,0,0,.664.609,4.05,4.05,0,0,0,.688-.078l-.109,1.18a3.847,3.847,0,0,1-1.031.141,1.476,1.476,0,0,1-1.266-.621A2.4,2.4,0,0,1,51.25,62.9l.859-5.234H50.617l.2-1.117H52.3l.359-2.047Zm4.445,8.367,3.008-6.32h1.563L58.07,66.406q-1.047,2.055-2.687,2.031a4.605,4.605,0,0,1-.852-.141l.125-1.172.367.039a1.853,1.853,0,0,0,1.16-.3,2.772,2.772,0,0,0,.863-1.074l.508-.969-1.461-8.273H57.57Zm17.609-8.016H72.586L70.828,65H69.367l1.758-10.148H67.586l.219-1.227h8.539Zm3.383,10.3a3.048,3.048,0,0,1-2.469-1.164,4.006,4.006,0,0,1-.75-2.9l.039-.336a5.624,5.624,0,0,1,.746-2.3,4.339,4.339,0,0,1,1.5-1.566,3.491,3.491,0,0,1,1.906-.5,2.688,2.688,0,0,1,2.047.867,3.566,3.566,0,0,1,.813,2.266,6.62,6.62,0,0,1-.031,1.016l-.086.648H77.7a2.856,2.856,0,0,0,.379,1.953,1.8,1.8,0,0,0,1.551.836,3.007,3.007,0,0,0,2.313-1.125l.813.688a3.718,3.718,0,0,1-1.371,1.2A3.886,3.886,0,0,1,79.508,65.156Zm.9-7.586a2.066,2.066,0,0,0-1.527.594A4.22,4.22,0,0,0,77.844,60l4.109.008.031-.125a2.313,2.313,0,0,0-.316-1.637A1.488,1.488,0,0,0,80.406,57.57Zm8.977,5.141q.117-.875-.961-1.234l-1.469-.43q-1.859-.641-1.8-2.125a2.341,2.341,0,0,1,1.02-1.832,3.631,3.631,0,0,1,2.27-.7,3.027,3.027,0,0,1,2.082.746,2.363,2.363,0,0,1,.77,1.9l-1.406-.008a1.319,1.319,0,0,0-.4-1.031,1.576,1.576,0,0,0-1.1-.414,2.059,2.059,0,0,0-1.266.359,1.316,1.316,0,0,0-.57.922q-.1.734.9,1.07l.711.2a4.577,4.577,0,0,1,2.063.977,1.865,1.865,0,0,1,.563,1.492,2.37,2.37,0,0,1-.516,1.375,2.948,2.948,0,0,1-1.25.895,4.18,4.18,0,0,1-1.664.285,3.3,3.3,0,0,1-2.219-.785,2.427,2.427,0,0,1-.844-1.98l1.414.008a1.5,1.5,0,0,0,.453,1.141,1.732,1.732,0,0,0,1.242.43,2.436,2.436,0,0,0,1.336-.324A1.247,1.247,0,0,0,89.383,62.711ZM95.961,54.5,95.6,56.547h1.539l-.2,1.117H95.414l-.883,5.258a1.833,1.833,0,0,0-.008.375.6.6,0,0,0,.664.609,4.05,4.05,0,0,0,.688-.078l-.109,1.18a3.847,3.847,0,0,1-1.031.141,1.476,1.476,0,0,1-1.266-.621,2.4,2.4,0,0,1-.328-1.629L94,57.664H92.508l.2-1.117H94.2l.359-2.047ZM98.906,65H97.5l1.469-8.453h1.406Zm1.164-11.539a.774.774,0,0,1,.6.215.8.8,0,0,1,.238.605.834.834,0,0,1-.836.852.779.779,0,0,1-.6-.211.764.764,0,0,1-.227-.594.886.886,0,0,1,.234-.609A.826.826,0,0,1,100.07,53.461Zm3.953,3.078-.2,1.07a3.333,3.333,0,0,1,2.594-1.219,2.1,2.1,0,0,1,1.766.828,3.217,3.217,0,0,1,.422,2.242L107.68,65h-1.414l.93-5.557a2.962,2.962,0,0,0,.008-.71,1.168,1.168,0,0,0-1.289-1.116,2.661,2.661,0,0,0-2.234,1.358L102.633,65h-1.414l1.469-8.453Zm6.25,4.219a6.889,6.889,0,0,1,.746-2.4,3.9,3.9,0,0,1,1.359-1.508,3.151,3.151,0,0,1,1.754-.465,2.6,2.6,0,0,1,2.219,1.109l.281-.945h1.3l-1.406,8.273a4.113,4.113,0,0,1-1.312,2.59,3.7,3.7,0,0,1-2.68.926,3.8,3.8,0,0,1-1.645-.406,3.127,3.127,0,0,1-1.238-1.07l.8-.867a2.536,2.536,0,0,0,3.73.6,2.9,2.9,0,0,0,.926-1.687l.156-.75a3.2,3.2,0,0,1-2.414,1,2.486,2.486,0,0,1-1.371-.426,2.589,2.589,0,0,1-.9-1.164,4.759,4.759,0,0,1-.352-1.7A8.734,8.734,0,0,1,110.274,60.758Zm1.367.8a2.974,2.974,0,0,0,.387,1.728,1.461,1.461,0,0,0,1.238.644,2.561,2.561,0,0,0,2.18-1.241l.664-3.878a1.776,1.776,0,0,0-1.7-1.2,2.194,2.194,0,0,0-1.887.936,4.878,4.878,0,0,0-.871,2.614Z" transform="translate(1097 19526.025)" fill="#fff"/>
    <path id="Trazado_830687" data-name="Trazado 830687" d="M25.924,5.625l-1.312,7.7a4.368,4.368,0,0,1-1.531,2.824,4.5,4.5,0,0,1-3.055,1.02,3.956,3.956,0,0,1-1.941-.5,2.9,2.9,0,0,1-1.215-1.352,3.69,3.69,0,0,1-.258-1.98l1.313-7.7h1.445l-1.3,7.717a2.5,2.5,0,0,0,.406,1.88,2.031,2.031,0,0,0,1.633.715,2.812,2.812,0,0,0,2-.645,3.125,3.125,0,0,0,1.027-1.943l1.313-7.725Zm2.938,2.914-.2,1.07a3.333,3.333,0,0,1,2.594-1.219,2.1,2.1,0,0,1,1.766.828,3.217,3.217,0,0,1,.422,2.242L32.518,17H31.1l.93-5.557a2.962,2.962,0,0,0,.008-.71,1.168,1.168,0,0,0-1.289-1.116,2.661,2.661,0,0,0-2.234,1.358L27.471,17H26.057l1.469-8.453ZM36.229,17H34.822l1.469-8.453H37.7ZM37.393,5.461a.774.774,0,0,1,.6.215.8.8,0,0,1,.238.605.834.834,0,0,1-.836.852.779.779,0,0,1-.6-.211.764.764,0,0,1-.227-.594.886.886,0,0,1,.234-.609A.826.826,0,0,1,37.393,5.461ZM42.275,6.5l-.359,2.047h1.539l-.2,1.117H41.729l-.883,5.258a1.833,1.833,0,0,0-.008.375.6.6,0,0,0,.664.609,4.05,4.05,0,0,0,.688-.078l-.109,1.18a3.847,3.847,0,0,1-1.031.141,1.476,1.476,0,0,1-1.266-.621,2.4,2.4,0,0,1-.328-1.629l.859-5.234H38.822l.2-1.117H40.51L40.869,6.5Zm14.633.352H53.369L51.611,17H50.15L51.908,6.852H48.369l.219-1.227h8.539Zm3.383,10.3a3.048,3.048,0,0,1-2.469-1.164,4.006,4.006,0,0,1-.75-2.9l.039-.336a5.624,5.624,0,0,1,.746-2.3,4.339,4.339,0,0,1,1.5-1.566,3.491,3.491,0,0,1,1.906-.5,2.688,2.688,0,0,1,2.047.867,3.566,3.566,0,0,1,.812,2.266,6.62,6.62,0,0,1-.031,1.016L64,13.188H58.479a2.856,2.856,0,0,0,.379,1.953,1.8,1.8,0,0,0,1.551.836,3.007,3.007,0,0,0,2.313-1.125l.813.688a3.718,3.718,0,0,1-1.371,1.2A3.886,3.886,0,0,1,60.291,17.156Zm.9-7.586a2.066,2.066,0,0,0-1.527.594A4.22,4.22,0,0,0,58.627,12l4.109.008.031-.125a2.313,2.313,0,0,0-.316-1.637A1.488,1.488,0,0,0,61.19,9.57Zm8.977,5.141q.117-.875-.961-1.234l-1.469-.43q-1.859-.641-1.8-2.125a2.341,2.341,0,0,1,1.02-1.832,3.631,3.631,0,0,1,2.27-.7,3.027,3.027,0,0,1,2.082.746,2.363,2.363,0,0,1,.77,1.9l-1.406-.008a1.319,1.319,0,0,0-.4-1.031,1.576,1.576,0,0,0-1.1-.414,2.059,2.059,0,0,0-1.266.359,1.316,1.316,0,0,0-.57.922q-.1.734.9,1.07l.711.2a4.577,4.577,0,0,1,2.063.977,1.865,1.865,0,0,1,.563,1.492,2.37,2.37,0,0,1-.516,1.375,2.948,2.948,0,0,1-1.25.895,4.18,4.18,0,0,1-1.664.285,3.3,3.3,0,0,1-2.219-.785,2.427,2.427,0,0,1-.844-1.98l1.414.008a1.5,1.5,0,0,0,.453,1.141,1.732,1.732,0,0,0,1.242.43,2.436,2.436,0,0,0,1.336-.324A1.247,1.247,0,0,0,70.166,14.711ZM76.744,6.5l-.359,2.047h1.539l-.2,1.117H76.2l-.883,5.258a1.833,1.833,0,0,0-.008.375.6.6,0,0,0,.664.609,4.05,4.05,0,0,0,.688-.078l-.109,1.18a3.847,3.847,0,0,1-1.031.141,1.476,1.476,0,0,1-1.266-.621,2.4,2.4,0,0,1-.328-1.629l.859-5.234H73.291l.2-1.117h1.492L75.338,6.5Zm6.648,8.211q.117-.875-.961-1.234l-1.469-.43q-1.859-.641-1.8-2.125a2.341,2.341,0,0,1,1.02-1.832,3.631,3.631,0,0,1,2.27-.7,3.027,3.027,0,0,1,2.082.746,2.363,2.363,0,0,1,.77,1.9L83.9,11.031A1.319,1.319,0,0,0,83.5,10a1.576,1.576,0,0,0-1.1-.414,2.059,2.059,0,0,0-1.266.359,1.316,1.316,0,0,0-.57.922q-.1.734.9,1.07l.711.2a4.577,4.577,0,0,1,2.063.977A1.865,1.865,0,0,1,84.8,14.6a2.37,2.37,0,0,1-.516,1.375,2.948,2.948,0,0,1-1.25.895,4.18,4.18,0,0,1-1.664.285,3.3,3.3,0,0,1-2.219-.785,2.427,2.427,0,0,1-.844-1.98l1.414.008a1.5,1.5,0,0,0,.453,1.141,1.732,1.732,0,0,0,1.242.43,2.436,2.436,0,0,0,1.336-.324A1.247,1.247,0,0,0,83.393,14.711Zm-66,22.664a4.535,4.535,0,0,1-1.6,2.8,4.476,4.476,0,0,1-3.043.984,3.544,3.544,0,0,1-1.844-.52,3.283,3.283,0,0,1-1.227-1.43,5.34,5.34,0,0,1-.484-2.066,6.623,6.623,0,0,1,.055-1.25l.133-.937a7.076,7.076,0,0,1,1.8-4.043,4.544,4.544,0,0,1,3.488-1.441A3.4,3.4,0,0,1,17.209,30.5a4.117,4.117,0,0,1,.992,2.785H16.74q-.1-2.391-1.875-2.578l-.258-.016a3.019,3.019,0,0,0-2.465,1.1A5.942,5.942,0,0,0,10.865,34.9l-.172,1.18-.047.688a3.867,3.867,0,0,0,.512,2.285,1.929,1.929,0,0,0,1.66.879,2.924,2.924,0,0,0,1.965-.57A3.8,3.8,0,0,0,15.967,37.4Zm5.984-4.984a3.047,3.047,0,0,1,1.82.578,3.285,3.285,0,0,1,1.121,1.551,4.8,4.8,0,0,1,.246,2.16l-.016.172a5.685,5.685,0,0,1-.734,2.23A4.309,4.309,0,0,1,24.3,40.633a3.7,3.7,0,0,1-2.039.523,3.052,3.052,0,0,1-1.816-.578,3.21,3.21,0,0,1-1.113-1.531,4.931,4.931,0,0,1-.25-2.133,5.76,5.76,0,0,1,.711-2.359,4.409,4.409,0,0,1,1.527-1.621A3.652,3.652,0,0,1,23.373,32.391ZM20.5,36.922a4.8,4.8,0,0,0,0,1.023,2.507,2.507,0,0,0,.551,1.469,1.653,1.653,0,0,0,1.262.57,2.253,2.253,0,0,0,1.3-.348,2.919,2.919,0,0,0,1-1.121,4.721,4.721,0,0,0,.523-1.664,7.494,7.494,0,0,0,.023-1.211,2.6,2.6,0,0,0-.57-1.492,1.69,1.69,0,0,0-1.266-.578,2.3,2.3,0,0,0-1.859.859,4.245,4.245,0,0,0-.945,2.313Zm9.9-4.383-.18.945a3.305,3.305,0,0,1,2.57-1.094,2.608,2.608,0,0,1,1.363.367,1.8,1.8,0,0,1,.77.992,3.49,3.49,0,0,1,2.8-1.359,2.235,2.235,0,0,1,1.867.852,3.042,3.042,0,0,1,.445,2.2L39.108,41H37.7l.922-5.57a2.943,2.943,0,0,0,0-.742q-.148-1.062-1.391-1.086a2.136,2.136,0,0,0-1.4.48,2.222,2.222,0,0,0-.809,1.3L34.061,41H32.639l.938-5.562a1.786,1.786,0,0,0-.262-1.336,1.377,1.377,0,0,0-1.129-.484,2.315,2.315,0,0,0-2.1,1.2L29.014,41H27.6l1.469-8.453Zm18.547,4.273a6.707,6.707,0,0,1-.7,2.32,3.949,3.949,0,0,1-1.336,1.543,3.058,3.058,0,0,1-1.766.488,2.815,2.815,0,0,1-2.25-.992l-.758,4.078H40.725l2.031-11.7,1.281-.008-.156.945a3.207,3.207,0,0,1,2.508-1.094,2.358,2.358,0,0,1,1.9.9,3.954,3.954,0,0,1,.719,2.391,8.413,8.413,0,0,1-.039.969Zm-1.391-.16L47.592,36a2.969,2.969,0,0,0-.434-1.744,1.525,1.525,0,0,0-1.254-.636,2.508,2.508,0,0,0-2.117,1.163l-.711,4.05a1.769,1.769,0,0,0,1.711,1.155,2.224,2.224,0,0,0,1.793-.823A4.777,4.777,0,0,0,47.553,36.652Zm7.219-4.262a3.047,3.047,0,0,1,1.82.578,3.285,3.285,0,0,1,1.121,1.551,4.8,4.8,0,0,1,.246,2.16l-.016.172a5.685,5.685,0,0,1-.734,2.23,4.309,4.309,0,0,1-1.516,1.551,3.7,3.7,0,0,1-2.039.523,3.052,3.052,0,0,1-1.816-.578,3.21,3.21,0,0,1-1.113-1.531,4.931,4.931,0,0,1-.25-2.133,5.76,5.76,0,0,1,.711-2.359,4.409,4.409,0,0,1,1.527-1.621A3.652,3.652,0,0,1,54.772,32.391ZM51.9,36.922a4.8,4.8,0,0,0,0,1.023,2.507,2.507,0,0,0,.551,1.469,1.653,1.653,0,0,0,1.262.57,2.253,2.253,0,0,0,1.3-.348,2.919,2.919,0,0,0,1-1.121,4.721,4.721,0,0,0,.523-1.664,7.494,7.494,0,0,0,.023-1.211,2.6,2.6,0,0,0-.57-1.492,1.69,1.69,0,0,0-1.266-.578,2.3,2.3,0,0,0-1.859.859,4.245,4.245,0,0,0-.945,2.313Zm9.914-4.383-.2,1.07A3.333,3.333,0,0,1,64.2,32.391a2.1,2.1,0,0,1,1.766.828,3.217,3.217,0,0,1,.422,2.242L65.467,41H64.053l.93-5.557a2.962,2.962,0,0,0,.008-.71A1.168,1.168,0,0,0,63.7,33.617a2.661,2.661,0,0,0-2.234,1.358L60.42,41H59.006l1.469-8.453ZM71.3,41.156a3.048,3.048,0,0,1-2.469-1.164,4.006,4.006,0,0,1-.75-2.9l.039-.336a5.624,5.624,0,0,1,.746-2.3,4.339,4.339,0,0,1,1.5-1.566,3.491,3.491,0,0,1,1.906-.5,2.688,2.688,0,0,1,2.047.867,3.566,3.566,0,0,1,.813,2.266,6.62,6.62,0,0,1-.031,1.016l-.086.648H69.49a2.856,2.856,0,0,0,.379,1.953,1.8,1.8,0,0,0,1.551.836,3.007,3.007,0,0,0,2.313-1.125l.813.688a3.718,3.718,0,0,1-1.371,1.2A3.886,3.886,0,0,1,71.3,41.156Zm.9-7.586a2.066,2.066,0,0,0-1.527.594A4.22,4.22,0,0,0,69.639,36l4.109.008.031-.125a2.313,2.313,0,0,0-.316-1.637A1.488,1.488,0,0,0,72.2,33.57Zm6.547-1.031-.2,1.07a3.333,3.333,0,0,1,2.594-1.219,2.1,2.1,0,0,1,1.766.828,3.217,3.217,0,0,1,.422,2.242L82.4,41H80.99l.93-5.557a2.962,2.962,0,0,0,.008-.71,1.168,1.168,0,0,0-1.289-1.116A2.661,2.661,0,0,0,78.4,34.975L77.358,41H75.943l1.469-8.453Zm9.57-2.039-.359,2.047H89.5l-.2,1.117H87.772l-.883,5.258a1.833,1.833,0,0,0-.008.375.6.6,0,0,0,.664.609,4.05,4.05,0,0,0,.688-.078l-.109,1.18a3.847,3.847,0,0,1-1.031.141,1.476,1.476,0,0,1-1.266-.621A2.4,2.4,0,0,1,85.5,38.9l.859-5.234H84.865l.2-1.117h1.492l.359-2.047Zm-47.1,24.352H37.678L35.92,65H34.459l1.758-10.148H32.678l.219-1.227h8.539Zm3.383,10.3a3.048,3.048,0,0,1-2.469-1.164,4.006,4.006,0,0,1-.75-2.9l.039-.336a5.624,5.624,0,0,1,.746-2.3,4.339,4.339,0,0,1,1.5-1.566,3.491,3.491,0,0,1,1.906-.5,2.688,2.688,0,0,1,2.047.867,3.566,3.566,0,0,1,.813,2.266,6.621,6.621,0,0,1-.031,1.016l-.086.648H42.787a2.856,2.856,0,0,0,.379,1.953,1.8,1.8,0,0,0,1.551.836,3.007,3.007,0,0,0,2.313-1.125l.813.688a3.718,3.718,0,0,1-1.371,1.2A3.886,3.886,0,0,1,44.6,65.156Zm.9-7.586a2.066,2.066,0,0,0-1.527.594A4.22,4.22,0,0,0,42.936,60l4.109.008.031-.125a2.313,2.313,0,0,0-.316-1.637A1.488,1.488,0,0,0,45.5,57.57Zm8.977,5.141q.117-.875-.961-1.234l-1.469-.43q-1.859-.641-1.8-2.125a2.341,2.341,0,0,1,1.02-1.832,3.631,3.631,0,0,1,2.27-.7,3.027,3.027,0,0,1,2.082.746,2.363,2.363,0,0,1,.77,1.9l-1.406-.008a1.319,1.319,0,0,0-.4-1.031,1.576,1.576,0,0,0-1.1-.414,2.059,2.059,0,0,0-1.266.359,1.316,1.316,0,0,0-.57.922q-.1.734.9,1.07l.711.2a4.577,4.577,0,0,1,2.063.977,1.865,1.865,0,0,1,.563,1.492,2.37,2.37,0,0,1-.516,1.375,2.948,2.948,0,0,1-1.25.895,4.18,4.18,0,0,1-1.664.285,3.3,3.3,0,0,1-2.219-.785,2.427,2.427,0,0,1-.844-1.98L50.8,62.4a1.5,1.5,0,0,0,.453,1.141,1.732,1.732,0,0,0,1.242.43,2.436,2.436,0,0,0,1.336-.324A1.247,1.247,0,0,0,54.475,62.711ZM61.053,54.5l-.359,2.047h1.539l-.2,1.117H60.506l-.883,5.258a1.833,1.833,0,0,0-.008.375.6.6,0,0,0,.664.609,4.05,4.05,0,0,0,.688-.078l-.109,1.18a3.847,3.847,0,0,1-1.031.141,1.476,1.476,0,0,1-1.266-.621,2.4,2.4,0,0,1-.328-1.629l.859-5.234H57.6l.2-1.117h1.492l.359-2.047ZM67.7,62.711q.117-.875-.961-1.234l-1.469-.43q-1.859-.641-1.8-2.125a2.341,2.341,0,0,1,1.02-1.832,3.631,3.631,0,0,1,2.27-.7,3.027,3.027,0,0,1,2.082.746,2.363,2.363,0,0,1,.77,1.9l-1.406-.008a1.319,1.319,0,0,0-.4-1.031,1.576,1.576,0,0,0-1.1-.414,2.059,2.059,0,0,0-1.266.359,1.316,1.316,0,0,0-.57.922q-.1.734.9,1.07l.711.2a4.577,4.577,0,0,1,2.063.977,1.865,1.865,0,0,1,.563,1.492,2.37,2.37,0,0,1-.516,1.375,2.948,2.948,0,0,1-1.25.895,4.18,4.18,0,0,1-1.664.285,3.3,3.3,0,0,1-2.219-.785,2.427,2.427,0,0,1-.844-1.98l1.414.008a1.5,1.5,0,0,0,.453,1.141,1.732,1.732,0,0,0,1.242.43,2.436,2.436,0,0,0,1.336-.324A1.247,1.247,0,0,0,67.7,62.711Z" transform="translate(891.596 19526.025)" fill="#fff"/>
    <path id="Trazado_827917" data-name="Trazado 827917" d="M157.524,75.343c-.442,0-.924.04-1.366.04v-.4A26.74,26.74,0,0,0,133.02,48.509v-.241a5.555,5.555,0,0,0-5.544-5.544,5.657,5.657,0,0,0-2.169.442,37.1,37.1,0,0,0-68.733,6.909,14.965,14.965,0,0,0-4.258-.643,14.434,14.434,0,0,0-12.774,21.13,19.707,19.707,0,0,0,.482,39.408h117.5a17.314,17.314,0,1,0,0-34.627Z" transform="translate(1125.222 19572.525)" fill="#925f27"/>
    <path id="Trazado_827917-2" data-name="Trazado 827917" d="M157.524,75.343c-.442,0-.924.04-1.366.04v-.4A26.74,26.74,0,0,0,133.02,48.509v-.241a5.555,5.555,0,0,0-5.544-5.544,5.657,5.657,0,0,0-2.169.442,37.1,37.1,0,0,0-68.733,6.909,14.965,14.965,0,0,0-4.258-.643,14.434,14.434,0,0,0-12.774,21.13,19.707,19.707,0,0,0,.482,39.408h117.5a17.314,17.314,0,1,0,0-34.627Z" transform="translate(798.027 19572.525)" fill="#2f64a1"/>
    <path id="Trazado_830679" data-name="Trazado 830679" d="M-8.738-9.514h-3.318L-13.7,0h-1.37l1.648-9.514h-3.318l.205-1.15h8.005Zm3.42,1.443a2.856,2.856,0,0,1,1.707.542A3.08,3.08,0,0,1-2.56-6.075,4.5,4.5,0,0,1-2.329-4.05l-.015.161A5.33,5.33,0,0,1-3.032-1.8,4.04,4.04,0,0,1-4.453-.344,3.465,3.465,0,0,1-6.365.146,2.861,2.861,0,0,1-8.068-.4,3.01,3.01,0,0,1-9.111-1.831a4.623,4.623,0,0,1-.234-2,5.4,5.4,0,0,1,.667-2.212,4.134,4.134,0,0,1,1.432-1.52A3.424,3.424,0,0,1-5.317-8.071Zm-2.7,4.248a4.5,4.5,0,0,0,0,.959A2.35,2.35,0,0,0-7.5-1.487a1.55,1.55,0,0,0,1.183.535A2.112,2.112,0,0,0-5.1-1.278,2.736,2.736,0,0,0-4.16-2.329a4.426,4.426,0,0,0,.491-1.56,7.026,7.026,0,0,0,.022-1.135,2.439,2.439,0,0,0-.535-1.4,1.585,1.585,0,0,0-1.187-.542,2.16,2.16,0,0,0-1.743.806A3.98,3.98,0,0,0-8-3.992ZM3.054-8.071a2.856,2.856,0,0,1,1.707.542A3.08,3.08,0,0,1,5.812-6.075,4.5,4.5,0,0,1,6.042-4.05l-.015.161A5.33,5.33,0,0,1,5.339-1.8,4.04,4.04,0,0,1,3.918-.344,3.465,3.465,0,0,1,2.007.146,2.861,2.861,0,0,1,.3-.4,3.01,3.01,0,0,1-.74-1.831a4.623,4.623,0,0,1-.234-2A5.4,5.4,0,0,1-.308-6.042a4.134,4.134,0,0,1,1.432-1.52A3.424,3.424,0,0,1,3.054-8.071ZM.359-3.823a4.5,4.5,0,0,0,0,.959A2.35,2.35,0,0,0,.875-1.487a1.55,1.55,0,0,0,1.183.535,2.112,2.112,0,0,0,1.216-.326,2.736,2.736,0,0,0,.938-1.051A4.426,4.426,0,0,0,4.7-3.889a7.026,7.026,0,0,0,.022-1.135,2.439,2.439,0,0,0-.535-1.4A1.585,1.585,0,0,0,3-6.965,2.16,2.16,0,0,0,1.26-6.16,3.98,3.98,0,0,0,.374-3.992ZM8.459,0H7.141L9.089-11.25h1.326Zm7.075-2.146q.11-.82-.9-1.157l-1.377-.4q-1.743-.6-1.685-1.992a2.195,2.195,0,0,1,.956-1.718,3.4,3.4,0,0,1,2.128-.656,2.838,2.838,0,0,1,1.952.7,2.216,2.216,0,0,1,.721,1.783L16.011-5.6a1.237,1.237,0,0,0-.374-.967A1.478,1.478,0,0,0,14.6-6.951a1.93,1.93,0,0,0-1.187.337,1.233,1.233,0,0,0-.535.864q-.1.688.842,1l.667.183a4.291,4.291,0,0,1,1.934.916,1.748,1.748,0,0,1,.527,1.4A2.222,2.222,0,0,1,16.37-.959,2.764,2.764,0,0,1,15.2-.121a3.919,3.919,0,0,1-1.56.267,3.092,3.092,0,0,1-2.08-.736,2.275,2.275,0,0,1-.791-1.857l1.326.007a1.4,1.4,0,0,0,.425,1.069,1.624,1.624,0,0,0,1.165.4,2.284,2.284,0,0,0,1.252-.3A1.169,1.169,0,0,0,15.535-2.146Z" transform="translate(1216.832 19653.012)" fill="#fff"/>
    <path id="Trazado_830688" data-name="Trazado 830688" d="M-29.506-2.791h-4.321L-35.284,0h-1.472l5.793-10.664h1.208L-27.645,0H-29Zm-3.713-1.15h3.508L-30.6-8.914Zm11.8,3.157a3.061,3.061,0,0,1-2.366.93,1.975,1.975,0,0,1-1.681-.813,3.109,3.109,0,0,1-.406-2.139l.85-5.12H-23.7l-.857,5.142a3.415,3.415,0,0,0-.015.63,1.311,1.311,0,0,0,.315.828A1.075,1.075,0,0,0-23.478-1a2.378,2.378,0,0,0,2.2-1.15l1-5.771h1.326L-20.336,0h-1.252Zm6.563-9.06-.337,1.919h1.443l-.183,1.047H-15.37L-16.2-1.948A1.719,1.719,0,0,0-16.2-1.6a.559.559,0,0,0,.623.571,3.8,3.8,0,0,0,.645-.073l-.1,1.106a3.606,3.606,0,0,1-.967.132,1.384,1.384,0,0,1-1.187-.582A2.252,2.252,0,0,1-17.5-1.97l.806-4.907h-1.4l.183-1.047h1.4l.337-1.919Zm5.581,1.772a2.856,2.856,0,0,1,1.707.542A3.08,3.08,0,0,1-6.519-6.075,4.5,4.5,0,0,1-6.288-4.05l-.015.161A5.33,5.33,0,0,1-6.991-1.8,4.04,4.04,0,0,1-8.412-.344a3.465,3.465,0,0,1-1.912.491,2.861,2.861,0,0,1-1.7-.542A3.01,3.01,0,0,1-13.07-1.831a4.623,4.623,0,0,1-.234-2,5.4,5.4,0,0,1,.667-2.212,4.134,4.134,0,0,1,1.432-1.52A3.424,3.424,0,0,1-9.276-8.071Zm-2.7,4.248a4.5,4.5,0,0,0,0,.959,2.35,2.35,0,0,0,.516,1.377,1.55,1.55,0,0,0,1.183.535,2.112,2.112,0,0,0,1.216-.326,2.736,2.736,0,0,0,.938-1.051,4.426,4.426,0,0,0,.491-1.56,7.026,7.026,0,0,0,.022-1.135,2.439,2.439,0,0,0-.535-1.4,1.585,1.585,0,0,0-1.187-.542,2.16,2.16,0,0,0-1.743.806,3.98,3.98,0,0,0-.886,2.168Zm9.28-4.109-.168.886A3.1,3.1,0,0,1-.45-8.071a2.445,2.445,0,0,1,1.278.344,1.688,1.688,0,0,1,.721.93A3.272,3.272,0,0,1,4.178-8.071a2.1,2.1,0,0,1,1.75.8,2.852,2.852,0,0,1,.417,2.065L5.475,0H4.156l.864-5.222a2.759,2.759,0,0,0,0-.7q-.139-1-1.3-1.018a2,2,0,0,0-1.315.45,2.083,2.083,0,0,0-.758,1.219L.743,0H-.59L.289-5.215A1.674,1.674,0,0,0,.044-6.467a1.291,1.291,0,0,0-1.058-.454,2.17,2.17,0,0,0-1.97,1.128L-3.988,0H-5.314l1.377-7.925ZM12.367,0a1.775,1.775,0,0,1-.051-.417l.022-.417a3.249,3.249,0,0,1-2.314.981,2.368,2.368,0,0,1-1.7-.663,2.006,2.006,0,0,1-.6-1.622,2.44,2.44,0,0,1,1.1-1.967,4.693,4.693,0,0,1,2.706-.707l1.384.007L13-5.435a1.448,1.448,0,0,0-.275-1.124,1.326,1.326,0,0,0-1.044-.428,2.044,2.044,0,0,0-1.2.333,1.418,1.418,0,0,0-.641.919l-1.333.007a2.125,2.125,0,0,1,.542-1.234A3.153,3.153,0,0,1,10.272-7.8a3.951,3.951,0,0,1,1.545-.282,2.627,2.627,0,0,1,1.926.751,2.328,2.328,0,0,1,.579,1.915l-.645,3.926-.037.564a2.765,2.765,0,0,0,.088.8L13.715,0Zm-2.08-1.025a2.312,2.312,0,0,0,1.2-.3,3.051,3.051,0,0,0,.978-.883l.286-1.633-1-.007a3.8,3.8,0,0,0-1.919.4,1.457,1.457,0,0,0-.754,1.121,1.135,1.135,0,0,0,.26.927A1.238,1.238,0,0,0,10.287-1.025ZM19.01-9.844l-.337,1.919h1.443l-.183,1.047H18.5L17.67-1.948a1.719,1.719,0,0,0-.007.352.559.559,0,0,0,.623.571,3.8,3.8,0,0,0,.645-.073l-.1,1.106a3.606,3.606,0,0,1-.967.132,1.384,1.384,0,0,1-1.187-.582,2.252,2.252,0,0,1-.308-1.527l.806-4.907h-1.4l.183-1.047h1.4l.337-1.919ZM23.763.146A2.857,2.857,0,0,1,21.449-.945a3.756,3.756,0,0,1-.7-2.717l.037-.315a5.273,5.273,0,0,1,.7-2.153,4.068,4.068,0,0,1,1.4-1.469,3.273,3.273,0,0,1,1.787-.472,2.52,2.52,0,0,1,1.919.813,3.343,3.343,0,0,1,.762,2.124,6.207,6.207,0,0,1-.029.952l-.081.608H22.064a2.677,2.677,0,0,0,.355,1.831,1.683,1.683,0,0,0,1.454.784,2.819,2.819,0,0,0,2.168-1.055l.762.645A3.486,3.486,0,0,1,25.518-.245,3.643,3.643,0,0,1,23.763.146Zm.842-7.112a1.937,1.937,0,0,0-1.432.557,3.956,3.956,0,0,0-.97,1.721l3.853.007.029-.117a2.168,2.168,0,0,0-.3-1.534A1.4,1.4,0,0,0,24.606-6.965Zm3.889,2.988a6.166,6.166,0,0,1,.667-2.183,3.779,3.779,0,0,1,1.282-1.458,2.931,2.931,0,0,1,1.677-.461,2.475,2.475,0,0,1,2.036.967l.762-4.138h1.326L34.3,0H33.087l.139-.85a2.921,2.921,0,0,1-2.314,1,2.189,2.189,0,0,1-1.75-.861,3.75,3.75,0,0,1-.7-2.23A7.123,7.123,0,0,1,28.495-3.977Zm1.274.757A2.746,2.746,0,0,0,30.143-1.6,1.347,1.347,0,0,0,31.3-1a2.4,2.4,0,0,0,2.043-1.156l.63-3.658a1.644,1.644,0,0,0-1.6-1.112A2.009,2.009,0,0,0,31-6.457a3.052,3.052,0,0,0-.908,1.383A5.7,5.7,0,0,0,29.769-3.22Z" transform="translate(888.236 19649.936)" fill="#fff"/>
    <path id="Trazado_830682" data-name="Trazado 830682" d="M0,0H76V23A13,13,0,0,1,63,36H13A13,13,0,0,1,0,23Z" transform="translate(1004 19505.918)" fill="#e9ba20"/>
    <path id="Trazado_830686" data-name="Trazado 830686" d="M-1.447-5.12a6.889,6.889,0,0,1-.875,2.626A5.378,5.378,0,0,1-4.01-.725L-2.582.688l-1.663,1.26L-6.134.11a5.4,5.4,0,0,1-.615.029A3.778,3.778,0,0,1-8.657-.352,3.432,3.432,0,0,1-9.972-1.743a5.124,5.124,0,0,1-.564-2.08,8.454,8.454,0,0,1,.125-1.952A7.353,7.353,0,0,1-9.76-7.822a5.515,5.515,0,0,1,1.9-2.223,4.619,4.619,0,0,1,2.7-.765,3.862,3.862,0,0,1,1.9.5,3.487,3.487,0,0,1,1.315,1.4,5.062,5.062,0,0,1,.575,2.069,6.806,6.806,0,0,1-.037,1.3ZM-3.871-6.9a2.55,2.55,0,0,0-.414-1.414A1.311,1.311,0,0,0-5.3-8.8a1.985,1.985,0,0,0-1.729.835,5.43,5.43,0,0,0-.894,2.585,8.785,8.785,0,0,0-.1,1.626q.073,1.853,1.436,1.9a1.92,1.92,0,0,0,1.659-.773A5.073,5.073,0,0,0-4.01-5.068,10.153,10.153,0,0,0-3.871-6.9ZM4.149,0H1.732L3.094-7.837l-2.483.7L.948-9.089l4.717-1.575.271-.007Z" transform="translate(1023.673 19530.85)" fill="#fff"/>
    <path id="Trazado_830683" data-name="Trazado 830683" d="M-1.447-5.12a6.889,6.889,0,0,1-.875,2.626A5.378,5.378,0,0,1-4.01-.725L-2.582.688l-1.663,1.26L-6.134.11a5.4,5.4,0,0,1-.615.029A3.778,3.778,0,0,1-8.657-.352,3.432,3.432,0,0,1-9.972-1.743a5.124,5.124,0,0,1-.564-2.08,8.454,8.454,0,0,1,.125-1.952A7.353,7.353,0,0,1-9.76-7.822a5.515,5.515,0,0,1,1.9-2.223,4.619,4.619,0,0,1,2.7-.765,3.862,3.862,0,0,1,1.9.5,3.487,3.487,0,0,1,1.315,1.4,5.062,5.062,0,0,1,.575,2.069,6.806,6.806,0,0,1-.037,1.3ZM-3.871-6.9a2.55,2.55,0,0,0-.414-1.414A1.311,1.311,0,0,0-5.3-8.8a1.985,1.985,0,0,0-1.729.835,5.43,5.43,0,0,0-.894,2.585,8.785,8.785,0,0,0-.1,1.626q.073,1.853,1.436,1.9a1.92,1.92,0,0,0,1.659-.773A5.073,5.073,0,0,0-4.01-5.068,10.153,10.153,0,0,0-3.871-6.9ZM5.892-4.167H6.94l-.33,1.9H5.563L5.167,0H2.758l.4-2.263H-.839l.132-1.626L4.53-10.642v-.051l2.49.037ZM1.666-4.182l1.816.015.645-3.311Z" transform="translate(1062.431 19530.85)" fill="#fff"/>
    <path id="Trazado_830685" data-name="Trazado 830685" d="M0,0V173" transform="translate(1041.5 19506.418)" fill="none" stroke="#fff" stroke-width="1"/>
    <path id="Trazado_830681" data-name="Trazado 830681" d="M35.216,7.742H31.9L30.3,17h-2.68l1.609-9.258H25.974l.375-2.117h9.234Zm3.664,9.414a3.929,3.929,0,0,1-2.02-.535,3.372,3.372,0,0,1-1.34-1.469,3.946,3.946,0,0,1-.359-2.074l.023-.219a5.182,5.182,0,0,1,1.449-3.3,4.009,4.009,0,0,1,3.035-1.168,3.269,3.269,0,0,1,1.859.552,3.082,3.082,0,0,1,1.133,1.479,4.529,4.529,0,0,1,.234,2.117l-.148,1.072H37.716a1.648,1.648,0,0,0,.375,1.078,1.377,1.377,0,0,0,1.047.438,2.66,2.66,0,0,0,2.008-.859l1.078,1.426a3.181,3.181,0,0,1-1.332,1.064,4.678,4.678,0,0,1-1.871.4Zm.625-6.734a1.322,1.322,0,0,0-.949.342,2.87,2.87,0,0,0-.7,1.2h2.57l.047-.225a1.715,1.715,0,0,0,.016-.513A.9.9,0,0,0,39.505,10.422Zm7.617,4.7a1.106,1.106,0,0,0,.867-.306,1.526,1.526,0,0,0,.4-.834l2.406-.008a3.163,3.163,0,0,1-.551,1.664,3.328,3.328,0,0,1-1.359,1.137,4.019,4.019,0,0,1-1.832.379,3.173,3.173,0,0,1-2.6-1.215,4.2,4.2,0,0,1-.742-3.059l.023-.187a5.663,5.663,0,0,1,.719-2.27A4.112,4.112,0,0,1,45.97,8.9a3.941,3.941,0,0,1,2.105-.508,3.143,3.143,0,0,1,2.332.941,3.338,3.338,0,0,1,.824,2.457l-2.406-.008q.039-1.336-.961-1.359Q46.505,10.375,46.3,12.7l-.07.794-.008.3Q46.224,15.1,47.122,15.125Zm7.945-5.656a2.762,2.762,0,0,1,2.18-1.086,2.2,2.2,0,0,1,1.887.93,3.539,3.539,0,0,1,.441,2.438L58.7,17H56.13l.883-5.287a2.737,2.737,0,0,0,.016-.5.781.781,0,0,0-.859-.8,1.665,1.665,0,0,0-1.234.508L53.857,17h-2.57L53.372,5h2.57ZM64,8.539l-.18,1.016a3,3,0,0,1,2.445-1.172,2.018,2.018,0,0,1,1.746.871,3.646,3.646,0,0,1,.418,2.426L67.536,17H64.958l.9-5.342a2.763,2.763,0,0,0,.016-.5q-.055-.743-.875-.743a1.606,1.606,0,0,0-1.242.6L62.7,17H60.13L61.6,8.547Zm9.945-.148a3.55,3.55,0,0,1,1.961.566,3.191,3.191,0,0,1,1.215,1.535A4.737,4.737,0,0,1,77.4,12.68l-.016.172a5.01,5.01,0,0,1-1.445,3.141A4.067,4.067,0,0,1,72.9,17.156a3.535,3.535,0,0,1-1.945-.559,3.211,3.211,0,0,1-1.215-1.52,4.6,4.6,0,0,1-.285-2.172,5.211,5.211,0,0,1,1.426-3.312A4.041,4.041,0,0,1,73.943,8.391ZM72.028,12.91l-.023.46q-.109,1.739,1.063,1.771,1.516.047,1.758-2.457l.031-.71a1.916,1.916,0,0,0-.262-1.119.954.954,0,0,0-.816-.433A1.344,1.344,0,0,0,72.61,11,3.8,3.8,0,0,0,72.028,12.91ZM80.521,17H77.943L80.021,5H82.6Zm6.563-8.609a3.55,3.55,0,0,1,1.961.566,3.191,3.191,0,0,1,1.215,1.535,4.737,4.737,0,0,1,.277,2.188l-.016.172a5.01,5.01,0,0,1-1.445,3.141,4.067,4.067,0,0,1-3.031,1.164A3.535,3.535,0,0,1,84.1,16.6a3.211,3.211,0,0,1-1.215-1.52,4.6,4.6,0,0,1-.285-2.172,5.211,5.211,0,0,1,1.426-3.312A4.041,4.041,0,0,1,87.083,8.391ZM85.169,12.91l-.023.46q-.109,1.739,1.063,1.771,1.516.047,1.758-2.457l.031-.71a1.916,1.916,0,0,0-.262-1.119.954.954,0,0,0-.816-.433A1.344,1.344,0,0,0,85.751,11,3.8,3.8,0,0,0,85.169,12.91Zm6.219-.152a6.423,6.423,0,0,1,.7-2.3,4.057,4.057,0,0,1,1.379-1.559,3.32,3.32,0,0,1,1.875-.512,2.308,2.308,0,0,1,1.922.914l.273-.758,2.375.008-1.383,8.125a3.971,3.971,0,0,1-1.508,2.711,4.8,4.8,0,0,1-3.172.945,4.529,4.529,0,0,1-1.633-.336,3.518,3.518,0,0,1-1.352-.969l1.219-1.516a2.213,2.213,0,0,0,1.766.883,2.066,2.066,0,0,0,2.172-1.82l.063-.258a2.643,2.643,0,0,1-1.93.844,2.606,2.606,0,0,1-1.43-.41,2.7,2.7,0,0,1-.969-1.16,4.512,4.512,0,0,1-.4-1.687A7.336,7.336,0,0,1,91.388,12.758Zm2.539.836a2.05,2.05,0,0,0,.258,1.117.874.874,0,0,0,.75.414,1.718,1.718,0,0,0,1.32-.562l.664-3.586a1.139,1.139,0,0,0-1.047-.562,1.5,1.5,0,0,0-1.258.637,3.432,3.432,0,0,0-.641,1.715Q93.927,13.258,93.927,13.594Zm9.914-.312,2.188-4.734h2.836l-4.953,9.719a4.235,4.235,0,0,1-1.277,1.66,2.9,2.9,0,0,1-1.723.512,4.865,4.865,0,0,1-1.133-.172l.2-1.883h.3a2.128,2.128,0,0,0,.836-.152,1.273,1.273,0,0,0,.6-.59l.367-.7-1.352-8.391h2.656Zm16.047-.812H115.6L114.81,17h-2.672l1.969-11.375h7.4l-.367,2.117h-4.719l-.453,2.617h4.289Zm5.2,4.531a2.292,2.292,0,0,1-.109-.766,2.608,2.608,0,0,1-2.07.922,2.548,2.548,0,0,1-1.828-.734,2.207,2.207,0,0,1-.68-1.742,2.48,2.48,0,0,1,1.148-2.113,5.415,5.415,0,0,1,3.031-.738l.859.016.094-.477.031-.414a.671.671,0,0,0-.711-.734.988.988,0,0,0-1.039.93l-2.578.008a2.448,2.448,0,0,1,.555-1.48,3.288,3.288,0,0,1,1.4-.969,4.9,4.9,0,0,1,1.887-.316,3.778,3.778,0,0,1,1.684.4,2.506,2.506,0,0,1,1.082,1.055,2.694,2.694,0,0,1,.273,1.559l-.633,3.977-.039.484a2.135,2.135,0,0,0,.148.984l-.008.148Zm-1.469-1.7A1.658,1.658,0,0,0,125,14.6l.258-1.359-.664-.008a1.75,1.75,0,0,0-1.062.363,1.378,1.378,0,0,0-.523.949.692.692,0,0,0,.121.527A.619.619,0,0,0,123.614,15.3Zm8.93-.172a1.106,1.106,0,0,0,.867-.306,1.526,1.526,0,0,0,.4-.834l2.406-.008a3.163,3.163,0,0,1-.551,1.664,3.328,3.328,0,0,1-1.359,1.137,4.019,4.019,0,0,1-1.832.379,3.173,3.173,0,0,1-2.6-1.215,4.2,4.2,0,0,1-.742-3.059l.023-.187a5.663,5.663,0,0,1,.719-2.27,4.112,4.112,0,0,1,1.52-1.527,3.941,3.941,0,0,1,2.105-.508,3.143,3.143,0,0,1,2.332.941,3.338,3.338,0,0,1,.824,2.457l-2.406-.008q.039-1.336-.961-1.359-1.359-.047-1.562,2.281l-.07.794-.008.3Q131.646,15.1,132.544,15.125ZM139.482,17H136.9l1.469-8.453h2.578ZM138.6,6.414a1.192,1.192,0,0,1,.4-.953,1.444,1.444,0,0,1,1.012-.383,1.491,1.491,0,0,1,1,.344,1.172,1.172,0,0,1,.418.9,1.194,1.194,0,0,1-.4.957,1.449,1.449,0,0,1-1.016.379,1.51,1.51,0,0,1-1-.34A1.158,1.158,0,0,1,138.6,6.414Zm6.328,2.125-.18,1.016a3,3,0,0,1,2.445-1.172,2.018,2.018,0,0,1,1.746.871,3.646,3.646,0,0,1,.418,2.426L148.466,17h-2.578l.9-5.342a2.763,2.763,0,0,0,.016-.5q-.055-.743-.875-.743a1.606,1.606,0,0,0-1.242.6L143.63,17h-2.57l1.469-8.453Zm5.453,4.219a6.423,6.423,0,0,1,.7-2.3,4.057,4.057,0,0,1,1.379-1.559,3.32,3.32,0,0,1,1.875-.512,2.308,2.308,0,0,1,1.922.914l.273-.758,2.375.008-1.383,8.125a3.971,3.971,0,0,1-1.508,2.711,4.8,4.8,0,0,1-3.172.945,4.529,4.529,0,0,1-1.633-.336,3.518,3.518,0,0,1-1.352-.969l1.219-1.516a2.213,2.213,0,0,0,1.766.883,2.066,2.066,0,0,0,2.172-1.82l.063-.258a2.643,2.643,0,0,1-1.93.844,2.606,2.606,0,0,1-1.43-.41,2.7,2.7,0,0,1-.969-1.16,4.512,4.512,0,0,1-.4-1.687A7.336,7.336,0,0,1,150.38,12.758Zm2.539.836a2.05,2.05,0,0,0,.258,1.117.874.874,0,0,0,.75.414,1.718,1.718,0,0,0,1.32-.562l.664-3.586a1.139,1.139,0,0,0-1.047-.562,1.5,1.5,0,0,0-1.258.637,3.432,3.432,0,0,0-.641,1.715Q152.919,13.258,152.919,13.594Z" transform="translate(950 19692.354)" fill="#273a89"/>
  </g>
</svg>
