<svg xmlns="http://www.w3.org/2000/svg" width="291.589" height="250.227" viewBox="0 0 291.589 250.227">
  <g id="Grupo_1084970" data-name="Grupo 1084970" transform="translate(-946.5 -20349.318)">
    <path id="Trazado_830703" data-name="Trazado 830703" d="M0,0H212.456V148.846H0Z" transform="translate(946.544 20349.318)" fill="#4d6828"/>
    <path id="Trazado_830704" data-name="Trazado 830704" d="M0,0H212.456V108.159H0Z" transform="translate(946.544 20491.387)" fill="#a86e2f"/>
    <path id="Trazado_830706" data-name="Trazado 830706" d="M32.517,11.742H27.735l-.7,4.031h5.563L32.376,17H25.353L27.329,5.625h6.945l-.219,1.227H28.579l-.633,3.664h4.781Zm5.148-.117,2.3-3.078H41.7L38.306,12.8,40.368,17H38.829l-1.4-3.156L35.048,17H33.321l3.492-4.344-2-4.109H36.36Zm11.8,1.188a6.707,6.707,0,0,1-.7,2.32,3.949,3.949,0,0,1-1.336,1.543,3.058,3.058,0,0,1-1.766.488,2.815,2.815,0,0,1-2.25-.992l-.758,4.078H41.243l2.031-11.7,1.281-.008-.156.945a3.207,3.207,0,0,1,2.508-1.094,2.358,2.358,0,0,1,1.9.9,3.954,3.954,0,0,1,.719,2.391,8.413,8.413,0,0,1-.039.969Zm-1.391-.16L48.11,12a2.969,2.969,0,0,0-.434-1.744,1.525,1.525,0,0,0-1.254-.636,2.508,2.508,0,0,0-2.117,1.163l-.711,4.05a1.769,1.769,0,0,0,1.711,1.155,2.224,2.224,0,0,0,1.793-.823A4.777,4.777,0,0,0,48.071,12.652ZM52.126,17H50.72L52.8,5h1.414Zm7.008-8.609a3.047,3.047,0,0,1,1.82.578,3.285,3.285,0,0,1,1.121,1.551,4.8,4.8,0,0,1,.246,2.16l-.016.172a5.685,5.685,0,0,1-.734,2.23,4.309,4.309,0,0,1-1.516,1.551,3.7,3.7,0,0,1-2.039.523,3.052,3.052,0,0,1-1.816-.578,3.21,3.21,0,0,1-1.113-1.531,4.931,4.931,0,0,1-.25-2.133,5.76,5.76,0,0,1,.711-2.359,4.409,4.409,0,0,1,1.527-1.621A3.652,3.652,0,0,1,59.134,8.391Zm-2.875,4.531a4.8,4.8,0,0,0,0,1.023,2.507,2.507,0,0,0,.551,1.469,1.653,1.653,0,0,0,1.262.57,2.253,2.253,0,0,0,1.3-.348,2.919,2.919,0,0,0,1-1.121,4.721,4.721,0,0,0,.523-1.664,7.494,7.494,0,0,0,.023-1.211,2.6,2.6,0,0,0-.57-1.492,1.69,1.69,0,0,0-1.266-.578,2.3,2.3,0,0,0-1.859.859,4.245,4.245,0,0,0-.945,2.313ZM68.626,9.836l-.664-.07a2.42,2.42,0,0,0-2.141,1.227L64.782,17H63.368l1.469-8.453L66.2,8.539l-.211.984A2.527,2.527,0,0,1,68.11,8.375a2.594,2.594,0,0,1,.672.117ZM73.556,17a1.893,1.893,0,0,1-.055-.445l.023-.445a3.465,3.465,0,0,1-2.469,1.047,2.526,2.526,0,0,1-1.816-.707,2.14,2.14,0,0,1-.637-1.73,2.6,2.6,0,0,1,1.176-2.1,5.005,5.005,0,0,1,2.887-.754l1.477.008.094-.672a1.545,1.545,0,0,0-.293-1.2,1.414,1.414,0,0,0-1.113-.457,2.181,2.181,0,0,0-1.285.355,1.513,1.513,0,0,0-.684.98l-1.422.008a2.266,2.266,0,0,1,.578-1.316,3.363,3.363,0,0,1,1.3-.891,4.215,4.215,0,0,1,1.648-.3,2.8,2.8,0,0,1,2.055.8,2.484,2.484,0,0,1,.617,2.043l-.687,4.188-.039.6a2.949,2.949,0,0,0,.094.852L74.993,17Zm-2.219-1.094a2.466,2.466,0,0,0,1.285-.324,3.254,3.254,0,0,0,1.043-.941l.3-1.742-1.07-.008a4.054,4.054,0,0,0-2.047.422,1.554,1.554,0,0,0-.8,1.2,1.21,1.21,0,0,0,.277.988A1.321,1.321,0,0,0,71.337,15.906Zm9.3-9.406-.359,2.047h1.539l-.2,1.117H80.095l-.883,5.258a1.833,1.833,0,0,0-.008.375.6.6,0,0,0,.664.609,4.05,4.05,0,0,0,.688-.078l-.109,1.18a3.847,3.847,0,0,1-1.031.141,1.476,1.476,0,0,1-1.266-.621,2.4,2.4,0,0,1-.328-1.629l.859-5.234H77.189l.2-1.117h1.492L79.235,6.5Zm5.953,1.891a3.047,3.047,0,0,1,1.82.578,3.285,3.285,0,0,1,1.121,1.551,4.8,4.8,0,0,1,.246,2.16l-.016.172a5.685,5.685,0,0,1-.734,2.23,4.309,4.309,0,0,1-1.516,1.551,3.7,3.7,0,0,1-2.039.523,3.052,3.052,0,0,1-1.816-.578,3.21,3.21,0,0,1-1.113-1.531,4.931,4.931,0,0,1-.25-2.133,5.76,5.76,0,0,1,.711-2.359,4.409,4.409,0,0,1,1.527-1.621A3.652,3.652,0,0,1,86.595,8.391ZM83.72,12.922a4.8,4.8,0,0,0,0,1.023,2.507,2.507,0,0,0,.551,1.469,1.653,1.653,0,0,0,1.262.57,2.253,2.253,0,0,0,1.3-.348,2.919,2.919,0,0,0,1-1.121,4.721,4.721,0,0,0,.523-1.664,7.5,7.5,0,0,0,.023-1.211,2.6,2.6,0,0,0-.57-1.492A1.69,1.69,0,0,0,86.54,9.57a2.3,2.3,0,0,0-1.859.859,4.245,4.245,0,0,0-.945,2.313ZM96.087,9.836l-.664-.07a2.42,2.42,0,0,0-2.141,1.227L92.243,17H90.829L92.3,8.547l1.367-.008-.211.984a2.527,2.527,0,0,1,2.117-1.148,2.594,2.594,0,0,1,.672.117Zm3.1,5.031,3.008-6.32h1.563l-5.016,9.859q-1.047,2.055-2.687,2.031A4.6,4.6,0,0,1,95.2,20.3l.125-1.172.367.039a1.853,1.853,0,0,0,1.16-.3,2.772,2.772,0,0,0,.863-1.074l.508-.969L96.767,8.547h1.477ZM116.8,6.852h-3.539L111.5,17H110.04L111.8,6.852h-3.539l.219-1.227h8.539Zm3.383,10.3a3.048,3.048,0,0,1-2.469-1.164,4.006,4.006,0,0,1-.75-2.9l.039-.336a5.624,5.624,0,0,1,.746-2.3,4.339,4.339,0,0,1,1.5-1.566,3.491,3.491,0,0,1,1.906-.5,2.688,2.688,0,0,1,2.047.867,3.566,3.566,0,0,1,.813,2.266,6.62,6.62,0,0,1-.031,1.016l-.086.648h-5.523a2.856,2.856,0,0,0,.379,1.953,1.8,1.8,0,0,0,1.551.836,3.007,3.007,0,0,0,2.313-1.125l.813.688a3.718,3.718,0,0,1-1.371,1.2A3.886,3.886,0,0,1,120.181,17.156Zm.9-7.586a2.066,2.066,0,0,0-1.527.594A4.22,4.22,0,0,0,118.517,12l4.109.008.031-.125a2.313,2.313,0,0,0-.316-1.637A1.488,1.488,0,0,0,121.079,9.57Zm8.977,5.141q.117-.875-.961-1.234l-1.469-.43q-1.859-.641-1.8-2.125a2.341,2.341,0,0,1,1.02-1.832,3.631,3.631,0,0,1,2.27-.7,3.027,3.027,0,0,1,2.082.746,2.363,2.363,0,0,1,.77,1.9l-1.406-.008a1.319,1.319,0,0,0-.4-1.031,1.576,1.576,0,0,0-1.1-.414,2.059,2.059,0,0,0-1.266.359,1.316,1.316,0,0,0-.57.922q-.1.734.9,1.07l.711.2a4.577,4.577,0,0,1,2.063.977,1.865,1.865,0,0,1,.563,1.492,2.37,2.37,0,0,1-.516,1.375,2.948,2.948,0,0,1-1.25.895,4.18,4.18,0,0,1-1.664.285,3.3,3.3,0,0,1-2.219-.785,2.427,2.427,0,0,1-.844-1.98l1.414.008a1.5,1.5,0,0,0,.453,1.141,1.732,1.732,0,0,0,1.242.43,2.436,2.436,0,0,0,1.336-.324A1.247,1.247,0,0,0,130.056,14.711ZM136.634,6.5l-.359,2.047h1.539l-.2,1.117h-1.531l-.883,5.258a1.833,1.833,0,0,0-.008.375.6.6,0,0,0,.664.609,4.05,4.05,0,0,0,.688-.078l-.109,1.18a3.847,3.847,0,0,1-1.031.141,1.476,1.476,0,0,1-1.266-.621,2.4,2.4,0,0,1-.328-1.629l.859-5.234h-1.492l.2-1.117h1.492l.359-2.047ZM139.579,17h-1.406l1.469-8.453h1.406Zm1.164-11.539a.774.774,0,0,1,.6.215.8.8,0,0,1,.238.605.834.834,0,0,1-.836.852.779.779,0,0,1-.6-.211.764.764,0,0,1-.227-.594.886.886,0,0,1,.234-.609A.826.826,0,0,1,140.743,5.461ZM144.7,8.539l-.2,1.07a3.333,3.333,0,0,1,2.594-1.219,2.1,2.1,0,0,1,1.766.828,3.217,3.217,0,0,1,.422,2.242L148.353,17h-1.414l.93-5.557a2.962,2.962,0,0,0,.008-.71,1.168,1.168,0,0,0-1.289-1.116,2.661,2.661,0,0,0-2.234,1.358L143.306,17h-1.414l1.469-8.453Zm6.25,4.219a6.889,6.889,0,0,1,.746-2.4,3.9,3.9,0,0,1,1.359-1.508,3.151,3.151,0,0,1,1.754-.465,2.6,2.6,0,0,1,2.219,1.109l.281-.945h1.3L157.2,16.82a4.113,4.113,0,0,1-1.312,2.59,3.7,3.7,0,0,1-2.68.926,3.8,3.8,0,0,1-1.645-.406,3.127,3.127,0,0,1-1.238-1.07l.8-.867a2.536,2.536,0,0,0,3.73.6,2.9,2.9,0,0,0,.926-1.687l.156-.75a3.2,3.2,0,0,1-2.414,1,2.486,2.486,0,0,1-1.371-.426,2.589,2.589,0,0,1-.9-1.164,4.759,4.759,0,0,1-.352-1.7A8.731,8.731,0,0,1,150.946,12.758Zm1.367.8a2.974,2.974,0,0,0,.387,1.728,1.461,1.461,0,0,0,1.238.644,2.561,2.561,0,0,0,2.18-1.241l.664-3.878a1.776,1.776,0,0,0-1.7-1.2,2.194,2.194,0,0,0-1.887.936,4.878,4.878,0,0,0-.871,2.614ZM64.271,38.07q.172-1.25-1.3-1.828l-1.352-.492-.453-.2q-2.281-1.039-2.133-2.922a3.056,3.056,0,0,1,.648-1.672A3.69,3.69,0,0,1,61.2,29.84a4.849,4.849,0,0,1,2-.371,4,4,0,0,1,1.84.461,2.962,2.962,0,0,1,1.23,1.223,3.333,3.333,0,0,1,.375,1.77l-1.477-.008a2.037,2.037,0,0,0-.469-1.627,2.1,2.1,0,0,0-1.562-.592,2.91,2.91,0,0,0-1.789.5,1.955,1.955,0,0,0-.828,1.409q-.156,1.166,1.43,1.769l1.164.415.586.25a2.941,2.941,0,0,1,2.039,3.016,3.012,3.012,0,0,1-.648,1.66A3.626,3.626,0,0,1,63.564,40.8a5.266,5.266,0,0,1-2.074.359,4.339,4.339,0,0,1-1.957-.457,3.193,3.193,0,0,1-1.348-1.23,3.078,3.078,0,0,1-.406-1.773l1.469.008a1.935,1.935,0,0,0,.551,1.613,2.479,2.479,0,0,0,1.754.613,3.131,3.131,0,0,0,1.867-.492A1.916,1.916,0,0,0,64.271,38.07Zm6.25,1.914a2.145,2.145,0,0,0,1.367-.441,2.1,2.1,0,0,0,.8-1.2l1.336-.008a3.014,3.014,0,0,1-.637,1.453,3.68,3.68,0,0,1-2.926,1.367,3.017,3.017,0,0,1-1.785-.551A3.084,3.084,0,0,1,67.6,39.113a4.972,4.972,0,0,1-.234-2.152l.039-.391a5.605,5.605,0,0,1,.711-2.18,4.11,4.11,0,0,1,1.469-1.5,3.648,3.648,0,0,1,2-.5,2.857,2.857,0,0,1,2.125.891,3.08,3.08,0,0,1,.8,2.18l-1.32-.008a2.029,2.029,0,0,0-.461-1.34,1.607,1.607,0,0,0-1.2-.543,2.254,2.254,0,0,0-1.832.82,4.3,4.3,0,0,0-.91,2.359l-.023.2a6.776,6.776,0,0,0-.016,1.031,2.355,2.355,0,0,0,.516,1.445A1.656,1.656,0,0,0,70.521,39.984Zm8.289,1.172a3.048,3.048,0,0,1-2.469-1.164,4.006,4.006,0,0,1-.75-2.9l.039-.336a5.624,5.624,0,0,1,.746-2.3,4.339,4.339,0,0,1,1.5-1.566,3.491,3.491,0,0,1,1.906-.5,2.688,2.688,0,0,1,2.047.867,3.566,3.566,0,0,1,.813,2.266,6.62,6.62,0,0,1-.031,1.016l-.086.648H77a2.856,2.856,0,0,0,.379,1.953,1.8,1.8,0,0,0,1.551.836,3.007,3.007,0,0,0,2.313-1.125l.813.688a3.718,3.718,0,0,1-1.371,1.2A3.886,3.886,0,0,1,78.81,41.156Zm.9-7.586a2.066,2.066,0,0,0-1.527.594A4.22,4.22,0,0,0,77.146,36l4.109.008.031-.125a2.313,2.313,0,0,0-.316-1.637A1.488,1.488,0,0,0,79.708,33.57Zm6.547-1.031-.2,1.07a3.333,3.333,0,0,1,2.594-1.219,2.1,2.1,0,0,1,1.766.828,3.217,3.217,0,0,1,.422,2.242L89.911,41H88.5l.93-5.557a2.962,2.962,0,0,0,.008-.71,1.168,1.168,0,0,0-1.289-1.116,2.661,2.661,0,0,0-2.234,1.358L84.864,41H83.45l1.469-8.453ZM97.263,41a1.893,1.893,0,0,1-.055-.445l.023-.445a3.465,3.465,0,0,1-2.469,1.047,2.526,2.526,0,0,1-1.816-.707,2.14,2.14,0,0,1-.637-1.73,2.6,2.6,0,0,1,1.176-2.1,5.005,5.005,0,0,1,2.887-.754l1.477.008.094-.672A1.545,1.545,0,0,0,97.65,34a1.414,1.414,0,0,0-1.113-.457,2.181,2.181,0,0,0-1.285.355,1.513,1.513,0,0,0-.684.98l-1.422.008a2.266,2.266,0,0,1,.578-1.316,3.363,3.363,0,0,1,1.3-.891,4.215,4.215,0,0,1,1.648-.3,2.8,2.8,0,0,1,2.055.8,2.484,2.484,0,0,1,.617,2.043l-.687,4.188-.039.6a2.949,2.949,0,0,0,.094.852L98.7,41Zm-2.219-1.094a2.466,2.466,0,0,0,1.285-.324,3.254,3.254,0,0,0,1.043-.941l.3-1.742-1.07-.008a4.054,4.054,0,0,0-2.047.422,1.554,1.554,0,0,0-.8,1.2,1.21,1.21,0,0,0,.277.988A1.321,1.321,0,0,0,95.044,39.906Zm10.828-6.07-.664-.07a2.42,2.42,0,0,0-2.141,1.227L102.028,41h-1.414l1.469-8.453,1.367-.008-.211.984a2.527,2.527,0,0,1,2.117-1.148,2.594,2.594,0,0,1,.672.117Zm1.6,7.164h-1.406l1.469-8.453h1.406Zm1.164-11.539a.774.774,0,0,1,.6.215.8.8,0,0,1,.238.605.834.834,0,0,1-.836.852.779.779,0,0,1-.6-.211.764.764,0,0,1-.227-.594.886.886,0,0,1,.234-.609A.826.826,0,0,1,108.638,29.461Zm5.844,2.93a3.047,3.047,0,0,1,1.82.578,3.285,3.285,0,0,1,1.121,1.551,4.8,4.8,0,0,1,.246,2.16l-.016.172a5.685,5.685,0,0,1-.734,2.23,4.309,4.309,0,0,1-1.516,1.551,3.7,3.7,0,0,1-2.039.523,3.052,3.052,0,0,1-1.816-.578,3.21,3.21,0,0,1-1.113-1.531,4.931,4.931,0,0,1-.25-2.133,5.76,5.76,0,0,1,.711-2.359,4.409,4.409,0,0,1,1.527-1.621A3.652,3.652,0,0,1,114.482,32.391Zm-2.875,4.531a4.8,4.8,0,0,0,0,1.023,2.507,2.507,0,0,0,.551,1.469,1.653,1.653,0,0,0,1.262.57,2.253,2.253,0,0,0,1.3-.348,2.919,2.919,0,0,0,1-1.121,4.721,4.721,0,0,0,.523-1.664,7.5,7.5,0,0,0,.023-1.211,2.6,2.6,0,0,0-.57-1.492,1.69,1.69,0,0,0-1.266-.578,2.3,2.3,0,0,0-1.859.859,4.245,4.245,0,0,0-.945,2.313Zm12.344,1.789q.117-.875-.961-1.234l-1.469-.43q-1.859-.641-1.8-2.125a2.341,2.341,0,0,1,1.02-1.832,3.631,3.631,0,0,1,2.27-.7,3.027,3.027,0,0,1,2.082.746,2.363,2.363,0,0,1,.77,1.9l-1.406-.008a1.319,1.319,0,0,0-.4-1.031,1.576,1.576,0,0,0-1.1-.414,2.059,2.059,0,0,0-1.266.359,1.316,1.316,0,0,0-.57.922q-.1.734.9,1.07l.711.2a4.577,4.577,0,0,1,2.063.977,1.865,1.865,0,0,1,.563,1.492,2.37,2.37,0,0,1-.516,1.375,2.948,2.948,0,0,1-1.25.895,4.18,4.18,0,0,1-1.664.285,3.3,3.3,0,0,1-2.219-.785,2.427,2.427,0,0,1-.844-1.98l1.414.008a1.5,1.5,0,0,0,.453,1.141,1.732,1.732,0,0,0,1.242.43,2.436,2.436,0,0,0,1.336-.324A1.247,1.247,0,0,0,123.95,38.711Zm-79.4,14.914-1.312,7.7A4.368,4.368,0,0,1,41.7,64.145a4.5,4.5,0,0,1-3.055,1.02,3.956,3.956,0,0,1-1.941-.5,2.9,2.9,0,0,1-1.215-1.352,3.69,3.69,0,0,1-.258-1.98l1.313-7.7h1.445l-1.3,7.717a2.5,2.5,0,0,0,.406,1.88,2.031,2.031,0,0,0,1.633.715,2.812,2.812,0,0,0,2-.645,3.125,3.125,0,0,0,1.027-1.943l1.313-7.725Zm5.367,9.086q.117-.875-.961-1.234l-1.469-.43q-1.859-.641-1.8-2.125a2.341,2.341,0,0,1,1.02-1.832,3.631,3.631,0,0,1,2.27-.7,3.027,3.027,0,0,1,2.082.746,2.363,2.363,0,0,1,.77,1.9l-1.406-.008a1.319,1.319,0,0,0-.4-1.031,1.576,1.576,0,0,0-1.1-.414,2.059,2.059,0,0,0-1.266.359,1.316,1.316,0,0,0-.57.922q-.1.734.9,1.07l.711.2a4.577,4.577,0,0,1,2.063.977,1.865,1.865,0,0,1,.563,1.492,2.37,2.37,0,0,1-.516,1.375,2.948,2.948,0,0,1-1.25.895,4.18,4.18,0,0,1-1.664.285,3.3,3.3,0,0,1-2.219-.785,2.427,2.427,0,0,1-.844-1.98l1.414.008a1.5,1.5,0,0,0,.453,1.141,1.732,1.732,0,0,0,1.242.43,2.436,2.436,0,0,0,1.336-.324A1.247,1.247,0,0,0,49.915,62.711ZM57.931,65a1.894,1.894,0,0,1-.055-.445l.023-.445a3.465,3.465,0,0,1-2.469,1.047,2.526,2.526,0,0,1-1.816-.707,2.14,2.14,0,0,1-.637-1.73,2.6,2.6,0,0,1,1.176-2.1,5.005,5.005,0,0,1,2.887-.754l1.477.008.094-.672a1.545,1.545,0,0,0-.293-1.2,1.414,1.414,0,0,0-1.113-.457,2.181,2.181,0,0,0-1.285.355,1.513,1.513,0,0,0-.684.98l-1.422.008a2.266,2.266,0,0,1,.578-1.316,3.363,3.363,0,0,1,1.3-.891,4.215,4.215,0,0,1,1.648-.3,2.8,2.8,0,0,1,2.055.8,2.484,2.484,0,0,1,.617,2.043l-.687,4.188-.039.6a2.949,2.949,0,0,0,.094.852L59.368,65Zm-2.219-1.094A2.466,2.466,0,0,0,57,63.582a3.254,3.254,0,0,0,1.043-.941l.3-1.742-1.07-.008a4.054,4.054,0,0,0-2.047.422,1.554,1.554,0,0,0-.8,1.2,1.21,1.21,0,0,0,.277.988A1.321,1.321,0,0,0,55.712,63.906Zm13.242-3.094a6.586,6.586,0,0,1-.711,2.336A3.982,3.982,0,0,1,66.9,64.688a3.058,3.058,0,0,1-1.75.477,2.61,2.61,0,0,1-2.273-1.148L62.587,65h-1.3l2.086-12h1.414l-.852,4.484A3.107,3.107,0,0,1,66.4,56.391a2.358,2.358,0,0,1,1.9.9,3.954,3.954,0,0,1,.719,2.391,7.362,7.362,0,0,1-.047.969ZM67.61,60a3.009,3.009,0,0,0-.383-1.744,1.465,1.465,0,0,0-1.242-.636,2.574,2.574,0,0,0-2.234,1.327l-.633,3.675a1.8,1.8,0,0,0,1.758,1.319,2.054,2.054,0,0,0,1.449-.492,3.212,3.212,0,0,0,.941-1.463A6.578,6.578,0,0,0,67.61,60ZM71.6,65H70.2l1.469-8.453h1.406Zm1.164-11.539a.774.774,0,0,1,.6.215.8.8,0,0,1,.238.605.834.834,0,0,1-.836.852.779.779,0,0,1-.6-.211.764.764,0,0,1-.227-.594.886.886,0,0,1,.234-.609A.826.826,0,0,1,72.767,53.461ZM75.446,65H74.04l2.078-12h1.414Zm3.844,0H77.884l1.469-8.453h1.406Zm1.164-11.539a.774.774,0,0,1,.6.215.8.8,0,0,1,.238.605.834.834,0,0,1-.836.852.779.779,0,0,1-.6-.211.764.764,0,0,1-.227-.594.886.886,0,0,1,.234-.609A.826.826,0,0,1,80.454,53.461ZM85.337,54.5l-.359,2.047h1.539l-.2,1.117H84.79l-.883,5.258a1.833,1.833,0,0,0-.008.375.6.6,0,0,0,.664.609,4.05,4.05,0,0,0,.688-.078l-.109,1.18a3.847,3.847,0,0,1-1.031.141,1.476,1.476,0,0,1-1.266-.621,2.4,2.4,0,0,1-.328-1.629l.859-5.234H81.884l.2-1.117h1.492l.359-2.047Zm4.445,8.367,3.008-6.32h1.563l-5.016,9.859q-1.047,2.055-2.687,2.031A4.605,4.605,0,0,1,85.8,68.3l.125-1.172.367.039a1.853,1.853,0,0,0,1.16-.3,2.772,2.772,0,0,0,.863-1.074l.508-.969L87.36,56.547h1.477Zm17.609-8.016h-3.539L102.095,65h-1.461l1.758-10.148H98.853l.219-1.227h8.539Zm3.383,10.3a3.048,3.048,0,0,1-2.469-1.164,4.006,4.006,0,0,1-.75-2.9l.039-.336a5.624,5.624,0,0,1,.746-2.3,4.339,4.339,0,0,1,1.5-1.566,3.491,3.491,0,0,1,1.906-.5,2.688,2.688,0,0,1,2.047.867,3.566,3.566,0,0,1,.813,2.266,6.62,6.62,0,0,1-.031,1.016l-.086.648h-5.523a2.856,2.856,0,0,0,.379,1.953,1.8,1.8,0,0,0,1.551.836,3.007,3.007,0,0,0,2.313-1.125l.813.688a3.718,3.718,0,0,1-1.371,1.2A3.886,3.886,0,0,1,110.775,65.156Zm.9-7.586a2.066,2.066,0,0,0-1.527.594A4.22,4.22,0,0,0,109.11,60l4.109.008.031-.125a2.313,2.313,0,0,0-.316-1.637A1.488,1.488,0,0,0,111.673,57.57Zm8.977,5.141q.117-.875-.961-1.234l-1.469-.43q-1.859-.641-1.8-2.125a2.341,2.341,0,0,1,1.02-1.832,3.631,3.631,0,0,1,2.27-.7,3.027,3.027,0,0,1,2.082.746,2.363,2.363,0,0,1,.77,1.9l-1.406-.008a1.319,1.319,0,0,0-.4-1.031,1.576,1.576,0,0,0-1.1-.414,2.059,2.059,0,0,0-1.266.359,1.316,1.316,0,0,0-.57.922q-.1.734.9,1.07l.711.2a4.577,4.577,0,0,1,2.063.977,1.865,1.865,0,0,1,.563,1.492,2.37,2.37,0,0,1-.516,1.375,2.948,2.948,0,0,1-1.25.895,4.18,4.18,0,0,1-1.664.285,3.3,3.3,0,0,1-2.219-.785,2.427,2.427,0,0,1-.844-1.98l1.414.008a1.5,1.5,0,0,0,.453,1.141,1.732,1.732,0,0,0,1.242.43,2.436,2.436,0,0,0,1.336-.324A1.247,1.247,0,0,0,120.65,62.711Zm6.578-8.211-.359,2.047h1.539l-.2,1.117h-1.531l-.883,5.258a1.833,1.833,0,0,0-.008.375.6.6,0,0,0,.664.609,4.05,4.05,0,0,0,.688-.078l-.109,1.18a3.847,3.847,0,0,1-1.031.141,1.476,1.476,0,0,1-1.266-.621,2.4,2.4,0,0,1-.328-1.629l.859-5.234h-1.492l.2-1.117h1.492l.359-2.047ZM130.173,65h-1.406l1.469-8.453h1.406Zm1.164-11.539a.774.774,0,0,1,.6.215.8.8,0,0,1,.238.605.834.834,0,0,1-.836.852.779.779,0,0,1-.6-.211.764.764,0,0,1-.227-.594.886.886,0,0,1,.234-.609A.826.826,0,0,1,131.337,53.461Zm3.953,3.078-.2,1.07a3.333,3.333,0,0,1,2.594-1.219,2.1,2.1,0,0,1,1.766.828,3.217,3.217,0,0,1,.422,2.242L138.946,65h-1.414l.93-5.557a2.962,2.962,0,0,0,.008-.71,1.168,1.168,0,0,0-1.289-1.116,2.661,2.661,0,0,0-2.234,1.358L133.9,65h-1.414l1.469-8.453Zm6.25,4.219a6.889,6.889,0,0,1,.746-2.4,3.9,3.9,0,0,1,1.359-1.508,3.151,3.151,0,0,1,1.754-.465,2.6,2.6,0,0,1,2.219,1.109l.281-.945h1.3L147.79,64.82a4.113,4.113,0,0,1-1.312,2.59,3.7,3.7,0,0,1-2.68.926,3.8,3.8,0,0,1-1.645-.406,3.127,3.127,0,0,1-1.238-1.07l.8-.867a2.536,2.536,0,0,0,3.73.6,2.9,2.9,0,0,0,.926-1.687l.156-.75a3.2,3.2,0,0,1-2.414,1,2.486,2.486,0,0,1-1.371-.426,2.589,2.589,0,0,1-.9-1.164,4.759,4.759,0,0,1-.352-1.7A8.731,8.731,0,0,1,141.54,60.758Zm1.367.8a2.974,2.974,0,0,0,.387,1.728,1.461,1.461,0,0,0,1.238.644,2.561,2.561,0,0,0,2.18-1.241l.664-3.878a1.776,1.776,0,0,0-1.7-1.2,2.194,2.194,0,0,0-1.887.936,4.878,4.878,0,0,0-.871,2.614ZM26.157,77.625l-1.312,7.7a4.368,4.368,0,0,1-1.531,2.824,4.5,4.5,0,0,1-3.055,1.02,3.956,3.956,0,0,1-1.941-.5A2.9,2.9,0,0,1,17.1,87.309a3.69,3.69,0,0,1-.258-1.98l1.313-7.7H19.6l-1.3,7.717a2.5,2.5,0,0,0,.406,1.88,2.031,2.031,0,0,0,1.633.715,2.812,2.812,0,0,0,2-.645,3.125,3.125,0,0,0,1.027-1.943l1.313-7.725Zm6.82,8.4H28.368L26.814,89h-1.57l6.18-11.375h1.289L34.962,89H33.517ZM29.017,84.8h3.742l-.945-5.3Zm15.906-5.945H41.384L39.626,89H38.165l1.758-10.148H36.384l.219-1.227h8.539Zm.523,5.563A14.789,14.789,0,0,1,46.4,80.9a10.894,10.894,0,0,1,1.715-2.918,7.045,7.045,0,0,1,2.266-1.824l.211.969a8.108,8.108,0,0,0-2.105,2.387,12.281,12.281,0,0,0-1.355,3.5,16.834,16.834,0,0,0-.461,4,8.85,8.85,0,0,0,.418,2.848A4.494,4.494,0,0,0,48.3,91.8l-.352.875a5.641,5.641,0,0,1-2-2.68,10.335,10.335,0,0,1-.629-4.062,12.351,12.351,0,0,1,.109-1.43ZM60.04,77.625l-1.312,7.7A4.368,4.368,0,0,1,57.2,88.145a4.5,4.5,0,0,1-3.055,1.02,3.956,3.956,0,0,1-1.941-.5,2.9,2.9,0,0,1-1.215-1.352,3.69,3.69,0,0,1-.258-1.98l1.313-7.7h1.445l-1.3,7.717a2.5,2.5,0,0,0,.406,1.88,2.031,2.031,0,0,0,1.633.715,2.812,2.812,0,0,0,2-.645,3.125,3.125,0,0,0,1.027-1.943l1.313-7.725Zm5.367,9.086q.117-.875-.961-1.234l-1.469-.43q-1.859-.641-1.8-2.125A2.341,2.341,0,0,1,62.2,81.09a3.631,3.631,0,0,1,2.27-.7,3.027,3.027,0,0,1,2.082.746,2.363,2.363,0,0,1,.77,1.9l-1.406-.008a1.319,1.319,0,0,0-.4-1.031,1.576,1.576,0,0,0-1.1-.414,2.059,2.059,0,0,0-1.266.359,1.316,1.316,0,0,0-.57.922q-.1.734.9,1.07l.711.2a4.578,4.578,0,0,1,2.063.977,1.865,1.865,0,0,1,.563,1.492,2.37,2.37,0,0,1-.516,1.375,2.948,2.948,0,0,1-1.25.895,4.18,4.18,0,0,1-1.664.285,3.3,3.3,0,0,1-2.219-.785,2.427,2.427,0,0,1-.844-1.98l1.414.008a1.5,1.5,0,0,0,.453,1.141,1.732,1.732,0,0,0,1.242.43,2.436,2.436,0,0,0,1.336-.324A1.247,1.247,0,0,0,65.407,86.711Zm6.5,2.445a3.048,3.048,0,0,1-2.469-1.164,4.006,4.006,0,0,1-.75-2.9l.039-.336a5.624,5.624,0,0,1,.746-2.3,4.339,4.339,0,0,1,1.5-1.566,3.491,3.491,0,0,1,1.906-.5,2.688,2.688,0,0,1,2.047.867,3.566,3.566,0,0,1,.813,2.266,6.62,6.62,0,0,1-.031,1.016l-.086.648H70.095a2.856,2.856,0,0,0,.379,1.953,1.8,1.8,0,0,0,1.551.836,3.007,3.007,0,0,0,2.313-1.125l.813.688a3.718,3.718,0,0,1-1.371,1.2A3.886,3.886,0,0,1,71.907,89.156Zm.9-7.586a2.066,2.066,0,0,0-1.527.594A4.22,4.22,0,0,0,70.243,84l4.109.008.031-.125a2.313,2.313,0,0,0-.316-1.637A1.488,1.488,0,0,0,72.806,81.57Zm9,.266-.664-.07A2.42,2.42,0,0,0,79,82.992L77.962,89H76.548l1.469-8.453,1.367-.008-.211.984a2.527,2.527,0,0,1,2.117-1.148,2.594,2.594,0,0,1,.672.117Zm10.852,4.188H88.048L86.493,89h-1.57L91.1,77.625h1.289L94.642,89H93.2ZM88.7,84.8h3.742l-.945-5.3Zm10.875,3.188a2.145,2.145,0,0,0,1.367-.441,2.1,2.1,0,0,0,.8-1.2l1.336-.008a3.014,3.014,0,0,1-.637,1.453,3.68,3.68,0,0,1-2.926,1.367,3.017,3.017,0,0,1-1.785-.551,3.084,3.084,0,0,1-1.074-1.492,4.972,4.972,0,0,1-.234-2.152l.039-.391a5.605,5.605,0,0,1,.711-2.18,4.11,4.11,0,0,1,1.469-1.5,3.648,3.648,0,0,1,2-.5,2.857,2.857,0,0,1,2.125.891,3.08,3.08,0,0,1,.8,2.18l-1.32-.008a2.029,2.029,0,0,0-.461-1.34,1.607,1.607,0,0,0-1.2-.543,2.254,2.254,0,0,0-1.832.82,4.3,4.3,0,0,0-.91,2.359l-.023.2a6.776,6.776,0,0,0-.016,1.031,2.355,2.355,0,0,0,.516,1.445A1.656,1.656,0,0,0,99.571,87.984Zm8.2,0a2.145,2.145,0,0,0,1.367-.441,2.1,2.1,0,0,0,.8-1.2l1.336-.008a3.014,3.014,0,0,1-.637,1.453,3.68,3.68,0,0,1-2.926,1.367,3.017,3.017,0,0,1-1.785-.551,3.084,3.084,0,0,1-1.074-1.492,4.972,4.972,0,0,1-.234-2.152l.039-.391a5.605,5.605,0,0,1,.711-2.18,4.11,4.11,0,0,1,1.469-1.5,3.648,3.648,0,0,1,2-.5,2.857,2.857,0,0,1,2.125.891,3.08,3.08,0,0,1,.8,2.18l-1.32-.008a2.029,2.029,0,0,0-.461-1.34,1.607,1.607,0,0,0-1.2-.543,2.254,2.254,0,0,0-1.832.82,4.3,4.3,0,0,0-.91,2.359l-.023.2a6.776,6.776,0,0,0-.016,1.031,2.355,2.355,0,0,0,.516,1.445A1.656,1.656,0,0,0,107.775,87.984Zm8.289,1.172a3.048,3.048,0,0,1-2.469-1.164,4.006,4.006,0,0,1-.75-2.9l.039-.336a5.624,5.624,0,0,1,.746-2.3,4.339,4.339,0,0,1,1.5-1.566,3.491,3.491,0,0,1,1.906-.5,2.688,2.688,0,0,1,2.047.867,3.566,3.566,0,0,1,.813,2.266,6.62,6.62,0,0,1-.031,1.016l-.086.648h-5.523a2.856,2.856,0,0,0,.379,1.953,1.8,1.8,0,0,0,1.551.836,3.007,3.007,0,0,0,2.313-1.125l.813.688a3.718,3.718,0,0,1-1.371,1.2A3.886,3.886,0,0,1,116.064,89.156Zm.9-7.586a2.066,2.066,0,0,0-1.527.594A4.22,4.22,0,0,0,114.4,84l4.109.008.031-.125a2.313,2.313,0,0,0-.316-1.637A1.488,1.488,0,0,0,116.962,81.57Zm11.4,3.242a6.707,6.707,0,0,1-.7,2.32,3.949,3.949,0,0,1-1.336,1.543,3.058,3.058,0,0,1-1.766.488,2.815,2.815,0,0,1-2.25-.992l-.758,4.078h-1.414l2.031-11.7,1.281-.008-.156.945a3.207,3.207,0,0,1,2.508-1.094,2.358,2.358,0,0,1,1.9.9,3.954,3.954,0,0,1,.719,2.391,8.414,8.414,0,0,1-.039.969Zm-1.391-.16.039-.655a2.969,2.969,0,0,0-.434-1.744,1.525,1.525,0,0,0-1.254-.636A2.508,2.508,0,0,0,123.2,82.78l-.711,4.05a1.769,1.769,0,0,0,1.711,1.155A2.224,2.224,0,0,0,126,87.161,4.777,4.777,0,0,0,126.97,84.652Zm6.258-6.152-.359,2.047h1.539l-.2,1.117h-1.531l-.883,5.258a1.833,1.833,0,0,0-.008.375.6.6,0,0,0,.664.609,4.05,4.05,0,0,0,.688-.078l-.109,1.18a3.847,3.847,0,0,1-1.031.141,1.476,1.476,0,0,1-1.266-.621,2.4,2.4,0,0,1-.328-1.629l.859-5.234h-1.492l.2-1.117h1.492l.359-2.047ZM139.814,89a1.894,1.894,0,0,1-.055-.445l.023-.445a3.465,3.465,0,0,1-2.469,1.047,2.526,2.526,0,0,1-1.816-.707,2.14,2.14,0,0,1-.637-1.73,2.6,2.6,0,0,1,1.176-2.1,5.005,5.005,0,0,1,2.887-.754l1.477.008.094-.672A1.545,1.545,0,0,0,140.2,82a1.414,1.414,0,0,0-1.113-.457,2.181,2.181,0,0,0-1.285.355,1.513,1.513,0,0,0-.684.98l-1.422.008a2.266,2.266,0,0,1,.578-1.316,3.363,3.363,0,0,1,1.3-.891,4.215,4.215,0,0,1,1.648-.3,2.8,2.8,0,0,1,2.055.8,2.484,2.484,0,0,1,.617,2.043l-.687,4.188-.039.6a2.949,2.949,0,0,0,.094.852l-.016.133Zm-2.219-1.094a2.466,2.466,0,0,0,1.285-.324,3.254,3.254,0,0,0,1.043-.941l.3-1.742-1.07-.008a4.054,4.054,0,0,0-2.047.422,1.554,1.554,0,0,0-.8,1.2,1.21,1.21,0,0,0,.277.988A1.321,1.321,0,0,0,137.595,87.906Zm8.375-7.367-.2,1.07a3.333,3.333,0,0,1,2.594-1.219,2.1,2.1,0,0,1,1.766.828,3.217,3.217,0,0,1,.422,2.242L149.626,89h-1.414l.93-5.557a2.962,2.962,0,0,0,.008-.71,1.168,1.168,0,0,0-1.289-1.116,2.661,2.661,0,0,0-2.234,1.358L144.579,89h-1.414l1.469-8.453Zm9.406,7.445a2.145,2.145,0,0,0,1.367-.441,2.1,2.1,0,0,0,.8-1.2l1.336-.008a3.014,3.014,0,0,1-.637,1.453,3.68,3.68,0,0,1-2.926,1.367,3.017,3.017,0,0,1-1.785-.551,3.084,3.084,0,0,1-1.074-1.492,4.972,4.972,0,0,1-.234-2.152l.039-.391a5.605,5.605,0,0,1,.711-2.18,4.11,4.11,0,0,1,1.469-1.5,3.648,3.648,0,0,1,2-.5,2.857,2.857,0,0,1,2.125.891,3.08,3.08,0,0,1,.8,2.18l-1.32-.008a2.029,2.029,0,0,0-.461-1.34,1.607,1.607,0,0,0-1.2-.543,2.254,2.254,0,0,0-1.832.82,4.3,4.3,0,0,0-.91,2.359l-.023.2a6.777,6.777,0,0,0-.016,1.031,2.355,2.355,0,0,0,.516,1.445A1.656,1.656,0,0,0,155.376,87.984Zm8.289,1.172a3.048,3.048,0,0,1-2.469-1.164,4.006,4.006,0,0,1-.75-2.9l.039-.336a5.624,5.624,0,0,1,.746-2.3,4.339,4.339,0,0,1,1.5-1.566,3.491,3.491,0,0,1,1.906-.5,2.688,2.688,0,0,1,2.047.867,3.566,3.566,0,0,1,.813,2.266,6.621,6.621,0,0,1-.031,1.016l-.086.648h-5.523a2.855,2.855,0,0,0,.379,1.953,1.8,1.8,0,0,0,1.551.836,3.007,3.007,0,0,0,2.313-1.125l.813.688a3.718,3.718,0,0,1-1.371,1.2A3.886,3.886,0,0,1,163.665,89.156Zm.9-7.586a2.066,2.066,0,0,0-1.527.594A4.22,4.22,0,0,0,162,84l4.109.008.031-.125a2.313,2.313,0,0,0-.316-1.637A1.488,1.488,0,0,0,164.564,81.57ZM73.032,102.852H69.493L67.735,113H66.275l1.758-10.148H64.493l.219-1.227h8.539Zm3.383,10.3a3.048,3.048,0,0,1-2.469-1.164,4.006,4.006,0,0,1-.75-2.9l.039-.336a5.624,5.624,0,0,1,.746-2.3,4.339,4.339,0,0,1,1.5-1.566,3.491,3.491,0,0,1,1.906-.5,2.688,2.688,0,0,1,2.047.867,3.566,3.566,0,0,1,.813,2.266,6.62,6.62,0,0,1-.031,1.016l-.086.648H74.6a2.856,2.856,0,0,0,.379,1.953,1.8,1.8,0,0,0,1.551.836,3.007,3.007,0,0,0,2.313-1.125l.813.688a3.718,3.718,0,0,1-1.371,1.2A3.886,3.886,0,0,1,76.415,113.156Zm.9-7.586a2.066,2.066,0,0,0-1.527.594A4.22,4.22,0,0,0,74.751,108l4.109.008.031-.125a2.313,2.313,0,0,0-.316-1.637A1.488,1.488,0,0,0,77.314,105.57Zm8.977,5.141q.117-.875-.961-1.234l-1.469-.43q-1.859-.641-1.8-2.125a2.341,2.341,0,0,1,1.02-1.832,3.631,3.631,0,0,1,2.27-.7,3.027,3.027,0,0,1,2.082.746,2.363,2.363,0,0,1,.77,1.9l-1.406-.008A1.319,1.319,0,0,0,86.4,106a1.576,1.576,0,0,0-1.1-.414,2.059,2.059,0,0,0-1.266.359,1.316,1.316,0,0,0-.57.922q-.1.734.9,1.07l.711.2a4.578,4.578,0,0,1,2.063.977A1.865,1.865,0,0,1,87.7,110.6a2.37,2.37,0,0,1-.516,1.375,2.948,2.948,0,0,1-1.25.895,4.18,4.18,0,0,1-1.664.285,3.3,3.3,0,0,1-2.219-.785,2.427,2.427,0,0,1-.844-1.98l1.414.008a1.5,1.5,0,0,0,.453,1.141,1.732,1.732,0,0,0,1.242.43,2.436,2.436,0,0,0,1.336-.324A1.247,1.247,0,0,0,86.29,110.711Zm6.578-8.211-.359,2.047h1.539l-.2,1.117H92.321l-.883,5.258a1.833,1.833,0,0,0-.008.375.6.6,0,0,0,.664.609,4.05,4.05,0,0,0,.688-.078l-.109,1.18a3.847,3.847,0,0,1-1.031.141,1.476,1.476,0,0,1-1.266-.621,2.4,2.4,0,0,1-.328-1.629l.859-5.234H89.415l.2-1.117H91.1l.359-2.047ZM95.814,113H94.407l1.469-8.453h1.406Zm1.164-11.539a.774.774,0,0,1,.6.215.8.8,0,0,1,.238.605.834.834,0,0,1-.836.852.779.779,0,0,1-.6-.211.764.764,0,0,1-.227-.594.886.886,0,0,1,.234-.609A.826.826,0,0,1,96.978,101.461Zm3.953,3.078-.2,1.07a3.333,3.333,0,0,1,2.594-1.219,2.1,2.1,0,0,1,1.766.828,3.217,3.217,0,0,1,.422,2.242L104.587,113h-1.414l.93-5.557a2.962,2.962,0,0,0,.008-.71,1.168,1.168,0,0,0-1.289-1.116,2.661,2.661,0,0,0-2.234,1.358L99.54,113H98.126l1.469-8.453Zm6.25,4.219a6.889,6.889,0,0,1,.746-2.4,3.9,3.9,0,0,1,1.359-1.508,3.151,3.151,0,0,1,1.754-.465,2.6,2.6,0,0,1,2.219,1.109l.281-.945h1.3l-1.406,8.273a4.113,4.113,0,0,1-1.312,2.59,3.7,3.7,0,0,1-2.68.926,3.8,3.8,0,0,1-1.645-.406,3.127,3.127,0,0,1-1.238-1.07l.8-.867a2.536,2.536,0,0,0,3.73.6,2.9,2.9,0,0,0,.926-1.687l.156-.75a3.2,3.2,0,0,1-2.414,1,2.486,2.486,0,0,1-1.371-.426,2.589,2.589,0,0,1-.9-1.164,4.759,4.759,0,0,1-.352-1.7A8.734,8.734,0,0,1,107.181,108.758Zm1.367.8a2.974,2.974,0,0,0,.387,1.728,1.461,1.461,0,0,0,1.238.644,2.561,2.561,0,0,0,2.18-1.241l.664-3.878a1.776,1.776,0,0,0-1.7-1.2,2.194,2.194,0,0,0-1.887.936,4.878,4.878,0,0,0-.871,2.614Zm11.039-1.128a14.5,14.5,0,0,1-.992,3.605,10.841,10.841,0,0,1-1.723,2.867,7.163,7.163,0,0,1-2.223,1.777l-.219-.9q2.68-2.016,3.578-6.477a16.834,16.834,0,0,0,.344-3.461q-.039-3.352-1.625-4.8l.367-.875a5.179,5.179,0,0,1,1.48,1.621,7.645,7.645,0,0,1,.891,2.352,12.043,12.043,0,0,1,.254,2.777,13.344,13.344,0,0,1-.117,1.43Z" transform="translate(940.795 20359.131)" fill="#fff"/>
    <path id="Trazado_830707" data-name="Trazado 830707" d="M12.992,12.547,12.219,17H10.75L12.727,5.625l3.8.008a3.713,3.713,0,0,1,2.711.934,2.937,2.937,0,0,1,.82,2.48,3.541,3.541,0,0,1-1.3,2.57,4.718,4.718,0,0,1-3.059.938ZM13.2,11.32l2.531.008a3.079,3.079,0,0,0,1.961-.6,2.407,2.407,0,0,0,.9-1.672A1.886,1.886,0,0,0,18.2,7.5a2.005,2.005,0,0,0-1.523-.629l-2.7-.008Zm10.852,5.836a3.048,3.048,0,0,1-2.469-1.164,4.006,4.006,0,0,1-.75-2.9l.039-.336a5.624,5.624,0,0,1,.746-2.3,4.339,4.339,0,0,1,1.5-1.566,3.491,3.491,0,0,1,1.906-.5,2.688,2.688,0,0,1,2.047.867,3.566,3.566,0,0,1,.813,2.266,6.621,6.621,0,0,1-.031,1.016l-.086.648H22.242a2.856,2.856,0,0,0,.379,1.953,1.8,1.8,0,0,0,1.551.836,3.007,3.007,0,0,0,2.313-1.125l.813.688a3.718,3.718,0,0,1-1.371,1.2A3.886,3.886,0,0,1,24.055,17.156Zm.9-7.586a2.066,2.066,0,0,0-1.527.594A4.22,4.22,0,0,0,22.391,12l4.109.008.031-.125a2.313,2.313,0,0,0-.316-1.637A1.488,1.488,0,0,0,24.953,9.57Zm9,.266-.664-.07a2.42,2.42,0,0,0-2.141,1.227L30.11,17H28.7l1.469-8.453,1.367-.008-.211.984a2.527,2.527,0,0,1,2.117-1.148,2.594,2.594,0,0,1,.672.117ZM34.828,17,36.11,9.664H34.8L35,8.547h1.3l.141-1a3.318,3.318,0,0,1,.984-1.992,2.926,2.926,0,0,1,2.094-.734,4.884,4.884,0,0,1,1.008.134l-.172,1.187a4.636,4.636,0,0,0-.758-.094A1.614,1.614,0,0,0,38.4,6.5a2.073,2.073,0,0,0-.566,1.211l-.125.833h1.75l-.2,1.117h-1.75L36.242,17ZM44.3,8.391a3.047,3.047,0,0,1,1.82.578,3.285,3.285,0,0,1,1.121,1.551,4.8,4.8,0,0,1,.246,2.16l-.016.172a5.685,5.685,0,0,1-.734,2.23,4.309,4.309,0,0,1-1.516,1.551,3.7,3.7,0,0,1-2.039.523,3.052,3.052,0,0,1-1.816-.578,3.21,3.21,0,0,1-1.113-1.531,4.931,4.931,0,0,1-.25-2.133,5.76,5.76,0,0,1,.711-2.359,4.409,4.409,0,0,1,1.527-1.621A3.652,3.652,0,0,1,44.3,8.391ZM41.43,12.922a4.8,4.8,0,0,0,0,1.023,2.507,2.507,0,0,0,.551,1.469,1.653,1.653,0,0,0,1.262.57,2.253,2.253,0,0,0,1.3-.348,2.919,2.919,0,0,0,1-1.121,4.721,4.721,0,0,0,.523-1.664,7.494,7.494,0,0,0,.023-1.211,2.6,2.6,0,0,0-.57-1.492A1.69,1.69,0,0,0,44.25,9.57a2.3,2.3,0,0,0-1.859.859,4.245,4.245,0,0,0-.945,2.313ZM53.8,9.836l-.664-.07a2.42,2.42,0,0,0-2.141,1.227L49.953,17H48.539l1.469-8.453,1.367-.008-.211.984a2.527,2.527,0,0,1,2.117-1.148,2.594,2.594,0,0,1,.672.117Zm2.859-1.3-.18.945a3.305,3.305,0,0,1,2.57-1.094,2.608,2.608,0,0,1,1.363.367,1.8,1.8,0,0,1,.77.992,3.49,3.49,0,0,1,2.8-1.359,2.235,2.235,0,0,1,1.867.852,3.042,3.042,0,0,1,.445,2.2L65.367,17H63.961l.922-5.57a2.943,2.943,0,0,0,0-.742Q64.735,9.625,63.492,9.6a2.136,2.136,0,0,0-1.4.48,2.222,2.222,0,0,0-.809,1.3L60.32,17H58.9l.938-5.562a1.786,1.786,0,0,0-.262-1.336,1.377,1.377,0,0,0-1.129-.484,2.315,2.315,0,0,0-2.1,1.2L55.274,17H53.86l1.469-8.453ZM72.719,17a1.893,1.893,0,0,1-.055-.445l.023-.445a3.465,3.465,0,0,1-2.469,1.047,2.526,2.526,0,0,1-1.816-.707,2.14,2.14,0,0,1-.637-1.73,2.6,2.6,0,0,1,1.176-2.1,5.005,5.005,0,0,1,2.887-.754l1.477.008L73.4,11.2a1.545,1.545,0,0,0-.293-1.2,1.414,1.414,0,0,0-1.113-.457,2.181,2.181,0,0,0-1.285.355,1.513,1.513,0,0,0-.684.98l-1.422.008a2.266,2.266,0,0,1,.578-1.316,3.363,3.363,0,0,1,1.3-.891,4.215,4.215,0,0,1,1.648-.3,2.8,2.8,0,0,1,2.055.8,2.484,2.484,0,0,1,.617,2.043l-.687,4.188-.039.6a2.949,2.949,0,0,0,.094.852L74.156,17ZM70.5,15.906a2.466,2.466,0,0,0,1.285-.324,3.254,3.254,0,0,0,1.043-.941l.3-1.742-1.07-.008a4.054,4.054,0,0,0-2.047.422,1.554,1.554,0,0,0-.8,1.2,1.21,1.21,0,0,0,.277.988A1.321,1.321,0,0,0,70.5,15.906Zm8.375-7.367-.2,1.07a3.333,3.333,0,0,1,2.594-1.219,2.1,2.1,0,0,1,1.766.828,3.217,3.217,0,0,1,.422,2.242L82.531,17H81.117l.93-5.557a2.962,2.962,0,0,0,.008-.71,1.168,1.168,0,0,0-1.289-1.116,2.661,2.661,0,0,0-2.234,1.358L77.485,17H76.07l1.469-8.453Zm9.406,7.445a2.145,2.145,0,0,0,1.367-.441,2.1,2.1,0,0,0,.8-1.2l1.336-.008a3.014,3.014,0,0,1-.637,1.453,3.68,3.68,0,0,1-2.926,1.367,3.017,3.017,0,0,1-1.785-.551,3.084,3.084,0,0,1-1.074-1.492,4.972,4.972,0,0,1-.234-2.152l.039-.391a5.605,5.605,0,0,1,.711-2.18,4.11,4.11,0,0,1,1.469-1.5,3.648,3.648,0,0,1,2-.5,2.857,2.857,0,0,1,2.125.891,3.08,3.08,0,0,1,.8,2.18l-1.32-.008a2.029,2.029,0,0,0-.461-1.34,1.607,1.607,0,0,0-1.2-.543,2.254,2.254,0,0,0-1.832.82,4.3,4.3,0,0,0-.91,2.359l-.023.2a6.776,6.776,0,0,0-.016,1.031,2.355,2.355,0,0,0,.516,1.445A1.656,1.656,0,0,0,88.281,15.984Zm8.289,1.172A3.048,3.048,0,0,1,94.1,15.992a4.006,4.006,0,0,1-.75-2.9l.039-.336a5.624,5.624,0,0,1,.746-2.3,4.339,4.339,0,0,1,1.5-1.566,3.491,3.491,0,0,1,1.906-.5,2.688,2.688,0,0,1,2.047.867,3.566,3.566,0,0,1,.813,2.266,6.62,6.62,0,0,1-.031,1.016l-.086.648H94.758a2.856,2.856,0,0,0,.379,1.953,1.8,1.8,0,0,0,1.551.836A3.007,3.007,0,0,0,99,14.852l.813.688a3.718,3.718,0,0,1-1.371,1.2A3.886,3.886,0,0,1,96.57,17.156Zm.9-7.586a2.066,2.066,0,0,0-1.527.594A4.22,4.22,0,0,0,94.906,12l4.109.008.031-.125a2.313,2.313,0,0,0-.316-1.637A1.488,1.488,0,0,0,97.469,9.57ZM105.445,14a3.578,3.578,0,0,1,1.734-2.594l.891-.594-.336-.6a3.5,3.5,0,0,1-.5-1.914,3.016,3.016,0,0,1,.938-2.074,2.888,2.888,0,0,1,2.125-.754,2.453,2.453,0,0,1,1.742.684,2.03,2.03,0,0,1,.625,1.66A3.315,3.315,0,0,1,111,10.273l-1.148.766,1.945,2.977a5.44,5.44,0,0,0,.891-2.266h1.258a5.768,5.768,0,0,1-1.414,3.336L113.758,17H112.18l-.57-.883a4.6,4.6,0,0,1-2.992,1.031,3.3,3.3,0,0,1-2.375-.895A2.715,2.715,0,0,1,105.445,14Zm3.219,1.977a3.559,3.559,0,0,0,2.219-.883l-2.117-3.312-.336.234a3.185,3.185,0,0,0-1.547,1.992,1.66,1.66,0,0,0,.375,1.4A1.826,1.826,0,0,0,108.664,15.977Zm-.039-7.734a2.486,2.486,0,0,0,.383,1.445l.211.367,1.2-.8a2.076,2.076,0,0,0,.922-1.445.994.994,0,0,0-.273-.828,1.136,1.136,0,0,0-.852-.328,1.42,1.42,0,0,0-1.086.473A1.871,1.871,0,0,0,108.625,8.242ZM19.375,39.773H24.61L24.391,41h-6.7l1.977-11.375h1.477Zm11.219-7.383a3.047,3.047,0,0,1,1.82.578,3.285,3.285,0,0,1,1.121,1.551,4.8,4.8,0,0,1,.246,2.16l-.016.172a5.685,5.685,0,0,1-.734,2.23,4.309,4.309,0,0,1-1.516,1.551,3.7,3.7,0,0,1-2.039.523,3.052,3.052,0,0,1-1.816-.578,3.21,3.21,0,0,1-1.113-1.531,4.931,4.931,0,0,1-.25-2.133,5.76,5.76,0,0,1,.711-2.359,4.409,4.409,0,0,1,1.527-1.621A3.652,3.652,0,0,1,30.594,32.391Zm-2.875,4.531a4.8,4.8,0,0,0,0,1.023,2.507,2.507,0,0,0,.551,1.469,1.653,1.653,0,0,0,1.262.57,2.253,2.253,0,0,0,1.3-.348,2.919,2.919,0,0,0,1-1.121,4.721,4.721,0,0,0,.523-1.664,7.494,7.494,0,0,0,.023-1.211,2.6,2.6,0,0,0-.57-1.492,1.69,1.69,0,0,0-1.266-.578,2.3,2.3,0,0,0-1.859.859,4.245,4.245,0,0,0-.945,2.313ZM40,41a1.894,1.894,0,0,1-.055-.445l.023-.445A3.465,3.465,0,0,1,37.5,41.156a2.526,2.526,0,0,1-1.816-.707,2.14,2.14,0,0,1-.637-1.73,2.6,2.6,0,0,1,1.176-2.1,5.005,5.005,0,0,1,2.887-.754l1.477.008.094-.672a1.545,1.545,0,0,0-.293-1.2,1.414,1.414,0,0,0-1.113-.457,2.181,2.181,0,0,0-1.285.355,1.513,1.513,0,0,0-.684.98l-1.422.008a2.266,2.266,0,0,1,.578-1.316,3.363,3.363,0,0,1,1.3-.891,4.215,4.215,0,0,1,1.648-.3,2.8,2.8,0,0,1,2.055.8,2.484,2.484,0,0,1,.617,2.043L41.4,39.414l-.039.6a2.949,2.949,0,0,0,.094.852L41.438,41Zm-2.219-1.094a2.466,2.466,0,0,0,1.285-.324,3.254,3.254,0,0,0,1.043-.941l.3-1.742-1.07-.008a4.054,4.054,0,0,0-2.047.422,1.554,1.554,0,0,0-.8,1.2,1.21,1.21,0,0,0,.277.988A1.321,1.321,0,0,0,37.781,39.906Zm5.977-3.148a6.578,6.578,0,0,1,.711-2.328,4.03,4.03,0,0,1,1.367-1.555,3.127,3.127,0,0,1,1.789-.492A2.64,2.64,0,0,1,49.8,33.414L50.61,29h1.414L49.945,41H48.656l.148-.906a3.116,3.116,0,0,1-2.469,1.063,2.335,2.335,0,0,1-1.867-.918,4,4,0,0,1-.75-2.379A7.6,7.6,0,0,1,43.758,36.758Zm1.359.808a2.929,2.929,0,0,0,.4,1.732,1.437,1.437,0,0,0,1.234.632A2.554,2.554,0,0,0,48.93,38.7l.672-3.9a1.754,1.754,0,0,0-1.7-1.186,2.143,2.143,0,0,0-1.473.5,3.256,3.256,0,0,0-.969,1.475A6.082,6.082,0,0,0,45.117,37.565ZM65.4,30.852H61.86L60.1,41H58.641L60.4,30.852H56.86l.219-1.227h8.539Zm3.383,10.3a3.048,3.048,0,0,1-2.469-1.164,4.006,4.006,0,0,1-.75-2.9l.039-.336a5.624,5.624,0,0,1,.746-2.3,4.339,4.339,0,0,1,1.5-1.566,3.491,3.491,0,0,1,1.906-.5,2.688,2.688,0,0,1,2.047.867,3.566,3.566,0,0,1,.813,2.266,6.62,6.62,0,0,1-.031,1.016l-.086.648H66.969a2.856,2.856,0,0,0,.379,1.953,1.8,1.8,0,0,0,1.551.836,3.007,3.007,0,0,0,2.313-1.125l.813.688a3.718,3.718,0,0,1-1.371,1.2A3.886,3.886,0,0,1,68.781,41.156Zm.9-7.586a2.066,2.066,0,0,0-1.527.594A4.22,4.22,0,0,0,67.117,36l4.109.008.031-.125a2.313,2.313,0,0,0-.316-1.637A1.488,1.488,0,0,0,69.68,33.57Zm8.977,5.141q.117-.875-.961-1.234l-1.469-.43q-1.859-.641-1.8-2.125a2.341,2.341,0,0,1,1.02-1.832,3.631,3.631,0,0,1,2.27-.7,3.027,3.027,0,0,1,2.082.746,2.363,2.363,0,0,1,.77,1.9l-1.406-.008a1.319,1.319,0,0,0-.4-1.031,1.576,1.576,0,0,0-1.1-.414,2.059,2.059,0,0,0-1.266.359,1.316,1.316,0,0,0-.57.922q-.1.734.9,1.07l.711.2a4.577,4.577,0,0,1,2.063.977,1.865,1.865,0,0,1,.563,1.492,2.37,2.37,0,0,1-.516,1.375,2.948,2.948,0,0,1-1.25.895,4.18,4.18,0,0,1-1.664.285,3.3,3.3,0,0,1-2.219-.785,2.427,2.427,0,0,1-.844-1.98l1.414.008a1.5,1.5,0,0,0,.453,1.141,1.732,1.732,0,0,0,1.242.43,2.436,2.436,0,0,0,1.336-.324A1.247,1.247,0,0,0,78.656,38.711ZM85.235,30.5l-.359,2.047h1.539l-.2,1.117H84.688L83.8,38.922a1.833,1.833,0,0,0-.008.375.6.6,0,0,0,.664.609,4.05,4.05,0,0,0,.688-.078l-.109,1.18a3.847,3.847,0,0,1-1.031.141,1.476,1.476,0,0,1-1.266-.621,2.4,2.4,0,0,1-.328-1.629l.859-5.234H81.781l.2-1.117h1.492l.359-2.047ZM88.18,41H86.774l1.469-8.453h1.406Zm1.164-11.539a.774.774,0,0,1,.6.215.8.8,0,0,1,.238.605.834.834,0,0,1-.836.852.779.779,0,0,1-.6-.211.764.764,0,0,1-.227-.594.886.886,0,0,1,.234-.609A.826.826,0,0,1,89.344,29.461ZM93.3,32.539l-.2,1.07a3.333,3.333,0,0,1,2.594-1.219,2.1,2.1,0,0,1,1.766.828,3.217,3.217,0,0,1,.422,2.242L96.953,41H95.539l.93-5.557a2.962,2.962,0,0,0,.008-.71,1.168,1.168,0,0,0-1.289-1.116,2.661,2.661,0,0,0-2.234,1.358L91.906,41H90.492l1.469-8.453Zm6.25,4.219a6.889,6.889,0,0,1,.746-2.4,3.9,3.9,0,0,1,1.359-1.508,3.151,3.151,0,0,1,1.754-.465,2.6,2.6,0,0,1,2.219,1.109l.281-.945h1.3L105.8,40.82a4.113,4.113,0,0,1-1.312,2.59,3.7,3.7,0,0,1-2.68.926,3.8,3.8,0,0,1-1.645-.406,3.127,3.127,0,0,1-1.238-1.07l.8-.867a2.536,2.536,0,0,0,3.73.6,2.9,2.9,0,0,0,.926-1.687l.156-.75a3.2,3.2,0,0,1-2.414,1,2.486,2.486,0,0,1-1.371-.426,2.589,2.589,0,0,1-.9-1.164,4.759,4.759,0,0,1-.352-1.7A8.734,8.734,0,0,1,99.547,36.758Zm1.367.8a2.974,2.974,0,0,0,.387,1.728,1.461,1.461,0,0,0,1.238.644,2.561,2.561,0,0,0,2.18-1.241l.664-3.878a1.776,1.776,0,0,0-1.7-1.2,2.194,2.194,0,0,0-1.887.936,4.878,4.878,0,0,0-.871,2.614ZM13.352,62.07q.172-1.25-1.3-1.828L10.7,59.75l-.453-.2q-2.281-1.039-2.133-2.922a3.056,3.056,0,0,1,.648-1.672,3.69,3.69,0,0,1,1.512-1.121,4.849,4.849,0,0,1,2-.371,4,4,0,0,1,1.84.461,2.962,2.962,0,0,1,1.23,1.223,3.333,3.333,0,0,1,.375,1.77l-1.477-.008a2.037,2.037,0,0,0-.469-1.627,2.1,2.1,0,0,0-1.562-.592,2.91,2.91,0,0,0-1.789.5A1.955,1.955,0,0,0,9.6,56.605q-.156,1.166,1.43,1.769l1.164.415.586.25a2.941,2.941,0,0,1,2.039,3.016,3.012,3.012,0,0,1-.648,1.66A3.626,3.626,0,0,1,12.645,64.8a5.266,5.266,0,0,1-2.074.359A4.34,4.34,0,0,1,8.613,64.7a3.193,3.193,0,0,1-1.348-1.23A3.078,3.078,0,0,1,6.86,61.7l1.469.008a1.935,1.935,0,0,0,.551,1.613,2.479,2.479,0,0,0,1.754.613,3.131,3.131,0,0,0,1.867-.492A1.916,1.916,0,0,0,13.352,62.07Zm6.336,3.086a3.048,3.048,0,0,1-2.469-1.164,4.006,4.006,0,0,1-.75-2.9l.039-.336a5.624,5.624,0,0,1,.746-2.3,4.339,4.339,0,0,1,1.5-1.566,3.491,3.491,0,0,1,1.906-.5,2.688,2.688,0,0,1,2.047.867,3.566,3.566,0,0,1,.813,2.266,6.621,6.621,0,0,1-.031,1.016l-.086.648H17.875a2.856,2.856,0,0,0,.379,1.953,1.8,1.8,0,0,0,1.551.836,3.007,3.007,0,0,0,2.313-1.125l.813.688a3.718,3.718,0,0,1-1.371,1.2A3.886,3.886,0,0,1,19.688,65.156Zm.9-7.586a2.066,2.066,0,0,0-1.527.594A4.22,4.22,0,0,0,18.024,60l4.109.008.031-.125a2.313,2.313,0,0,0-.316-1.637A1.488,1.488,0,0,0,20.586,57.57ZM27.9,63.984a2.145,2.145,0,0,0,1.367-.441,2.1,2.1,0,0,0,.8-1.2l1.336-.008a3.014,3.014,0,0,1-.637,1.453,3.68,3.68,0,0,1-2.926,1.367,3.017,3.017,0,0,1-1.785-.551,3.084,3.084,0,0,1-1.074-1.492,4.972,4.972,0,0,1-.234-2.152l.039-.391a5.605,5.605,0,0,1,.711-2.18,4.11,4.11,0,0,1,1.469-1.5,3.648,3.648,0,0,1,2-.5,2.857,2.857,0,0,1,2.125.891,3.08,3.08,0,0,1,.8,2.18l-1.32-.008a2.029,2.029,0,0,0-.461-1.34,1.607,1.607,0,0,0-1.2-.543,2.254,2.254,0,0,0-1.832.82,4.3,4.3,0,0,0-.91,2.359l-.023.2a6.776,6.776,0,0,0-.016,1.031,2.355,2.355,0,0,0,.516,1.445A1.656,1.656,0,0,0,27.9,63.984Zm10,.18a3.265,3.265,0,0,1-2.523.992,2.107,2.107,0,0,1-1.793-.867,3.317,3.317,0,0,1-.434-2.281l.906-5.461h1.414l-.914,5.484a3.642,3.642,0,0,0-.016.672,1.4,1.4,0,0,0,.336.883,1.146,1.146,0,0,0,.828.344A2.537,2.537,0,0,0,38.047,62.7l1.063-6.156h1.414L39.055,65H37.719Zm8.523-6.328-.664-.07a2.42,2.42,0,0,0-2.141,1.227L42.578,65H41.164l1.469-8.453L44,56.539l-.211.984a2.527,2.527,0,0,1,2.117-1.148,2.594,2.594,0,0,1,.672.117ZM48.024,65H46.617l1.469-8.453h1.406Zm1.164-11.539a.774.774,0,0,1,.6.215.8.8,0,0,1,.238.605.834.834,0,0,1-.836.852.779.779,0,0,1-.6-.211.764.764,0,0,1-.227-.594.886.886,0,0,1,.234-.609A.826.826,0,0,1,49.188,53.461ZM54.07,54.5l-.359,2.047H55.25l-.2,1.117H53.524l-.883,5.258a1.833,1.833,0,0,0-.008.375.6.6,0,0,0,.664.609,4.05,4.05,0,0,0,.688-.078l-.109,1.18a3.847,3.847,0,0,1-1.031.141,1.476,1.476,0,0,1-1.266-.621A2.4,2.4,0,0,1,51.25,62.9l.859-5.234H50.617l.2-1.117H52.3l.359-2.047Zm4.445,8.367,3.008-6.32h1.563L58.07,66.406q-1.047,2.055-2.687,2.031a4.605,4.605,0,0,1-.852-.141l.125-1.172.367.039a1.853,1.853,0,0,0,1.16-.3,2.772,2.772,0,0,0,.863-1.074l.508-.969-1.461-8.273H57.57Zm17.609-8.016H72.586L70.828,65H69.367l1.758-10.148H67.586l.219-1.227h8.539Zm3.383,10.3a3.048,3.048,0,0,1-2.469-1.164,4.006,4.006,0,0,1-.75-2.9l.039-.336a5.624,5.624,0,0,1,.746-2.3,4.339,4.339,0,0,1,1.5-1.566,3.491,3.491,0,0,1,1.906-.5,2.688,2.688,0,0,1,2.047.867,3.566,3.566,0,0,1,.813,2.266,6.62,6.62,0,0,1-.031,1.016l-.086.648H77.7a2.856,2.856,0,0,0,.379,1.953,1.8,1.8,0,0,0,1.551.836,3.007,3.007,0,0,0,2.313-1.125l.813.688a3.718,3.718,0,0,1-1.371,1.2A3.886,3.886,0,0,1,79.508,65.156Zm.9-7.586a2.066,2.066,0,0,0-1.527.594A4.22,4.22,0,0,0,77.844,60l4.109.008.031-.125a2.313,2.313,0,0,0-.316-1.637A1.488,1.488,0,0,0,80.406,57.57Zm8.977,5.141q.117-.875-.961-1.234l-1.469-.43q-1.859-.641-1.8-2.125a2.341,2.341,0,0,1,1.02-1.832,3.631,3.631,0,0,1,2.27-.7,3.027,3.027,0,0,1,2.082.746,2.363,2.363,0,0,1,.77,1.9l-1.406-.008a1.319,1.319,0,0,0-.4-1.031,1.576,1.576,0,0,0-1.1-.414,2.059,2.059,0,0,0-1.266.359,1.316,1.316,0,0,0-.57.922q-.1.734.9,1.07l.711.2a4.577,4.577,0,0,1,2.063.977,1.865,1.865,0,0,1,.563,1.492,2.37,2.37,0,0,1-.516,1.375,2.948,2.948,0,0,1-1.25.895,4.18,4.18,0,0,1-1.664.285,3.3,3.3,0,0,1-2.219-.785,2.427,2.427,0,0,1-.844-1.98l1.414.008a1.5,1.5,0,0,0,.453,1.141,1.732,1.732,0,0,0,1.242.43,2.436,2.436,0,0,0,1.336-.324A1.247,1.247,0,0,0,89.383,62.711ZM95.961,54.5,95.6,56.547h1.539l-.2,1.117H95.414l-.883,5.258a1.833,1.833,0,0,0-.008.375.6.6,0,0,0,.664.609,4.05,4.05,0,0,0,.688-.078l-.109,1.18a3.847,3.847,0,0,1-1.031.141,1.476,1.476,0,0,1-1.266-.621,2.4,2.4,0,0,1-.328-1.629L94,57.664H92.508l.2-1.117H94.2l.359-2.047ZM98.906,65H97.5l1.469-8.453h1.406Zm1.164-11.539a.774.774,0,0,1,.6.215.8.8,0,0,1,.238.605.834.834,0,0,1-.836.852.779.779,0,0,1-.6-.211.764.764,0,0,1-.227-.594.886.886,0,0,1,.234-.609A.826.826,0,0,1,100.07,53.461Zm3.953,3.078-.2,1.07a3.333,3.333,0,0,1,2.594-1.219,2.1,2.1,0,0,1,1.766.828,3.217,3.217,0,0,1,.422,2.242L107.68,65h-1.414l.93-5.557a2.962,2.962,0,0,0,.008-.71,1.168,1.168,0,0,0-1.289-1.116,2.661,2.661,0,0,0-2.234,1.358L102.633,65h-1.414l1.469-8.453Zm6.25,4.219a6.889,6.889,0,0,1,.746-2.4,3.9,3.9,0,0,1,1.359-1.508,3.151,3.151,0,0,1,1.754-.465,2.6,2.6,0,0,1,2.219,1.109l.281-.945h1.3l-1.406,8.273a4.113,4.113,0,0,1-1.312,2.59,3.7,3.7,0,0,1-2.68.926,3.8,3.8,0,0,1-1.645-.406,3.127,3.127,0,0,1-1.238-1.07l.8-.867a2.536,2.536,0,0,0,3.73.6,2.9,2.9,0,0,0,.926-1.687l.156-.75a3.2,3.2,0,0,1-2.414,1,2.486,2.486,0,0,1-1.371-.426,2.589,2.589,0,0,1-.9-1.164,4.759,4.759,0,0,1-.352-1.7A8.734,8.734,0,0,1,110.274,60.758Zm1.367.8a2.974,2.974,0,0,0,.387,1.728,1.461,1.461,0,0,0,1.238.644,2.561,2.561,0,0,0,2.18-1.241l.664-3.878a1.776,1.776,0,0,0-1.7-1.2,2.194,2.194,0,0,0-1.887.936,4.878,4.878,0,0,0-.871,2.614Z" transform="translate(988.021 20513.467)" fill="#fff"/>
    <path id="Trazado_827917" data-name="Trazado 827917" d="M117.312,60c-.312,0-.653.028-.966.028v-.284A18.9,18.9,0,0,0,99.988,41.034v-.17a3.927,3.927,0,0,0-3.919-3.919,4,4,0,0,0-1.534.312,26.23,26.23,0,0,0-48.591,4.885,10.58,10.58,0,0,0-3.01-.454A10.2,10.2,0,0,0,33.9,56.625a13.932,13.932,0,0,0,.341,27.86h83.068a12.24,12.24,0,1,0,0-24.48Z" transform="translate(1087.847 20326.318)" fill="#3c531c"/>
    <path id="Trazado_827917-2" data-name="Trazado 827917" d="M117.013,59.89c-.311,0-.651.028-.963.028v-.283A18.846,18.846,0,0,0,99.743,40.978v-.17A3.915,3.915,0,0,0,95.836,36.9a3.987,3.987,0,0,0-1.529.311,26.149,26.149,0,0,0-48.441,4.87,10.547,10.547,0,0,0-3-.453,10.173,10.173,0,0,0-9,14.892,13.889,13.889,0,0,0,.34,27.774h82.812a12.2,12.2,0,1,0,0-24.4Z" transform="translate(1108.874 20509.629)" fill="#925f27"/>
    <path id="Trazado_830702" data-name="Trazado 830702" d="M-20.255-10.664l1.868,8.687,4.893-8.687h1.809L-13.539,0h-1.37l.732-4.219.872-4.292L-18.138,0h-1.055l-1.9-8.679-.659,4.6L-22.467,0h-1.377l1.853-10.664ZM-6.427,0a1.775,1.775,0,0,1-.051-.417l.022-.417A3.249,3.249,0,0,1-8.771.146a2.368,2.368,0,0,1-1.7-.663,2.006,2.006,0,0,1-.6-1.622,2.44,2.44,0,0,1,1.1-1.967,4.693,4.693,0,0,1,2.706-.707l1.384.007.088-.63a1.448,1.448,0,0,0-.275-1.124,1.326,1.326,0,0,0-1.044-.428,2.044,2.044,0,0,0-1.2.333,1.418,1.418,0,0,0-.641.919l-1.333.007a2.125,2.125,0,0,1,.542-1.234A3.153,3.153,0,0,1-8.522-7.8a3.951,3.951,0,0,1,1.545-.282,2.627,2.627,0,0,1,1.926.751,2.328,2.328,0,0,1,.579,1.915l-.645,3.926-.037.564a2.765,2.765,0,0,0,.088.8L-5.079,0Zm-2.08-1.025a2.312,2.312,0,0,0,1.2-.3,3.051,3.051,0,0,0,.978-.883l.286-1.633-1-.007a3.8,3.8,0,0,0-1.919.4,1.457,1.457,0,0,0-.754,1.121,1.135,1.135,0,0,0,.26.927A1.238,1.238,0,0,0-8.507-1.025ZM-.656-7.932l-.19,1A3.124,3.124,0,0,1,1.586-8.071a1.966,1.966,0,0,1,1.655.776,3.016,3.016,0,0,1,.4,2.1L2.772,0H1.447l.872-5.209a2.777,2.777,0,0,0,.007-.666A1.1,1.1,0,0,0,1.117-6.921,2.5,2.5,0,0,0-.978-5.648L-1.959,0H-3.285l1.377-7.925ZM9.847-.784a3.061,3.061,0,0,1-2.366.93A1.975,1.975,0,0,1,5.8-.667a3.109,3.109,0,0,1-.406-2.139l.85-5.12H7.57L6.713-2.783a3.415,3.415,0,0,0-.015.63,1.311,1.311,0,0,0,.315.828A1.075,1.075,0,0,0,7.789-1a2.378,2.378,0,0,0,2.2-1.15l1-5.771h1.326L10.931,0H9.679ZM17.758,0a1.775,1.775,0,0,1-.051-.417l.022-.417a3.249,3.249,0,0,1-2.314.981,2.368,2.368,0,0,1-1.7-.663,2.006,2.006,0,0,1-.6-1.622,2.44,2.44,0,0,1,1.1-1.967,4.693,4.693,0,0,1,2.706-.707l1.384.007.088-.63a1.448,1.448,0,0,0-.275-1.124,1.326,1.326,0,0,0-1.044-.428,2.044,2.044,0,0,0-1.2.333,1.418,1.418,0,0,0-.641.919L13.9-5.728a2.125,2.125,0,0,1,.542-1.234A3.153,3.153,0,0,1,15.663-7.8a3.951,3.951,0,0,1,1.545-.282,2.627,2.627,0,0,1,1.926.751,2.328,2.328,0,0,1,.579,1.915l-.645,3.926-.037.564a2.765,2.765,0,0,0,.088.8L19.105,0Zm-2.08-1.025a2.312,2.312,0,0,0,1.2-.3,3.051,3.051,0,0,0,.978-.883l.286-1.633-1-.007a3.8,3.8,0,0,0-1.919.4,1.457,1.457,0,0,0-.754,1.121,1.135,1.135,0,0,0,.26.927A1.238,1.238,0,0,0,15.677-1.025ZM22.335,0H21.017l1.948-11.25h1.326Z" transform="translate(1162.772 20394.061)" fill="#fff"/>
    <path id="Trazado_830701" data-name="Trazado 830701" d="M-8.738-9.514h-3.318L-13.7,0h-1.37l1.648-9.514h-3.318l.205-1.15h8.005Zm3.42,1.443a2.856,2.856,0,0,1,1.707.542A3.08,3.08,0,0,1-2.56-6.075,4.5,4.5,0,0,1-2.329-4.05l-.015.161A5.33,5.33,0,0,1-3.032-1.8,4.04,4.04,0,0,1-4.453-.344,3.465,3.465,0,0,1-6.365.146,2.861,2.861,0,0,1-8.068-.4,3.01,3.01,0,0,1-9.111-1.831a4.623,4.623,0,0,1-.234-2,5.4,5.4,0,0,1,.667-2.212,4.134,4.134,0,0,1,1.432-1.52A3.424,3.424,0,0,1-5.317-8.071Zm-2.7,4.248a4.5,4.5,0,0,0,0,.959A2.35,2.35,0,0,0-7.5-1.487a1.55,1.55,0,0,0,1.183.535A2.112,2.112,0,0,0-5.1-1.278,2.736,2.736,0,0,0-4.16-2.329a4.426,4.426,0,0,0,.491-1.56,7.026,7.026,0,0,0,.022-1.135,2.439,2.439,0,0,0-.535-1.4,1.585,1.585,0,0,0-1.187-.542,2.16,2.16,0,0,0-1.743.806A3.98,3.98,0,0,0-8-3.992ZM3.054-8.071a2.856,2.856,0,0,1,1.707.542A3.08,3.08,0,0,1,5.812-6.075,4.5,4.5,0,0,1,6.042-4.05l-.015.161A5.33,5.33,0,0,1,5.339-1.8,4.04,4.04,0,0,1,3.918-.344,3.465,3.465,0,0,1,2.007.146,2.861,2.861,0,0,1,.3-.4,3.01,3.01,0,0,1-.74-1.831a4.623,4.623,0,0,1-.234-2A5.4,5.4,0,0,1-.308-6.042a4.134,4.134,0,0,1,1.432-1.52A3.424,3.424,0,0,1,3.054-8.071ZM.359-3.823a4.5,4.5,0,0,0,0,.959A2.35,2.35,0,0,0,.875-1.487a1.55,1.55,0,0,0,1.183.535,2.112,2.112,0,0,0,1.216-.326,2.736,2.736,0,0,0,.938-1.051A4.426,4.426,0,0,0,4.7-3.889a7.026,7.026,0,0,0,.022-1.135,2.439,2.439,0,0,0-.535-1.4A1.585,1.585,0,0,0,3-6.965,2.16,2.16,0,0,0,1.26-6.16,3.98,3.98,0,0,0,.374-3.992ZM8.459,0H7.141L9.089-11.25h1.326Zm7.075-2.146q.11-.82-.9-1.157l-1.377-.4q-1.743-.6-1.685-1.992a2.195,2.195,0,0,1,.956-1.718,3.4,3.4,0,0,1,2.128-.656,2.838,2.838,0,0,1,1.952.7,2.216,2.216,0,0,1,.721,1.783L16.011-5.6a1.237,1.237,0,0,0-.374-.967A1.478,1.478,0,0,0,14.6-6.951a1.93,1.93,0,0,0-1.187.337,1.233,1.233,0,0,0-.535.864q-.1.688.842,1l.667.183a4.291,4.291,0,0,1,1.934.916,1.748,1.748,0,0,1,.527,1.4A2.222,2.222,0,0,1,16.37-.959,2.764,2.764,0,0,1,15.2-.121a3.919,3.919,0,0,1-1.56.267,3.092,3.092,0,0,1-2.08-.736,2.275,2.275,0,0,1-.791-1.857l1.326.007a1.4,1.4,0,0,0,.425,1.069,1.624,1.624,0,0,0,1.165.4,2.284,2.284,0,0,0,1.252-.3A1.169,1.169,0,0,0,15.535-2.146Z" transform="translate(1180.433 20573.277)" fill="#fff"/>
    <path id="Trazado_830708" data-name="Trazado 830708" d="M0,0H27.456a14,14,0,0,1,14,14V48a14,14,0,0,1-14,14H0Z" transform="translate(946.544 20464.859)" fill="#e9ba20"/>
    <path id="Trazado_830709" data-name="Trazado 830709" d="M-1.447-5.12a6.889,6.889,0,0,1-.875,2.626A5.378,5.378,0,0,1-4.01-.725L-2.582.688l-1.663,1.26L-6.134.11a5.4,5.4,0,0,1-.615.029A3.778,3.778,0,0,1-8.657-.352,3.432,3.432,0,0,1-9.972-1.743a5.124,5.124,0,0,1-.564-2.08,8.454,8.454,0,0,1,.125-1.952A7.353,7.353,0,0,1-9.76-7.822a5.515,5.515,0,0,1,1.9-2.223,4.619,4.619,0,0,1,2.7-.765,3.862,3.862,0,0,1,1.9.5,3.487,3.487,0,0,1,1.315,1.4,5.062,5.062,0,0,1,.575,2.069,6.806,6.806,0,0,1-.037,1.3ZM-3.871-6.9a2.55,2.55,0,0,0-.414-1.414A1.311,1.311,0,0,0-5.3-8.8a1.985,1.985,0,0,0-1.729.835,5.43,5.43,0,0,0-.894,2.585,8.785,8.785,0,0,0-.1,1.626q.073,1.853,1.436,1.9a1.92,1.92,0,0,0,1.659-.773A5.073,5.073,0,0,0-4.01-5.068,10.153,10.153,0,0,0-3.871-6.9ZM5.892-4.167H6.94l-.33,1.9H5.563L5.167,0H2.758l.4-2.263H-.839l.132-1.626L4.53-10.642v-.051l2.49.037ZM1.666-4.182l1.816.015.645-3.311Z" transform="translate(970.431 20515.791)" fill="#fff"/>
    <path id="Trazado_830710" data-name="Trazado 830710" d="M-1.447-5.12a6.889,6.889,0,0,1-.875,2.626A5.378,5.378,0,0,1-4.01-.725L-2.582.688l-1.663,1.26L-6.134.11a5.4,5.4,0,0,1-.615.029A3.778,3.778,0,0,1-8.657-.352,3.432,3.432,0,0,1-9.972-1.743a5.124,5.124,0,0,1-.564-2.08,8.454,8.454,0,0,1,.125-1.952A7.353,7.353,0,0,1-9.76-7.822a5.515,5.515,0,0,1,1.9-2.223,4.619,4.619,0,0,1,2.7-.765,3.862,3.862,0,0,1,1.9.5,3.487,3.487,0,0,1,1.315,1.4,5.062,5.062,0,0,1,.575,2.069,6.806,6.806,0,0,1-.037,1.3ZM-3.871-6.9a2.55,2.55,0,0,0-.414-1.414A1.311,1.311,0,0,0-5.3-8.8a1.985,1.985,0,0,0-1.729.835,5.43,5.43,0,0,0-.894,2.585,8.785,8.785,0,0,0-.1,1.626q.073,1.853,1.436,1.9a1.92,1.92,0,0,0,1.659-.773A5.073,5.073,0,0,0-4.01-5.068,10.153,10.153,0,0,0-3.871-6.9Zm5.955.535,1.077.007a1.653,1.653,0,0,0,1.084-.383A1.558,1.558,0,0,0,4.75-7.774a1.06,1.06,0,0,0-.2-.818.943.943,0,0,0-.769-.329,1.288,1.288,0,0,0-.842.263,1.232,1.232,0,0,0-.469.738L.055-7.906A2.681,2.681,0,0,1,.612-9.439a3.321,3.321,0,0,1,1.366-1.031,4.548,4.548,0,0,1,1.835-.356,3.851,3.851,0,0,1,2.534.846,2.511,2.511,0,0,1,.842,2.157,2.9,2.9,0,0,1-1.97,2.388,2.4,2.4,0,0,1,1.062.974A2.558,2.558,0,0,1,6.6-3.054a2.951,2.951,0,0,1-.623,1.71A3.65,3.65,0,0,1,4.442-.223a5.115,5.115,0,0,1-2.058.37A3.832,3.832,0,0,1,.645-.259a2.88,2.88,0,0,1-1.2-1.1A3.038,3.038,0,0,1-.963-2.97h2.4a1.274,1.274,0,0,0,.308.859,1.111,1.111,0,0,0,.842.352,1.611,1.611,0,0,0,1.077-.36A1.485,1.485,0,0,0,4.222-3.1a1.346,1.346,0,0,0-.194-1.024,1.161,1.161,0,0,0-.941-.393L1.8-4.526Z" transform="translate(970.431 20488.131)" fill="#fff"/>
    <path id="Trazado_830700" data-name="Trazado 830700" d="M24.881,13.125A4.1,4.1,0,0,1,24.1,15.25a4.441,4.441,0,0,1-1.8,1.43,5.563,5.563,0,0,1-2.41.477,3.746,3.746,0,0,1-2.8-1.148A4.616,4.616,0,0,1,15.967,13a9.8,9.8,0,0,1,.277-2.758,7.29,7.29,0,0,1,1.133-2.6,5.2,5.2,0,0,1,1.852-1.656,4.807,4.807,0,0,1,2.332-.527A4.069,4.069,0,0,1,24.5,6.578,4.374,4.374,0,0,1,25.678,9.57l-2.664-.008a2.191,2.191,0,0,0-.375-1.484A1.646,1.646,0,0,0,21.4,7.6q-2.109-.07-2.57,3.281a18.03,18.03,0,0,0-.211,2.164q-.039,1.922,1.422,1.977a2.087,2.087,0,0,0,1.508-.465,2.325,2.325,0,0,0,.719-1.4Zm6.719-2.2a7.354,7.354,0,0,0-.8-.078,1.985,1.985,0,0,0-1.766.8L28.084,17h-2.57l1.469-8.453,2.4-.008-.2,1.109a2.347,2.347,0,0,1,1.953-1.281,3.683,3.683,0,0,1,.8.109ZM34.17,17H31.592L33.06,8.547h2.578ZM33.287,6.414a1.192,1.192,0,0,1,.4-.953A1.444,1.444,0,0,1,34.7,5.078a1.491,1.491,0,0,1,1,.344,1.172,1.172,0,0,1,.418.9,1.194,1.194,0,0,1-.4.957,1.449,1.449,0,0,1-1.016.379,1.51,1.51,0,0,1-1-.34A1.158,1.158,0,0,1,33.287,6.414Zm7.336.031-.367,2.1h1.352l-.32,1.828H39.935l-.656,3.883a1.035,1.035,0,0,0,.051.6q.105.2.527.219a6.109,6.109,0,0,0,.672-.039l-.187,1.906a4.154,4.154,0,0,1-1.383.2,2.278,2.278,0,0,1-1.789-.7,2.4,2.4,0,0,1-.484-1.867l.688-4.2H36.326l.313-1.828h1.047l.367-2.1ZM43.92,17H41.342L42.81,8.547h2.578ZM43.037,6.414a1.192,1.192,0,0,1,.4-.953,1.444,1.444,0,0,1,1.012-.383,1.491,1.491,0,0,1,1,.344,1.172,1.172,0,0,1,.418.9,1.194,1.194,0,0,1-.4.957,1.449,1.449,0,0,1-1.016.379,1.51,1.51,0,0,1-1-.34A1.158,1.158,0,0,1,43.037,6.414Zm2.938,6.32a7.094,7.094,0,0,1,.672-2.332,3.727,3.727,0,0,1,1.3-1.535,3.111,3.111,0,0,1,1.785-.477,2.2,2.2,0,0,1,1.922,1.078l.4-.93,2.258.008-2.031,11.7H49.7l.789-3.969a2.484,2.484,0,0,1-1.93.875,2.32,2.32,0,0,1-1.891-.9,3.983,3.983,0,0,1-.742-2.4A9.113,9.113,0,0,1,45.974,12.734Zm2.516.813a2.131,2.131,0,0,0,.164,1.129.765.765,0,0,0,.7.449,1.57,1.57,0,0,0,1.344-.68l.6-3.367a1.032,1.032,0,0,0-1.039-.672q-1.414-.023-1.711,2.328Zm11.086,2.531a2.8,2.8,0,0,1-2.281,1.086,2.215,2.215,0,0,1-1.871-.867,3.2,3.2,0,0,1-.488-2.281l.914-5.469h2.57l-.93,5.507a1.835,1.835,0,0,0,0,.415.68.68,0,0,0,.758.665,1.661,1.661,0,0,0,1.383-.641l1.047-5.945h2.586L61.795,17H59.4Zm7.8,1.078a3.929,3.929,0,0,1-2.02-.535,3.372,3.372,0,0,1-1.34-1.469,3.946,3.946,0,0,1-.359-2.074l.023-.219a5.182,5.182,0,0,1,1.449-3.3A4.009,4.009,0,0,1,68.17,8.391a3.269,3.269,0,0,1,1.859.552,3.082,3.082,0,0,1,1.133,1.479,4.529,4.529,0,0,1,.234,2.117l-.148,1.072H66.217a1.648,1.648,0,0,0,.375,1.078,1.377,1.377,0,0,0,1.047.438,2.66,2.66,0,0,0,2.008-.859l1.078,1.426a3.181,3.181,0,0,1-1.332,1.064,4.678,4.678,0,0,1-1.871.4Zm.625-6.734a1.322,1.322,0,0,0-.949.342,2.87,2.87,0,0,0-.7,1.2h2.57l.047-.225a1.715,1.715,0,0,0,.016-.513A.9.9,0,0,0,68.006,10.422ZM19.013,37.133,18.342,41H15.67l1.969-11.375,4.086.008a4.118,4.118,0,0,1,2.988,1.054,3.246,3.246,0,0,1,.957,2.732,3.714,3.714,0,0,1-.734,1.99A4.067,4.067,0,0,1,23.244,36.7a5.987,5.987,0,0,1-2.355.445Zm.367-2.109,1.609.016a1.9,1.9,0,0,0,1.984-2.232,1.2,1.2,0,0,0-.363-.756,1.245,1.245,0,0,0-.793-.309l-1.867-.008Zm12.453-.094a7.354,7.354,0,0,0-.8-.078,1.985,1.985,0,0,0-1.766.8L28.318,41h-2.57l1.469-8.453,2.4-.008-.2,1.109a2.347,2.347,0,0,1,1.953-1.281,3.683,3.683,0,0,1,.8.109Zm4.508-2.539a3.55,3.55,0,0,1,1.961.566,3.191,3.191,0,0,1,1.215,1.535,4.737,4.737,0,0,1,.277,2.188l-.016.172a5.01,5.01,0,0,1-1.445,3.141A4.067,4.067,0,0,1,35.3,41.156a3.535,3.535,0,0,1-1.945-.559,3.211,3.211,0,0,1-1.215-1.52,4.6,4.6,0,0,1-.285-2.172,5.211,5.211,0,0,1,1.426-3.312A4.041,4.041,0,0,1,36.342,32.391ZM34.428,36.91l-.023.46q-.109,1.739,1.063,1.771,1.516.047,1.758-2.457l.031-.71a1.916,1.916,0,0,0-.262-1.119.954.954,0,0,0-.816-.433A1.344,1.344,0,0,0,35.01,35,3.8,3.8,0,0,0,34.428,36.91Zm6.2-.152a6.148,6.148,0,0,1,1.219-3.2A3.02,3.02,0,0,1,44.4,32.391a2.3,2.3,0,0,1,1.789.906l.82-4.3h2.578L47.506,41H45.217l.109-.914a2.638,2.638,0,0,1-2.1,1.078,2.328,2.328,0,0,1-1.91-.9,3.979,3.979,0,0,1-.738-2.379,7.317,7.317,0,0,1,.031-.961Zm2.563.18a6.135,6.135,0,0,0-.055.875q0,1.3.875,1.32a1.639,1.639,0,0,0,1.352-.727l.578-3.242a1.041,1.041,0,0,0-1.031-.742,1.314,1.314,0,0,0-1.16.621A4.006,4.006,0,0,0,43.193,36.938ZM54.24,40.078a2.8,2.8,0,0,1-2.281,1.086,2.215,2.215,0,0,1-1.871-.867,3.2,3.2,0,0,1-.488-2.281l.914-5.469h2.57l-.93,5.507a1.835,1.835,0,0,0,0,.415.68.68,0,0,0,.758.665,1.661,1.661,0,0,0,1.383-.641l1.047-5.945h2.586L56.459,41H54.068Zm7.516-.953a1.106,1.106,0,0,0,.867-.306,1.526,1.526,0,0,0,.4-.834l2.406-.008a3.163,3.163,0,0,1-.551,1.664,3.329,3.329,0,0,1-1.359,1.137,4.019,4.019,0,0,1-1.832.379,3.173,3.173,0,0,1-2.6-1.215,4.2,4.2,0,0,1-.742-3.059l.023-.187a5.663,5.663,0,0,1,.719-2.27A4.112,4.112,0,0,1,60.6,32.9a3.941,3.941,0,0,1,2.105-.508,3.143,3.143,0,0,1,2.332.941,3.338,3.338,0,0,1,.824,2.457l-2.406-.008q.039-1.336-.961-1.359-1.359-.047-1.562,2.281l-.07.794-.008.3Q60.857,39.1,61.756,39.125Zm9.047-8.68-.367,2.1h1.352l-.32,1.828H70.115l-.656,3.883a1.035,1.035,0,0,0,.051.6q.105.2.527.219a6.11,6.11,0,0,0,.672-.039l-.187,1.906a4.154,4.154,0,0,1-1.383.2,2.278,2.278,0,0,1-1.789-.7,2.4,2.4,0,0,1-.484-1.867l.688-4.2H66.506l.313-1.828h1.047l.367-2.1Z" transform="translate(1159.5 20460.617)" fill="#273a89"/>
    <path id="Trazado_830705" data-name="Trazado 830705" d="M213,0H0" transform="translate(946.5 20492.5)" fill="none" stroke="#fff" stroke-width="1"/>
  </g>
</svg>
