<svg xmlns="http://www.w3.org/2000/svg" width="650.4" height="496.242" viewBox="0 0 650.4 496.242">
  <g id="Grupo_1085471" data-name="Grupo 1085471" transform="translate(-224.801 -25669.758)">
    <path id="Trazado_825349" data-name="Trazado 825349" d="M178.04,42.413C158.446,53.719,142.279,69.17,131.33,87.23l-4.144,6.8.051-7.981c.051-3.581.153-7.214.358-11,.153-2.763.358-5.577.614-8.39A143.711,143.711,0,0,0,92.243,74.9a135.741,135.741,0,0,0-18.469,8.339c-2.353,1.228-4.656,2.609-7.009,4.042l-1.791,1.074-1.586,1.023c-2.353,1.535-4.758,3.172-7.009,4.911A158.255,158.255,0,0,0,4.246,161.925L0,169.087V160.8A171.6,171.6,0,0,1,35.455,78.481a181.16,181.16,0,0,1,15.758-17.5A179.185,179.185,0,0,1,69.477,45.533a186.779,186.779,0,0,1,42.668-23.381l.1-.051.1-.051c.1,0,2.2-.614,4.4-1.126l1.074-.256c-1.586-2.149-3.172-4.3-4.809-6.446-2.456-3.172-4.86-6.19-7.163-8.9L101.35,0,108.1,1.791c27.167,7.111,51.724,19.8,70.909,36.682l2.3,2.046h0Z" transform="matrix(0.966, -0.259, 0.259, 0.966, 224.801, 25726.855)" fill="#231f20" opacity="0.2"/>
    <path id="Trazado_825350" data-name="Trazado 825350" d="M178.04,42.412C158.446,53.719,142.279,69.17,131.33,87.23l-4.144,6.8.051-7.981c.051-3.581.153-7.214.358-11,.153-2.763.358-5.577.614-8.39A143.711,143.711,0,0,0,92.243,74.9a135.739,135.739,0,0,0-18.469,8.339c-2.353,1.228-4.656,2.609-7.009,4.042l-1.791,1.074-1.586,1.023c-2.353,1.535-4.758,3.172-7.009,4.911A158.255,158.255,0,0,0,4.246,161.925L0,169.087V160.8A171.6,171.6,0,0,1,35.455,78.481a181.16,181.16,0,0,1,15.758-17.5A179.183,179.183,0,0,1,69.477,45.533a186.779,186.779,0,0,1,42.668-23.381l.1-.051.1-.051c.1,0,2.2-.614,4.4-1.126l1.074-.256c-1.586-2.149-3.172-4.3-4.809-6.446-2.456-3.172-4.86-6.19-7.163-8.9L101.35,0,108.1,1.791c27.167,7.111,51.724,19.8,70.909,36.682l2.3,2.046h0Z" transform="matrix(0.966, -0.259, 0.259, 0.966, 230.015, 25729.908)" fill="#fff"/>
    <path id="Trazado_825351" data-name="Trazado 825351" d="M105.392,0c2.456,2.916,4.86,5.935,7.214,8.953s4.6,6.088,6.753,9.158l-4.3,1.023c-2.149.46-4.3,1.074-4.3,1.074A182.055,182.055,0,0,0,68.607,43.333a184.666,184.666,0,0,0-18.06,15.246A177.105,177.105,0,0,0,34.994,75.872,170.849,170.849,0,0,0,0,157.116,159.665,159.665,0,0,1,52.9,88.56c2.814-2.149,5.781-4.042,8.646-5.986,3.018-1.791,5.935-3.684,9-5.27a139.1,139.1,0,0,1,18.725-8.442,146.69,146.69,0,0,1,39.189-8.6c-.358,3.684-.665,7.316-.87,10.948s-.358,7.214-.358,10.9c10.641-17.5,26.911-33.817,48.091-45.891C157.064,20.106,133.07,7.265,105.392,0Z" transform="matrix(0.966, -0.259, 0.259, 0.966, 233.11, 25733.156)" fill="#0ad0d9"/>
    <path id="Trazado_825352" data-name="Trazado 825352" d="M105.392,0c2.456,2.916,4.86,5.935,7.214,8.953s4.6,6.088,6.753,9.158l-4.3,1.023c-2.149.46-4.3,1.074-4.3,1.074A182.055,182.055,0,0,0,68.607,43.333a184.666,184.666,0,0,0-18.06,15.246A177.105,177.105,0,0,0,34.994,75.872,170.849,170.849,0,0,0,0,157.116s.256-.87.716-2.507c.512-1.637,1.126-4.042,2.2-7.009A158.993,158.993,0,0,1,13.2,123.5,171.667,171.667,0,0,1,33.971,92.857,181.9,181.9,0,0,1,48.5,77.816a186.619,186.619,0,0,1,16.883-13.4A184.9,184.9,0,0,1,83.955,53.361,169.028,169.028,0,0,1,139.209,36.58,159.908,159.908,0,0,1,165.4,35.557c3.172.051,5.628.358,7.316.46,1.688.153,2.609.2,2.609.2C157.064,20.106,133.07,7.265,105.392,0Z" transform="matrix(0.966, -0.259, 0.259, 0.966, 229.552, 25734.109)" fill="#273a89" opacity="0.18"/>
    <path id="Trazado_825349-2" data-name="Trazado 825349" d="M178.04,42.413C158.446,53.719,142.279,69.17,131.33,87.23l-4.144,6.8.051-7.981c.051-3.581.153-7.214.358-11,.153-2.763.358-5.577.614-8.39A143.711,143.711,0,0,0,92.243,74.9a135.741,135.741,0,0,0-18.469,8.339c-2.353,1.228-4.656,2.609-7.009,4.042l-1.791,1.074-1.586,1.023c-2.353,1.535-4.758,3.172-7.009,4.911A158.255,158.255,0,0,0,4.246,161.925L0,169.087V160.8A171.6,171.6,0,0,1,35.455,78.481a181.16,181.16,0,0,1,15.758-17.5A179.185,179.185,0,0,1,69.477,45.533a186.779,186.779,0,0,1,42.668-23.381l.1-.051.1-.051c.1,0,2.2-.614,4.4-1.126l1.074-.256c-1.586-2.149-3.172-4.3-4.809-6.446-2.456-3.172-4.86-6.19-7.163-8.9L101.35,0,108.1,1.791c27.167,7.111,51.724,19.8,70.909,36.682l2.3,2.046h0Z" transform="matrix(-0.809, -0.588, 0.588, -0.809, 580.338, 26166)" fill="#231f20" opacity="0.2"/>
    <path id="Trazado_825350-2" data-name="Trazado 825350" d="M178.04,42.412C158.446,53.719,142.279,69.17,131.33,87.23l-4.144,6.8.051-7.981c.051-3.581.153-7.214.358-11,.153-2.763.358-5.577.614-8.39A143.711,143.711,0,0,0,92.243,74.9a135.739,135.739,0,0,0-18.469,8.339c-2.353,1.228-4.656,2.609-7.009,4.042l-1.791,1.074-1.586,1.023c-2.353,1.535-4.758,3.172-7.009,4.911A158.255,158.255,0,0,0,4.246,161.925L0,169.087V160.8A171.6,171.6,0,0,1,35.455,78.481a181.16,181.16,0,0,1,15.758-17.5A179.183,179.183,0,0,1,69.477,45.533a186.779,186.779,0,0,1,42.668-23.381l.1-.051.1-.051c.1,0,2.2-.614,4.4-1.126l1.074-.256c-1.586-2.149-3.172-4.3-4.809-6.446-2.456-3.172-4.86-6.19-7.163-8.9L101.35,0,108.1,1.791c27.167,7.111,51.724,19.8,70.909,36.682l2.3,2.046h0Z" transform="matrix(-0.809, -0.588, 0.588, -0.809, 579.429, 26160.027)" fill="#fff"/>
    <path id="Trazado_825351-2" data-name="Trazado 825351" d="M105.392,0c2.456,2.916,4.86,5.935,7.214,8.953s4.6,6.088,6.753,9.158l-4.3,1.023c-2.149.46-4.3,1.074-4.3,1.074A182.055,182.055,0,0,0,68.607,43.333a184.666,184.666,0,0,0-18.06,15.246A177.105,177.105,0,0,0,34.994,75.872,170.849,170.849,0,0,0,0,157.116,159.665,159.665,0,0,1,52.9,88.56c2.814-2.149,5.781-4.042,8.646-5.986,3.018-1.791,5.935-3.684,9-5.27a139.1,139.1,0,0,1,18.725-8.442,146.69,146.69,0,0,1,39.189-8.6c-.358,3.684-.665,7.316-.87,10.948s-.358,7.214-.358,10.9c10.641-17.5,26.911-33.817,48.091-45.891C157.064,20.106,133.07,7.265,105.392,0Z" transform="matrix(-0.809, -0.588, 0.588, -0.809, 580.006, 26155.576)" fill="#0ad0d9"/>
    <path id="Trazado_825352-2" data-name="Trazado 825352" d="M105.392,0c2.456,2.916,4.86,5.935,7.214,8.953s4.6,6.088,6.753,9.158l-4.3,1.023c-2.149.46-4.3,1.074-4.3,1.074A182.055,182.055,0,0,0,68.607,43.333a184.666,184.666,0,0,0-18.06,15.246A177.105,177.105,0,0,0,34.994,75.872,170.849,170.849,0,0,0,0,157.116s.256-.87.716-2.507c.512-1.637,1.126-4.042,2.2-7.009A158.993,158.993,0,0,1,13.2,123.5,171.667,171.667,0,0,1,33.971,92.857,181.9,181.9,0,0,1,48.5,77.816a186.619,186.619,0,0,1,16.883-13.4A184.9,184.9,0,0,1,83.955,53.361,169.028,169.028,0,0,1,139.209,36.58,159.908,159.908,0,0,1,165.4,35.557c3.172.051,5.628.358,7.316.46,1.688.153,2.609.2,2.609.2C157.064,20.106,133.07,7.265,105.392,0Z" transform="matrix(-0.809, -0.588, 0.588, -0.809, 582.986, 26157.742)" fill="#273a89" opacity="0.18"/>
    <path id="Trazado_825349-3" data-name="Trazado 825349" d="M178.04,42.413C158.446,53.719,142.279,69.17,131.33,87.23l-4.144,6.8.051-7.981c.051-3.581.153-7.214.358-11,.153-2.763.358-5.577.614-8.39A143.711,143.711,0,0,0,92.243,74.9a135.741,135.741,0,0,0-18.469,8.339c-2.353,1.228-4.656,2.609-7.009,4.042l-1.791,1.074-1.586,1.023c-2.353,1.535-4.758,3.172-7.009,4.911A158.255,158.255,0,0,0,4.246,161.925L0,169.087V160.8A171.6,171.6,0,0,1,35.455,78.481a181.16,181.16,0,0,1,15.758-17.5A179.185,179.185,0,0,1,69.477,45.533a186.779,186.779,0,0,1,42.668-23.381l.1-.051.1-.051c.1,0,2.2-.614,4.4-1.126l1.074-.256c-1.586-2.149-3.172-4.3-4.809-6.446-2.456-3.172-4.86-6.19-7.163-8.9L101.35,0,108.1,1.791c27.167,7.111,51.724,19.8,70.909,36.682l2.3,2.046h0Z" transform="translate(838.061 25669.758) rotate(90)" fill="#231f20" opacity="0.2"/>
    <path id="Trazado_825350-3" data-name="Trazado 825350" d="M178.04,42.412C158.446,53.719,142.279,69.17,131.33,87.23l-4.144,6.8.051-7.981c.051-3.581.153-7.214.358-11,.153-2.763.358-5.577.614-8.39A143.711,143.711,0,0,0,92.243,74.9a135.739,135.739,0,0,0-18.469,8.339c-2.353,1.228-4.656,2.609-7.009,4.042l-1.791,1.074-1.586,1.023c-2.353,1.535-4.758,3.172-7.009,4.911A158.255,158.255,0,0,0,4.246,161.925L0,169.087V160.8A171.6,171.6,0,0,1,35.455,78.481a181.16,181.16,0,0,1,15.758-17.5A179.183,179.183,0,0,1,69.477,45.533a186.779,186.779,0,0,1,42.668-23.381l.1-.051.1-.051c.1,0,2.2-.614,4.4-1.126l1.074-.256c-1.586-2.149-3.172-4.3-4.809-6.446-2.456-3.172-4.86-6.19-7.163-8.9L101.35,0,108.1,1.791c27.167,7.111,51.724,19.8,70.909,36.682l2.3,2.046h0Z" transform="translate(833.763 25674.004) rotate(90)" fill="#fff"/>
    <path id="Trazado_825351-3" data-name="Trazado 825351" d="M105.392,0c2.456,2.916,4.86,5.935,7.214,8.953s4.6,6.088,6.753,9.158l-4.3,1.023c-2.149.46-4.3,1.074-4.3,1.074A182.055,182.055,0,0,0,68.607,43.333a184.666,184.666,0,0,0-18.06,15.246A177.105,177.105,0,0,0,34.994,75.872,170.849,170.849,0,0,0,0,157.116,159.665,159.665,0,0,1,52.9,88.56c2.814-2.149,5.781-4.042,8.646-5.986,3.018-1.791,5.935-3.684,9-5.27a139.1,139.1,0,0,1,18.725-8.442,146.69,146.69,0,0,1,39.189-8.6c-.358,3.684-.665,7.316-.87,10.948s-.358,7.214-.358,10.9c10.641-17.5,26.911-33.817,48.091-45.891C157.064,20.106,133.07,7.265,105.392,0Z" transform="translate(829.824 25676.152) rotate(90)" fill="#0ad0d9"/>
    <path id="Trazado_825352-3" data-name="Trazado 825352" d="M105.392,0c2.456,2.916,4.86,5.935,7.214,8.953s4.6,6.088,6.753,9.158l-4.3,1.023c-2.149.46-4.3,1.074-4.3,1.074A182.055,182.055,0,0,0,68.607,43.333a184.666,184.666,0,0,0-18.06,15.246A177.105,177.105,0,0,0,34.994,75.872,170.849,170.849,0,0,0,0,157.116s.256-.87.716-2.507c.512-1.637,1.126-4.042,2.2-7.009A158.993,158.993,0,0,1,13.2,123.5,171.667,171.667,0,0,1,33.971,92.857,181.9,181.9,0,0,1,48.5,77.816a186.619,186.619,0,0,1,16.883-13.4A184.9,184.9,0,0,1,83.955,53.361,169.028,169.028,0,0,1,139.209,36.58,159.908,159.908,0,0,1,165.4,35.557c3.172.051,5.628.358,7.316.46,1.688.153,2.609.2,2.609.2C157.064,20.106,133.07,7.265,105.392,0Z" transform="translate(829.824 25672.469) rotate(90)" fill="#273a89" opacity="0.18"/>
    <path id="Trazado_825353" data-name="Trazado 825353" d="M187.219,58.24,168.887,26.529A14.391,14.391,0,0,0,157.68,20.1H121.016a14.633,14.633,0,0,0-11.208,6.429L91.564,58.24a14.177,14.177,0,0,0,0,12.945L109.9,102.9a14.391,14.391,0,0,0,11.208,6.429h36.663a14.633,14.633,0,0,0,11.208-6.429l18.332-31.711A14.446,14.446,0,0,0,187.219,58.24Z" transform="translate(376.791 25854.85)" fill="#a86e2f"/>
    <path id="Trazado_825354" data-name="Trazado 825354" d="M202.419,64.2l-21.2-36.669a16.641,16.641,0,0,0-12.96-7.434h-42.4c-4.722,0-10.549,3.416-12.96,7.434L91.808,64.2a16.393,16.393,0,0,0,0,14.969l21.2,36.669a16.641,16.641,0,0,0,12.96,7.434h42.4c4.722,0,10.549-3.416,12.96-7.434l21.2-36.669C204.83,75.054,204.83,68.323,202.419,64.2Z" transform="translate(369.266 25847.936)" fill="none" stroke="#a86e2f" stroke-width="2"/>
    <path id="Trazado_825357" data-name="Trazado 825357" d="M259.817,86.722,227.8,31.33c-3.642-6.222-12.444-11.23-19.577-11.23H144.177c-7.133,0-15.935,5.16-19.577,11.23L92.732,86.722c-3.642,6.222-3.642,16.39,0,22.612l32.021,55.392c3.642,6.222,12.444,11.23,19.577,11.23h64.042c7.133,0,15.935-5.16,19.577-11.23l32.021-55.392C263.459,103.112,263.459,92.944,259.817,86.722Z" transform="translate(339.585 25653.752)" fill="none" stroke="#911b25" stroke-width="2"/>
    <path id="Trazado_825355" data-name="Trazado 825355" d="M259.817,86.722,227.8,31.33c-3.642-6.222-12.444-11.23-19.577-11.23H144.177c-7.133,0-15.935,5.16-19.577,11.23L92.732,86.722c-3.642,6.222-3.642,16.39,0,22.612l32.021,55.392c3.642,6.222,12.444,11.23,19.577,11.23h64.042c7.133,0,15.935-5.16,19.577-11.23l32.021-55.392C263.459,103.112,263.459,92.944,259.817,86.722Z" transform="translate(611.633 25847.936)" fill="none" stroke="#4d6828" stroke-width="2"/>
    <path id="Trazado_825359" data-name="Trazado 825359" d="M236.856,77.714l-27.691-47.9c-3.15-5.381-10.762-9.712-16.93-9.712H136.852c-6.168,0-13.78,4.462-16.93,9.712l-27.56,47.9c-3.15,5.381-3.15,14.174,0,19.555l27.691,47.9c3.15,5.381,10.762,9.712,16.93,9.712h55.383c6.168,0,13.78-4.462,16.93-9.712l27.691-47.9C240.006,91.888,240.006,83.095,236.856,77.714Z" transform="translate(622.716 25859.018)" fill="#4d6828"/>
    <path id="Trazado_825361" data-name="Trazado 825361" d="M236.856,77.714l-27.691-47.9c-3.15-5.381-10.762-9.712-16.93-9.712H136.852c-6.168,0-13.78,4.462-16.93,9.712l-27.56,47.9c-3.15,5.381-3.15,14.174,0,19.555l27.691,47.9c3.15,5.381,10.762,9.712,16.93,9.712h55.383c6.168,0,13.78-4.462,16.93-9.712l27.691-47.9C240.006,91.888,240.006,83.095,236.856,77.714Z" transform="translate(350.685 25664.834)" fill="#911b25"/>
    <path id="Trazado_825358" data-name="Trazado 825358" d="M259.817,86.722,227.8,31.33c-3.642-6.222-12.444-11.23-19.577-11.23H144.178c-7.133,0-15.935,5.16-19.577,11.23L92.732,86.722c-3.642,6.222-3.642,16.39,0,22.612l32.021,55.392c3.642,6.222,12.444,11.23,19.577,11.23h64.042c7.133,0,15.935-5.16,19.577-11.23l32.021-55.392C263.459,103.112,263.459,92.944,259.817,86.722Z" transform="translate(145.756 25865.375)" fill="none" stroke="#b071e3" stroke-width="2"/>
    <path id="Trazado_825362" data-name="Trazado 825362" d="M236.856,77.714l-27.691-47.9c-3.15-5.381-10.762-9.712-16.93-9.712H136.852c-6.168,0-13.78,4.462-16.93,9.712l-27.56,47.9c-3.15,5.381-3.15,14.174,0,19.555l27.691,47.9c3.15,5.381,10.762,9.712,16.93,9.712h55.383c6.168,0,13.78-4.462,16.93-9.712l27.691-47.9C240.006,91.888,240.006,83.095,236.856,77.714Z" transform="translate(156.839 25876.457)" fill="#602492"/>
    <path id="Trazado_830824" data-name="Trazado 830824" d="M-8.6-4.164h-1.859L-11.184,0h-2.289L-11.5-11.375l3.766.008a4.289,4.289,0,0,1,2.91.891A2.817,2.817,0,0,1-3.918-8a3.574,3.574,0,0,1-2.5,3.258l1.6,4.617V0H-7.254Zm-1.531-1.9,1.7.016a2.386,2.386,0,0,0,1.5-.488A1.933,1.933,0,0,0-6.223-7.82a1.473,1.473,0,0,0-.242-1.187,1.442,1.442,0,0,0-1.117-.461l-1.953-.008ZM.387.156A3.677,3.677,0,0,1-1.578-.387,3.292,3.292,0,0,1-2.855-1.855a4.093,4.093,0,0,1-.328-2.059l.023-.312a5.465,5.465,0,0,1,.719-2.266A4.341,4.341,0,0,1-.895-8.082,3.827,3.827,0,0,1,1.2-8.609a2.924,2.924,0,0,1,2.473,1.2,4.117,4.117,0,0,1,.637,2.962l-.125.962H-1A1.814,1.814,0,0,0-.6-2.172a1.521,1.521,0,0,0,1.172.508A2.7,2.7,0,0,0,2.684-2.6l1.008,1.25A3.135,3.135,0,0,1,2.316-.23,4.5,4.5,0,0,1,.387.156Zm.7-6.945a1.565,1.565,0,0,0-1.082.383A3.363,3.363,0,0,0-.84-5.023H2.191l.047-.2a2.071,2.071,0,0,0,.008-.594,1.134,1.134,0,0,0-.383-.707A1.2,1.2,0,0,0,1.09-6.789ZM9.035-8.617a2.4,2.4,0,0,1,1.906.945L11.77-12H13.98L11.9,0H9.934l.125-.906a2.736,2.736,0,0,1-2.2,1.07A2.433,2.433,0,0,1,6.473-.25a2.607,2.607,0,0,1-.918-1.168,4.7,4.7,0,0,1-.355-1.7,6.4,6.4,0,0,1,.023-.953l.047-.352A6.767,6.767,0,0,1,5.992-6.7,3.766,3.766,0,0,1,7.3-8.164,3.094,3.094,0,0,1,9.035-8.617ZM7.434-4.07a6.327,6.327,0,0,0-.039,1Q7.473-1.7,8.5-1.672a1.885,1.885,0,0,0,1.617-.875l.6-3.359A1.248,1.248,0,0,0,9.5-6.781a1.606,1.606,0,0,0-1.34.621A4.176,4.176,0,0,0,7.434-4.07Z" transform="translate(515.547 25756.789)" fill="#fff"/>
    <path id="Trazado_830825" data-name="Trazado 830825" d="M-5.77-9.477H-9.254V0H-11.6V-9.477h-3.437v-1.9H-5.77ZM-4.434,0V-11.375h3.5A5.315,5.315,0,0,1,1.75-10.7,4.712,4.712,0,0,1,3.6-8.777a5.928,5.928,0,0,1,.664,2.832v.523A5.945,5.945,0,0,1,3.609-2.6,4.672,4.672,0,0,1,1.77-.687,5.355,5.355,0,0,1-.91,0ZM-2.09-9.477v7.594H-.957a2.545,2.545,0,0,0,2.1-.9,4.06,4.06,0,0,0,.742-2.57v-.6a4.124,4.124,0,0,0-.719-2.629,2.537,2.537,0,0,0-2.1-.895ZM5.965,0V-11.375h3.5a5.315,5.315,0,0,1,2.684.676A4.712,4.712,0,0,1,14-8.777a5.928,5.928,0,0,1,.664,2.832v.523a5.945,5.945,0,0,1-.652,2.82,4.672,4.672,0,0,1-1.84,1.914A5.355,5.355,0,0,1,9.488,0ZM8.309-9.477v7.594H9.441a2.545,2.545,0,0,0,2.1-.9,4.06,4.06,0,0,0,.742-2.57v-.6a4.124,4.124,0,0,0-.719-2.629,2.537,2.537,0,0,0-2.1-.895Z" transform="translate(515.547 25924.814)" fill="#fff"/>
    <path id="Trazado_830826" data-name="Trazado 830826" d="M-25.133-4.164h-1.859L-27.719,0h-2.289l1.977-11.375,3.766.008a4.289,4.289,0,0,1,2.91.891A2.817,2.817,0,0,1-20.453-8a3.574,3.574,0,0,1-2.5,3.258l1.6,4.617V0h-2.437Zm-1.531-1.9,1.7.016a2.386,2.386,0,0,0,1.5-.488,1.933,1.933,0,0,0,.707-1.285A1.473,1.473,0,0,0-23-9.008a1.442,1.442,0,0,0-1.117-.461l-1.953-.008ZM-16.148.156a3.677,3.677,0,0,1-1.965-.543,3.292,3.292,0,0,1-1.277-1.469,4.093,4.093,0,0,1-.328-2.059l.023-.312a5.465,5.465,0,0,1,.719-2.266,4.341,4.341,0,0,1,1.547-1.59,3.827,3.827,0,0,1,2.094-.527,2.924,2.924,0,0,1,2.473,1.2,4.117,4.117,0,0,1,.637,2.962l-.125.962h-5.18a1.814,1.814,0,0,0,.4,1.313,1.521,1.521,0,0,0,1.172.508A2.7,2.7,0,0,0-13.852-2.6l1.008,1.25A3.135,3.135,0,0,1-14.219-.23,4.5,4.5,0,0,1-16.148.156Zm.7-6.945a1.565,1.565,0,0,0-1.082.383,3.363,3.363,0,0,0-.848,1.383h3.031l.047-.2a2.071,2.071,0,0,0,.008-.594,1.134,1.134,0,0,0-.383-.707A1.2,1.2,0,0,0-15.445-6.789ZM-11.1,0l1.18-6.8h-1.219l.289-1.648,1.219-.008.109-.844a3.332,3.332,0,0,1,1.1-2.121,3.334,3.334,0,0,1,2.289-.754,7.33,7.33,0,0,1,1.2.163l-.2,1.751a2.732,2.732,0,0,0-.648-.094,1.615,1.615,0,0,0-1,.3,1.355,1.355,0,0,0-.52.918l-.117.69h1.633L-6.078-6.8H-7.7L-8.883,0Zm9.938,0A2.281,2.281,0,0,1-1.25-.766,2.863,2.863,0,0,1-3.406.156a2.594,2.594,0,0,1-1.84-.723A2.186,2.186,0,0,1-5.93-2.312,2.527,2.527,0,0,1-4.77-4.434,5.266,5.266,0,0,1-1.8-5.172l1.031.016.109-.508a1.764,1.764,0,0,0,.023-.492A.846.846,0,0,0-.918-6.73a.955.955,0,0,0-.629-.215,1.345,1.345,0,0,0-.875.254,1.231,1.231,0,0,0-.461.777l-2.211.008A2.457,2.457,0,0,1-3.98-7.871a4.312,4.312,0,0,1,2.613-.738,3.117,3.117,0,0,1,2.25.855,2.5,2.5,0,0,1,.68,2.121L.914-1.586l-.039.5a2.412,2.412,0,0,0,.133.938L1,0Zm-1.7-1.555A2.017,2.017,0,0,0-1.2-2.383l.273-1.461-.766-.008a2.139,2.139,0,0,0-1.758.742,1.292,1.292,0,0,0-.242.633.75.75,0,0,0,.176.668A.891.891,0,0,0-2.859-1.555Zm8.906-.1a1.447,1.447,0,0,0,1.016-.332,1.632,1.632,0,0,0,.531-.926l2.07-.008a3.037,3.037,0,0,1-.559,1.6A3.394,3.394,0,0,1,7.762-.211a3.847,3.847,0,0,1-1.77.375A3.123,3.123,0,0,1,3.555-.9a3.965,3.965,0,0,1-.867-2.766l.023-.43.008-.086a5.284,5.284,0,0,1,1.391-3.27,3.761,3.761,0,0,1,2.914-1.16,3.047,3.047,0,0,1,2.27.934A3.3,3.3,0,0,1,10.117-5.3H8.063a1.73,1.73,0,0,0-.3-1.07,1.128,1.128,0,0,0-.891-.422Q5.3-6.836,4.961-4.484a7.782,7.782,0,0,0-.086,1.438Q4.953-1.68,6.047-1.656Zm8.938-8.875-.367,2.078h1.406L15.734-6.8H14.328l-.719,4.234a1.077,1.077,0,0,0,.063.609q.109.211.531.227.125.008.672-.039L14.719-.039a3.706,3.706,0,0,1-1.266.18,1.985,1.985,0,0,1-1.617-.68,2.456,2.456,0,0,1-.437-1.8L12.125-6.8h-1.2l.289-1.656h1.2l.359-2.078Zm5.453,1.922a3.39,3.39,0,0,1,1.926.574A3.234,3.234,0,0,1,23.551-6.5a4.762,4.762,0,0,1,.27,2.176,5.143,5.143,0,0,1-1.4,3.262A3.96,3.96,0,0,1,19.4.156,3.38,3.38,0,0,1,17.492-.41,3.222,3.222,0,0,1,16.3-1.937a4.657,4.657,0,0,1-.273-2.156,5.3,5.3,0,0,1,1.422-3.328A3.878,3.878,0,0,1,20.438-8.609ZM18.211-3.294a1.95,1.95,0,0,0,.352,1.182,1.168,1.168,0,0,0,.945.449A1.712,1.712,0,0,0,21.1-2.6a4.647,4.647,0,0,0,.539-2.531,2.122,2.122,0,0,0-.363-1.2,1.149,1.149,0,0,0-.949-.464,1.715,1.715,0,0,0-1.574.924A4.6,4.6,0,0,0,18.211-3.294ZM30.242-6.336a4.548,4.548,0,0,0-.742-.078,2.136,2.136,0,0,0-1.867.883L26.656,0h-2.2l1.469-8.453,2.07-.008-.2,1.031a2.325,2.325,0,0,1,1.969-1.2,3.214,3.214,0,0,1,.766.109Z" transform="translate(321.077 25967.502)" fill="#fff"/>
    <path id="Trazado_830827" data-name="Trazado 830827" d="M-11.77-1.437A3.837,3.837,0,0,1-13.555-.246a7.523,7.523,0,0,1-2.652.395,4.114,4.114,0,0,1-2.047-.512,3.572,3.572,0,0,1-1.391-1.449,5.128,5.128,0,0,1-.578-2.156,9.841,9.841,0,0,1,.238-2.645A7.438,7.438,0,0,1-18.9-9.277a5.076,5.076,0,0,1,1.848-1.711,4.868,4.868,0,0,1,2.391-.543,3.954,3.954,0,0,1,2.789,1,4.165,4.165,0,0,1,1.148,2.785l-2.2-.008a2.331,2.331,0,0,0-.508-1.406,1.731,1.731,0,0,0-1.258-.484,2.467,2.467,0,0,0-2.277,1.27,7.9,7.9,0,0,0-.949,3.816,3.355,3.355,0,0,0,.41,2.07,1.7,1.7,0,0,0,1.488.75,3.171,3.171,0,0,0,1.984-.555l.383-1.961H-15.73l.3-1.727h4.344Zm7.18-4.9a4.548,4.548,0,0,0-.742-.078A2.136,2.136,0,0,0-7.2-5.531L-8.176,0h-2.2L-8.91-8.453l2.07-.008-.2,1.031a2.325,2.325,0,0,1,1.969-1.2,3.214,3.214,0,0,1,.766.109ZM-.621.156A3.677,3.677,0,0,1-2.586-.387,3.292,3.292,0,0,1-3.863-1.855a4.093,4.093,0,0,1-.328-2.059l.023-.312a5.465,5.465,0,0,1,.719-2.266A4.341,4.341,0,0,1-1.9-8.082,3.827,3.827,0,0,1,.191-8.609a2.924,2.924,0,0,1,2.473,1.2A4.117,4.117,0,0,1,3.3-4.447l-.125.962H-2a1.814,1.814,0,0,0,.4,1.313,1.521,1.521,0,0,0,1.172.508A2.7,2.7,0,0,0,1.676-2.6l1.008,1.25A3.135,3.135,0,0,1,1.309-.23,4.5,4.5,0,0,1-.621.156Zm.7-6.945A1.565,1.565,0,0,0-1-6.406a3.363,3.363,0,0,0-.848,1.383H1.184l.047-.2a2.071,2.071,0,0,0,.008-.594,1.134,1.134,0,0,0-.383-.707A1.2,1.2,0,0,0,.082-6.789ZM7.848.156A3.677,3.677,0,0,1,5.883-.387,3.292,3.292,0,0,1,4.605-1.855a4.093,4.093,0,0,1-.328-2.059L4.3-4.227A5.465,5.465,0,0,1,5.02-6.492a4.341,4.341,0,0,1,1.547-1.59A3.827,3.827,0,0,1,8.66-8.609a2.924,2.924,0,0,1,2.473,1.2,4.117,4.117,0,0,1,.637,2.962l-.125.962H6.465a1.814,1.814,0,0,0,.4,1.313,1.521,1.521,0,0,0,1.172.508A2.7,2.7,0,0,0,10.145-2.6l1.008,1.25A3.135,3.135,0,0,1,9.777-.23,4.5,4.5,0,0,1,7.848.156Zm.7-6.945a1.565,1.565,0,0,0-1.082.383,3.363,3.363,0,0,0-.848,1.383H9.652l.047-.2a2.071,2.071,0,0,0,.008-.594,1.134,1.134,0,0,0-.383-.707A1.2,1.2,0,0,0,8.551-6.789Zm7.234-1.672-.187,1a3.042,3.042,0,0,1,2.461-1.148,2.028,2.028,0,0,1,1.766.875,3.526,3.526,0,0,1,.414,2.359L19.348,0h-2.2l.906-5.4a2.528,2.528,0,0,0,.016-.555.9.9,0,0,0-1-.82,1.9,1.9,0,0,0-1.555.8L14.457,0h-2.2l1.469-8.453Z" transform="translate(787.485 25950.973)" fill="#fff"/>
    <path id="Trazado_830828" data-name="Trazado 830828" d="M7.594,17H6.141V7.367L3.227,8.438V7.125L7.367,5.57h.227Zm4.414-.758a.905.905,0,0,1,.223-.625.848.848,0,0,1,.668-.25.874.874,0,0,1,.676.25.887.887,0,0,1,.23.625.839.839,0,0,1-.23.6.89.89,0,0,1-.676.242.8.8,0,0,1-.891-.844ZM29.117,17H27.609V11.742H21.875V17h-1.5V5.625h1.5v4.891h5.734V5.625h1.508Zm7.656,0a3.036,3.036,0,0,1-.2-.891,3.225,3.225,0,0,1-2.406,1.047,2.984,2.984,0,0,1-2.051-.707,2.287,2.287,0,0,1-.8-1.793,2.39,2.39,0,0,1,1-2.051,4.733,4.733,0,0,1,2.824-.73h1.406v-.664A1.623,1.623,0,0,0,36.094,10a1.821,1.821,0,0,0-1.336-.449,2.107,2.107,0,0,0-1.3.391,1.151,1.151,0,0,0-.523.945H31.484a2,2,0,0,1,.449-1.223,3.066,3.066,0,0,1,1.219-.934,4.1,4.1,0,0,1,1.691-.344,3.342,3.342,0,0,1,2.289.73,2.635,2.635,0,0,1,.859,2.012v3.891a4.757,4.757,0,0,0,.3,1.852V17Zm-2.4-1.1a2.54,2.54,0,0,0,1.289-.352,2.127,2.127,0,0,0,.883-.914V12.9H35.414q-2.656,0-2.656,1.555a1.316,1.316,0,0,0,.453,1.063A1.742,1.742,0,0,0,34.375,15.9Zm9.273.078A2.082,2.082,0,0,0,45,15.508a1.649,1.649,0,0,0,.641-1.172h1.367a2.621,2.621,0,0,1-.5,1.383,3.293,3.293,0,0,1-1.23,1.047,3.55,3.55,0,0,1-1.629.391A3.482,3.482,0,0,1,40.9,16a4.59,4.59,0,0,1-1.02-3.152v-.242a5.089,5.089,0,0,1,.453-2.2,3.451,3.451,0,0,1,1.3-1.492,3.7,3.7,0,0,1,2-.531A3.39,3.39,0,0,1,46,9.242a3.043,3.043,0,0,1,1,2.211H45.641a1.992,1.992,0,0,0-.621-1.348,1.932,1.932,0,0,0-1.379-.527,2.023,2.023,0,0,0-1.707.793,3.724,3.724,0,0,0-.605,2.293v.273a3.65,3.65,0,0,0,.6,2.25A2.033,2.033,0,0,0,43.648,15.977Zm8.492,1.18a3.693,3.693,0,0,1-2.8-1.129,4.19,4.19,0,0,1-1.078-3.02v-.266a5.073,5.073,0,0,1,.48-2.246A3.748,3.748,0,0,1,50.09,8.949a3.378,3.378,0,0,1,1.871-.559,3.166,3.166,0,0,1,2.563,1.086,4.7,4.7,0,0,1,.914,3.109v.6H49.711a3,3,0,0,0,.73,2.02,2.3,2.3,0,0,0,1.777.77,2.517,2.517,0,0,0,1.3-.312,3.259,3.259,0,0,0,.93-.828l.883.688A3.55,3.55,0,0,1,52.141,17.156Zm-.18-7.578a1.928,1.928,0,0,0-1.469.637A3.1,3.1,0,0,0,49.758,12h4.234v-.109a2.753,2.753,0,0,0-.594-1.707A1.815,1.815,0,0,0,51.961,9.578Zm9.234.266a4.331,4.331,0,0,0-.711-.055A1.9,1.9,0,0,0,58.555,11v6H57.109V8.547h1.406l.023.977a2.251,2.251,0,0,1,2.016-1.133A1.477,1.477,0,0,1,61.2,8.5ZM66.133,12.7a4.961,4.961,0,0,1,.914-3.152,3.226,3.226,0,0,1,4.82-.152l.063-.852h1.328v11.7H71.813V16.219a3.033,3.033,0,0,1-2.328.938,2.915,2.915,0,0,1-2.441-1.191,5.072,5.072,0,0,1-.91-3.16Zm1.445.164a3.761,3.761,0,0,0,.613,2.281,1.951,1.951,0,0,0,1.652.828,2.164,2.164,0,0,0,1.969-1.141V10.7a2.171,2.171,0,0,0-1.953-1.117,1.965,1.965,0,0,0-1.664.832A4.094,4.094,0,0,0,67.578,12.867Zm13.219,3.3a3.07,3.07,0,0,1-2.477.992,2.628,2.628,0,0,1-2.059-.785,3.4,3.4,0,0,1-.715-2.324v-5.5h1.445v5.461q0,1.922,1.563,1.922a2.163,2.163,0,0,0,2.2-1.234V8.547H82.2V17H80.828Zm7.109.992a3.693,3.693,0,0,1-2.8-1.129,4.19,4.19,0,0,1-1.078-3.02v-.266a5.073,5.073,0,0,1,.48-2.246,3.748,3.748,0,0,1,1.344-1.547,3.378,3.378,0,0,1,1.871-.559,3.166,3.166,0,0,1,2.563,1.086,4.7,4.7,0,0,1,.914,3.109v.6H85.477a3,3,0,0,0,.73,2.02,2.3,2.3,0,0,0,1.777.77,2.517,2.517,0,0,0,1.3-.312,3.259,3.259,0,0,0,.93-.828l.883.688A3.55,3.55,0,0,1,87.906,17.156Zm-.18-7.578a1.928,1.928,0,0,0-1.469.637A3.1,3.1,0,0,0,85.523,12h4.234v-.109a2.753,2.753,0,0,0-.594-1.707A1.815,1.815,0,0,0,87.727,9.578Zm12.617,7.578a3.693,3.693,0,0,1-2.8-1.129,4.19,4.19,0,0,1-1.078-3.02v-.266a5.073,5.073,0,0,1,.48-2.246,3.748,3.748,0,0,1,1.344-1.547,3.378,3.378,0,0,1,1.871-.559,3.166,3.166,0,0,1,2.563,1.086,4.7,4.7,0,0,1,.914,3.109v.6H97.914a3,3,0,0,0,.73,2.02,2.3,2.3,0,0,0,1.777.77,2.517,2.517,0,0,0,1.3-.312,3.259,3.259,0,0,0,.93-.828l.883.688A3.55,3.55,0,0,1,100.344,17.156Zm-.18-7.578a1.928,1.928,0,0,0-1.469.637A3.1,3.1,0,0,0,97.961,12H102.2v-.109a2.753,2.753,0,0,0-.594-1.707A1.815,1.815,0,0,0,100.164,9.578ZM106.883,17h-1.445V5h1.445Zm9.156-10.5-.359,2.047h1.539l-.2,1.117h-1.531l-.883,5.258a1.833,1.833,0,0,0-.008.375.6.6,0,0,0,.664.609,4.05,4.05,0,0,0,.688-.078l-.109,1.18a3.847,3.847,0,0,1-1.031.141,1.476,1.476,0,0,1-1.266-.621,2.4,2.4,0,0,1-.328-1.629l.859-5.234h-1.492l.2-1.117h1.492l.359-2.047Zm5.07,10.656a3.048,3.048,0,0,1-2.469-1.164,4.006,4.006,0,0,1-.75-2.9l.039-.336a5.624,5.624,0,0,1,.746-2.3,4.339,4.339,0,0,1,1.5-1.566,3.491,3.491,0,0,1,1.906-.5,2.688,2.688,0,0,1,2.047.867,3.566,3.566,0,0,1,.813,2.266,6.62,6.62,0,0,1-.031,1.016l-.086.648H119.3a2.856,2.856,0,0,0,.379,1.953,1.8,1.8,0,0,0,1.551.836,3.007,3.007,0,0,0,2.313-1.125l.813.688a3.718,3.718,0,0,1-1.371,1.2A3.886,3.886,0,0,1,121.109,17.156Zm.9-7.586a2.066,2.066,0,0,0-1.527.594A4.22,4.22,0,0,0,119.445,12l4.109.008.031-.125a2.313,2.313,0,0,0-.316-1.637A1.488,1.488,0,0,0,122.008,9.57Zm8.977,5.141q.117-.875-.961-1.234l-1.469-.43q-1.859-.641-1.8-2.125a2.341,2.341,0,0,1,1.02-1.832,3.631,3.631,0,0,1,2.27-.7,3.027,3.027,0,0,1,2.082.746,2.363,2.363,0,0,1,.77,1.9l-1.406-.008a1.319,1.319,0,0,0-.4-1.031,1.576,1.576,0,0,0-1.1-.414,2.059,2.059,0,0,0-1.266.359,1.316,1.316,0,0,0-.57.922q-.1.734.9,1.07l.711.2a4.577,4.577,0,0,1,2.063.977,1.865,1.865,0,0,1,.563,1.492,2.37,2.37,0,0,1-.516,1.375,2.948,2.948,0,0,1-1.25.895,4.18,4.18,0,0,1-1.664.285,3.3,3.3,0,0,1-2.219-.785,2.427,2.427,0,0,1-.844-1.98l1.414.008a1.5,1.5,0,0,0,.453,1.141,1.732,1.732,0,0,0,1.242.43,2.436,2.436,0,0,0,1.336-.324A1.247,1.247,0,0,0,130.984,14.711ZM137.563,6.5,137.2,8.547h1.539l-.2,1.117h-1.531l-.883,5.258a1.833,1.833,0,0,0-.008.375.6.6,0,0,0,.664.609,4.05,4.05,0,0,0,.688-.078l-.109,1.18a3.847,3.847,0,0,1-1.031.141,1.476,1.476,0,0,1-1.266-.621,2.4,2.4,0,0,1-.328-1.629l.859-5.234h-1.492l.2-1.117H135.8l.359-2.047Zm13.367,6.367a5.062,5.062,0,0,1-.883,3.109,2.829,2.829,0,0,1-2.391,1.18,3.1,3.1,0,0,1-2.422-.977v4.07h-1.445V8.547h1.32l.07.938a2.977,2.977,0,0,1,2.453-1.094,2.882,2.882,0,0,1,2.41,1.148,5.117,5.117,0,0,1,.887,3.2Zm-1.445-.164a3.735,3.735,0,0,0-.609-2.258,1.963,1.963,0,0,0-1.672-.828,2.125,2.125,0,0,0-1.969,1.164V14.82a2.129,2.129,0,0,0,1.984,1.156,1.954,1.954,0,0,0,1.652-.824A4.077,4.077,0,0,0,149.484,12.7Zm8.5,4.3a3.036,3.036,0,0,1-.2-.891,3.225,3.225,0,0,1-2.406,1.047,2.984,2.984,0,0,1-2.051-.707,2.287,2.287,0,0,1-.8-1.793,2.39,2.39,0,0,1,1-2.051,4.733,4.733,0,0,1,2.824-.73h1.406v-.664A1.623,1.623,0,0,0,157.3,10a1.821,1.821,0,0,0-1.336-.449,2.107,2.107,0,0,0-1.3.391,1.151,1.151,0,0,0-.523.945H152.7a2,2,0,0,1,.449-1.223,3.066,3.066,0,0,1,1.219-.934,4.1,4.1,0,0,1,1.691-.344,3.342,3.342,0,0,1,2.289.73,2.635,2.635,0,0,1,.859,2.012v3.891a4.757,4.757,0,0,0,.3,1.852V17Zm-2.4-1.1a2.54,2.54,0,0,0,1.289-.352,2.127,2.127,0,0,0,.883-.914V12.9h-1.133q-2.656,0-2.656,1.555a1.316,1.316,0,0,0,.453,1.063A1.742,1.742,0,0,0,155.586,15.9Zm10.8-1.141a1.064,1.064,0,0,0-.441-.91,4.249,4.249,0,0,0-1.539-.559,7.277,7.277,0,0,1-1.742-.562,2.479,2.479,0,0,1-.953-.781,1.869,1.869,0,0,1-.309-1.078,2.193,2.193,0,0,1,.879-1.758,3.432,3.432,0,0,1,2.246-.719,3.532,3.532,0,0,1,2.332.742,2.357,2.357,0,0,1,.895,1.9H166.3a1.3,1.3,0,0,0-.5-1.023,1.888,1.888,0,0,0-1.27-.43,1.976,1.976,0,0,0-1.234.344,1.082,1.082,0,0,0-.445.9.877.877,0,0,0,.414.789,5.1,5.1,0,0,0,1.5.508,7.8,7.8,0,0,1,1.754.578,2.558,2.558,0,0,1,1,.809,1.988,1.988,0,0,1,.324,1.152,2.163,2.163,0,0,1-.906,1.816,3.8,3.8,0,0,1-2.352.684,4.257,4.257,0,0,1-1.8-.359,2.922,2.922,0,0,1-1.223-1,2.42,2.42,0,0,1-.441-1.395h1.445a1.5,1.5,0,0,0,.582,1.152,2.258,2.258,0,0,0,1.434.426,2.331,2.331,0,0,0,1.316-.332A1.02,1.02,0,0,0,166.391,14.758Zm6.836,2.4a3.693,3.693,0,0,1-2.8-1.129,4.19,4.19,0,0,1-1.078-3.02v-.266a5.073,5.073,0,0,1,.48-2.246,3.748,3.748,0,0,1,1.344-1.547,3.378,3.378,0,0,1,1.871-.559,3.166,3.166,0,0,1,2.563,1.086,4.7,4.7,0,0,1,.914,3.109v.6H170.8a3,3,0,0,0,.73,2.02,2.3,2.3,0,0,0,1.777.77,2.517,2.517,0,0,0,1.3-.312,3.258,3.258,0,0,0,.93-.828l.883.688A3.55,3.55,0,0,1,173.227,17.156Zm-.18-7.578a1.928,1.928,0,0,0-1.469.637A3.1,3.1,0,0,0,170.844,12h4.234v-.109a2.753,2.753,0,0,0-.594-1.707A1.815,1.815,0,0,0,173.047,9.578Z" transform="translate(596.47 25838.063)" fill="#12263f"/>
    <path id="Trazado_830829" data-name="Trazado 830829" d="M7.164,17H5.711V7.367L2.8,8.438V7.125L6.937,5.57h.227Zm4.414-.758a.905.905,0,0,1,.223-.625.848.848,0,0,1,.668-.25.874.874,0,0,1,.676.25.887.887,0,0,1,.23.625.839.839,0,0,1-.23.6.89.89,0,0,1-.676.242.8.8,0,0,1-.891-.844Zm14.8-4.5h-4.93v4.031h5.727V17H19.945V5.625h7.148V6.852H21.445v3.664h4.93ZM30.382,17H28.937V5h1.445Zm3.883,0H32.82V8.547h1.445ZM32.7,6.3a.863.863,0,0,1,.215-.594.807.807,0,0,1,.637-.242.819.819,0,0,1,.641.242.854.854,0,0,1,.219.594.826.826,0,0,1-.219.586.834.834,0,0,1-.641.234.821.821,0,0,1-.637-.234A.834.834,0,0,1,32.7,6.3Zm5.234,2.242.039.938a3.122,3.122,0,0,1,2.508-1.094A2.417,2.417,0,0,1,42.9,9.75,3.2,3.2,0,0,1,44,8.766a3.242,3.242,0,0,1,1.6-.375q2.781,0,2.828,2.945V17H46.976V11.422a1.941,1.941,0,0,0-.414-1.355,1.823,1.823,0,0,0-1.391-.449,1.917,1.917,0,0,0-1.336.48,1.949,1.949,0,0,0-.617,1.293V17H41.765V11.461a1.613,1.613,0,0,0-1.8-1.844,1.934,1.934,0,0,0-1.945,1.211V17H36.57V8.547ZM52.171,17H50.726V8.547h1.445ZM50.609,6.3a.863.863,0,0,1,.215-.594.807.807,0,0,1,.637-.242.819.819,0,0,1,.641.242.854.854,0,0,1,.219.594.826.826,0,0,1-.219.586.834.834,0,0,1-.641.234.821.821,0,0,1-.637-.234A.834.834,0,0,1,50.609,6.3Zm5.242,2.242L55.9,9.609a3.08,3.08,0,0,1,2.531-1.219q2.68,0,2.7,3.023V17H59.687V11.406a1.946,1.946,0,0,0-.418-1.352,1.675,1.675,0,0,0-1.277-.437,2.086,2.086,0,0,0-1.234.375,2.546,2.546,0,0,0-.828.984V17H54.484V8.547ZM68.531,17a3.036,3.036,0,0,1-.2-.891,3.225,3.225,0,0,1-2.406,1.047,2.984,2.984,0,0,1-2.051-.707,2.287,2.287,0,0,1-.8-1.793,2.39,2.39,0,0,1,1-2.051,4.733,4.733,0,0,1,2.824-.73H68.3v-.664A1.623,1.623,0,0,0,67.851,10a1.821,1.821,0,0,0-1.336-.449,2.108,2.108,0,0,0-1.3.391,1.151,1.151,0,0,0-.523.945H63.242a2,2,0,0,1,.449-1.223,3.066,3.066,0,0,1,1.219-.934A4.1,4.1,0,0,1,66.6,8.391a3.342,3.342,0,0,1,2.289.73,2.635,2.635,0,0,1,.859,2.012v3.891a4.757,4.757,0,0,0,.3,1.852V17Zm-2.4-1.1a2.54,2.54,0,0,0,1.289-.352,2.127,2.127,0,0,0,.883-.914V12.9H67.171q-2.656,0-2.656,1.555a1.316,1.316,0,0,0,.453,1.063A1.742,1.742,0,0,0,66.132,15.9ZM76.1,9.844a4.331,4.331,0,0,0-.711-.055A1.9,1.9,0,0,0,73.461,11v6H72.015V8.547h1.406l.023.977a2.251,2.251,0,0,1,2.016-1.133A1.477,1.477,0,0,1,76.1,8.5Zm9.375,0a4.331,4.331,0,0,0-.711-.055A1.9,1.9,0,0,0,82.836,11v6H81.39V8.547H82.8l.023.977a2.251,2.251,0,0,1,2.016-1.133,1.477,1.477,0,0,1,.641.109Zm4.836,7.313a3.693,3.693,0,0,1-2.8-1.129,4.19,4.19,0,0,1-1.078-3.02v-.266a5.073,5.073,0,0,1,.48-2.246,3.748,3.748,0,0,1,1.344-1.547,3.378,3.378,0,0,1,1.871-.559,3.166,3.166,0,0,1,2.563,1.086,4.7,4.7,0,0,1,.914,3.109v.6H87.882a3,3,0,0,0,.73,2.02,2.3,2.3,0,0,0,1.777.77,2.517,2.517,0,0,0,1.3-.312,3.259,3.259,0,0,0,.93-.828l.883.688A3.55,3.55,0,0,1,90.312,17.156Zm-.18-7.578a1.928,1.928,0,0,0-1.469.637A3.1,3.1,0,0,0,87.929,12h4.234v-.109a2.753,2.753,0,0,0-.594-1.707A1.815,1.815,0,0,0,90.132,9.578Zm4.8,3.125a4.952,4.952,0,0,1,.922-3.129,3.137,3.137,0,0,1,4.766-.168V5h1.445V17h-1.328l-.07-.906a2.943,2.943,0,0,1-2.414,1.063,2.887,2.887,0,0,1-2.395-1.2,5.008,5.008,0,0,1-.926-3.141Zm1.445.164a3.749,3.749,0,0,0,.594,2.25,1.92,1.92,0,0,0,1.641.813,2.108,2.108,0,0,0,2.008-1.234V10.813a2.125,2.125,0,0,0-1.992-1.2,1.929,1.929,0,0,0-1.656.82A4.128,4.128,0,0,0,96.375,12.867Zm13.148,3.3a3.07,3.07,0,0,1-2.477.992,2.628,2.628,0,0,1-2.059-.785,3.4,3.4,0,0,1-.715-2.324v-5.5h1.445v5.461q0,1.922,1.563,1.922a2.163,2.163,0,0,0,2.2-1.234V8.547h1.445V17h-1.375Zm4.969-7.617.047,1.063a3.08,3.08,0,0,1,2.531-1.219q2.68,0,2.7,3.023V17h-1.445V11.406a1.946,1.946,0,0,0-.418-1.352,1.675,1.675,0,0,0-1.277-.437,2.086,2.086,0,0,0-1.234.375,2.546,2.546,0,0,0-.828.984V17h-1.445V8.547ZM121.6,12.7a4.952,4.952,0,0,1,.922-3.129,3.137,3.137,0,0,1,4.766-.168V5h1.445V17h-1.328l-.07-.906a2.943,2.943,0,0,1-2.414,1.063,2.887,2.887,0,0,1-2.395-1.2,5.008,5.008,0,0,1-.926-3.141Zm1.445.164a3.749,3.749,0,0,0,.594,2.25,1.92,1.92,0,0,0,1.641.813,2.108,2.108,0,0,0,2.008-1.234V10.813a2.125,2.125,0,0,0-1.992-1.2,1.929,1.929,0,0,0-1.656.82A4.128,4.128,0,0,0,123.046,12.867ZM136.195,17a3.036,3.036,0,0,1-.2-.891,3.225,3.225,0,0,1-2.406,1.047,2.984,2.984,0,0,1-2.051-.707,2.287,2.287,0,0,1-.8-1.793,2.39,2.39,0,0,1,1-2.051,4.733,4.733,0,0,1,2.824-.73h1.406v-.664A1.623,1.623,0,0,0,135.515,10a1.821,1.821,0,0,0-1.336-.449,2.107,2.107,0,0,0-1.3.391,1.151,1.151,0,0,0-.523.945h-1.453a2,2,0,0,1,.449-1.223,3.066,3.066,0,0,1,1.219-.934,4.1,4.1,0,0,1,1.691-.344,3.342,3.342,0,0,1,2.289.73,2.635,2.635,0,0,1,.859,2.012v3.891a4.757,4.757,0,0,0,.3,1.852V17Zm-2.4-1.1a2.54,2.54,0,0,0,1.289-.352,2.127,2.127,0,0,0,.883-.914V12.9h-1.133q-2.656,0-2.656,1.555a1.316,1.316,0,0,0,.453,1.063A1.742,1.742,0,0,0,133.8,15.9Zm7.25-7.352.047,1.063a3.08,3.08,0,0,1,2.531-1.219q2.68,0,2.7,3.023V17h-1.445V11.406a1.946,1.946,0,0,0-.418-1.352,1.675,1.675,0,0,0-1.277-.437,2.086,2.086,0,0,0-1.234.375,2.546,2.546,0,0,0-.828.984V17h-1.445V8.547Zm10.852,7.43a2.082,2.082,0,0,0,1.352-.469,1.649,1.649,0,0,0,.641-1.172h1.367a2.621,2.621,0,0,1-.5,1.383,3.293,3.293,0,0,1-1.23,1.047,3.55,3.55,0,0,1-1.629.391A3.482,3.482,0,0,1,149.152,16a4.59,4.59,0,0,1-1.02-3.152v-.242a5.089,5.089,0,0,1,.453-2.2,3.451,3.451,0,0,1,1.3-1.492,3.7,3.7,0,0,1,2-.531,3.39,3.39,0,0,1,2.363.852,3.043,3.043,0,0,1,1,2.211H153.89a1.992,1.992,0,0,0-.621-1.348,1.932,1.932,0,0,0-1.379-.527,2.023,2.023,0,0,0-1.707.793,3.724,3.724,0,0,0-.605,2.293v.273a3.65,3.65,0,0,0,.6,2.25A2.033,2.033,0,0,0,151.9,15.977ZM158.453,17h-1.445V8.547h1.445ZM156.89,6.3a.863.863,0,0,1,.215-.594.807.807,0,0,1,.637-.242.819.819,0,0,1,.641.242.854.854,0,0,1,.219.594.826.826,0,0,1-.219.586.834.834,0,0,1-.641.234.821.821,0,0,1-.637-.234A.834.834,0,0,1,156.89,6.3ZM165.984,17a3.036,3.036,0,0,1-.2-.891,3.225,3.225,0,0,1-2.406,1.047,2.984,2.984,0,0,1-2.051-.707,2.287,2.287,0,0,1-.8-1.793,2.39,2.39,0,0,1,1-2.051,4.733,4.733,0,0,1,2.824-.73h1.406v-.664A1.623,1.623,0,0,0,165.3,10a1.821,1.821,0,0,0-1.336-.449,2.107,2.107,0,0,0-1.3.391,1.151,1.151,0,0,0-.523.945h-1.453a2,2,0,0,1,.449-1.223,3.066,3.066,0,0,1,1.219-.934,4.1,4.1,0,0,1,1.691-.344,3.342,3.342,0,0,1,2.289.73,2.635,2.635,0,0,1,.859,2.012v3.891a4.757,4.757,0,0,0,.3,1.852V17Zm-2.4-1.1a2.54,2.54,0,0,0,1.289-.352,2.127,2.127,0,0,0,.883-.914V12.9h-1.133q-2.656,0-2.656,1.555a1.316,1.316,0,0,0,.453,1.063A1.742,1.742,0,0,0,163.586,15.9Z" transform="translate(286.618 25838.063)" fill="#12263f"/>
    <path id="Trazado_830830" data-name="Trazado 830830" d="M7.351,17H5.9V7.367L2.984,8.438V7.125L7.125,5.57h.227Zm4.414-.758a.905.905,0,0,1,.223-.625.848.848,0,0,1,.668-.25.874.874,0,0,1,.676.25.887.887,0,0,1,.23.625.839.839,0,0,1-.23.6.89.89,0,0,1-.676.242.8.8,0,0,1-.891-.844Zm14.8-4.5h-4.93v4.031h5.727V17H20.132V5.625h7.148V6.852H21.632v3.664h4.93Zm7.359,3.016a1.064,1.064,0,0,0-.441-.91,4.249,4.249,0,0,0-1.539-.559,7.277,7.277,0,0,1-1.742-.562,2.479,2.479,0,0,1-.953-.781,1.869,1.869,0,0,1-.309-1.078,2.193,2.193,0,0,1,.879-1.758,3.432,3.432,0,0,1,2.246-.719,3.532,3.532,0,0,1,2.332.742,2.357,2.357,0,0,1,.895,1.9H33.836a1.3,1.3,0,0,0-.5-1.023,1.888,1.888,0,0,0-1.27-.43,1.976,1.976,0,0,0-1.234.344,1.082,1.082,0,0,0-.445.9.877.877,0,0,0,.414.789,5.1,5.1,0,0,0,1.5.508,7.8,7.8,0,0,1,1.754.578,2.558,2.558,0,0,1,1,.809,1.988,1.988,0,0,1,.324,1.152,2.163,2.163,0,0,1-.906,1.816,3.8,3.8,0,0,1-2.352.684,4.257,4.257,0,0,1-1.8-.359,2.922,2.922,0,0,1-1.223-1,2.42,2.42,0,0,1-.441-1.395h1.445a1.5,1.5,0,0,0,.582,1.152,2.258,2.258,0,0,0,1.434.426,2.331,2.331,0,0,0,1.316-.332A1.02,1.02,0,0,0,33.921,14.758Zm6.719,1.219a2.082,2.082,0,0,0,1.352-.469,1.649,1.649,0,0,0,.641-1.172H44a2.621,2.621,0,0,1-.5,1.383,3.293,3.293,0,0,1-1.23,1.047,3.55,3.55,0,0,1-1.629.391A3.482,3.482,0,0,1,37.894,16a4.59,4.59,0,0,1-1.02-3.152v-.242a5.089,5.089,0,0,1,.453-2.2,3.451,3.451,0,0,1,1.3-1.492,3.7,3.7,0,0,1,2-.531A3.39,3.39,0,0,1,43,9.242a3.043,3.043,0,0,1,1,2.211H42.632a1.992,1.992,0,0,0-.621-1.348,1.932,1.932,0,0,0-1.379-.527,2.023,2.023,0,0,0-1.707.793,3.724,3.724,0,0,0-.605,2.293v.273a3.65,3.65,0,0,0,.6,2.25A2.033,2.033,0,0,0,40.64,15.977Zm9.07-6.133A4.331,4.331,0,0,0,49,9.789,1.9,1.9,0,0,0,47.07,11v6H45.625V8.547h1.406l.023.977A2.251,2.251,0,0,1,49.07,8.391a1.477,1.477,0,0,1,.641.109ZM52.609,17H51.164V8.547h1.445ZM51.046,6.3a.863.863,0,0,1,.215-.594.807.807,0,0,1,.637-.242.819.819,0,0,1,.641.242.854.854,0,0,1,.219.594.826.826,0,0,1-.219.586.834.834,0,0,1-.641.234.821.821,0,0,1-.637-.234A.834.834,0,0,1,51.046,6.3Zm11.031,6.563a5.026,5.026,0,0,1-.891,3.113A2.846,2.846,0,0,1,58.8,17.156a2.947,2.947,0,0,1-2.477-1.133L56.25,17H54.921V5h1.445V9.477a2.93,2.93,0,0,1,2.414-1.086A2.863,2.863,0,0,1,61.2,9.555a5.177,5.177,0,0,1,.879,3.188ZM60.632,12.7a3.906,3.906,0,0,0-.57-2.281,1.888,1.888,0,0,0-1.641-.8,2.122,2.122,0,0,0-2.055,1.328V14.6a2.181,2.181,0,0,0,2.07,1.328,1.878,1.878,0,0,0,1.617-.8A4.153,4.153,0,0,0,60.632,12.7ZM65.468,17H64.023V8.547h1.445ZM63.906,6.3a.863.863,0,0,1,.215-.594.807.807,0,0,1,.637-.242.819.819,0,0,1,.641.242.854.854,0,0,1,.219.594.826.826,0,0,1-.219.586.834.834,0,0,1-.641.234.821.821,0,0,1-.637-.234A.834.834,0,0,1,63.906,6.3Zm7.961,3.539a4.331,4.331,0,0,0-.711-.055A1.9,1.9,0,0,0,69.226,11v6H67.781V8.547h1.406l.023.977a2.251,2.251,0,0,1,2.016-1.133,1.477,1.477,0,0,1,.641.109Zm10.508,6.32a3.07,3.07,0,0,1-2.477.992,2.628,2.628,0,0,1-2.059-.785,3.4,3.4,0,0,1-.715-2.324v-5.5H78.57v5.461q0,1.922,1.563,1.922a2.163,2.163,0,0,0,2.2-1.234V8.547h1.445V17H82.406Zm4.969-7.617.047,1.063a3.08,3.08,0,0,1,2.531-1.219q2.68,0,2.7,3.023V17H91.179V11.406a1.946,1.946,0,0,0-.418-1.352,1.675,1.675,0,0,0-1.277-.437,2.086,2.086,0,0,0-1.234.375,2.546,2.546,0,0,0-.828.984V17H85.976V8.547ZM4.742,30.5v2.047H6.32v1.117H4.742v5.249a1.173,1.173,0,0,0,.211.763.888.888,0,0,0,.719.254,3.5,3.5,0,0,0,.688-.094V41a4.215,4.215,0,0,1-1.109.155,1.8,1.8,0,0,1-1.461-.586A2.517,2.517,0,0,1,3.3,38.906V33.664H1.757V32.547H3.3V30.5Zm6.773,10.656a3.693,3.693,0,0,1-2.8-1.129,4.19,4.19,0,0,1-1.078-3.02v-.266a5.073,5.073,0,0,1,.48-2.246,3.748,3.748,0,0,1,1.344-1.547,3.378,3.378,0,0,1,1.871-.559A3.166,3.166,0,0,1,13.9,33.477a4.7,4.7,0,0,1,.914,3.109v.6H9.086a3,3,0,0,0,.73,2.02,2.3,2.3,0,0,0,1.777.77,2.517,2.517,0,0,0,1.3-.312,3.258,3.258,0,0,0,.93-.828l.883.688A3.55,3.55,0,0,1,11.515,41.156Zm-.18-7.578a1.928,1.928,0,0,0-1.469.637A3.1,3.1,0,0,0,9.132,36h4.234v-.109a2.753,2.753,0,0,0-.594-1.707A1.815,1.815,0,0,0,11.336,33.578Zm10.07,5.18a1.064,1.064,0,0,0-.441-.91,4.249,4.249,0,0,0-1.539-.559,7.277,7.277,0,0,1-1.742-.562,2.479,2.479,0,0,1-.953-.781,1.869,1.869,0,0,1-.309-1.078,2.193,2.193,0,0,1,.879-1.758,3.432,3.432,0,0,1,2.246-.719,3.532,3.532,0,0,1,2.332.742,2.357,2.357,0,0,1,.895,1.9H21.32a1.3,1.3,0,0,0-.5-1.023,1.888,1.888,0,0,0-1.27-.43,1.976,1.976,0,0,0-1.234.344,1.082,1.082,0,0,0-.445.9.877.877,0,0,0,.414.789,5.1,5.1,0,0,0,1.5.508,7.8,7.8,0,0,1,1.754.578,2.558,2.558,0,0,1,1,.809,1.988,1.988,0,0,1,.324,1.152,2.163,2.163,0,0,1-.906,1.816,3.8,3.8,0,0,1-2.352.684,4.257,4.257,0,0,1-1.8-.359,2.922,2.922,0,0,1-1.223-1,2.42,2.42,0,0,1-.441-1.395h1.445a1.5,1.5,0,0,0,.582,1.152,2.258,2.258,0,0,0,1.434.426,2.331,2.331,0,0,0,1.316-.332A1.02,1.02,0,0,0,21.406,38.758ZM26.695,30.5v2.047h1.578v1.117H26.695v5.249a1.173,1.173,0,0,0,.211.763.888.888,0,0,0,.719.254,3.5,3.5,0,0,0,.688-.094V41a4.215,4.215,0,0,1-1.109.155,1.8,1.8,0,0,1-1.461-.586,2.517,2.517,0,0,1-.492-1.664V33.664H23.711V32.547H25.25V30.5Zm6.875,6.2a4.961,4.961,0,0,1,.914-3.152A3.226,3.226,0,0,1,39.3,33.4l.063-.852h1.328v11.7H39.25V40.219a3.033,3.033,0,0,1-2.328.938,2.915,2.915,0,0,1-2.441-1.191,5.072,5.072,0,0,1-.91-3.16Zm1.445.164a3.761,3.761,0,0,0,.613,2.281,1.951,1.951,0,0,0,1.652.828,2.164,2.164,0,0,0,1.969-1.141V34.7A2.171,2.171,0,0,0,37.3,33.578a1.965,1.965,0,0,0-1.664.832A4.094,4.094,0,0,0,35.015,36.867Zm13.219,3.3a3.07,3.07,0,0,1-2.477.992,2.628,2.628,0,0,1-2.059-.785,3.4,3.4,0,0,1-.715-2.324v-5.5h1.445v5.461q0,1.922,1.563,1.922a2.163,2.163,0,0,0,2.2-1.234V32.547H49.64V41H48.265Zm7.109.992a3.693,3.693,0,0,1-2.8-1.129,4.19,4.19,0,0,1-1.078-3.02v-.266a5.073,5.073,0,0,1,.48-2.246,3.748,3.748,0,0,1,1.344-1.547,3.378,3.378,0,0,1,1.871-.559,3.166,3.166,0,0,1,2.563,1.086,4.7,4.7,0,0,1,.914,3.109v.6H52.914a3,3,0,0,0,.73,2.02,2.3,2.3,0,0,0,1.777.77,2.517,2.517,0,0,0,1.3-.312,3.258,3.258,0,0,0,.93-.828l.883.688A3.55,3.55,0,0,1,55.343,41.156Zm-.18-7.578a1.928,1.928,0,0,0-1.469.637A3.1,3.1,0,0,0,52.961,36h4.234v-.109a2.753,2.753,0,0,0-.594-1.707A1.815,1.815,0,0,0,55.164,33.578ZM64.984,41V33.664H63.648V32.547h1.336V31.68a2.878,2.878,0,0,1,.727-2.1,2.745,2.745,0,0,1,2.055-.742,3.816,3.816,0,0,1,.992.132l-.078,1.165a4.151,4.151,0,0,0-.781-.07,1.41,1.41,0,0,0-1.086.411,1.669,1.669,0,0,0-.383,1.18v.893h1.8v1.117h-1.8V41Zm10.063,0a3.036,3.036,0,0,1-.2-.891,3.225,3.225,0,0,1-2.406,1.047,2.984,2.984,0,0,1-2.051-.707,2.288,2.288,0,0,1-.8-1.793,2.39,2.39,0,0,1,1-2.051,4.733,4.733,0,0,1,2.824-.73H74.82v-.664A1.623,1.623,0,0,0,74.367,34a1.821,1.821,0,0,0-1.336-.449,2.107,2.107,0,0,0-1.3.391,1.151,1.151,0,0,0-.523.945H69.757a2,2,0,0,1,.449-1.223,3.066,3.066,0,0,1,1.219-.934,4.1,4.1,0,0,1,1.691-.344,3.342,3.342,0,0,1,2.289.73,2.635,2.635,0,0,1,.859,2.012v3.891a4.757,4.757,0,0,0,.3,1.852V41Zm-2.4-1.1a2.54,2.54,0,0,0,1.289-.352,2.127,2.127,0,0,0,.883-.914V36.9H73.687q-2.656,0-2.656,1.555a1.316,1.316,0,0,0,.453,1.063A1.742,1.742,0,0,0,72.648,39.9ZM80.1,41H78.656V29H80.1Zm3.883,0H82.539V29h1.445Zm5.82.156a3.693,3.693,0,0,1-2.8-1.129,4.19,4.19,0,0,1-1.078-3.02v-.266a5.073,5.073,0,0,1,.48-2.246,3.748,3.748,0,0,1,1.344-1.547,3.378,3.378,0,0,1,1.871-.559,3.166,3.166,0,0,1,2.563,1.086,4.7,4.7,0,0,1,.914,3.109v.6H87.375a3,3,0,0,0,.73,2.02,2.3,2.3,0,0,0,1.777.77,2.517,2.517,0,0,0,1.3-.312,3.259,3.259,0,0,0,.93-.828l.883.688A3.55,3.55,0,0,1,89.8,41.156Zm-.18-7.578a1.928,1.928,0,0,0-1.469.637A3.1,3.1,0,0,0,87.421,36h4.234v-.109a2.753,2.753,0,0,0-.594-1.707A1.815,1.815,0,0,0,89.625,33.578Z" transform="translate(613.193 25728.164)" fill="#12263f"/>
  </g>
</svg>
