<svg xmlns="http://www.w3.org/2000/svg" width="610" height="417.723" viewBox="0 0 610 417.723">
  <g id="Grupo_1084967" data-name="Grupo 1084967" transform="translate(-180 -27956.893)">
    <g id="OBJECTS" transform="matrix(0.966, -0.259, 0.259, 0.966, 306.838, 28027.031)">
      <g id="Grupo_1076382" data-name="Grupo 1076382" transform="translate(0 0)">
        <path id="Trazado_825349" data-name="Trazado 825349" d="M73.637,17.542A54.026,54.026,0,0,0,54.318,36.078L52.6,38.892l.021-3.3c.021-1.481.063-2.984.148-4.549.063-1.143.148-2.306.254-3.47a59.438,59.438,0,0,0-14.876,3.407,56.142,56.142,0,0,0-7.639,3.449c-.973.508-1.926,1.079-2.9,1.672l-.741.444-.656.423c-.973.635-1.968,1.312-2.9,2.031A65.454,65.454,0,0,0,1.756,66.972L0,69.934V66.506A70.973,70.973,0,0,1,14.664,32.46a74.927,74.927,0,0,1,6.517-7.237,74.11,74.11,0,0,1,7.554-6.39,77.251,77.251,0,0,1,17.647-9.67l.042-.021.042-.021c.042,0,.91-.254,1.82-.466l.444-.106c-.656-.889-1.312-1.777-1.989-2.666-1.016-1.312-2.01-2.56-2.962-3.682L41.918,0l2.793.741A72.089,72.089,0,0,1,74.039,15.912l.952.846h0Z" transform="translate(0)" fill="#231f20" opacity="0.2"/>
        <g id="Grupo_1076381" data-name="Grupo 1076381" transform="translate(1.121 1.777)">
          <path id="Trazado_825350" data-name="Trazado 825350" d="M73.637,17.542A54.026,54.026,0,0,0,54.318,36.078L52.6,38.892l.021-3.3c.021-1.481.063-2.984.148-4.549.063-1.143.148-2.306.254-3.47a59.438,59.438,0,0,0-14.876,3.407,56.141,56.141,0,0,0-7.639,3.449c-.973.508-1.926,1.079-2.9,1.672l-.741.444-.656.423c-.973.635-1.968,1.312-2.9,2.031A65.454,65.454,0,0,0,1.756,66.972L0,69.934V66.506A70.973,70.973,0,0,1,14.664,32.46a74.927,74.927,0,0,1,6.517-7.237,74.11,74.11,0,0,1,7.554-6.39,77.251,77.251,0,0,1,17.647-9.67l.042-.021.042-.021c.042,0,.91-.254,1.82-.466l.444-.106c-.656-.889-1.312-1.777-1.989-2.666-1.016-1.312-2.01-2.56-2.962-3.682L41.918,0l2.793.741A72.089,72.089,0,0,1,74.039,15.912l.952.846h0Z" transform="translate(0.635 0)" fill="#fff"/>
          <g id="Grupo_1076380" data-name="Grupo 1076380" transform="translate(0 1.629)">
            <g id="Grupo_1076379" data-name="Grupo 1076379" transform="translate(1.524 0)">
              <path id="Trazado_825351" data-name="Trazado 825351" d="M43.59,0c1.016,1.206,2.01,2.455,2.984,3.7s1.9,2.518,2.793,3.788l-1.777.423c-.889.19-1.777.444-1.777.444a75.3,75.3,0,0,0-17.436,9.564,76.377,76.377,0,0,0-7.469,6.306,73.25,73.25,0,0,0-6.433,7.152A70.663,70.663,0,0,0,0,64.983,66.037,66.037,0,0,1,21.879,36.628c1.164-.889,2.391-1.672,3.576-2.476,1.248-.741,2.455-1.524,3.724-2.179a57.533,57.533,0,0,1,7.745-3.491,60.671,60.671,0,0,1,16.209-3.555c-.148,1.524-.275,3.026-.36,4.528s-.148,2.984-.148,4.507a55.164,55.164,0,0,1,19.89-18.981A71,71,0,0,0,43.59,0Z" transform="translate(0 0)" fill="#0ad0d9"/>
            </g>
            <path id="Trazado_825352" data-name="Trazado 825352" d="M43.59,0c1.016,1.206,2.01,2.455,2.984,3.7s1.9,2.518,2.793,3.788l-1.777.423c-.889.19-1.777.444-1.777.444a75.3,75.3,0,0,0-17.436,9.564,76.377,76.377,0,0,0-7.469,6.306,73.25,73.25,0,0,0-6.433,7.152A70.663,70.663,0,0,0,0,64.983s.106-.36.3-1.037c.212-.677.466-1.672.91-2.9A65.759,65.759,0,0,1,5.459,51.08,71,71,0,0,1,14.05,38.405a75.232,75.232,0,0,1,6.009-6.221,77.185,77.185,0,0,1,6.983-5.544,76.476,76.476,0,0,1,7.681-4.571,69.909,69.909,0,0,1,22.853-6.94,66.138,66.138,0,0,1,10.834-.423c1.312.021,2.328.148,3.026.19.7.063,1.079.085,1.079.085A71,71,0,0,0,43.59,0Z" transform="translate(0 0)" fill="#273a89" opacity="0.18"/>
          </g>
        </g>
      </g>
    </g>
    <g id="OBJECTS-2" data-name="OBJECTS" transform="matrix(0.174, 0.985, -0.985, 0.174, 661.786, 28008.146)">
      <g id="Grupo_1076382-2" data-name="Grupo 1076382" transform="translate(0 0)">
        <path id="Trazado_825349-2" data-name="Trazado 825349" d="M73.637,17.542A54.026,54.026,0,0,0,54.318,36.078L52.6,38.892l.021-3.3c.021-1.481.063-2.984.148-4.549.063-1.143.148-2.306.254-3.47a59.438,59.438,0,0,0-14.875,3.407,56.142,56.142,0,0,0-7.639,3.449c-.973.508-1.926,1.079-2.9,1.672l-.741.444-.656.423c-.973.635-1.968,1.312-2.9,2.031A65.454,65.454,0,0,0,1.756,66.972L0,69.934V66.506A70.974,70.974,0,0,1,14.664,32.46a74.927,74.927,0,0,1,6.517-7.237,74.111,74.111,0,0,1,7.554-6.39,77.251,77.251,0,0,1,17.647-9.67l.042-.021.042-.021c.042,0,.91-.254,1.82-.466l.444-.106c-.656-.889-1.312-1.777-1.989-2.666-1.016-1.312-2.01-2.56-2.962-3.682L41.918,0l2.793.741A72.088,72.088,0,0,1,74.039,15.912l.952.846h0Z" transform="translate(0 0)" fill="#231f20" opacity="0.2"/>
        <g id="Grupo_1076381-2" data-name="Grupo 1076381" transform="translate(1.121 1.777)">
          <path id="Trazado_825350-2" data-name="Trazado 825350" d="M73.637,17.542A54.026,54.026,0,0,0,54.318,36.078L52.6,38.892l.021-3.3c.021-1.481.063-2.984.148-4.549.063-1.143.148-2.306.254-3.47a59.438,59.438,0,0,0-14.875,3.407,56.141,56.141,0,0,0-7.639,3.449c-.973.508-1.926,1.079-2.9,1.672l-.741.444-.656.423c-.973.635-1.968,1.312-2.9,2.031A65.454,65.454,0,0,0,1.756,66.972L0,69.934V66.506A70.974,70.974,0,0,1,14.664,32.46a74.927,74.927,0,0,1,6.517-7.237,74.11,74.11,0,0,1,7.554-6.39,77.251,77.251,0,0,1,17.647-9.67l.042-.021.042-.021c.042,0,.91-.254,1.82-.466l.444-.106c-.656-.889-1.312-1.777-1.989-2.666-1.016-1.312-2.01-2.56-2.962-3.682L41.918,0l2.793.741A72.088,72.088,0,0,1,74.039,15.912l.952.846h0Z" transform="translate(0.635 0)" fill="#fff"/>
          <g id="Grupo_1076380-2" data-name="Grupo 1076380" transform="translate(0 1.629)">
            <g id="Grupo_1076379-2" data-name="Grupo 1076379" transform="translate(1.524 0)">
              <path id="Trazado_825351-2" data-name="Trazado 825351" d="M43.59,0c1.016,1.206,2.01,2.455,2.984,3.7s1.9,2.518,2.793,3.788l-1.777.423c-.889.19-1.777.444-1.777.444a75.3,75.3,0,0,0-17.436,9.564,76.378,76.378,0,0,0-7.469,6.306,73.251,73.251,0,0,0-6.433,7.152A70.663,70.663,0,0,0,0,64.983,66.037,66.037,0,0,1,21.879,36.628c1.164-.889,2.391-1.672,3.576-2.476,1.248-.741,2.455-1.524,3.724-2.179a57.533,57.533,0,0,1,7.745-3.491,60.671,60.671,0,0,1,16.209-3.555c-.148,1.524-.275,3.026-.36,4.528s-.148,2.984-.148,4.507a55.164,55.164,0,0,1,19.89-18.981A71,71,0,0,0,43.59,0Z" transform="translate(0 0)" fill="#0ad0d9"/>
            </g>
            <path id="Trazado_825352-2" data-name="Trazado 825352" d="M43.59,0c1.016,1.206,2.01,2.455,2.984,3.7s1.9,2.518,2.793,3.788l-1.777.423c-.889.19-1.777.444-1.777.444a75.3,75.3,0,0,0-17.436,9.564,76.378,76.378,0,0,0-7.469,6.306,73.251,73.251,0,0,0-6.433,7.152A70.663,70.663,0,0,0,0,64.983s.106-.36.3-1.037c.212-.677.466-1.672.91-2.9A65.759,65.759,0,0,1,5.459,51.08,71,71,0,0,1,14.05,38.406a75.231,75.231,0,0,1,6.009-6.221,77.184,77.184,0,0,1,6.983-5.544,76.476,76.476,0,0,1,7.681-4.571,69.91,69.91,0,0,1,22.853-6.941,66.138,66.138,0,0,1,10.834-.423c1.312.021,2.328.148,3.026.19.7.063,1.079.085,1.079.085A71,71,0,0,0,43.59,0Z" transform="translate(0 0)" fill="#273a89" opacity="0.18"/>
          </g>
        </g>
      </g>
    </g>
    <g id="OBJECTS-3" data-name="OBJECTS" transform="matrix(-0.891, 0.454, -0.454, -0.891, 674.002, 28278.639)">
      <g id="Grupo_1076382-3" data-name="Grupo 1076382" transform="translate(0 0)">
        <path id="Trazado_825349-3" data-name="Trazado 825349" d="M73.637,17.542A54.026,54.026,0,0,0,54.318,36.078L52.6,38.892l.021-3.3c.021-1.481.063-2.984.148-4.549.063-1.143.148-2.306.254-3.47a59.438,59.438,0,0,0-14.875,3.407,56.142,56.142,0,0,0-7.639,3.449c-.973.508-1.926,1.079-2.9,1.672l-.741.444-.656.423c-.973.635-1.968,1.312-2.9,2.031A65.454,65.454,0,0,0,1.756,66.972L0,69.934V66.506A70.974,70.974,0,0,1,14.664,32.46a74.927,74.927,0,0,1,6.517-7.237,74.111,74.111,0,0,1,7.554-6.39,77.251,77.251,0,0,1,17.647-9.67l.042-.021.042-.021c.042,0,.91-.254,1.82-.466l.444-.106c-.656-.889-1.312-1.777-1.989-2.666-1.016-1.312-2.01-2.56-2.962-3.682L41.918,0l2.793.741A72.088,72.088,0,0,1,74.039,15.912l.952.846h0Z" transform="translate(0 0)" fill="#231f20" opacity="0.2"/>
        <g id="Grupo_1076381-3" data-name="Grupo 1076381" transform="translate(1.121 1.777)">
          <path id="Trazado_825350-3" data-name="Trazado 825350" d="M73.637,17.542A54.026,54.026,0,0,0,54.318,36.078L52.6,38.892l.021-3.3c.021-1.481.063-2.984.148-4.549.063-1.143.148-2.306.254-3.47a59.438,59.438,0,0,0-14.875,3.407,56.141,56.141,0,0,0-7.639,3.449c-.973.508-1.926,1.079-2.9,1.672l-.741.444-.656.423c-.973.635-1.968,1.312-2.9,2.031A65.454,65.454,0,0,0,1.756,66.972L0,69.934V66.506A70.974,70.974,0,0,1,14.664,32.46a74.927,74.927,0,0,1,6.517-7.237,74.11,74.11,0,0,1,7.554-6.39,77.251,77.251,0,0,1,17.647-9.67l.042-.021.042-.021c.042,0,.91-.254,1.82-.466l.444-.106c-.656-.889-1.312-1.777-1.989-2.666-1.016-1.312-2.01-2.56-2.962-3.682L41.918,0l2.793.741A72.088,72.088,0,0,1,74.039,15.912l.952.846h0Z" transform="translate(0.635 0)" fill="#fff"/>
          <g id="Grupo_1076380-3" data-name="Grupo 1076380" transform="translate(0 1.629)">
            <g id="Grupo_1076379-3" data-name="Grupo 1076379" transform="translate(1.524 0)">
              <path id="Trazado_825351-3" data-name="Trazado 825351" d="M43.59,0c1.016,1.206,2.01,2.455,2.984,3.7s1.9,2.518,2.793,3.788l-1.777.423c-.889.19-1.777.444-1.777.444a75.3,75.3,0,0,0-17.436,9.564,76.378,76.378,0,0,0-7.469,6.306,73.251,73.251,0,0,0-6.433,7.152A70.663,70.663,0,0,0,0,64.983,66.037,66.037,0,0,1,21.879,36.628c1.164-.889,2.391-1.672,3.576-2.476,1.248-.741,2.455-1.524,3.724-2.179a57.533,57.533,0,0,1,7.745-3.491,60.671,60.671,0,0,1,16.209-3.555c-.148,1.524-.275,3.026-.36,4.528s-.148,2.984-.148,4.507a55.164,55.164,0,0,1,19.89-18.981A71,71,0,0,0,43.59,0Z" transform="translate(0 0)" fill="#0ad0d9"/>
            </g>
            <path id="Trazado_825352-3" data-name="Trazado 825352" d="M43.59,0c1.016,1.206,2.01,2.455,2.984,3.7s1.9,2.518,2.793,3.788l-1.777.423c-.889.19-1.777.444-1.777.444a75.3,75.3,0,0,0-17.436,9.564,76.378,76.378,0,0,0-7.469,6.306,73.251,73.251,0,0,0-6.433,7.152A70.663,70.663,0,0,0,0,64.983s.106-.36.3-1.037c.212-.677.466-1.672.91-2.9A65.759,65.759,0,0,1,5.459,51.08,71,71,0,0,1,14.05,38.406a75.231,75.231,0,0,1,6.009-6.221,77.184,77.184,0,0,1,6.983-5.544,76.476,76.476,0,0,1,7.681-4.571,69.91,69.91,0,0,1,22.853-6.941,66.138,66.138,0,0,1,10.834-.423c1.312.021,2.328.148,3.026.19.7.063,1.079.085,1.079.085A71,71,0,0,0,43.59,0Z" transform="translate(0 0)" fill="#273a89" opacity="0.18"/>
          </g>
        </g>
      </g>
    </g>
    <g id="OBJECTS-4" data-name="OBJECTS" transform="matrix(-0.259, -0.966, 0.966, -0.259, 332.33, 28307.436)">
      <g id="Grupo_1076382-4" data-name="Grupo 1076382" transform="translate(0 0)">
        <path id="Trazado_825349-4" data-name="Trazado 825349" d="M73.637,17.542A54.026,54.026,0,0,0,54.318,36.078L52.6,38.892l.021-3.3c.021-1.481.063-2.984.148-4.549.063-1.143.148-2.306.254-3.47a59.438,59.438,0,0,0-14.875,3.407,56.142,56.142,0,0,0-7.639,3.449c-.973.508-1.926,1.079-2.9,1.672l-.741.444-.656.423c-.973.635-1.968,1.312-2.9,2.031A65.454,65.454,0,0,0,1.756,66.972L0,69.934V66.506A70.974,70.974,0,0,1,14.664,32.46a74.927,74.927,0,0,1,6.517-7.237,74.111,74.111,0,0,1,7.554-6.39,77.251,77.251,0,0,1,17.647-9.67l.042-.021.042-.021c.042,0,.91-.254,1.82-.466l.444-.106c-.656-.889-1.312-1.777-1.989-2.666-1.016-1.312-2.01-2.56-2.962-3.682L41.918,0l2.793.741A72.088,72.088,0,0,1,74.039,15.912l.952.846h0Z" transform="translate(0 0)" fill="#231f20" opacity="0.2"/>
        <g id="Grupo_1076381-4" data-name="Grupo 1076381" transform="translate(1.121 1.777)">
          <path id="Trazado_825350-4" data-name="Trazado 825350" d="M73.637,17.542A54.026,54.026,0,0,0,54.318,36.078L52.6,38.892l.021-3.3c.021-1.481.063-2.984.148-4.549.063-1.143.148-2.306.254-3.47a59.438,59.438,0,0,0-14.875,3.407,56.141,56.141,0,0,0-7.639,3.449c-.973.508-1.926,1.079-2.9,1.672l-.741.444-.656.423c-.973.635-1.968,1.312-2.9,2.031A65.454,65.454,0,0,0,1.756,66.972L0,69.934V66.506A70.974,70.974,0,0,1,14.664,32.46a74.927,74.927,0,0,1,6.517-7.237,74.11,74.11,0,0,1,7.554-6.39,77.251,77.251,0,0,1,17.647-9.67l.042-.021.042-.021c.042,0,.91-.254,1.82-.466l.444-.106c-.656-.889-1.312-1.777-1.989-2.666-1.016-1.312-2.01-2.56-2.962-3.682L41.918,0l2.793.741A72.088,72.088,0,0,1,74.039,15.912l.952.846h0Z" transform="translate(0.635 0)" fill="#fff"/>
          <g id="Grupo_1076380-4" data-name="Grupo 1076380" transform="translate(0 1.629)">
            <g id="Grupo_1076379-4" data-name="Grupo 1076379" transform="translate(1.524 0)">
              <path id="Trazado_825351-4" data-name="Trazado 825351" d="M43.59,0c1.016,1.206,2.01,2.455,2.984,3.7s1.9,2.518,2.793,3.788l-1.777.423c-.889.19-1.777.444-1.777.444a75.3,75.3,0,0,0-17.436,9.564,76.378,76.378,0,0,0-7.469,6.306,73.251,73.251,0,0,0-6.433,7.152A70.663,70.663,0,0,0,0,64.983,66.037,66.037,0,0,1,21.879,36.628c1.164-.889,2.391-1.672,3.576-2.476,1.248-.741,2.455-1.524,3.724-2.179a57.533,57.533,0,0,1,7.745-3.491,60.671,60.671,0,0,1,16.209-3.555c-.148,1.524-.275,3.026-.36,4.528s-.148,2.984-.148,4.507a55.164,55.164,0,0,1,19.89-18.981A71,71,0,0,0,43.59,0Z" transform="translate(0 0)" fill="#0ad0d9"/>
            </g>
            <path id="Trazado_825352-4" data-name="Trazado 825352" d="M43.59,0c1.016,1.206,2.01,2.455,2.984,3.7s1.9,2.518,2.793,3.788l-1.777.423c-.889.19-1.777.444-1.777.444a75.3,75.3,0,0,0-17.436,9.564,76.378,76.378,0,0,0-7.469,6.306,73.251,73.251,0,0,0-6.433,7.152A70.663,70.663,0,0,0,0,64.983s.106-.36.3-1.037c.212-.677.466-1.672.91-2.9A65.759,65.759,0,0,1,5.459,51.08,71,71,0,0,1,14.05,38.406a75.231,75.231,0,0,1,6.009-6.221,77.184,77.184,0,0,1,6.983-5.544,76.476,76.476,0,0,1,7.681-4.571,69.91,69.91,0,0,1,22.853-6.941,66.138,66.138,0,0,1,10.834-.423c1.312.021,2.328.148,3.026.19.7.063,1.079.085,1.079.085A71,71,0,0,0,43.59,0Z" transform="translate(0 0)" fill="#273a89" opacity="0.18"/>
          </g>
        </g>
      </g>
    </g>
    <path id="Trazado_825353" data-name="Trazado 825353" d="M185.19,57.445l-17.949-31.05A14.091,14.091,0,0,0,156.268,20.1h-35.9A14.328,14.328,0,0,0,109.4,26.395L91.531,57.445a13.881,13.881,0,0,0,0,12.675l17.949,31.05a14.091,14.091,0,0,0,10.974,6.3h35.9a14.328,14.328,0,0,0,10.974-6.3l17.949-31.05A14.145,14.145,0,0,0,185.19,57.445Z" transform="translate(357.059 28102.52)" fill="#a86e2f"/>
    <path id="Trazado_825354" data-name="Trazado 825354" d="M200.073,63.283l-20.756-35.9A16.294,16.294,0,0,0,166.628,20.1H125.117c-4.623,0-10.329,3.344-12.689,7.279l-20.657,35.9a16.051,16.051,0,0,0,0,14.657l20.756,35.9a16.294,16.294,0,0,0,12.689,7.279h41.511c4.623,0,10.329-3.345,12.689-7.279l20.756-35.9C202.434,73.907,202.434,67.316,200.073,63.283Z" transform="translate(349.798 28095.75)" fill="none" stroke="#a86e2f" stroke-width="2"/>
    <path id="Trazado_825357" data-name="Trazado 825357" d="M224.641,72.922,199.253,29c-2.888-4.933-9.866-8.9-15.522-8.9H132.955c-5.655,0-12.634,4.091-15.522,8.9L92.166,72.922c-2.888,4.933-2.888,12.995,0,17.928l25.388,43.918c2.888,4.933,9.866,8.9,15.522,8.9h50.776c5.655,0,12.634-4.091,15.522-8.9L224.761,90.85C227.529,85.916,227.529,77.855,224.641,72.922Z" transform="translate(336.756 27937.793)" fill="none" stroke="#773238" stroke-width="2"/>
    <g id="Grupo_1076383" data-name="Grupo 1076383" transform="translate(622.548 28096.416)">
      <path id="Trazado_825355" data-name="Trazado 825355" d="M221.5,71.688,196.7,28.8c-2.82-4.818-9.636-8.7-15.159-8.7h-49.59c-5.523,0-12.339,4-15.159,8.7L92.115,71.688c-2.82,4.818-2.82,12.691,0,17.509l24.8,42.892c2.82,4.818,9.636,8.7,15.159,8.7h49.59c5.523,0,12.339-4,15.159-8.7l24.8-42.892C224.317,84.38,224.317,76.506,221.5,71.688Z" transform="translate(-90 -20.1)" fill="none" stroke="#4d6828" stroke-width="2"/>
      <path id="Trazado_825359" data-name="Trazado 825359" d="M203.717,64.713,182.275,27.62a16.833,16.833,0,0,0-13.109-7.52H126.28c-4.776,0-10.671,3.455-13.109,7.52L91.829,64.713a16.582,16.582,0,0,0,0,15.142l21.443,37.093a16.833,16.833,0,0,0,13.11,7.52h42.885c4.776,0,10.671-3.455,13.109-7.52l21.443-37.093C206.156,75.688,206.156,68.88,203.717,64.713Z" transform="translate(-81.418 -11.518)" fill="#4d6828"/>
    </g>
    <g id="Grupo_1076392" data-name="Grupo 1076392" transform="translate(430.419 28252.93)">
      <path id="Trazado_825355-2" data-name="Trazado 825355" d="M221.5,71.688,196.7,28.8c-2.82-4.818-9.636-8.7-15.159-8.7h-49.59c-5.523,0-12.339,4-15.159,8.7L92.115,71.688c-2.82,4.818-2.82,12.691,0,17.509l24.8,42.892c2.82,4.818,9.636,8.7,15.159,8.7h49.59c5.523,0,12.339-4,15.159-8.7l24.8-42.892C224.317,84.38,224.317,76.506,221.5,71.688Z" transform="translate(-90 -20.1)" fill="none" stroke="#3b6d75" stroke-width="2"/>
      <path id="Trazado_825359-2" data-name="Trazado 825359" d="M203.717,64.713,182.275,27.62a16.833,16.833,0,0,0-13.109-7.52H126.28c-4.776,0-10.671,3.455-13.109,7.52L91.829,64.713a16.582,16.582,0,0,0,0,15.142l21.443,37.093a16.833,16.833,0,0,0,13.11,7.52h42.885c4.776,0,10.671-3.455,13.109-7.52l21.443-37.093C206.156,75.688,206.156,68.88,203.717,64.713Z" transform="translate(-81.418 -11.518)" fill="#3b6d75"/>
    </g>
    <path id="Trazado_825361" data-name="Trazado 825361" d="M206.436,65.78,184.481,27.8a17.236,17.236,0,0,0-13.423-7.7H127.147c-4.891,0-10.926,3.538-13.423,7.7L91.873,65.78a16.979,16.979,0,0,0,0,15.5l21.955,37.98a17.236,17.236,0,0,0,13.423,7.7h43.911c4.891,0,10.926-3.538,13.423-7.7l21.955-37.98C208.933,77.017,208.933,70.046,206.436,65.78Z" transform="translate(345.358 27946.58)" fill="#773238"/>
    <path id="Trazado_830667" data-name="Trazado 830667" d="M-18.79,0h-2.2V-4.57h-4.285V0h-2.2V-10.664h2.2v4.321h4.285v-4.321h2.2Zm4.014,0H-16.9V-7.925h2.124Zm-2.249-9.976a1.042,1.042,0,0,1,.319-.784,1.2,1.2,0,0,1,.868-.308,1.2,1.2,0,0,1,.864.308,1.036,1.036,0,0,1,.322.784,1.039,1.039,0,0,1-.326.791,1.2,1.2,0,0,1-.861.308,1.2,1.2,0,0,1-.861-.308A1.039,1.039,0,0,1-17.025-9.976ZM-8.741-2.19A.682.682,0,0,0-9.126-2.8a4.368,4.368,0,0,0-1.234-.4q-2.827-.593-2.827-2.4a2.178,2.178,0,0,1,.875-1.761,3.531,3.531,0,0,1,2.289-.707,3.8,3.8,0,0,1,2.413.71,2.239,2.239,0,0,1,.9,1.846H-8.822a1.024,1.024,0,0,0-.293-.751,1.24,1.24,0,0,0-.916-.3,1.267,1.267,0,0,0-.828.242.763.763,0,0,0-.293.615.652.652,0,0,0,.333.568,3.428,3.428,0,0,0,1.124.374,9.183,9.183,0,0,1,1.333.355A2.19,2.19,0,0,1-6.683-2.278a2.067,2.067,0,0,1-.93,1.754,4.013,4.013,0,0,1-2.4.67,4.191,4.191,0,0,1-1.769-.355A2.968,2.968,0,0,1-13-1.183a2.263,2.263,0,0,1-.439-1.337h2.007a1.105,1.105,0,0,0,.417.864,1.656,1.656,0,0,0,1.04.3,1.533,1.533,0,0,0,.919-.231A.718.718,0,0,0-8.741-2.19Zm5.955-7.683v1.948h1.355v1.553H-2.787v3.955a.944.944,0,0,0,.168.63.846.846,0,0,0,.645.19,3.376,3.376,0,0,0,.623-.051v1.6a4.358,4.358,0,0,1-1.282.19A2.021,2.021,0,0,1-4.9-2.1v-4.27H-6.061V-7.925H-4.9V-9.873ZM-.8-4.036a4.7,4.7,0,0,1,.454-2.1A3.324,3.324,0,0,1,.959-7.566a3.814,3.814,0,0,1,1.981-.505,3.609,3.609,0,0,1,2.618.981A3.939,3.939,0,0,1,6.691-4.424l.015.542A4.142,4.142,0,0,1,5.687-.956,3.539,3.539,0,0,1,2.955.146,3.556,3.556,0,0,1,.22-.952,4.215,4.215,0,0,1-.8-3.94Zm2.117.15A2.962,2.962,0,0,0,1.74-2.158a1.4,1.4,0,0,0,1.216.6,1.4,1.4,0,0,0,1.2-.591,3.241,3.241,0,0,0,.432-1.889,2.933,2.933,0,0,0-.432-1.716,1.4,1.4,0,0,0-1.216-.609,1.382,1.382,0,0,0-1.2.605A3.3,3.3,0,0,0,1.315-3.885ZM12.462-5.94A5.751,5.751,0,0,0,11.7-6a1.55,1.55,0,0,0-1.575.813V0H8.009V-7.925h2l.059.945a1.961,1.961,0,0,1,1.765-1.091,2.218,2.218,0,0,1,.659.1ZM15.714,0H13.59V-7.925h2.124ZM13.466-9.976a1.042,1.042,0,0,1,.319-.784,1.2,1.2,0,0,1,.868-.308,1.2,1.2,0,0,1,.864.308,1.036,1.036,0,0,1,.322.784,1.039,1.039,0,0,1-.326.791,1.2,1.2,0,0,1-.861.308,1.2,1.2,0,0,1-.861-.308A1.039,1.039,0,0,1,13.466-9.976ZM22.05,0a2.351,2.351,0,0,1-.212-.71,2.561,2.561,0,0,1-2,.857,2.814,2.814,0,0,1-1.93-.674,2.167,2.167,0,0,1-.765-1.7,2.24,2.24,0,0,1,.934-1.934,4.608,4.608,0,0,1,2.7-.681h.974V-5.3a1.306,1.306,0,0,0-.282-.879,1.109,1.109,0,0,0-.89-.33,1.261,1.261,0,0,0-.839.256.871.871,0,0,0-.3.7H17.318a2.126,2.126,0,0,1,.425-1.274,2.808,2.808,0,0,1,1.2-.919,4.378,4.378,0,0,1,1.743-.333,3.459,3.459,0,0,1,2.325.736,2.575,2.575,0,0,1,.861,2.069v3.435a3.789,3.789,0,0,0,.315,1.707V0ZM20.3-1.472a1.823,1.823,0,0,0,.864-.209,1.371,1.371,0,0,0,.586-.56V-3.6h-.791q-1.589,0-1.692,1.1l-.007.125a.847.847,0,0,0,.278.652A1.081,1.081,0,0,0,20.3-1.472ZM-34.9,15.979a4.776,4.776,0,0,1,.831-2.952,2.7,2.7,0,0,1,2.274-1.1,2.427,2.427,0,0,1,1.912.864V8.75h2.124V20H-29.67l-.1-.842a2.491,2.491,0,0,1-2.036.989,2.69,2.69,0,0,1-2.245-1.1A4.93,4.93,0,0,1-34.9,15.979Zm2.117.158a3.128,3.128,0,0,0,.388,1.709,1.265,1.265,0,0,0,1.128.594,1.416,1.416,0,0,0,1.384-.829V14.479a1.4,1.4,0,0,0-1.37-.829Q-32.783,13.65-32.783,16.137Zm10.313,4.01a3.89,3.89,0,0,1-2.838-1.069A3.8,3.8,0,0,1-26.4,16.228v-.205a4.787,4.787,0,0,1,.461-2.135,3.386,3.386,0,0,1,1.307-1.45,3.669,3.669,0,0,1,1.93-.509,3.289,3.289,0,0,1,2.56,1.025,4.167,4.167,0,0,1,.934,2.908v.864h-5.046a1.966,1.966,0,0,0,.619,1.245,1.871,1.871,0,0,0,1.307.469,2.285,2.285,0,0,0,1.912-.886l1.04,1.165a3.178,3.178,0,0,1-1.289,1.051A4.229,4.229,0,0,1-22.471,20.146Zm-.242-6.511a1.323,1.323,0,0,0-1.022.427,2.209,2.209,0,0,0-.5,1.221h2.944v-.169a1.576,1.576,0,0,0-.381-1.092A1.365,1.365,0,0,0-22.712,13.635Zm13.184,5.559a2.654,2.654,0,0,1-2.168.952,2.5,2.5,0,0,1-1.945-.732,3.127,3.127,0,0,1-.685-2.146V12.075h2.117V17.2q0,1.239,1.128,1.239A1.528,1.528,0,0,0-9.6,17.692V12.075h2.124V20H-9.47Zm7.939-1.384a.682.682,0,0,0-.385-.612,4.368,4.368,0,0,0-1.234-.4q-2.827-.593-2.827-2.4a2.178,2.178,0,0,1,.875-1.761,3.531,3.531,0,0,1,2.289-.707,3.8,3.8,0,0,1,2.413.71,2.239,2.239,0,0,1,.9,1.846H-1.67a1.024,1.024,0,0,0-.293-.751,1.24,1.24,0,0,0-.916-.3,1.267,1.267,0,0,0-.828.242A.763.763,0,0,0-4,14.294a.652.652,0,0,0,.333.568,3.428,3.428,0,0,0,1.124.374,9.183,9.183,0,0,1,1.333.355A2.19,2.19,0,0,1,.469,17.722a2.067,2.067,0,0,1-.93,1.754,4.013,4.013,0,0,1-2.4.67,4.191,4.191,0,0,1-1.769-.355,2.968,2.968,0,0,1-1.212-.974,2.263,2.263,0,0,1-.439-1.337h2.007a1.105,1.105,0,0,0,.417.864,1.656,1.656,0,0,0,1.04.3,1.533,1.533,0,0,0,.919-.231A.718.718,0,0,0-1.589,17.81Zm8.167,1.384a2.654,2.654,0,0,1-2.168.952,2.5,2.5,0,0,1-1.945-.732,3.127,3.127,0,0,1-.685-2.146V12.075H3.9V17.2q0,1.239,1.128,1.239A1.528,1.528,0,0,0,6.5,17.692V12.075H8.628V20H6.636Zm8.24.806a2.351,2.351,0,0,1-.212-.71,2.561,2.561,0,0,1-2,.857,2.814,2.814,0,0,1-1.93-.674,2.167,2.167,0,0,1-.765-1.7,2.24,2.24,0,0,1,.934-1.934,4.608,4.608,0,0,1,2.7-.681h.974V14.7a1.306,1.306,0,0,0-.282-.879,1.109,1.109,0,0,0-.89-.33,1.261,1.261,0,0,0-.839.256.871.871,0,0,0-.3.7H10.085a2.126,2.126,0,0,1,.425-1.274,2.808,2.808,0,0,1,1.2-.919,4.378,4.378,0,0,1,1.743-.333,3.459,3.459,0,0,1,2.325.736,2.575,2.575,0,0,1,.861,2.069v3.435a3.789,3.789,0,0,0,.315,1.707V20Zm-1.75-1.472a1.823,1.823,0,0,0,.864-.209,1.371,1.371,0,0,0,.586-.56V16.4h-.791q-1.589,0-1.692,1.1l-.007.125a.847.847,0,0,0,.278.652A1.081,1.081,0,0,0,13.066,18.528ZM22.72,14.06A5.751,5.751,0,0,0,21.958,14a1.55,1.55,0,0,0-1.575.813V20H18.267V12.075h2l.059.945a1.961,1.961,0,0,1,1.765-1.091,2.218,2.218,0,0,1,.659.1ZM25.972,20H23.848V12.075h2.124Zm-2.249-9.976a1.042,1.042,0,0,1,.319-.784,1.373,1.373,0,0,1,1.732,0,1.118,1.118,0,0,1,0,1.575,1.358,1.358,0,0,1-1.721,0A1.039,1.039,0,0,1,23.723,10.024Zm3.662,5.94a4.7,4.7,0,0,1,.454-2.1,3.324,3.324,0,0,1,1.307-1.428,3.814,3.814,0,0,1,1.981-.505,3.609,3.609,0,0,1,2.618.981,3.939,3.939,0,0,1,1.132,2.666l.015.542a4.142,4.142,0,0,1-1.018,2.926,3.539,3.539,0,0,1-2.732,1.1,3.556,3.556,0,0,1-2.736-1.1,4.215,4.215,0,0,1-1.022-2.988Zm2.117.15a2.962,2.962,0,0,0,.425,1.727,1.526,1.526,0,0,0,2.417.007,3.241,3.241,0,0,0,.432-1.889,2.933,2.933,0,0,0-.432-1.716,1.4,1.4,0,0,0-1.216-.609,1.382,1.382,0,0,0-1.2.605A3.3,3.3,0,0,0,29.5,16.115Z" transform="translate(494.912 28016.217)" fill="#fff"/>
    <g id="Grupo_1076391" data-name="Grupo 1076391" transform="translate(228.93 28096.66)">
      <g id="Grupo_1076385" data-name="Grupo 1076385" transform="translate(0 0)">
        <g id="Grupo_1076390" data-name="Grupo 1076390">
          <path id="Trazado_825358" data-name="Trazado 825358" d="M220.962,71.478,196.268,28.761c-2.809-4.8-9.6-8.661-15.1-8.661H131.782c-5.5,0-12.289,3.979-15.1,8.661L92.107,71.478c-2.809,4.8-2.809,12.64,0,17.438L116.8,131.635c2.809,4.8,9.6,8.661,15.1,8.661h49.389c5.5,0,12.289-3.979,15.1-8.661l24.694-42.718C223.771,84.118,223.771,76.277,220.962,71.478Z" transform="translate(-90 -20.1)" fill="none" stroke="#602492" stroke-width="2"/>
          <path id="Trazado_825362" data-name="Trazado 825362" d="M203.255,64.532,181.9,27.59a16.765,16.765,0,0,0-13.056-7.49H126.132c-4.757,0-10.627,3.441-13.056,7.49L91.822,64.532a16.515,16.515,0,0,0,0,15.08l21.356,36.942a16.765,16.765,0,0,0,13.056,7.49h42.711c4.757,0,10.627-3.441,13.056-7.49l21.356-36.942C205.684,75.462,205.684,68.681,203.255,64.532Z" transform="translate(-81.453 -11.553)" fill="#602492"/>
        </g>
      </g>
      <text id="Implementar_código" data-name="Implementar 
código" transform="translate(65.483 57.059)" fill="#fff" font-size="15" font-family="Roboto-Bold, Roboto" font-weight="700"><tspan x="-44.85" y="0">Implementar </tspan><tspan x="-22.888" y="20">código</tspan></text>
    </g>
    <path id="Trazado_830668" data-name="Trazado 830668" d="M-5.409-8.884H-8.676V0h-2.2V-8.884H-14.1v-1.78h8.687ZM-4.156,0V-10.664H-.875a4.983,4.983,0,0,1,2.516.634,4.418,4.418,0,0,1,1.732,1.8A5.557,5.557,0,0,1,4-5.574v.491a5.573,5.573,0,0,1-.612,2.644A4.38,4.38,0,0,1,1.659-.645,5.021,5.021,0,0,1-.853,0Zm2.2-8.884v7.119H-.9a2.386,2.386,0,0,0,1.97-.842,3.806,3.806,0,0,0,.7-2.41v-.564a3.867,3.867,0,0,0-.674-2.465,2.378,2.378,0,0,0-1.97-.839ZM5.592,0V-10.664H8.873a4.983,4.983,0,0,1,2.516.634,4.418,4.418,0,0,1,1.732,1.8,5.557,5.557,0,0,1,.623,2.655v.491a5.573,5.573,0,0,1-.612,2.644A4.38,4.38,0,0,1,11.407-.645,5.021,5.021,0,0,1,8.9,0Zm2.2-8.884v7.119H8.851a2.386,2.386,0,0,0,1.97-.842,3.806,3.806,0,0,0,.7-2.41v-.564a3.867,3.867,0,0,0-.674-2.465,2.378,2.378,0,0,0-1.97-.839Z" transform="translate(493.601 28170.758)" fill="#fff"/>
    <path id="Trazado_830669" data-name="Trazado 830669" d="M-34.922-3.757V0h-2.2V-10.664h4.16a4.813,4.813,0,0,1,2.113.439,3.238,3.238,0,0,1,1.4,1.249,3.482,3.482,0,0,1,.491,1.842,3.062,3.062,0,0,1-1.073,2.472,4.469,4.469,0,0,1-2.97.9Zm0-1.78h1.963a1.93,1.93,0,0,0,1.329-.41,1.492,1.492,0,0,0,.458-1.172,1.759,1.759,0,0,0-.461-1.267,1.724,1.724,0,0,0-1.274-.5h-2.014Zm11.792-.4A5.751,5.751,0,0,0-23.892-6a1.55,1.55,0,0,0-1.575.813V0h-2.117V-7.925h2l.059.945A1.961,1.961,0,0,1-23.76-8.071a2.218,2.218,0,0,1,.659.1Zm5.764,5.134a2.654,2.654,0,0,1-2.168.952,2.5,2.5,0,0,1-1.945-.732,3.127,3.127,0,0,1-.685-2.146V-7.925h2.117V-2.8q0,1.239,1.128,1.239a1.528,1.528,0,0,0,1.479-.748V-7.925h2.124V0h-1.992Zm7.295.952A3.89,3.89,0,0,1-12.909-.923,3.8,3.8,0,0,1-14-3.772v-.205a4.787,4.787,0,0,1,.461-2.135,3.386,3.386,0,0,1,1.307-1.45,3.669,3.669,0,0,1,1.93-.509,3.289,3.289,0,0,1,2.56,1.025,4.167,4.167,0,0,1,.934,2.908v.864h-5.046a1.966,1.966,0,0,0,.619,1.245,1.871,1.871,0,0,0,1.307.469A2.285,2.285,0,0,0-8.02-2.446l1.04,1.165A3.178,3.178,0,0,1-8.269-.231,4.229,4.229,0,0,1-10.071.146Zm-.242-6.511a1.323,1.323,0,0,0-1.022.427,2.209,2.209,0,0,0-.5,1.221h2.944v-.169a1.576,1.576,0,0,0-.381-1.092A1.365,1.365,0,0,0-10.312-6.365ZM1.531-3.889A4.8,4.8,0,0,1,.718-.919,2.693,2.693,0,0,1-1.553.146,2.474,2.474,0,0,1-3.611-.842l-.1.842h-1.9V-11.25h2.117v4.036a2.411,2.411,0,0,1,1.926-.857A2.715,2.715,0,0,1,.707-7.006a4.806,4.806,0,0,1,.824,3ZM-.586-4.043A3.153,3.153,0,0,0-.967-5.8,1.288,1.288,0,0,0-2.1-6.35a1.4,1.4,0,0,0-1.392.828V-2.4a1.415,1.415,0,0,0,1.406.835A1.307,1.307,0,0,0-.74-2.571,5.214,5.214,0,0,0-.586-4.043ZM7.427,0a2.351,2.351,0,0,1-.212-.71,2.561,2.561,0,0,1-2,.857,2.814,2.814,0,0,1-1.93-.674,2.167,2.167,0,0,1-.765-1.7A2.24,2.24,0,0,1,3.453-4.16a4.608,4.608,0,0,1,2.7-.681h.974V-5.3a1.306,1.306,0,0,0-.282-.879,1.109,1.109,0,0,0-.89-.33,1.261,1.261,0,0,0-.839.256.871.871,0,0,0-.3.7H2.7A2.126,2.126,0,0,1,3.12-6.819a2.808,2.808,0,0,1,1.2-.919,4.378,4.378,0,0,1,1.743-.333,3.459,3.459,0,0,1,2.325.736A2.575,2.575,0,0,1,9.25-5.266v3.435A3.789,3.789,0,0,0,9.565-.125V0ZM5.676-1.472a1.823,1.823,0,0,0,.864-.209,1.371,1.371,0,0,0,.586-.56V-3.6H6.335q-1.589,0-1.692,1.1l-.007.125a.847.847,0,0,0,.278.652A1.081,1.081,0,0,0,5.676-1.472Zm9.492-.718a.682.682,0,0,0-.385-.612,4.368,4.368,0,0,0-1.234-.4q-2.827-.593-2.827-2.4A2.178,2.178,0,0,1,11.6-7.365a3.531,3.531,0,0,1,2.289-.707,3.8,3.8,0,0,1,2.413.71,2.239,2.239,0,0,1,.9,1.846H15.088a1.024,1.024,0,0,0-.293-.751,1.24,1.24,0,0,0-.916-.3,1.267,1.267,0,0,0-.828.242.763.763,0,0,0-.293.615.652.652,0,0,0,.333.568,3.428,3.428,0,0,0,1.124.374,9.183,9.183,0,0,1,1.333.355,2.19,2.19,0,0,1,1.677,2.131A2.067,2.067,0,0,1,16.3-.524a4.013,4.013,0,0,1-2.4.67,4.191,4.191,0,0,1-1.769-.355,2.968,2.968,0,0,1-1.212-.974,2.263,2.263,0,0,1-.439-1.337H12.48a1.105,1.105,0,0,0,.417.864,1.656,1.656,0,0,0,1.04.3,1.533,1.533,0,0,0,.919-.231A.718.718,0,0,0,15.168-2.19Zm6.826-1.831a4.776,4.776,0,0,1,.831-2.952,2.7,2.7,0,0,1,2.274-1.1,2.427,2.427,0,0,1,1.912.864V-11.25h2.124V0H27.224l-.1-.842a2.491,2.491,0,0,1-2.036.989,2.69,2.69,0,0,1-2.245-1.1A4.93,4.93,0,0,1,21.995-4.021Zm2.117.158A3.128,3.128,0,0,0,24.5-2.154a1.265,1.265,0,0,0,1.128.594,1.416,1.416,0,0,0,1.384-.829V-5.521a1.4,1.4,0,0,0-1.37-.829Q24.111-6.35,24.111-3.863ZM34.424.146A3.89,3.89,0,0,1,31.586-.923a3.8,3.8,0,0,1-1.095-2.849v-.205a4.787,4.787,0,0,1,.461-2.135,3.386,3.386,0,0,1,1.307-1.45,3.669,3.669,0,0,1,1.93-.509,3.289,3.289,0,0,1,2.56,1.025,4.167,4.167,0,0,1,.934,2.908v.864H32.637a1.966,1.966,0,0,0,.619,1.245,1.871,1.871,0,0,0,1.307.469,2.285,2.285,0,0,0,1.912-.886l1.04,1.165A3.178,3.178,0,0,1,36.226-.231,4.229,4.229,0,0,1,34.424.146Zm-.242-6.511a1.323,1.323,0,0,0-1.022.427,2.209,2.209,0,0,0-.5,1.221H35.6v-.169a1.576,1.576,0,0,0-.381-1.092A1.365,1.365,0,0,0,34.182-6.365ZM-29.832,20a2.351,2.351,0,0,1-.212-.71,2.561,2.561,0,0,1-2,.857,2.814,2.814,0,0,1-1.93-.674,2.167,2.167,0,0,1-.765-1.7A2.24,2.24,0,0,1-33.8,15.84a4.608,4.608,0,0,1,2.7-.681h.974V14.7a1.306,1.306,0,0,0-.282-.879,1.109,1.109,0,0,0-.89-.33,1.261,1.261,0,0,0-.839.256.871.871,0,0,0-.3.7h-2.117a2.126,2.126,0,0,1,.425-1.274,2.808,2.808,0,0,1,1.2-.919,4.378,4.378,0,0,1,1.743-.333,3.459,3.459,0,0,1,2.325.736,2.575,2.575,0,0,1,.861,2.069v3.435a3.789,3.789,0,0,0,.315,1.707V20Zm-1.75-1.472a1.823,1.823,0,0,0,.864-.209,1.371,1.371,0,0,0,.586-.56V16.4h-.791q-1.589,0-1.692,1.1l-.007.125a.847.847,0,0,0,.278.652A1.081,1.081,0,0,0-31.582,18.528Zm8.5-.088a1.388,1.388,0,0,0,.952-.322,1.129,1.129,0,0,0,.381-.857h1.985a2.715,2.715,0,0,1-.439,1.476,2.9,2.9,0,0,1-1.183,1.04,3.7,3.7,0,0,1-1.659.37,3.44,3.44,0,0,1-2.681-1.08,4.275,4.275,0,0,1-.981-2.985v-.139a4.226,4.226,0,0,1,.974-2.922,3.4,3.4,0,0,1,2.673-1.091,3.333,3.333,0,0,1,2.384.846,3,3,0,0,1,.912,2.252h-1.985a1.455,1.455,0,0,0-.381-1.005,1.27,1.27,0,0,0-.967-.387,1.275,1.275,0,0,0-1.117.539,3.125,3.125,0,0,0-.377,1.749v.22a3.164,3.164,0,0,0,.374,1.761A1.291,1.291,0,0,0-23.086,18.44Zm8.174,1.707a3.89,3.89,0,0,1-2.838-1.069,3.8,3.8,0,0,1-1.095-2.849v-.205a4.787,4.787,0,0,1,.461-2.135,3.386,3.386,0,0,1,1.307-1.45,3.669,3.669,0,0,1,1.93-.509,3.289,3.289,0,0,1,2.56,1.025,4.167,4.167,0,0,1,.934,2.908v.864H-16.7a1.966,1.966,0,0,0,.619,1.245,1.871,1.871,0,0,0,1.307.469,2.285,2.285,0,0,0,1.912-.886l1.04,1.165a3.178,3.178,0,0,1-1.289,1.051A4.229,4.229,0,0,1-14.912,20.146Zm-.242-6.511a1.323,1.323,0,0,0-1.022.427,2.209,2.209,0,0,0-.5,1.221h2.944v-.169a1.576,1.576,0,0,0-.381-1.092A1.365,1.365,0,0,0-15.154,13.635Zm11.836,2.476a4.753,4.753,0,0,1-.831,2.933,2.665,2.665,0,0,1-2.245,1.1,2.469,2.469,0,0,1-1.941-.835v3.735h-2.117V12.075h1.963l.073.776a2.488,2.488,0,0,1,2.007-.923,2.683,2.683,0,0,1,2.278,1.084A4.882,4.882,0,0,1-3.318,16Zm-2.117-.154a3.119,3.119,0,0,0-.392-1.707,1.276,1.276,0,0,0-1.139-.6,1.386,1.386,0,0,0-1.37.762v3.245a1.41,1.41,0,0,0,1.384.784Q-5.435,18.44-5.435,15.957Zm5.962-5.83v1.948H1.882v1.553H.527v3.955a.944.944,0,0,0,.168.63.846.846,0,0,0,.645.19,3.376,3.376,0,0,0,.623-.051v1.6a4.358,4.358,0,0,1-1.282.19A2.021,2.021,0,0,1-1.589,17.9v-4.27H-2.747V12.075h1.157V10.127ZM7.654,20a2.351,2.351,0,0,1-.212-.71,2.561,2.561,0,0,1-2,.857,2.814,2.814,0,0,1-1.93-.674,2.167,2.167,0,0,1-.765-1.7A2.24,2.24,0,0,1,3.68,15.84a4.608,4.608,0,0,1,2.7-.681h.974V14.7a1.306,1.306,0,0,0-.282-.879,1.109,1.109,0,0,0-.89-.33,1.261,1.261,0,0,0-.839.256.871.871,0,0,0-.3.7H2.922a2.126,2.126,0,0,1,.425-1.274,2.808,2.808,0,0,1,1.2-.919,4.378,4.378,0,0,1,1.743-.333,3.459,3.459,0,0,1,2.325.736,2.575,2.575,0,0,1,.861,2.069v3.435a3.789,3.789,0,0,0,.315,1.707V20ZM5.9,18.528a1.823,1.823,0,0,0,.864-.209,1.371,1.371,0,0,0,.586-.56V16.4H6.563q-1.589,0-1.692,1.1l-.007.125a.847.847,0,0,0,.278.652A1.081,1.081,0,0,0,5.9,18.528Zm8.5-.088a1.388,1.388,0,0,0,.952-.322,1.129,1.129,0,0,0,.381-.857h1.985a2.715,2.715,0,0,1-.439,1.476,2.9,2.9,0,0,1-1.183,1.04,3.7,3.7,0,0,1-1.659.37,3.44,3.44,0,0,1-2.681-1.08,4.275,4.275,0,0,1-.981-2.985v-.139a4.226,4.226,0,0,1,.974-2.922,3.4,3.4,0,0,1,2.673-1.091,3.333,3.333,0,0,1,2.384.846,3,3,0,0,1,.912,2.252H15.732a1.455,1.455,0,0,0-.381-1.005,1.416,1.416,0,0,0-2.084.153,3.125,3.125,0,0,0-.377,1.749v.22a3.164,3.164,0,0,0,.374,1.761A1.291,1.291,0,0,0,14.4,18.44ZM21.16,20H19.036V12.075H21.16Zm-2.249-9.976a1.042,1.042,0,0,1,.319-.784,1.373,1.373,0,0,1,1.732,0,1.118,1.118,0,0,1,0,1.575,1.358,1.358,0,0,1-1.721,0A1.039,1.039,0,0,1,18.911,10.024Zm3.662,5.94a4.7,4.7,0,0,1,.454-2.1,3.324,3.324,0,0,1,1.307-1.428,3.814,3.814,0,0,1,1.981-.505,3.609,3.609,0,0,1,2.618.981,3.939,3.939,0,0,1,1.132,2.666l.015.542a4.142,4.142,0,0,1-1.018,2.926,3.539,3.539,0,0,1-2.732,1.1,3.556,3.556,0,0,1-2.736-1.1,4.215,4.215,0,0,1-1.022-2.988Zm2.117.15a2.962,2.962,0,0,0,.425,1.727,1.526,1.526,0,0,0,2.417.007,3.241,3.241,0,0,0,.432-1.889,2.933,2.933,0,0,0-.432-1.716,1.4,1.4,0,0,0-1.216-.609,1.382,1.382,0,0,0-1.2.605A3.3,3.3,0,0,0,24.69,16.115ZM26.733,8.75h2.307l-2.029,2.271H25.291Zm6.6,3.325.066.916a2.767,2.767,0,0,1,2.278-1.062,2.3,2.3,0,0,1,1.875.74,3.451,3.451,0,0,1,.63,2.212V20H36.064V14.932a1.373,1.373,0,0,0-.293-.978,1.312,1.312,0,0,0-.974-.3,1.456,1.456,0,0,0-1.34.762V20H31.34V12.075Z" transform="translate(686.894 28151.176)" fill="#fff"/>
    <path id="Trazado_830670" data-name="Trazado 830670" d="M-34.5-2.2h-3.853L-39.089,0h-2.336l3.97-10.664h2.036L-31.428,0h-2.336Zm-3.259-1.78H-35.1l-1.34-3.992ZM-25.906-.806a2.654,2.654,0,0,1-2.168.952,2.5,2.5,0,0,1-1.945-.732A3.127,3.127,0,0,1-30.7-2.732V-7.925h2.117V-2.8q0,1.239,1.128,1.239a1.528,1.528,0,0,0,1.479-.748V-7.925h2.124V0h-1.992Zm6.182-9.067v1.948h1.355v1.553h-1.355v3.955a.944.944,0,0,0,.168.63.846.846,0,0,0,.645.19,3.376,3.376,0,0,0,.623-.051v1.6a4.358,4.358,0,0,1-1.282.19A2.021,2.021,0,0,1-21.841-2.1v-4.27H-23V-7.925h1.157V-9.873Zm1.985,5.837a4.7,4.7,0,0,1,.454-2.1,3.324,3.324,0,0,1,1.307-1.428A3.814,3.814,0,0,1-14-8.071a3.609,3.609,0,0,1,2.618.981,3.939,3.939,0,0,1,1.132,2.666l.015.542A4.142,4.142,0,0,1-11.25-.956a3.539,3.539,0,0,1-2.732,1.1,3.556,3.556,0,0,1-2.736-1.1A4.215,4.215,0,0,1-17.739-3.94Zm2.117.15A2.962,2.962,0,0,0-15.2-2.158a1.4,1.4,0,0,0,1.216.6,1.4,1.4,0,0,0,1.2-.591,3.241,3.241,0,0,0,.432-1.889,2.933,2.933,0,0,0-.432-1.716A1.4,1.4,0,0,0-14-6.365a1.382,1.382,0,0,0-1.2.605A3.3,3.3,0,0,0-15.623-3.885Zm8.679-4.039.066.886A2.785,2.785,0,0,1-4.6-8.071,2.114,2.114,0,0,1-2.5-6.863,2.721,2.721,0,0,1-.117-8.071,2.364,2.364,0,0,1,1.8-7.321a3.451,3.451,0,0,1,.63,2.26V0H.308V-5.054a1.509,1.509,0,0,0-.264-.985,1.169,1.169,0,0,0-.93-.311A1.321,1.321,0,0,0-2.2-5.442L-2.2,0H-4.314V-5.046a1.491,1.491,0,0,0-.271-1,1.18,1.18,0,0,0-.923-.308,1.372,1.372,0,0,0-1.3.747V0H-8.928V-7.925ZM8.65,0a2.351,2.351,0,0,1-.212-.71,2.561,2.561,0,0,1-2,.857,2.814,2.814,0,0,1-1.93-.674,2.167,2.167,0,0,1-.765-1.7A2.24,2.24,0,0,1,4.677-4.16a4.608,4.608,0,0,1,2.7-.681H8.35V-5.3a1.306,1.306,0,0,0-.282-.879,1.109,1.109,0,0,0-.89-.33,1.261,1.261,0,0,0-.839.256.871.871,0,0,0-.3.7H3.918a2.126,2.126,0,0,1,.425-1.274,2.808,2.808,0,0,1,1.2-.919,4.378,4.378,0,0,1,1.743-.333,3.459,3.459,0,0,1,2.325.736,2.575,2.575,0,0,1,.861,2.069v3.435a3.789,3.789,0,0,0,.315,1.707V0ZM6.9-1.472a1.823,1.823,0,0,0,.864-.209,1.371,1.371,0,0,0,.586-.56V-3.6H7.559q-1.589,0-1.692,1.1l-.007.125a.847.847,0,0,0,.278.652A1.081,1.081,0,0,0,6.9-1.472Zm7.734-8.4v1.948h1.355v1.553H14.634v3.955a.944.944,0,0,0,.168.63.846.846,0,0,0,.645.19,3.376,3.376,0,0,0,.623-.051v1.6a4.358,4.358,0,0,1-1.282.19A2.021,2.021,0,0,1,12.517-2.1v-4.27H11.36V-7.925h1.157V-9.873ZM19.4,0H17.278V-7.925H19.4ZM17.153-9.976a1.042,1.042,0,0,1,.319-.784,1.2,1.2,0,0,1,.868-.308,1.2,1.2,0,0,1,.864.308,1.036,1.036,0,0,1,.322.784,1.039,1.039,0,0,1-.326.791,1.2,1.2,0,0,1-.861.308,1.2,1.2,0,0,1-.861-.308A1.039,1.039,0,0,1,17.153-9.976Zm6.423,8.269h3.875V0H20.874V-1.289L24.6-6.218H20.984V-7.925h6.35v1.247ZM33.369,0a2.351,2.351,0,0,1-.212-.71,2.561,2.561,0,0,1-2,.857,2.814,2.814,0,0,1-1.93-.674,2.167,2.167,0,0,1-.765-1.7A2.24,2.24,0,0,1,29.4-4.16a4.608,4.608,0,0,1,2.7-.681h.974V-5.3a1.306,1.306,0,0,0-.282-.879,1.109,1.109,0,0,0-.89-.33,1.261,1.261,0,0,0-.839.256.871.871,0,0,0-.3.7H28.638a2.126,2.126,0,0,1,.425-1.274,2.808,2.808,0,0,1,1.2-.919,4.378,4.378,0,0,1,1.743-.333,3.459,3.459,0,0,1,2.325.736,2.575,2.575,0,0,1,.861,2.069v3.435a3.789,3.789,0,0,0,.315,1.707V0Zm-1.75-1.472a1.823,1.823,0,0,0,.864-.209,1.371,1.371,0,0,0,.586-.56V-3.6h-.791q-1.589,0-1.692,1.1l-.007.125a.847.847,0,0,0,.278.652A1.081,1.081,0,0,0,31.619-1.472ZM41.272-5.94A5.751,5.751,0,0,0,40.51-6a1.55,1.55,0,0,0-1.575.813V0H36.819V-7.925h2l.059.945a1.961,1.961,0,0,1,1.765-1.091,2.218,2.218,0,0,1,.659.1ZM-19.362,16.111a4.753,4.753,0,0,1-.831,2.933,2.665,2.665,0,0,1-2.245,1.1,2.469,2.469,0,0,1-1.941-.835v3.735H-26.5V12.075h1.963l.073.776a2.488,2.488,0,0,1,2.007-.923,2.683,2.683,0,0,1,2.278,1.084A4.882,4.882,0,0,1-19.362,16Zm-2.117-.154a3.119,3.119,0,0,0-.392-1.707,1.276,1.276,0,0,0-1.139-.6,1.386,1.386,0,0,0-1.37.762v3.245a1.41,1.41,0,0,0,1.384.784Q-21.478,18.44-21.478,15.957Zm7.881-1.9A5.751,5.751,0,0,0-14.359,14a1.55,1.55,0,0,0-1.575.813V20h-2.117V12.075h2l.059.945a1.961,1.961,0,0,1,1.765-1.091,2.218,2.218,0,0,1,.659.1Zm5.764,5.134A2.654,2.654,0,0,1-10,20.146a2.5,2.5,0,0,1-1.945-.732,3.127,3.127,0,0,1-.685-2.146V12.075h2.117V17.2q0,1.239,1.128,1.239a1.528,1.528,0,0,0,1.479-.748V12.075h2.124V20H-7.775Zm7.295.952a3.89,3.89,0,0,1-2.838-1.069,3.8,3.8,0,0,1-1.095-2.849v-.205a4.787,4.787,0,0,1,.461-2.135A3.386,3.386,0,0,1-2.7,12.438a3.669,3.669,0,0,1,1.93-.509,3.289,3.289,0,0,1,2.56,1.025,4.167,4.167,0,0,1,.934,2.908v.864H-2.325a1.966,1.966,0,0,0,.619,1.245A1.871,1.871,0,0,0-.4,18.44a2.285,2.285,0,0,0,1.912-.886l1.04,1.165a3.178,3.178,0,0,1-1.289,1.051A4.229,4.229,0,0,1-.538,20.146ZM-.78,13.635a1.323,1.323,0,0,0-1.022.427,2.209,2.209,0,0,0-.5,1.221H.641v-.169A1.576,1.576,0,0,0,.26,14.021,1.365,1.365,0,0,0-.78,13.635Zm11.843,2.476a4.8,4.8,0,0,1-.813,2.97A2.693,2.693,0,0,1,7.98,20.146a2.474,2.474,0,0,1-2.058-.989l-.1.842h-1.9V8.75H6.039v4.036a2.411,2.411,0,0,1,1.926-.857,2.715,2.715,0,0,1,2.274,1.066,4.806,4.806,0,0,1,.824,3Zm-2.117-.154A3.153,3.153,0,0,0,8.566,14.2,1.288,1.288,0,0,0,7.43,13.65a1.4,1.4,0,0,0-1.392.828V17.6a1.415,1.415,0,0,0,1.406.835,1.307,1.307,0,0,0,1.348-1.011A5.214,5.214,0,0,0,8.947,15.957ZM16.959,20a2.351,2.351,0,0,1-.212-.71,2.561,2.561,0,0,1-2,.857,2.814,2.814,0,0,1-1.93-.674,2.167,2.167,0,0,1-.765-1.7,2.24,2.24,0,0,1,.934-1.934,4.608,4.608,0,0,1,2.7-.681h.974V14.7a1.306,1.306,0,0,0-.282-.879,1.109,1.109,0,0,0-.89-.33,1.261,1.261,0,0,0-.839.256.871.871,0,0,0-.3.7H12.228a2.126,2.126,0,0,1,.425-1.274,2.808,2.808,0,0,1,1.2-.919,4.378,4.378,0,0,1,1.743-.333,3.459,3.459,0,0,1,2.325.736,2.575,2.575,0,0,1,.861,2.069v3.435a3.789,3.789,0,0,0,.315,1.707V20Zm-1.75-1.472a1.823,1.823,0,0,0,.864-.209,1.371,1.371,0,0,0,.586-.56V16.4h-.791q-1.589,0-1.692,1.1l-.007.125a.847.847,0,0,0,.278.652A1.081,1.081,0,0,0,15.209,18.528ZM24.7,17.81a.682.682,0,0,0-.385-.612,4.368,4.368,0,0,0-1.234-.4q-2.827-.593-2.827-2.4a2.178,2.178,0,0,1,.875-1.761,3.531,3.531,0,0,1,2.289-.707,3.8,3.8,0,0,1,2.413.71,2.239,2.239,0,0,1,.9,1.846H24.62a1.024,1.024,0,0,0-.293-.751,1.24,1.24,0,0,0-.916-.3,1.267,1.267,0,0,0-.828.242.763.763,0,0,0-.293.615.652.652,0,0,0,.333.568,3.428,3.428,0,0,0,1.124.374,9.183,9.183,0,0,1,1.333.355,2.19,2.19,0,0,1,1.677,2.131,2.067,2.067,0,0,1-.93,1.754,4.013,4.013,0,0,1-2.4.67,4.191,4.191,0,0,1-1.769-.355,2.968,2.968,0,0,1-1.212-.974,2.263,2.263,0,0,1-.439-1.337h2.007a1.105,1.105,0,0,0,.417.864,1.656,1.656,0,0,0,1.04.3,1.533,1.533,0,0,0,.919-.231A.718.718,0,0,0,24.7,17.81Z" transform="translate(495.488 28308.689)" fill="#fff"/>
    <path id="Trazado_830671" data-name="Trazado 830671" d="M29,0H172a29,29,0,0,1,0,58H29A29,29,0,0,1,29,0Z" transform="translate(182.246 28310.936)" fill="#273a89"/>
    <path id="Trazado_830672" data-name="Trazado 830672" d="M18.5,0h76a18.5,18.5,0,0,1,0,37h-76a18.5,18.5,0,0,1,0-37Z" transform="translate(180 28234.43)" fill="#273a89"/>
    <path id="Trazado_830673" data-name="Trazado 830673" d="M18.5,0h76a18.5,18.5,0,0,1,0,37h-76a18.5,18.5,0,0,1,0-37Z" transform="translate(286.119 27972.613)" fill="#273a89"/>
    <path id="Trazado_830674" data-name="Trazado 830674" d="M18.6,0H94.976a18.6,18.6,0,0,1,0,37.207H18.6A18.6,18.6,0,0,1,18.6,0Z" transform="translate(615.168 27972.613)" fill="#273a89"/>
    <path id="Trazado_830675" data-name="Trazado 830675" d="M31.2,0H144.8a31.2,31.2,0,0,1,0,62.4H31.2A31.2,31.2,0,0,1,31.2,0Z" transform="translate(614 28307.436)" fill="#273a89"/>
    <path id="Trazado_830676" data-name="Trazado 830676" d="M30.42,5.047V11.6A3.356,3.356,0,0,1,29.4,14.187a3.94,3.94,0,0,1-2.792.95,3.984,3.984,0,0,1-2.769-.923,3.3,3.3,0,0,1-1.046-2.536V5.047h2.051v6.569a1.9,1.9,0,0,0,.468,1.425,1.8,1.8,0,0,0,1.3.448q1.729,0,1.757-1.818V5.047Zm5.558,7.909a.637.637,0,0,0-.359-.571,4.077,4.077,0,0,0-1.152-.373q-2.639-.554-2.639-2.242a2.032,2.032,0,0,1,.817-1.644,3.3,3.3,0,0,1,2.136-.66,3.547,3.547,0,0,1,2.252.663,2.09,2.09,0,0,1,.844,1.723H35.9a.956.956,0,0,0-.273-.7,1.157,1.157,0,0,0-.854-.277A1.182,1.182,0,0,0,34,9.1a.712.712,0,0,0-.273.574.609.609,0,0,0,.311.53,3.2,3.2,0,0,0,1.049.349,8.571,8.571,0,0,1,1.244.332A2.044,2.044,0,0,1,37.9,12.874a1.929,1.929,0,0,1-.868,1.637,3.745,3.745,0,0,1-2.242.625,3.912,3.912,0,0,1-1.651-.332,2.77,2.77,0,0,1-1.131-.909,2.113,2.113,0,0,1-.41-1.248h1.873a1.031,1.031,0,0,0,.39.807,1.546,1.546,0,0,0,.971.28,1.43,1.43,0,0,0,.858-.215A.67.67,0,0,0,35.978,12.956ZM43.457,15a2.194,2.194,0,0,1-.2-.663,2.39,2.39,0,0,1-1.866.8,2.626,2.626,0,0,1-1.8-.629,2.023,2.023,0,0,1-.714-1.586,2.09,2.09,0,0,1,.872-1.8,4.3,4.3,0,0,1,2.519-.636h.909v-.424a1.219,1.219,0,0,0-.263-.82,1.035,1.035,0,0,0-.831-.308,1.177,1.177,0,0,0-.783.239.813.813,0,0,0-.284.656H39.041a1.984,1.984,0,0,1,.4-1.189,2.621,2.621,0,0,1,1.121-.858,4.086,4.086,0,0,1,1.627-.311,3.228,3.228,0,0,1,2.17.687,2.4,2.4,0,0,1,.8,1.931v3.206a3.536,3.536,0,0,0,.294,1.593V15Zm-1.634-1.374a1.7,1.7,0,0,0,.807-.195,1.28,1.28,0,0,0,.547-.523V11.637h-.738q-1.483,0-1.579,1.025l-.007.116a.791.791,0,0,0,.26.608A1.009,1.009,0,0,0,41.823,13.626ZM48.529,7.6l.062.827a2.6,2.6,0,0,1,2.126-.964,1.973,1.973,0,0,1,1.962,1.128A2.54,2.54,0,0,1,54.9,7.467a2.206,2.206,0,0,1,1.791.7,3.221,3.221,0,0,1,.588,2.109V15H55.3V10.283a1.408,1.408,0,0,0-.246-.919,1.091,1.091,0,0,0-.868-.291,1.233,1.233,0,0,0-1.23.848L52.958,15H50.983V10.29a1.391,1.391,0,0,0-.253-.93,1.1,1.1,0,0,0-.861-.287,1.28,1.28,0,0,0-1.217.7V15H46.676V7.6Zm9.96,3.63a4.387,4.387,0,0,1,.424-1.962,3.1,3.1,0,0,1,1.22-1.333,3.56,3.56,0,0,1,1.849-.472,3.368,3.368,0,0,1,2.444.916,3.676,3.676,0,0,1,1.056,2.488l.014.506a3.866,3.866,0,0,1-.95,2.731,3.683,3.683,0,0,1-5.1,0,3.934,3.934,0,0,1-.954-2.789Zm1.976.14a2.765,2.765,0,0,0,.4,1.612,1.424,1.424,0,0,0,2.256.007,3.025,3.025,0,0,0,.4-1.763,2.737,2.737,0,0,0-.4-1.6,1.311,1.311,0,0,0-1.135-.568,1.29,1.29,0,0,0-1.121.565A3.076,3.076,0,0,0,60.464,11.374Zm10.254,1.582a.637.637,0,0,0-.359-.571,4.077,4.077,0,0,0-1.152-.373q-2.639-.554-2.639-2.242a2.032,2.032,0,0,1,.817-1.644,3.3,3.3,0,0,1,2.136-.66,3.547,3.547,0,0,1,2.252.663,2.09,2.09,0,0,1,.844,1.723H70.643a.956.956,0,0,0-.273-.7,1.157,1.157,0,0,0-.854-.277,1.182,1.182,0,0,0-.772.226.712.712,0,0,0-.273.574.609.609,0,0,0,.311.53,3.2,3.2,0,0,0,1.049.349,8.571,8.571,0,0,1,1.244.332,2.044,2.044,0,0,1,1.565,1.989,1.929,1.929,0,0,1-.868,1.637,3.745,3.745,0,0,1-2.242.625,3.912,3.912,0,0,1-1.651-.332,2.77,2.77,0,0,1-1.131-.909,2.113,2.113,0,0,1-.41-1.248h1.873a1.031,1.031,0,0,0,.39.807,1.546,1.546,0,0,0,.971.28,1.43,1.43,0,0,0,.858-.215A.67.67,0,0,0,70.718,12.956ZM80.8,15.137a3.631,3.631,0,0,1-2.649-1,3.548,3.548,0,0,1-1.022-2.659v-.191A4.468,4.468,0,0,1,77.561,9.3a3.161,3.161,0,0,1,1.22-1.354,3.425,3.425,0,0,1,1.8-.475,3.07,3.07,0,0,1,2.389.957,3.889,3.889,0,0,1,.872,2.714v.807h-4.71a1.835,1.835,0,0,0,.578,1.162,1.746,1.746,0,0,0,1.22.438,2.132,2.132,0,0,0,1.784-.827l.971,1.087a2.966,2.966,0,0,1-1.2.981A3.947,3.947,0,0,1,80.8,15.137ZM80.576,9.06a1.234,1.234,0,0,0-.954.4,2.062,2.062,0,0,0-.468,1.14H81.9V10.44a1.471,1.471,0,0,0-.355-1.02A1.274,1.274,0,0,0,80.576,9.06ZM87.049,15H85.067V4.5h1.982Zm7.2,0H92.265V4.5h1.982Zm5.031.137a3.631,3.631,0,0,1-2.649-1,3.548,3.548,0,0,1-1.022-2.659v-.191A4.468,4.468,0,0,1,96.039,9.3a3.161,3.161,0,0,1,1.22-1.354,3.425,3.425,0,0,1,1.8-.475,3.07,3.07,0,0,1,2.389.957,3.889,3.889,0,0,1,.872,2.714v.807h-4.71a1.835,1.835,0,0,0,.578,1.162,1.746,1.746,0,0,0,1.22.438,2.132,2.132,0,0,0,1.784-.827l.971,1.087a2.966,2.966,0,0,1-1.2.981A3.947,3.947,0,0,1,99.279,15.137ZM99.053,9.06a1.234,1.234,0,0,0-.954.4,2.062,2.062,0,0,0-.468,1.14h2.748V10.44a1.471,1.471,0,0,0-.355-1.02A1.274,1.274,0,0,0,99.053,9.06ZM105.26,7.6l.062.854a2.582,2.582,0,0,1,2.126-.991,2.146,2.146,0,0,1,1.75.69,3.221,3.221,0,0,1,.588,2.064V15H107.81V10.27a1.282,1.282,0,0,0-.273-.913,1.224,1.224,0,0,0-.909-.284,1.359,1.359,0,0,0-1.251.711V15H103.4V7.6ZM111,11.247a4.335,4.335,0,0,1,.81-2.741,2.625,2.625,0,0,1,2.184-1.039,2.3,2.3,0,0,1,1.894.834l.082-.7h1.791v7.15a3.161,3.161,0,0,1-.441,1.688,2.832,2.832,0,0,1-1.241,1.094,4.362,4.362,0,0,1-1.873.376,4.056,4.056,0,0,1-1.586-.325,2.815,2.815,0,0,1-1.169-.837l.875-1.2a2.314,2.314,0,0,0,1.791.827,1.694,1.694,0,0,0,1.224-.42,1.577,1.577,0,0,0,.438-1.193v-.4a2.285,2.285,0,0,1-1.8.772,2.618,2.618,0,0,1-2.157-1.042A4.334,4.334,0,0,1,111,11.329Zm1.976.147a2.7,2.7,0,0,0,.4,1.578,1.283,1.283,0,0,0,1.107.572,1.372,1.372,0,0,0,1.292-.678V9.751a1.369,1.369,0,0,0-1.278-.678,1.291,1.291,0,0,0-1.118.582A3.042,3.042,0,0,0,112.971,11.394ZM123.7,14.248a2.477,2.477,0,0,1-2.023.889,2.337,2.337,0,0,1-1.815-.684,2.918,2.918,0,0,1-.639-2V7.6H121.2v4.784q0,1.157,1.053,1.157a1.426,1.426,0,0,0,1.381-.7V7.6h1.982V15h-1.859Zm7.69.752a2.194,2.194,0,0,1-.2-.663,2.39,2.39,0,0,1-1.866.8,2.626,2.626,0,0,1-1.8-.629,2.023,2.023,0,0,1-.714-1.586,2.09,2.09,0,0,1,.872-1.8,4.3,4.3,0,0,1,2.519-.636h.909v-.424a1.219,1.219,0,0,0-.263-.82,1.035,1.035,0,0,0-.831-.308,1.177,1.177,0,0,0-.783.239.813.813,0,0,0-.284.656h-1.976a1.985,1.985,0,0,1,.4-1.189,2.621,2.621,0,0,1,1.121-.858,4.086,4.086,0,0,1,1.627-.311,3.228,3.228,0,0,1,2.17.687,2.4,2.4,0,0,1,.8,1.931v3.206a3.536,3.536,0,0,0,.294,1.593V15Zm-1.634-1.374a1.7,1.7,0,0,0,.807-.195,1.28,1.28,0,0,0,.547-.523V11.637h-.738q-1.483,0-1.579,1.025l-.007.116a.791.791,0,0,0,.26.608A1.009,1.009,0,0,0,129.76,13.626ZM136.706,7.6v7.8a2.646,2.646,0,0,1-.649,1.9,2.468,2.468,0,0,1-1.873.68,4.017,4.017,0,0,1-.978-.116V16.306a3.708,3.708,0,0,0,.622.062q.9,0,.9-.95V7.6Zm-2.14-1.914a.973.973,0,0,1,.3-.731,1.286,1.286,0,0,1,1.62,0,.973.973,0,0,1,.3.731.97.97,0,0,1-.3.738,1.267,1.267,0,0,1-1.606,0A.97.97,0,0,1,134.566,5.689Zm7.089,9.447a3.631,3.631,0,0,1-2.649-1,3.548,3.548,0,0,1-1.022-2.659v-.191a4.468,4.468,0,0,1,.431-1.993,3.161,3.161,0,0,1,1.22-1.354,3.425,3.425,0,0,1,1.8-.475,3.07,3.07,0,0,1,2.389.957,3.889,3.889,0,0,1,.872,2.714v.807h-4.71a1.835,1.835,0,0,0,.578,1.162,1.746,1.746,0,0,0,1.22.438,2.132,2.132,0,0,0,1.784-.827l.971,1.087a2.966,2.966,0,0,1-1.2.981A3.947,3.947,0,0,1,141.655,15.137Zm-.226-6.077a1.235,1.235,0,0,0-.954.4,2.062,2.062,0,0,0-.468,1.14h2.748V10.44a1.471,1.471,0,0,0-.355-1.02A1.274,1.274,0,0,0,141.429,9.06ZM149,11.247a4.457,4.457,0,0,1,.776-2.755A2.517,2.517,0,0,1,151.9,7.467a2.265,2.265,0,0,1,1.784.807V4.5h1.982V15h-1.784l-.1-.786a2.325,2.325,0,0,1-1.9.923,2.511,2.511,0,0,1-2.1-1.029A4.6,4.6,0,0,1,149,11.247Zm1.976.147a2.92,2.92,0,0,0,.362,1.6,1.18,1.18,0,0,0,1.053.555,1.322,1.322,0,0,0,1.292-.774V9.847a1.3,1.3,0,0,0-1.278-.774Q150.972,9.073,150.972,11.394Zm9.625,3.743a3.631,3.631,0,0,1-2.649-1,3.548,3.548,0,0,1-1.022-2.659v-.191a4.468,4.468,0,0,1,.431-1.993,3.161,3.161,0,0,1,1.22-1.354,3.425,3.425,0,0,1,1.8-.475,3.07,3.07,0,0,1,2.389.957,3.889,3.889,0,0,1,.872,2.714v.807h-4.71a1.835,1.835,0,0,0,.578,1.162,1.746,1.746,0,0,0,1.22.438,2.132,2.132,0,0,0,1.784-.827l.971,1.087a2.966,2.966,0,0,1-1.2.981A3.947,3.947,0,0,1,160.6,15.137Zm-.226-6.077a1.235,1.235,0,0,0-.954.4,2.062,2.062,0,0,0-.468,1.14H161.7V10.44a1.471,1.471,0,0,0-.355-1.02A1.274,1.274,0,0,0,160.372,9.06ZM56.691,35.37a4.436,4.436,0,0,1-.776,2.738,2.488,2.488,0,0,1-2.1,1.029,2.3,2.3,0,0,1-1.812-.779v3.486H50.033V31.6h1.832l.068.725a2.322,2.322,0,0,1,1.873-.861,2.5,2.5,0,0,1,2.126,1.012,4.556,4.556,0,0,1,.759,2.789Zm-1.976-.144a2.911,2.911,0,0,0-.366-1.593,1.191,1.191,0,0,0-1.063-.561,1.294,1.294,0,0,0-1.278.711v3.028a1.316,1.316,0,0,0,1.292.731Q54.715,37.544,54.715,35.227Zm7.355-1.771a5.367,5.367,0,0,0-.711-.055,1.447,1.447,0,0,0-1.47.759V39H57.915V31.6h1.866l.055.882a1.831,1.831,0,0,1,1.647-1.019,2.07,2.07,0,0,1,.615.089Zm.4,1.777a4.387,4.387,0,0,1,.424-1.962,3.1,3.1,0,0,1,1.22-1.333,3.56,3.56,0,0,1,1.849-.472,3.368,3.368,0,0,1,2.444.916,3.676,3.676,0,0,1,1.056,2.488l.014.506a3.866,3.866,0,0,1-.95,2.731,3.683,3.683,0,0,1-5.1,0,3.934,3.934,0,0,1-.954-2.789Zm1.976.14a2.765,2.765,0,0,0,.4,1.612,1.424,1.424,0,0,0,2.256.007,3.025,3.025,0,0,0,.4-1.763,2.737,2.737,0,0,0-.4-1.6,1.311,1.311,0,0,0-1.135-.568,1.29,1.29,0,0,0-1.121.565A3.076,3.076,0,0,0,64.443,35.374Zm5.961-.127a4.335,4.335,0,0,1,.81-2.741A2.625,2.625,0,0,1,73.4,31.467a2.3,2.3,0,0,1,1.894.834l.082-.7h1.791v7.15a3.161,3.161,0,0,1-.441,1.688,2.832,2.832,0,0,1-1.241,1.094,4.362,4.362,0,0,1-1.873.376,4.056,4.056,0,0,1-1.586-.325,2.815,2.815,0,0,1-1.169-.837l.875-1.2a2.314,2.314,0,0,0,1.791.827,1.694,1.694,0,0,0,1.224-.42,1.577,1.577,0,0,0,.438-1.193v-.4a2.285,2.285,0,0,1-1.8.772,2.618,2.618,0,0,1-2.157-1.042,4.334,4.334,0,0,1-.824-2.765Zm1.976.147a2.7,2.7,0,0,0,.4,1.578,1.283,1.283,0,0,0,1.107.572,1.372,1.372,0,0,0,1.292-.678V33.751a1.369,1.369,0,0,0-1.278-.678,1.291,1.291,0,0,0-1.118.582A3.042,3.042,0,0,0,72.379,35.394Zm10.459-1.938a5.367,5.367,0,0,0-.711-.055,1.447,1.447,0,0,0-1.47.759V39H78.682V31.6h1.866l.055.882a1.831,1.831,0,0,1,1.647-1.019,2.07,2.07,0,0,1,.615.089ZM87.87,39a2.194,2.194,0,0,1-.2-.663,2.39,2.39,0,0,1-1.866.8,2.626,2.626,0,0,1-1.8-.629,2.023,2.023,0,0,1-.714-1.586,2.09,2.09,0,0,1,.872-1.8,4.3,4.3,0,0,1,2.519-.636h.909v-.424a1.219,1.219,0,0,0-.263-.82,1.035,1.035,0,0,0-.831-.308,1.177,1.177,0,0,0-.783.239.813.813,0,0,0-.284.656H83.454a1.985,1.985,0,0,1,.4-1.189,2.621,2.621,0,0,1,1.121-.858,4.086,4.086,0,0,1,1.627-.311,3.228,3.228,0,0,1,2.17.687,2.4,2.4,0,0,1,.8,1.931v3.206a3.536,3.536,0,0,0,.294,1.593V39Zm-1.634-1.374a1.7,1.7,0,0,0,.807-.195,1.28,1.28,0,0,0,.547-.523V35.637h-.738q-1.483,0-1.579,1.025l-.007.116a.791.791,0,0,0,.26.608A1.009,1.009,0,0,0,86.236,37.626ZM92.942,31.6l.062.827a2.6,2.6,0,0,1,2.126-.964,1.973,1.973,0,0,1,1.962,1.128,2.54,2.54,0,0,1,2.222-1.128,2.206,2.206,0,0,1,1.791.7,3.221,3.221,0,0,1,.588,2.109V39H99.709V34.283a1.408,1.408,0,0,0-.246-.919,1.091,1.091,0,0,0-.868-.291,1.233,1.233,0,0,0-1.23.848L97.372,39H95.4V34.29a1.391,1.391,0,0,0-.253-.93,1.1,1.1,0,0,0-.861-.287,1.28,1.28,0,0,0-1.217.7V39H91.089V31.6ZM107.5,39a2.194,2.194,0,0,1-.2-.663,2.39,2.39,0,0,1-1.866.8,2.626,2.626,0,0,1-1.8-.629,2.023,2.023,0,0,1-.714-1.586,2.09,2.09,0,0,1,.872-1.8,4.3,4.3,0,0,1,2.519-.636h.909v-.424a1.219,1.219,0,0,0-.263-.82,1.035,1.035,0,0,0-.831-.308,1.177,1.177,0,0,0-.783.239.813.813,0,0,0-.284.656H103.08a1.985,1.985,0,0,1,.4-1.189,2.621,2.621,0,0,1,1.121-.858,4.086,4.086,0,0,1,1.627-.311,3.228,3.228,0,0,1,2.17.687,2.4,2.4,0,0,1,.8,1.931v3.206a3.536,3.536,0,0,0,.294,1.593V39Zm-1.634-1.374a1.7,1.7,0,0,0,.807-.195,1.28,1.28,0,0,0,.547-.523V35.637h-.738q-1.483,0-1.579,1.025l-.007.116a.791.791,0,0,0,.26.608A1.009,1.009,0,0,0,105.862,37.626Zm7.93-.082a1.3,1.3,0,0,0,.889-.3,1.054,1.054,0,0,0,.355-.8h1.853a2.534,2.534,0,0,1-.41,1.377,2.706,2.706,0,0,1-1.1.971,3.455,3.455,0,0,1-1.548.345,3.211,3.211,0,0,1-2.5-1.008,3.99,3.99,0,0,1-.916-2.786v-.13a3.944,3.944,0,0,1,.909-2.728,3.174,3.174,0,0,1,2.5-1.019,3.111,3.111,0,0,1,2.225.79,2.8,2.8,0,0,1,.851,2.1h-1.853a1.358,1.358,0,0,0-.355-.938,1.321,1.321,0,0,0-1.945.142,2.916,2.916,0,0,0-.352,1.633V35.4a2.953,2.953,0,0,0,.349,1.643A1.2,1.2,0,0,0,113.792,37.544ZM120.1,39h-1.982V31.6H120.1ZM118,29.689a.973.973,0,0,1,.3-.731,1.281,1.281,0,0,1,1.617,0,1.044,1.044,0,0,1,0,1.47,1.267,1.267,0,0,1-1.606,0A.97.97,0,0,1,118,29.689Zm3.418,5.544a4.387,4.387,0,0,1,.424-1.962,3.1,3.1,0,0,1,1.22-1.333,3.56,3.56,0,0,1,1.849-.472,3.368,3.368,0,0,1,2.444.916,3.676,3.676,0,0,1,1.056,2.488l.014.506a3.866,3.866,0,0,1-.95,2.731,3.683,3.683,0,0,1-5.1,0,3.934,3.934,0,0,1-.954-2.789Zm1.976.14a2.765,2.765,0,0,0,.4,1.612,1.424,1.424,0,0,0,2.256.007,3.025,3.025,0,0,0,.4-1.763,2.737,2.737,0,0,0-.4-1.6,1.311,1.311,0,0,0-1.135-.568,1.29,1.29,0,0,0-1.121.565A3.076,3.076,0,0,0,123.4,35.374ZM125.3,28.5h2.153l-1.894,2.119h-1.606Zm6.159,3.1.062.854a2.582,2.582,0,0,1,2.126-.991,2.146,2.146,0,0,1,1.75.69,3.221,3.221,0,0,1,.588,2.064V39h-1.976V34.27a1.282,1.282,0,0,0-.273-.913,1.224,1.224,0,0,0-.909-.284,1.359,1.359,0,0,0-1.251.711V39H129.6V31.6Z" transform="translate(190.246 28319.936)" fill="#fff"/>
    <path id="Trazado_830677" data-name="Trazado 830677" d="M9.564,5.047V11.6a3.356,3.356,0,0,1-1.022,2.584,3.94,3.94,0,0,1-2.792.95,3.984,3.984,0,0,1-2.769-.923,3.3,3.3,0,0,1-1.046-2.536V5.047H3.986v6.569a1.9,1.9,0,0,0,.468,1.425,1.8,1.8,0,0,0,1.3.448q1.729,0,1.757-1.818V5.047Zm5.558,7.909a.637.637,0,0,0-.359-.571,4.077,4.077,0,0,0-1.152-.373q-2.639-.554-2.639-2.242a2.032,2.032,0,0,1,.817-1.644,3.3,3.3,0,0,1,2.136-.66,3.547,3.547,0,0,1,2.252.663,2.09,2.09,0,0,1,.844,1.723H15.047a.956.956,0,0,0-.273-.7,1.157,1.157,0,0,0-.854-.277,1.182,1.182,0,0,0-.772.226.712.712,0,0,0-.273.574.609.609,0,0,0,.311.53,3.2,3.2,0,0,0,1.049.349,8.571,8.571,0,0,1,1.244.332,2.044,2.044,0,0,1,1.565,1.989,1.929,1.929,0,0,1-.868,1.637,3.745,3.745,0,0,1-2.242.625,3.912,3.912,0,0,1-1.651-.332A2.77,2.77,0,0,1,11.15,13.9a2.113,2.113,0,0,1-.41-1.248h1.873a1.031,1.031,0,0,0,.39.807,1.546,1.546,0,0,0,.971.28,1.43,1.43,0,0,0,.858-.215A.67.67,0,0,0,15.122,12.956ZM22.6,15a2.194,2.194,0,0,1-.2-.663,2.39,2.39,0,0,1-1.866.8,2.626,2.626,0,0,1-1.8-.629,2.023,2.023,0,0,1-.714-1.586,2.09,2.09,0,0,1,.872-1.8,4.3,4.3,0,0,1,2.519-.636h.909v-.424a1.219,1.219,0,0,0-.263-.82,1.035,1.035,0,0,0-.831-.308,1.177,1.177,0,0,0-.783.239.813.813,0,0,0-.284.656H18.185a1.984,1.984,0,0,1,.4-1.189A2.621,2.621,0,0,1,19.7,7.778a4.086,4.086,0,0,1,1.627-.311,3.228,3.228,0,0,1,2.17.687,2.4,2.4,0,0,1,.8,1.931v3.206a3.536,3.536,0,0,0,.294,1.593V15Zm-1.634-1.374a1.7,1.7,0,0,0,.807-.195,1.28,1.28,0,0,0,.547-.523V11.637h-.738q-1.483,0-1.579,1.025L20,12.778a.791.791,0,0,0,.26.608A1.009,1.009,0,0,0,20.967,13.626ZM27.673,7.6l.062.827a2.6,2.6,0,0,1,2.126-.964,1.973,1.973,0,0,1,1.962,1.128,2.54,2.54,0,0,1,2.222-1.128,2.206,2.206,0,0,1,1.791.7,3.221,3.221,0,0,1,.588,2.109V15H34.44V10.283a1.408,1.408,0,0,0-.246-.919,1.091,1.091,0,0,0-.868-.291,1.233,1.233,0,0,0-1.23.848L32.1,15H30.127V10.29a1.391,1.391,0,0,0-.253-.93,1.1,1.1,0,0,0-.861-.287,1.28,1.28,0,0,0-1.217.7V15H25.82V7.6Zm9.96,3.63a4.387,4.387,0,0,1,.424-1.962,3.1,3.1,0,0,1,1.22-1.333,3.56,3.56,0,0,1,1.849-.472,3.368,3.368,0,0,1,2.444.916,3.676,3.676,0,0,1,1.056,2.488l.014.506a3.866,3.866,0,0,1-.95,2.731,3.683,3.683,0,0,1-5.1,0,3.934,3.934,0,0,1-.954-2.789Zm1.976.14a2.765,2.765,0,0,0,.4,1.612,1.424,1.424,0,0,0,2.256.007,3.025,3.025,0,0,0,.4-1.763,2.737,2.737,0,0,0-.4-1.6,1.311,1.311,0,0,0-1.135-.568A1.29,1.29,0,0,0,40,9.624,3.076,3.076,0,0,0,39.608,11.374Zm10.254,1.582a.637.637,0,0,0-.359-.571,4.077,4.077,0,0,0-1.152-.373q-2.639-.554-2.639-2.242a2.032,2.032,0,0,1,.817-1.644,3.3,3.3,0,0,1,2.136-.66,3.547,3.547,0,0,1,2.252.663,2.09,2.09,0,0,1,.844,1.723H49.787a.956.956,0,0,0-.273-.7,1.157,1.157,0,0,0-.854-.277,1.182,1.182,0,0,0-.772.226.712.712,0,0,0-.273.574.609.609,0,0,0,.311.53,3.2,3.2,0,0,0,1.049.349,8.571,8.571,0,0,1,1.244.332,2.044,2.044,0,0,1,1.565,1.989,1.929,1.929,0,0,1-.868,1.637,3.745,3.745,0,0,1-2.242.625,3.912,3.912,0,0,1-1.651-.332,2.77,2.77,0,0,1-1.131-.909,2.113,2.113,0,0,1-.41-1.248h1.873a1.031,1.031,0,0,0,.39.807,1.546,1.546,0,0,0,.971.28,1.43,1.43,0,0,0,.858-.215A.67.67,0,0,0,49.862,12.956Zm10.083,2.181a3.631,3.631,0,0,1-2.649-1,3.548,3.548,0,0,1-1.022-2.659v-.191A4.468,4.468,0,0,1,56.705,9.3a3.161,3.161,0,0,1,1.22-1.354,3.425,3.425,0,0,1,1.8-.475,3.07,3.07,0,0,1,2.389.957,3.889,3.889,0,0,1,.872,2.714v.807h-4.71a1.835,1.835,0,0,0,.578,1.162,1.746,1.746,0,0,0,1.22.438,2.132,2.132,0,0,0,1.784-.827L62.83,13.8a2.966,2.966,0,0,1-1.2.981A3.947,3.947,0,0,1,59.945,15.137ZM59.72,9.06a1.234,1.234,0,0,0-.954.4A2.062,2.062,0,0,0,58.3,10.6h2.748V10.44a1.471,1.471,0,0,0-.355-1.02A1.274,1.274,0,0,0,59.72,9.06ZM66.193,15H64.211V4.5h1.982Zm7.2,0H71.409V4.5h1.982Zm5.031.137a3.631,3.631,0,0,1-2.649-1,3.548,3.548,0,0,1-1.022-2.659v-.191A4.468,4.468,0,0,1,75.183,9.3,3.161,3.161,0,0,1,76.4,7.942a3.425,3.425,0,0,1,1.8-.475,3.07,3.07,0,0,1,2.389.957,3.889,3.889,0,0,1,.872,2.714v.807h-4.71a1.835,1.835,0,0,0,.578,1.162,1.746,1.746,0,0,0,1.22.438,2.132,2.132,0,0,0,1.784-.827l.971,1.087a2.966,2.966,0,0,1-1.2.981A3.947,3.947,0,0,1,78.423,15.137ZM78.2,9.06a1.234,1.234,0,0,0-.954.4,2.062,2.062,0,0,0-.468,1.14h2.748V10.44a1.471,1.471,0,0,0-.355-1.02A1.274,1.274,0,0,0,78.2,9.06ZM84.4,7.6l.062.854a2.582,2.582,0,0,1,2.126-.991,2.146,2.146,0,0,1,1.75.69,3.221,3.221,0,0,1,.588,2.064V15H86.954V10.27a1.282,1.282,0,0,0-.273-.913,1.224,1.224,0,0,0-.909-.284,1.359,1.359,0,0,0-1.251.711V15H82.545V7.6Zm5.735,3.644a4.335,4.335,0,0,1,.81-2.741,2.625,2.625,0,0,1,2.184-1.039,2.3,2.3,0,0,1,1.894.834l.082-.7H96.9v7.15a3.161,3.161,0,0,1-.441,1.688,2.832,2.832,0,0,1-1.241,1.094,4.362,4.362,0,0,1-1.873.376,4.056,4.056,0,0,1-1.586-.325,2.815,2.815,0,0,1-1.169-.837l.875-1.2a2.314,2.314,0,0,0,1.791.827,1.694,1.694,0,0,0,1.224-.42,1.577,1.577,0,0,0,.438-1.193v-.4a2.285,2.285,0,0,1-1.8.772,2.618,2.618,0,0,1-2.157-1.042,4.334,4.334,0,0,1-.824-2.765Zm1.976.147a2.7,2.7,0,0,0,.4,1.578,1.283,1.283,0,0,0,1.107.572,1.372,1.372,0,0,0,1.292-.678V9.751a1.369,1.369,0,0,0-1.278-.678,1.291,1.291,0,0,0-1.118.582A3.042,3.042,0,0,0,92.115,11.394Zm10.732,2.854a2.477,2.477,0,0,1-2.023.889,2.337,2.337,0,0,1-1.815-.684,2.918,2.918,0,0,1-.639-2V7.6h1.976v4.784q0,1.157,1.053,1.157a1.426,1.426,0,0,0,1.381-.7V7.6h1.982V15H102.9Zm7.69.752a2.194,2.194,0,0,1-.2-.663,2.39,2.39,0,0,1-1.866.8,2.626,2.626,0,0,1-1.8-.629,2.023,2.023,0,0,1-.714-1.586,2.09,2.09,0,0,1,.872-1.8,4.3,4.3,0,0,1,2.519-.636h.909v-.424a1.219,1.219,0,0,0-.263-.82,1.035,1.035,0,0,0-.831-.308,1.177,1.177,0,0,0-.783.239.813.813,0,0,0-.284.656h-1.976a1.985,1.985,0,0,1,.4-1.189,2.621,2.621,0,0,1,1.121-.858,4.086,4.086,0,0,1,1.627-.311,3.228,3.228,0,0,1,2.17.687,2.4,2.4,0,0,1,.8,1.931v3.206a3.536,3.536,0,0,0,.294,1.593V15ZM108.9,13.626a1.7,1.7,0,0,0,.807-.195,1.28,1.28,0,0,0,.547-.523V11.637h-.738q-1.483,0-1.579,1.025l-.007.116a.791.791,0,0,0,.26.608A1.009,1.009,0,0,0,108.9,13.626ZM115.85,7.6v7.8a2.646,2.646,0,0,1-.649,1.9,2.468,2.468,0,0,1-1.873.68,4.017,4.017,0,0,1-.978-.116V16.306a3.708,3.708,0,0,0,.622.062q.9,0,.9-.95V7.6Zm-2.14-1.914a.973.973,0,0,1,.3-.731,1.286,1.286,0,0,1,1.62,0,.973.973,0,0,1,.3.731.97.97,0,0,1-.3.738,1.267,1.267,0,0,1-1.606,0A.97.97,0,0,1,113.71,5.689Zm7.089,9.447a3.631,3.631,0,0,1-2.649-1,3.548,3.548,0,0,1-1.022-2.659v-.191a4.468,4.468,0,0,1,.431-1.993,3.161,3.161,0,0,1,1.22-1.354,3.425,3.425,0,0,1,1.8-.475,3.07,3.07,0,0,1,2.389.957,3.889,3.889,0,0,1,.872,2.714v.807h-4.71a1.835,1.835,0,0,0,.578,1.162,1.746,1.746,0,0,0,1.22.438,2.132,2.132,0,0,0,1.784-.827l.971,1.087a2.966,2.966,0,0,1-1.2.981A3.947,3.947,0,0,1,120.8,15.137Zm-.226-6.077a1.234,1.234,0,0,0-.954.4,2.062,2.062,0,0,0-.468,1.14H121.9V10.44a1.471,1.471,0,0,0-.355-1.02A1.274,1.274,0,0,0,120.573,9.06Zm7.567,2.188a4.457,4.457,0,0,1,.776-2.755,2.517,2.517,0,0,1,2.123-1.025,2.265,2.265,0,0,1,1.784.807V4.5h1.982V15h-1.784l-.1-.786a2.325,2.325,0,0,1-1.9.923,2.511,2.511,0,0,1-2.1-1.029A4.6,4.6,0,0,1,128.141,11.247Zm1.976.147a2.92,2.92,0,0,0,.362,1.6,1.18,1.18,0,0,0,1.053.555,1.322,1.322,0,0,0,1.292-.774V9.847a1.3,1.3,0,0,0-1.278-.774Q130.116,9.073,130.116,11.394Zm9.625,3.743a3.631,3.631,0,0,1-2.649-1,3.548,3.548,0,0,1-1.022-2.659v-.191A4.468,4.468,0,0,1,136.5,9.3a3.161,3.161,0,0,1,1.22-1.354,3.425,3.425,0,0,1,1.8-.475,3.07,3.07,0,0,1,2.389.957,3.889,3.889,0,0,1,.872,2.714v.807h-4.71a1.835,1.835,0,0,0,.578,1.162,1.746,1.746,0,0,0,1.22.438,2.132,2.132,0,0,0,1.784-.827l.971,1.087a2.966,2.966,0,0,1-1.2.981A3.947,3.947,0,0,1,139.741,15.137Zm-.226-6.077a1.235,1.235,0,0,0-.954.4,2.062,2.062,0,0,0-.468,1.14h2.748V10.44a1.471,1.471,0,0,0-.355-1.02A1.274,1.274,0,0,0,139.516,9.06ZM145.989,15h-1.982V4.5h1.982ZM6.105,35.247a4.457,4.457,0,0,1,.776-2.755A2.517,2.517,0,0,1,9,31.467a2.265,2.265,0,0,1,1.784.807V28.5h1.982V39H10.986l-.1-.786a2.325,2.325,0,0,1-1.9.923,2.511,2.511,0,0,1-2.1-1.029A4.6,4.6,0,0,1,6.105,35.247Zm1.976.147a2.92,2.92,0,0,0,.362,1.6,1.18,1.18,0,0,0,1.053.555,1.322,1.322,0,0,0,1.292-.774V33.847a1.3,1.3,0,0,0-1.278-.774Q8.081,33.073,8.081,35.394Zm5.913-.161a4.387,4.387,0,0,1,.424-1.962,3.1,3.1,0,0,1,1.22-1.333,3.56,3.56,0,0,1,1.849-.472,3.368,3.368,0,0,1,2.444.916,3.676,3.676,0,0,1,1.056,2.488l.014.506a3.866,3.866,0,0,1-.95,2.731,3.3,3.3,0,0,1-2.55,1.029,3.319,3.319,0,0,1-2.553-1.025,3.934,3.934,0,0,1-.954-2.789Zm1.976.14a2.765,2.765,0,0,0,.4,1.612,1.424,1.424,0,0,0,2.256.007,3.025,3.025,0,0,0,.4-1.763,2.737,2.737,0,0,0-.4-1.6,1.311,1.311,0,0,0-1.135-.568,1.29,1.29,0,0,0-1.121.565A3.076,3.076,0,0,0,15.97,35.374Zm8.1-3.77.062.827a2.6,2.6,0,0,1,2.126-.964,1.973,1.973,0,0,1,1.962,1.128,2.54,2.54,0,0,1,2.222-1.128,2.206,2.206,0,0,1,1.791.7,3.221,3.221,0,0,1,.588,2.109V39H30.838V34.283a1.408,1.408,0,0,0-.246-.919,1.091,1.091,0,0,0-.868-.291,1.233,1.233,0,0,0-1.23.848L28.5,39H26.524V34.29a1.391,1.391,0,0,0-.253-.93,1.1,1.1,0,0,0-.861-.287,1.28,1.28,0,0,0-1.217.7V39H22.218V31.6ZM36.423,39H34.44V31.6h1.982Zm-2.1-9.311a.973.973,0,0,1,.3-.731,1.281,1.281,0,0,1,1.617,0,1.044,1.044,0,0,1,0,1.47,1.267,1.267,0,0,1-1.606,0A.97.97,0,0,1,34.324,29.689ZM39.868,31.6l.062.854a2.582,2.582,0,0,1,2.126-.991,2.146,2.146,0,0,1,1.75.69,3.221,3.221,0,0,1,.588,2.064V39H42.418V34.27a1.282,1.282,0,0,0-.273-.913,1.224,1.224,0,0,0-.909-.284,1.359,1.359,0,0,0-1.251.711V39H38.009V31.6ZM47.976,39H45.993V31.6h1.982Zm-2.1-9.311a.973.973,0,0,1,.3-.731,1.281,1.281,0,0,1,1.617,0,1.044,1.044,0,0,1,0,1.47,1.267,1.267,0,0,1-1.606,0A.97.97,0,0,1,45.877,29.689Zm3.418,5.544a4.387,4.387,0,0,1,.424-1.962,3.1,3.1,0,0,1,1.22-1.333,3.56,3.56,0,0,1,1.849-.472,3.368,3.368,0,0,1,2.444.916,3.676,3.676,0,0,1,1.056,2.488l.014.506a3.866,3.866,0,0,1-.95,2.731,3.683,3.683,0,0,1-5.1,0,3.934,3.934,0,0,1-.954-2.789Zm1.976.14a2.765,2.765,0,0,0,.4,1.612,1.424,1.424,0,0,0,2.256.007,3.025,3.025,0,0,0,.4-1.763,2.737,2.737,0,0,0-.4-1.6,1.311,1.311,0,0,0-1.135-.568,1.29,1.29,0,0,0-1.121.565A3.076,3.076,0,0,0,51.271,35.374Zm9.427-.127a4.457,4.457,0,0,1,.776-2.755A2.517,2.517,0,0,1,63.6,31.467a2.265,2.265,0,0,1,1.784.807V28.5h1.982V39H65.578l-.1-.786a2.325,2.325,0,0,1-1.9.923,2.511,2.511,0,0,1-2.1-1.029A4.6,4.6,0,0,1,60.7,35.247Zm1.976.147a2.92,2.92,0,0,0,.362,1.6,1.18,1.18,0,0,0,1.053.555,1.322,1.322,0,0,0,1.292-.774V33.847a1.3,1.3,0,0,0-1.278-.774Q62.673,33.073,62.673,35.394ZM72.3,39.137a3.631,3.631,0,0,1-2.649-1,3.548,3.548,0,0,1-1.022-2.659v-.191a4.468,4.468,0,0,1,.431-1.993,3.161,3.161,0,0,1,1.22-1.354,3.425,3.425,0,0,1,1.8-.475,3.07,3.07,0,0,1,2.389.957,3.889,3.889,0,0,1,.872,2.714v.807H70.63a1.835,1.835,0,0,0,.578,1.162,1.746,1.746,0,0,0,1.22.438,2.132,2.132,0,0,0,1.784-.827l.971,1.087a2.966,2.966,0,0,1-1.2.981A3.947,3.947,0,0,1,72.3,39.137Zm-.226-6.077a1.234,1.234,0,0,0-.954.4,2.062,2.062,0,0,0-.468,1.14H73.4V34.44a1.471,1.471,0,0,0-.355-1.02A1.274,1.274,0,0,0,72.072,33.06ZM78.546,39H76.563V28.5h1.982Zm11.771-3.63a4.436,4.436,0,0,1-.776,2.738,2.488,2.488,0,0,1-2.1,1.029,2.3,2.3,0,0,1-1.812-.779v3.486H83.659V31.6h1.832l.068.725a2.322,2.322,0,0,1,1.873-.861,2.5,2.5,0,0,1,2.126,1.012,4.556,4.556,0,0,1,.759,2.789Zm-1.976-.144a2.911,2.911,0,0,0-.366-1.593,1.191,1.191,0,0,0-1.063-.561,1.294,1.294,0,0,0-1.278.711v3.028a1.316,1.316,0,0,0,1.292.731Q88.342,37.544,88.342,35.227ZM95.7,33.456a5.367,5.367,0,0,0-.711-.055,1.447,1.447,0,0,0-1.47.759V39H91.541V31.6h1.866l.055.882a1.831,1.831,0,0,1,1.647-1.019,2.07,2.07,0,0,1,.615.089Zm.4,1.777a4.387,4.387,0,0,1,.424-1.962,3.1,3.1,0,0,1,1.22-1.333,3.56,3.56,0,0,1,1.849-.472,3.368,3.368,0,0,1,2.444.916,3.676,3.676,0,0,1,1.056,2.488l.014.506a3.866,3.866,0,0,1-.95,2.731,3.683,3.683,0,0,1-5.1,0,3.934,3.934,0,0,1-.954-2.789Zm1.976.14a2.765,2.765,0,0,0,.4,1.612,1.424,1.424,0,0,0,2.256.007,3.025,3.025,0,0,0,.4-1.763,2.737,2.737,0,0,0-.4-1.6,1.311,1.311,0,0,0-1.135-.568,1.29,1.29,0,0,0-1.121.565A3.076,3.076,0,0,0,98.069,35.374Zm12.913,0a4.479,4.479,0,0,1-.759,2.772,2.513,2.513,0,0,1-2.119.995,2.309,2.309,0,0,1-1.921-.923l-.089.786h-1.777V28.5h1.976v3.767a2.25,2.25,0,0,1,1.8-.8,2.534,2.534,0,0,1,2.123.995,4.485,4.485,0,0,1,.769,2.8Zm-1.976-.144a2.942,2.942,0,0,0-.355-1.637,1.2,1.2,0,0,0-1.06-.516,1.3,1.3,0,0,0-1.3.772v2.919a1.321,1.321,0,0,0,1.313.779,1.22,1.22,0,0,0,1.258-.943A4.866,4.866,0,0,0,109.007,35.227ZM114.284,39H112.3V28.5h1.982Zm5.031.137a3.631,3.631,0,0,1-2.649-1,3.548,3.548,0,0,1-1.022-2.659v-.191a4.468,4.468,0,0,1,.431-1.993,3.161,3.161,0,0,1,1.22-1.354,3.425,3.425,0,0,1,1.8-.475,3.07,3.07,0,0,1,2.389.957,3.889,3.889,0,0,1,.872,2.714v.807h-4.71a1.835,1.835,0,0,0,.578,1.162,1.746,1.746,0,0,0,1.22.438,2.132,2.132,0,0,0,1.784-.827L122.2,37.8a2.966,2.966,0,0,1-1.2.981A3.947,3.947,0,0,1,119.315,39.137Zm-.226-6.077a1.234,1.234,0,0,0-.954.4,2.062,2.062,0,0,0-.468,1.14h2.748V34.44a1.471,1.471,0,0,0-.355-1.02A1.274,1.274,0,0,0,119.09,33.06Zm6.241-1.456.062.827a2.6,2.6,0,0,1,2.126-.964,1.973,1.973,0,0,1,1.962,1.128,2.54,2.54,0,0,1,2.222-1.128,2.206,2.206,0,0,1,1.791.7,3.221,3.221,0,0,1,.588,2.109V39H132.1V34.283a1.408,1.408,0,0,0-.246-.919,1.091,1.091,0,0,0-.868-.291,1.233,1.233,0,0,0-1.23.848L129.761,39h-1.976V34.29a1.391,1.391,0,0,0-.253-.93,1.1,1.1,0,0,0-.861-.287,1.28,1.28,0,0,0-1.217.7V39h-1.976V31.6ZM139.885,39a2.194,2.194,0,0,1-.2-.663,2.39,2.39,0,0,1-1.866.8,2.626,2.626,0,0,1-1.8-.629,2.023,2.023,0,0,1-.714-1.586,2.09,2.09,0,0,1,.872-1.8,4.3,4.3,0,0,1,2.519-.636h.909v-.424a1.219,1.219,0,0,0-.263-.82,1.035,1.035,0,0,0-.831-.308,1.177,1.177,0,0,0-.783.239.813.813,0,0,0-.284.656h-1.976a1.984,1.984,0,0,1,.4-1.189,2.621,2.621,0,0,1,1.121-.858,4.086,4.086,0,0,1,1.627-.311,3.228,3.228,0,0,1,2.17.687,2.4,2.4,0,0,1,.8,1.931v3.206a3.536,3.536,0,0,0,.294,1.593V39Zm-1.634-1.374a1.7,1.7,0,0,0,.807-.195,1.28,1.28,0,0,0,.547-.523V35.637h-.738q-1.483,0-1.579,1.025l-.007.116a.791.791,0,0,0,.26.608A1.009,1.009,0,0,0,138.251,37.626Z" transform="translate(628 28317.436)" fill="#fff"/>
    <path id="Trazado_830678" data-name="Trazado 830678" d="M16.046,5.047V11.6a3.356,3.356,0,0,1-1.022,2.584,3.94,3.94,0,0,1-2.792.95,3.984,3.984,0,0,1-2.769-.923,3.3,3.3,0,0,1-1.046-2.536V5.047h2.051v6.569a1.9,1.9,0,0,0,.468,1.425,1.8,1.8,0,0,0,1.3.448q1.729,0,1.757-1.818V5.047Zm3.917.738V7.6h1.265V9.053H19.963v3.691a.881.881,0,0,0,.157.588.79.79,0,0,0,.6.178,3.15,3.15,0,0,0,.581-.048v1.5a4.067,4.067,0,0,1-1.2.178,1.886,1.886,0,0,1-2.119-2.1V9.053h-1.08V7.6h1.08V5.785ZM24.414,15H22.431V7.6h1.982Zm-2.1-9.311a.973.973,0,0,1,.3-.731,1.281,1.281,0,0,1,1.617,0,.967.967,0,0,1,.3.731.97.97,0,0,1-.3.738,1.267,1.267,0,0,1-1.606,0A.97.97,0,0,1,22.315,5.689ZM28.125,15H26.143V4.5h1.982Zm3.712,0H29.855V7.6h1.982Zm-2.1-9.311a.973.973,0,0,1,.3-.731,1.281,1.281,0,0,1,1.617,0,.967.967,0,0,1,.3.731.97.97,0,0,1-.3.738,1.267,1.267,0,0,1-1.606,0A.97.97,0,0,1,29.739,5.689Zm6,7.718H39.35V15H33.211V13.8l3.479-4.6H33.314V7.6h5.927V8.767ZM44.874,15a2.194,2.194,0,0,1-.2-.663,2.39,2.39,0,0,1-1.866.8,2.626,2.626,0,0,1-1.8-.629,2.023,2.023,0,0,1-.714-1.586,2.09,2.09,0,0,1,.872-1.8,4.3,4.3,0,0,1,2.519-.636h.909v-.424a1.219,1.219,0,0,0-.263-.82A1.035,1.035,0,0,0,43.5,8.93a1.177,1.177,0,0,0-.783.239.813.813,0,0,0-.284.656H40.458a1.984,1.984,0,0,1,.4-1.189,2.621,2.621,0,0,1,1.121-.858A4.086,4.086,0,0,1,43.6,7.467a3.228,3.228,0,0,1,2.17.687,2.4,2.4,0,0,1,.8,1.931v3.206a3.536,3.536,0,0,0,.294,1.593V15ZM43.24,13.626a1.7,1.7,0,0,0,.807-.195,1.28,1.28,0,0,0,.547-.523V11.637h-.738q-1.483,0-1.579,1.025l-.007.116a.791.791,0,0,0,.26.608A1.009,1.009,0,0,0,43.24,13.626Zm9.01-4.17a5.367,5.367,0,0,0-.711-.055,1.447,1.447,0,0,0-1.47.759V15H48.093V7.6h1.866l.055.882a1.831,1.831,0,0,1,1.647-1.019,2.07,2.07,0,0,1,.615.089ZM63.9,6.708H60.849V15H58.8V6.708H55.791V5.047H63.9ZM65.067,15V5.047h3.063a4.651,4.651,0,0,1,2.348.591A4.123,4.123,0,0,1,72.094,7.32,5.187,5.187,0,0,1,72.675,9.8v.458a5.2,5.2,0,0,1-.571,2.468,4.088,4.088,0,0,1-1.61,1.675,4.686,4.686,0,0,1-2.345.6Zm2.051-8.292v6.645h.991a2.227,2.227,0,0,0,1.839-.786,3.552,3.552,0,0,0,.649-2.249V9.791a3.609,3.609,0,0,0-.629-2.3,2.219,2.219,0,0,0-1.839-.783ZM74.166,15V5.047h3.063a4.651,4.651,0,0,1,2.348.591A4.123,4.123,0,0,1,81.193,7.32,5.187,5.187,0,0,1,81.774,9.8v.458a5.2,5.2,0,0,1-.571,2.468,4.088,4.088,0,0,1-1.61,1.675,4.686,4.686,0,0,1-2.345.6Zm2.051-8.292v6.645h.991a2.227,2.227,0,0,0,1.839-.786,3.552,3.552,0,0,0,.649-2.249V9.791a3.609,3.609,0,0,0-.629-2.3,2.219,2.219,0,0,0-1.839-.783Z" transform="translate(191 28244.43)" fill="#fff"/>
    <path id="Trazado_830679" data-name="Trazado 830679" d="M12.259,11.356H10.625V15H8.575V5.047h3.7a4.181,4.181,0,0,1,2.721.786,2.713,2.713,0,0,1,.957,2.222,3.062,3.062,0,0,1-.441,1.7,3.007,3.007,0,0,1-1.336,1.083L16.327,14.9V15h-2.2ZM10.625,9.7H12.28a1.694,1.694,0,0,0,1.2-.393A1.4,1.4,0,0,0,13.9,8.219a1.5,1.5,0,0,0-.4-1.107,1.662,1.662,0,0,0-1.227-.4H10.625Zm10.158,5.441a3.631,3.631,0,0,1-2.649-1,3.548,3.548,0,0,1-1.022-2.659v-.191A4.468,4.468,0,0,1,17.543,9.3a3.161,3.161,0,0,1,1.22-1.354,3.425,3.425,0,0,1,1.8-.475,3.07,3.07,0,0,1,2.389.957,3.889,3.889,0,0,1,.872,2.714v.807h-4.71a1.835,1.835,0,0,0,.578,1.162,1.746,1.746,0,0,0,1.22.438,2.132,2.132,0,0,0,1.784-.827l.971,1.087a2.966,2.966,0,0,1-1.2.981A3.947,3.947,0,0,1,20.784,15.137ZM20.558,9.06a1.234,1.234,0,0,0-.954.4,2.062,2.062,0,0,0-.468,1.14h2.748V10.44a1.471,1.471,0,0,0-.355-1.02A1.274,1.274,0,0,0,20.558,9.06ZM31.6,11.37a4.436,4.436,0,0,1-.776,2.738,2.488,2.488,0,0,1-2.1,1.029,2.3,2.3,0,0,1-1.812-.779v3.486H24.947V7.6h1.832l.068.725a2.322,2.322,0,0,1,1.873-.861,2.5,2.5,0,0,1,2.126,1.012,4.556,4.556,0,0,1,.759,2.789Zm-1.976-.144a2.911,2.911,0,0,0-.366-1.593A1.191,1.191,0,0,0,28.2,9.073a1.294,1.294,0,0,0-1.278.711v3.028a1.316,1.316,0,0,0,1.292.731Q29.629,13.544,29.629,11.227Zm6.6,3.91a3.631,3.631,0,0,1-2.649-1,3.548,3.548,0,0,1-1.022-2.659v-.191A4.468,4.468,0,0,1,32.993,9.3a3.161,3.161,0,0,1,1.22-1.354,3.425,3.425,0,0,1,1.8-.475,3.07,3.07,0,0,1,2.389.957,3.889,3.889,0,0,1,.872,2.714v.807h-4.71a1.835,1.835,0,0,0,.578,1.162,1.746,1.746,0,0,0,1.22.438,2.132,2.132,0,0,0,1.784-.827l.971,1.087a2.966,2.966,0,0,1-1.2.981A3.947,3.947,0,0,1,36.233,15.137ZM36.007,9.06a1.234,1.234,0,0,0-.954.4,2.062,2.062,0,0,0-.468,1.14h2.748V10.44a1.471,1.471,0,0,0-.355-1.02A1.274,1.274,0,0,0,36.007,9.06Zm6.754-3.274V7.6h1.265V9.053H42.761v3.691a.881.881,0,0,0,.157.588.79.79,0,0,0,.6.178,3.15,3.15,0,0,0,.581-.048v1.5a4.067,4.067,0,0,1-1.2.178,1.886,1.886,0,0,1-2.119-2.1V9.053h-1.08V7.6h1.08V5.785ZM47.211,15H45.229V7.6h1.982Zm-2.1-9.311a.973.973,0,0,1,.3-.731,1.281,1.281,0,0,1,1.617,0,.967.967,0,0,1,.3.731.97.97,0,0,1-.3.738,1.267,1.267,0,0,1-1.606,0A.97.97,0,0,1,45.113,5.689ZM50.691,7.6l.062.827a2.6,2.6,0,0,1,2.126-.964A1.973,1.973,0,0,1,54.84,8.595a2.54,2.54,0,0,1,2.222-1.128,2.206,2.206,0,0,1,1.791.7,3.221,3.221,0,0,1,.588,2.109V15H57.458V10.283a1.408,1.408,0,0,0-.246-.919,1.091,1.091,0,0,0-.868-.291,1.233,1.233,0,0,0-1.23.848L55.121,15H53.145V10.29a1.391,1.391,0,0,0-.253-.93,1.1,1.1,0,0,0-.861-.287,1.28,1.28,0,0,0-1.217.7V15H48.838V7.6Zm9.96,3.63a4.387,4.387,0,0,1,.424-1.962,3.1,3.1,0,0,1,1.22-1.333,3.56,3.56,0,0,1,1.849-.472,3.368,3.368,0,0,1,2.444.916,3.676,3.676,0,0,1,1.056,2.488l.014.506a3.866,3.866,0,0,1-.95,2.731,3.683,3.683,0,0,1-5.1,0,3.934,3.934,0,0,1-.954-2.789Zm1.976.14a2.765,2.765,0,0,0,.4,1.612,1.424,1.424,0,0,0,2.256.007,3.025,3.025,0,0,0,.4-1.763,2.737,2.737,0,0,0-.4-1.6,1.311,1.311,0,0,0-1.135-.568,1.29,1.29,0,0,0-1.121.565A3.076,3.076,0,0,0,62.626,11.374ZM72.88,12.956a.637.637,0,0,0-.359-.571,4.077,4.077,0,0,0-1.152-.373q-2.639-.554-2.639-2.242a2.032,2.032,0,0,1,.817-1.644,3.3,3.3,0,0,1,2.136-.66,3.547,3.547,0,0,1,2.252.663,2.09,2.09,0,0,1,.844,1.723H72.805a.956.956,0,0,0-.273-.7,1.157,1.157,0,0,0-.854-.277A1.182,1.182,0,0,0,70.9,9.1a.712.712,0,0,0-.273.574.609.609,0,0,0,.311.53,3.2,3.2,0,0,0,1.049.349,8.571,8.571,0,0,1,1.244.332A2.044,2.044,0,0,1,74.8,12.874a1.929,1.929,0,0,1-.868,1.637,3.745,3.745,0,0,1-2.242.625,3.912,3.912,0,0,1-1.651-.332,2.77,2.77,0,0,1-1.131-.909,2.113,2.113,0,0,1-.41-1.248h1.873a1.031,1.031,0,0,0,.39.807,1.546,1.546,0,0,0,.971.28,1.43,1.43,0,0,0,.858-.215A.67.67,0,0,0,72.88,12.956Z" transform="translate(302.943 27982.199)" fill="#fff"/>
    <path id="Trazado_830680" data-name="Trazado 830680" d="M21.83,10.687H17.893v2.666h4.621V15H15.842V5.047H22.5V6.708H17.893V9.08H21.83Zm5.763,2.27a.637.637,0,0,0-.359-.571,4.077,4.077,0,0,0-1.152-.373q-2.639-.554-2.639-2.242a2.032,2.032,0,0,1,.817-1.644,3.3,3.3,0,0,1,2.136-.66,3.547,3.547,0,0,1,2.252.663,2.09,2.09,0,0,1,.844,1.723H27.518a.956.956,0,0,0-.273-.7,1.157,1.157,0,0,0-.854-.277,1.182,1.182,0,0,0-.772.226.712.712,0,0,0-.273.574.609.609,0,0,0,.311.53,3.2,3.2,0,0,0,1.049.349,8.571,8.571,0,0,1,1.244.332,2.044,2.044,0,0,1,1.565,1.989,1.929,1.929,0,0,1-.868,1.637,3.745,3.745,0,0,1-2.242.625,3.912,3.912,0,0,1-1.651-.332,2.77,2.77,0,0,1-1.131-.909,2.113,2.113,0,0,1-.41-1.248h1.873a1.031,1.031,0,0,0,.39.807,1.546,1.546,0,0,0,.971.28,1.43,1.43,0,0,0,.858-.215A.67.67,0,0,0,27.593,12.956Zm9.851-1.586a4.436,4.436,0,0,1-.776,2.738,2.488,2.488,0,0,1-2.1,1.029,2.3,2.3,0,0,1-1.812-.779v3.486H30.785V7.6h1.832l.068.725a2.322,2.322,0,0,1,1.873-.861,2.5,2.5,0,0,1,2.126,1.012,4.556,4.556,0,0,1,.759,2.789Zm-1.976-.144A2.911,2.911,0,0,0,35.1,9.634a1.191,1.191,0,0,0-1.063-.561,1.294,1.294,0,0,0-1.278.711v3.028a1.316,1.316,0,0,0,1.292.731Q35.468,13.544,35.468,11.227Zm6.6,3.91a3.631,3.631,0,0,1-2.649-1A3.548,3.548,0,0,1,38.4,11.479v-.191A4.468,4.468,0,0,1,38.831,9.3a3.161,3.161,0,0,1,1.22-1.354,3.425,3.425,0,0,1,1.8-.475,3.07,3.07,0,0,1,2.389.957,3.889,3.889,0,0,1,.872,2.714v.807H40.4a1.835,1.835,0,0,0,.578,1.162,1.746,1.746,0,0,0,1.22.438,2.132,2.132,0,0,0,1.784-.827l.971,1.087a2.966,2.966,0,0,1-1.2.981A3.947,3.947,0,0,1,42.071,15.137ZM41.846,9.06a1.234,1.234,0,0,0-.954.4,2.062,2.062,0,0,0-.468,1.14h2.748V10.44a1.471,1.471,0,0,0-.355-1.02A1.274,1.274,0,0,0,41.846,9.06Zm7.465,4.484a1.3,1.3,0,0,0,.889-.3,1.054,1.054,0,0,0,.355-.8h1.853A2.534,2.534,0,0,1,52,13.821a2.706,2.706,0,0,1-1.1.971,3.455,3.455,0,0,1-1.548.345,3.211,3.211,0,0,1-2.5-1.008,3.99,3.99,0,0,1-.916-2.786v-.13a3.944,3.944,0,0,1,.909-2.728,3.174,3.174,0,0,1,2.5-1.019,3.111,3.111,0,0,1,2.225.79,2.8,2.8,0,0,1,.851,2.1H50.555A1.358,1.358,0,0,0,50.2,9.42a1.321,1.321,0,0,0-1.945.142A2.916,2.916,0,0,0,47.9,11.2V11.4a2.953,2.953,0,0,0,.349,1.643A1.2,1.2,0,0,0,49.311,13.544ZM55.62,15H53.638V7.6H55.62Zm-2.1-9.311a.973.973,0,0,1,.3-.731,1.281,1.281,0,0,1,1.617,0,.967.967,0,0,1,.3.731.97.97,0,0,1-.3.738,1.267,1.267,0,0,1-1.606,0A.97.97,0,0,1,53.521,5.689ZM57.726,15V9.053h-1.1V7.6h1.1V7.262a2.774,2.774,0,0,1,.858-2.15,3.452,3.452,0,0,1,2.382-.755,7.9,7.9,0,0,1,2.242.4l-.287,1.634a8.748,8.748,0,0,0-1.039-.256,5.105,5.105,0,0,0-.793-.058q-1.381,0-1.381,1.224v.3h1.456V9.053H59.708V15Zm6.405,0H62.148V7.6h1.982Zm4.71-1.456a1.3,1.3,0,0,0,.889-.3,1.054,1.054,0,0,0,.355-.8h1.853a2.534,2.534,0,0,1-.41,1.377,2.706,2.706,0,0,1-1.1.971,3.455,3.455,0,0,1-1.548.345,3.211,3.211,0,0,1-2.5-1.008,3.99,3.99,0,0,1-.916-2.786v-.13a3.944,3.944,0,0,1,.909-2.728,3.174,3.174,0,0,1,2.5-1.019,3.111,3.111,0,0,1,2.225.79,2.8,2.8,0,0,1,.851,2.1H70.085a1.358,1.358,0,0,0-.355-.938,1.321,1.321,0,0,0-1.945.142,2.916,2.916,0,0,0-.352,1.633V11.4a2.953,2.953,0,0,0,.349,1.643A1.2,1.2,0,0,0,68.841,13.544ZM77.352,15a2.194,2.194,0,0,1-.2-.663,2.39,2.39,0,0,1-1.866.8,2.626,2.626,0,0,1-1.8-.629,2.023,2.023,0,0,1-.714-1.586,2.09,2.09,0,0,1,.872-1.8,4.3,4.3,0,0,1,2.519-.636h.909v-.424a1.219,1.219,0,0,0-.263-.82,1.035,1.035,0,0,0-.831-.308,1.177,1.177,0,0,0-.783.239.813.813,0,0,0-.284.656H72.936a1.985,1.985,0,0,1,.4-1.189,2.621,2.621,0,0,1,1.121-.858,4.086,4.086,0,0,1,1.627-.311,3.228,3.228,0,0,1,2.17.687,2.4,2.4,0,0,1,.8,1.931v3.206a3.536,3.536,0,0,0,.294,1.593V15Zm-1.634-1.374a1.7,1.7,0,0,0,.807-.195,1.28,1.28,0,0,0,.547-.523V11.637h-.738q-1.483,0-1.579,1.025l-.007.116a.791.791,0,0,0,.26.608A1.009,1.009,0,0,0,75.718,13.626ZM82.424,7.6l.062.827a2.6,2.6,0,0,1,2.126-.964,1.973,1.973,0,0,1,1.962,1.128,2.54,2.54,0,0,1,2.222-1.128,2.206,2.206,0,0,1,1.791.7,3.221,3.221,0,0,1,.588,2.109V15H89.191V10.283a1.408,1.408,0,0,0-.246-.919,1.091,1.091,0,0,0-.868-.291,1.233,1.233,0,0,0-1.23.848L86.854,15H84.878V10.29a1.391,1.391,0,0,0-.253-.93,1.1,1.1,0,0,0-.861-.287,1.28,1.28,0,0,0-1.217.7V15H80.571V7.6Zm9.96,3.63a4.387,4.387,0,0,1,.424-1.962,3.1,3.1,0,0,1,1.22-1.333,3.56,3.56,0,0,1,1.849-.472,3.368,3.368,0,0,1,2.444.916,3.676,3.676,0,0,1,1.056,2.488l.014.506a3.866,3.866,0,0,1-.95,2.731,3.683,3.683,0,0,1-5.1,0,3.934,3.934,0,0,1-.954-2.789Zm1.976.14a2.765,2.765,0,0,0,.4,1.612,1.424,1.424,0,0,0,2.256.007,3.025,3.025,0,0,0,.4-1.763,2.737,2.737,0,0,0-.4-1.6,1.311,1.311,0,0,0-1.135-.568,1.29,1.29,0,0,0-1.121.565A3.076,3.076,0,0,0,94.359,11.374Zm10.254,1.582a.637.637,0,0,0-.359-.571,4.077,4.077,0,0,0-1.152-.373q-2.639-.554-2.639-2.242a2.032,2.032,0,0,1,.817-1.644,3.3,3.3,0,0,1,2.136-.66,3.547,3.547,0,0,1,2.252.663,2.09,2.09,0,0,1,.844,1.723h-1.976a.956.956,0,0,0-.273-.7,1.157,1.157,0,0,0-.854-.277,1.182,1.182,0,0,0-.772.226.712.712,0,0,0-.273.574.609.609,0,0,0,.311.53,3.2,3.2,0,0,0,1.049.349,8.571,8.571,0,0,1,1.244.332,2.044,2.044,0,0,1,1.565,1.989,1.929,1.929,0,0,1-.868,1.637,3.745,3.745,0,0,1-2.242.625,3.912,3.912,0,0,1-1.651-.332,2.77,2.77,0,0,1-1.131-.909,2.113,2.113,0,0,1-.41-1.248H102.1a1.031,1.031,0,0,0,.39.807,1.546,1.546,0,0,0,.971.28,1.43,1.43,0,0,0,.858-.215A.67.67,0,0,0,104.613,12.956Z" transform="translate(610.762 27982.189)" fill="#fff"/>
  </g>
</svg>
